<?xml version="1.0" encoding="UTF-8" standalone="no"?>
<!-- Created with Inkscape (http://www.inkscape.org/) -->

<svg
   version="1.1"
   id="svg1"
   width="226.25333"
   height="72.346664"
   viewBox="0 0 226.25333 72.346664"
   sodipodi:docname="PL_main.eps"
   xmlns:inkscape="http://www.inkscape.org/namespaces/inkscape"
   xmlns:sodipodi="http://sodipodi.sourceforge.net/DTD/sodipodi-0.dtd"
   xmlns="http://www.w3.org/2000/svg"
   xmlns:svg="http://www.w3.org/2000/svg">
  <defs
     id="defs1" />
  <sodipodi:namedview
     id="namedview1"
     pagecolor="#ffffff"
     bordercolor="#000000"
     borderopacity="0.25"
     inkscape:showpageshadow="2"
     inkscape:pageopacity="0.0"
     inkscape:pagecheckerboard="0"
     inkscape:deskcolor="#d1d1d1">
    <inkscape:page
       x="0"
       y="0"
       inkscape:label="1"
       id="page1"
       width="226.25333"
       height="72.346664"
       margin="0"
       bleed="0" />
  </sodipodi:namedview>
  <g
     id="g1"
     inkscape:groupmode="layer"
     inkscape:label="1">
    <g
       id="group-R5">
      <path
         id="path2"
         d="m 270.863,288.594 -10.511,-7.977 v -35.121 l 10.511,8.879 v 34.219"
         style="fill:#db1f26;fill-opacity:1;fill-rule:nonzero;stroke:none"
         transform="matrix(0.13333333,0,0,-0.13333333,0,72.346667)" />
      <path
         id="path3"
         d="m 286.762,280.07 -11.387,8.739 v -33.914 c 2.406,-2.063 6.754,-5.762 11.387,-9.7 v 34.875"
         style="fill:#db1f26;fill-opacity:1;fill-rule:nonzero;stroke:none"
         transform="matrix(0.13333333,0,0,-0.13333333,0,72.346667)" />
      <path
         id="path4"
         d="m 291.262,276.633 v -35.266 c 3.625,-3.086 7.101,-6.023 9.597,-8.164 v 36.055 l -9.597,7.375"
         style="fill:#db1f26;fill-opacity:1;fill-rule:nonzero;stroke:none"
         transform="matrix(0.13333333,0,0,-0.13333333,0,72.346667)" />
      <path
         id="path5"
         d="m 255.852,277.207 -10.168,-7.703 v -36.406 l 10.168,8.593 v 35.516"
         style="fill:#db1f26;fill-opacity:1;fill-rule:nonzero;stroke:none"
         transform="matrix(0.13333333,0,0,-0.13333333,0,72.346667)" />
      <path
         id="path6"
         d="m 273.363,248.789 -0.636,-0.535 -27.043,-22.774 -0.211,-28.859 h 55.386 v 28.859 l -27.437,23.262 -0.059,0.047"
         style="fill:#db1f26;fill-opacity:1;fill-rule:nonzero;stroke:none"
         transform="matrix(0.13333333,0,0,-0.13333333,0,72.346667)" />
      <path
         id="path7"
         d="m 413.5,187.844 c -8.055,-0.625 -16.273,-0.996 -24.23,-1.399 l -0.329,-0.019 c -19.332,-0.918 -39.316,-1.848 -58.203,-5.918 -20.582,-4.442 -36.515,-12.246 -50.89,-23.867 v 26.015 0.449 h -0.453 -11.586 -0.454 v -0.449 -25.957 c -17.3,13.36 -37.261,22.11 -63.003,26.699 -23.047,4.094 -46.602,4.473 -70.715,4.473 v 218.43 h 79.629 c 11.562,-0.383 17.14,-3.305 27.949,-11.867 v -34.571 -0.285 l 0.265,-0.125 c 12.668,-5.43 22.911,-9.754 32.208,-13.64 l 0.183,-0.071 0.176,0.071 c 10.285,4.472 20.715,9.05 31.172,13.64 l 0.273,0.125 v 0.285 34.367 c 10.321,7.977 17.219,11.368 24.613,12.079 L 413.5,406.301 Z M 249.73,398.301 c 8.008,-4.785 15.422,-9.141 22.657,-13.301 -3.367,-1.992 -18.457,-10.937 -22.657,-13.418 z m 37.016,10.148 c -3.914,-6.66 -13.324,-22.57 -13.324,-22.57 -4.199,6.855 -8.504,14.043 -13.484,22.57 z m -0.008,-46.926 h -26.793 c 4.727,8 9.133,15.411 13.477,22.61 3.851,-6.613 13.316,-22.61 13.316,-22.61 z M 274.309,385 c 0,0 16.554,9.738 22.488,13.301 v -26.719 c -7.074,4.172 -14.629,8.672 -22.488,13.418 z m 57.492,26.535 c -8.27,0 -17.821,-3.879 -26.309,-10.683 v 12.929 0.438 h -0.453 -63.379 -0.445 v -0.438 -12.226 c -8.942,8.222 -20.711,9.98 -29.11,9.98 h -83.16 -0.453 v -0.449 -0.215 C 128.34,335 128.34,257.883 128.34,183.281 v -0.144 l 0.098,-0.188 c 5.683,-8.711 11.585,-17.597 17.292,-26.179 l 1.653,-2.473 1.66,-2.481 0.082,-0.105 0.113,-0.168 0.192,-0.02 0.109,-0.007 c 3.527,-0.09 7.43,-0.129 11.961,-0.129 2.563,0 5.172,0 7.738,0.019 l 4.024,0.032 2.133,0.015 c 3.128,0.031 6.32,0.063 9.464,0.063 21.211,0 38.77,-1.172 55.551,-6.875 10.973,-4.219 17.735,-8.672 27.524,-14.328 l 0.136,-0.098 2.606,-1.492 0.672,-0.383 v 0.773 0.36 c -0.164,16.515 -0.164,33.273 -0.164,49.511 h 4.695 v -49.863 -0.73 l 0.648,0.332 0.313,0.144 c 1.285,0.696 2.492,1.348 3.629,1.985 0.883,0.468 18.617,10.632 25.511,12.636 24.375,7.489 41.657,8.114 60.153,8.114 3.215,0 6.457,-0.028 9.937,-0.059 l 3.309,-0.02 c 2.832,-0.019 5.762,-0.039 8.797,-0.039 1.902,0 3.851,0.012 5.867,0.032 h 0.098 0.234 l 0.137,0.195 1.172,1.531 c 7.847,10.274 15.254,19.961 22.832,29.629 l 0.031,0.039 0.016,0.051 0.05,0.098 0.032,0.156 v 227.871 0.449 h -0.461 -86.383"
         style="fill:#4f4c4c;fill-opacity:1;fill-rule:nonzero;stroke:none"
         transform="matrix(0.13333333,0,0,-0.13333333,0,72.346667)" />
      <path
         id="path8"
         d="m 245.684,225.48 27.043,22.774 0.636,0.535 0.059,-0.047 27.437,-23.262 v -28.859 h -55.386 z m 0,44.024 10.168,7.703 v -35.516 l -10.168,-8.593 z m 25.179,19.09 v -34.219 l -10.511,-8.879 v 35.121 z m 15.899,-8.524 v -34.875 c -4.633,3.938 -8.981,7.637 -11.387,9.7 v 33.914 z m -41.078,50.203 h 55.175 v -55.32 l -27.578,21.133 -27.597,-20.938 z m 55.175,-97.07 c -2.496,2.141 -5.972,5.078 -9.597,8.164 v 35.266 l 9.597,-7.375 z m -59.671,-42.558 h 64.171 V 334.777 H 241.188 V 190.645"
         style="fill:#4f4c4c;fill-opacity:1;fill-rule:nonzero;stroke:none"
         transform="matrix(0.13333333,0,0,-0.13333333,0,72.346667)" />
      <path
         id="path9"
         d="m 318.578,371.262 h 42.738 l -4.015,-9.219 h -38.723 z m 46.27,-3.145 1.379,3.145 h 10.961 v -78.547 c -3.614,-6.934 -7.735,-13.563 -12.34,-19.793 z m -4.5,-100.957 c -3.692,-4.504 -7.614,-8.789 -11.785,-12.754 -0.008,-0.011 -0.223,-0.195 -0.559,-0.508 v 76.258 c 4.629,10.266 9.043,20.09 12.344,27.617 z m 38.816,-43 v -10.254 h -80.586 l 0.016,9.961 c 1.679,1.231 6.711,4.973 12.367,9.453 h 0.195 v 0.168 c 1.699,1.367 3.438,2.762 5.172,4.207 6.547,5.45 11.86,10.246 14.121,12.336 17.153,-9.191 33.531,-17.883 48.715,-25.871 z m -80.559,40.723 c 2.215,5.058 5.004,11.289 8.051,18.078 v -47.285 c -3.144,-2.481 -5.996,-4.668 -8.062,-6.192 z m 12.551,28.086 c 2.297,5.058 4.645,10.265 6.985,15.429 l 1.211,2.688 c 1.355,2.977 2.75,6.043 4.144,9.129 v -70.399 c -2.629,-2.336 -6.098,-5.371 -10.043,-8.652 -0.762,-0.637 -1.527,-1.269 -2.297,-1.887 z m 50.528,78.293 h 11.203 c 2.148,-21.66 -1.153,-44.172 -9.563,-65.207 -0.508,-1.27 -1.094,-2.52 -1.64,-3.789 z m -67.606,-13.711 h 41.254 C 349.996,345.43 342.211,328.293 335.25,312.93 l -1.223,-2.696 c -7.324,-16.179 -14.91,-32.929 -19.746,-43.992 l -0.195,-0.422 -0.008,-56.425 h 89.594 v 16.125 l -0.133,1.425 -1.199,0.633 c -15.098,7.93 -31.379,16.582 -48.457,25.715 11.051,10.965 20.457,23.984 27.742,38.211 h 0.059 v 0.129 c 2.121,4.168 4.082,8.406 5.828,12.754 8.929,22.304 12.261,46.238 9.668,69.207 l -0.25,2.199 h -82.852 v -18.242"
         style="fill:#4f4c4c;fill-opacity:1;fill-rule:nonzero;stroke:none"
         transform="matrix(0.13333333,0,0,-0.13333333,0,72.346667)" />
      <path
         id="path10"
         d="m 196,343.391 c -2.902,6.464 -5.555,12.422 -7.684,17.312 l -4.605,10.559 h 42.742 l 0.094,-9.094 c -3.676,-0.078 -10.934,-0.574 -16.352,-2.938 -5.843,-2.57 -8.539,-5.851 -10.808,-9.003 -1.574,-2.188 -2.653,-4.622 -3.387,-6.836 z m 12.824,-105.813 c 1.649,-1.375 3.317,-2.723 4.942,-4.031 v -0.227 h 0.277 c 5.57,-4.422 10.57,-8.132 12.395,-9.492 v -9.922 h -80.583 v 7.961 c 8.723,1.602 18.497,5.028 26.551,9.285 8.668,4.602 15.137,14.161 19.547,21.907 4.176,-4.075 11.149,-10.715 16.871,-15.481 z m -7.394,82.844 c 1.422,-3.145 2.847,-6.289 4.246,-9.336 l 1.219,-2.688 c 2.293,-5.097 4.621,-10.222 6.871,-15.214 v -53.848 c -0.684,0.559 -1.368,1.133 -2.055,1.699 -3.266,2.707 -6.949,6.067 -10.281,9.192 z m 16.84,-37.238 c 3.097,-6.875 5.91,-13.172 8.156,-18.301 v -35.438 c -2.09,1.582 -4.985,3.778 -8.156,6.278 z m -33.684,-16.082 v 90.906 c 3.285,-7.512 7.687,-17.344 12.332,-27.637 v -75.867 c -1.016,0.984 -3.93,3.887 -3.93,3.887 -3.043,2.89 -5.808,5.769 -8.402,8.711 z m -4.512,101.218 v -95.742 c -4.629,5.996 -8.629,12.453 -12.324,19.895 v 78.789 h 11.043 l 1.289,-2.942 z M 163.23,302.305 c -0.511,1.23 -1.023,2.48 -1.527,3.75 -8.422,21.035 -11.715,43.547 -9.57,65.207 h 11.097 z m 48.782,52.785 c 6.449,2.84 16.656,2.598 16.754,2.586 l 2.339,-0.059 -0.183,18.176 h -82.82 l -0.254,-2.199 c -2.606,-22.969 0.738,-46.903 9.668,-69.207 8.289,-20.703 17.015,-34.27 30.738,-47.676 v -0.02 c 0.012,-0.011 0.152,-0.156 0.375,-0.363 -4.117,-7.402 -10.289,-16.922 -18.332,-21.199 -8.231,-4.367 -18.328,-7.774 -27.035,-9.141 l -1.91,-0.293 v -16.3 h 89.589 l -0.007,56.425 -0.192,0.422 c -4.844,11.063 -12.414,27.813 -19.75,43.992 l -1.222,2.696 c -3.5,7.746 -7.215,15.91 -10.715,23.683 0.215,1.7 1.09,6.973 3.992,10.985 2.055,2.863 4.148,5.382 8.965,7.492"
         style="fill:#4f4c4c;fill-opacity:1;fill-rule:nonzero;stroke:none"
         transform="matrix(0.13333333,0,0,-0.13333333,0,72.346667)" />
      <path
         id="path11"
         d="m 485.063,388.906 c 0.152,-0.41 0.679,-2.168 1.585,-5.293 l 8.543,-29.109 c 0.86,-3.027 2.852,-5.5 5.977,-7.414 2.012,-1.211 4.762,-2.293 8.234,-3.25 l 7.789,30.242 c 1.063,-3.066 2.622,-8.144 4.688,-15.234 1.715,-5.828 3.758,-9.5 6.125,-11.004 1.211,-0.813 2.445,-1.504 3.707,-2.082 1.258,-0.574 3.019,-1.219 5.293,-1.922 l 15.496,50.808 -12.699,-0.156 c 0.851,-1.015 1.484,-1.961 1.887,-2.851 0.406,-0.887 0.609,-1.914 0.609,-3.086 0,-0.664 -0.031,-1.153 -0.078,-1.485 -0.055,-0.332 -0.164,-0.925 -0.324,-1.785 l -7.418,-25.097 c -6.079,21.406 -9.118,32.214 -9.118,32.421 l 0.454,2.039 -15.954,-0.144 c 0.907,-0.664 1.704,-1.848 2.383,-3.566 0.68,-1.719 1.02,-3.536 1.02,-5.458 -0.047,-0.304 -0.629,-2.707 -1.739,-7.199 -0.605,-2.527 -1.613,-6.511 -3.023,-11.972 -0.555,-2.118 -1.082,-4.219 -1.59,-6.289 h -0.301 l -7.562,28.566 -1.586,6.062 h -16.406 v -0.3 c 1.715,-1.211 3.047,-3.028 4.008,-5.442"
         style="fill:#4f4c4c;fill-opacity:1;fill-rule:nonzero;stroke:none"
         transform="matrix(0.13333333,0,0,-0.13333333,0,72.346667)" />
      <path
         id="path12"
         d="m 557.996,389.043 11.442,-21.582 v -15.215 c 0,-1.465 -0.254,-2.851 -0.754,-4.168 -0.504,-1.308 -1.34,-2.297 -2.496,-2.949 v -0.305 h 20.636 v 0.305 c -1.457,1.309 -2.445,2.918 -2.945,4.832 -0.305,1.16 -0.457,2.754 -0.457,4.766 v 12.707 l 13.687,27.214 -13.687,-0.156 c 0.808,-0.449 1.375,-0.996 1.707,-1.629 0.324,-0.636 0.484,-1.386 0.484,-2.246 0,-0.566 -0.133,-1.281 -0.414,-2.14 -0.277,-0.86 -0.648,-1.883 -1.101,-3.047 l -4.371,-8.856 -8.77,18.074 -17.551,-0.144 c 1.008,-0.617 1.793,-1.25 2.371,-1.934 0.578,-0.683 1.317,-1.855 2.219,-3.527"
         style="fill:#4f4c4c;fill-opacity:1;fill-rule:nonzero;stroke:none"
         transform="matrix(0.13333333,0,0,-0.13333333,0,72.346667)" />
      <path
         id="path13"
         d="m 612.984,387.539 6.657,-0.223 -22.61,-42.492 h 40.75 l 4.16,11.946 c -2.875,-1.817 -5.41,-3.047 -7.601,-3.704 -2.192,-0.652 -4.672,-0.988 -7.445,-0.988 -0.551,0 -1.993,0.121 -4.305,0.344 -2.32,0.226 -4.235,0.344 -5.75,0.344 l 22.305,41.882 h -34.707 l -4.004,-10.808 c 1.964,1.18 4.019,2.098 6.164,2.734 2.136,0.645 4.269,0.965 6.386,0.965"
         style="fill:#4f4c4c;fill-opacity:1;fill-rule:nonzero;stroke:none"
         transform="matrix(0.13333333,0,0,-0.13333333,0,72.346667)" />
      <path
         id="path14"
         d="m 620.77,398.809 c 1.968,0 3.644,0.714 5.031,2.148 1.387,1.445 2.082,3.145 2.082,5.109 0,2.012 -0.711,3.731 -2.121,5.145 -1.41,1.406 -3.074,2.109 -4.992,2.109 -2.016,0 -3.727,-0.703 -5.141,-2.109 -1.41,-1.414 -2.113,-3.133 -2.113,-5.145 0,-2.011 0.703,-3.73 2.113,-5.136 1.414,-1.418 3.125,-2.121 5.141,-2.121"
         style="fill:#4f4c4c;fill-opacity:1;fill-rule:nonzero;stroke:none"
         transform="matrix(0.13333333,0,0,-0.13333333,0,72.346667)" />
      <path
         id="path15"
         d="m 665.426,352.805 c -1.438,-0.832 -3.258,-1.25 -5.465,-1.25 -2.664,0 -5.465,0.547 -8.402,1.64 -2.942,1.094 -5.442,2.539 -7.5,4.336 l 2.496,-10.91 c 1.961,-0.801 4.215,-1.465 6.765,-1.992 2.543,-0.527 5.153,-0.789 7.825,-0.789 5.339,0 9.8,1.062 13.382,3.172 4.336,2.566 6.778,6.437 7.332,11.621 v 1.66 c 0,2.969 -0.804,5.586 -2.41,7.852 -1.91,2.714 -5.301,5.285 -10.172,7.695 -1.66,0.656 -3.297,1.34 -4.902,2.043 -3.516,1.562 -5.273,3.347 -5.273,5.359 0.757,3.321 2.968,4.981 6.64,4.981 1.563,0 3.238,-0.293 5.02,-0.868 1.789,-0.578 3.664,-1.476 5.625,-2.687 v 8.926 c -2.617,0.957 -4.832,1.562 -6.645,1.808 -1.816,0.254 -3.758,0.379 -5.816,0.379 -5.391,0 -9.824,-1.179 -13.297,-3.543 -3.477,-2.367 -5.391,-5.664 -5.742,-9.894 0,-4.168 1.105,-7.598 3.316,-10.266 1.957,-2.359 5.176,-4.547 9.649,-6.558 3.566,-1.661 5.8,-2.825 6.703,-3.477 2.215,-1.555 3.316,-3.398 3.316,-5.508 -0.199,-1.664 -1.016,-2.914 -2.445,-3.73"
         style="fill:#4f4c4c;fill-opacity:1;fill-rule:nonzero;stroke:none"
         transform="matrix(0.13333333,0,0,-0.13333333,0,72.346667)" />
      <path
         id="path16"
         d="m 723.969,344.824 4.16,11.946 c -2.875,-1.817 -5.41,-3.047 -7.602,-3.704 -2.191,-0.652 -4.672,-0.988 -7.445,-0.988 -0.555,0 -1.992,0.121 -4.309,0.344 -2.32,0.226 -4.23,0.344 -5.746,0.344 l 22.305,41.882 h -34.707 l -4.004,-10.808 c 1.965,1.18 4.02,2.098 6.16,2.734 2.141,0.645 4.274,0.965 6.391,0.965 l 6.652,-0.223 -22.605,-42.492 h 40.75"
         style="fill:#4f4c4c;fill-opacity:1;fill-rule:nonzero;stroke:none"
         transform="matrix(0.13333333,0,0,-0.13333333,0,72.346667)" />
      <path
         id="path17"
         d="m 751.645,382.102 5.289,-15.129 -10.375,0.011 z m -7.715,-36.973 c -0.957,0.699 -1.664,1.375 -2.114,2 -0.453,0.637 -0.683,1.348 -0.683,2.16 0.051,0.555 0.191,1.231 0.414,2.039 0.23,0.801 0.445,1.535 0.644,2.188 l 2.196,6.355 h 15.043 l 2.343,-7.183 c 0.301,-0.754 0.477,-1.309 0.532,-1.661 0.05,-0.351 0.074,-0.89 0.074,-1.593 0,-1.707 -1.031,-3.145 -3.102,-4.305 v -0.305 h 22.911 v 0.305 c -1.614,1.465 -2.836,2.851 -3.668,4.16 -0.829,1.316 -1.672,3.231 -2.536,5.762 l -14.668,39.597 -18.445,-0.156 c 1.059,-0.711 1.793,-1.406 2.192,-2.09 0.406,-0.691 0.605,-1.464 0.605,-2.324 0,-0.711 -0.148,-1.59 -0.453,-2.637 -0.305,-1.035 -0.481,-1.66 -0.527,-1.863 l -10.211,-29.414 c -0.957,-2.871 -1.688,-4.836 -2.192,-5.898 -1.008,-2.11 -2.289,-3.828 -3.851,-5.137 v -0.305 h 15.496 v 0.305"
         style="fill:#4f4c4c;fill-opacity:1;fill-rule:nonzero;stroke:none"
         transform="matrix(0.13333333,0,0,-0.13333333,0,72.346667)" />
      <path
         id="path18"
         d="m 822.758,352.805 c -1.434,-0.832 -3.254,-1.25 -5.461,-1.25 -2.668,0 -5.465,0.547 -8.406,1.64 -2.938,1.094 -5.438,2.539 -7.5,4.336 l 2.496,-10.91 c 1.965,-0.801 4.218,-1.465 6.765,-1.992 2.547,-0.527 5.153,-0.789 7.825,-0.789 5.339,0 9.804,1.062 13.382,3.172 4.336,2.566 6.778,6.437 7.336,11.621 v 1.66 c 0,2.969 -0.804,5.586 -2.414,7.852 -1.91,2.714 -5.297,5.285 -10.172,7.695 -1.66,0.656 -3.293,1.34 -4.898,2.043 -3.52,1.562 -5.273,3.347 -5.273,5.359 0.753,3.321 2.964,4.981 6.636,4.981 1.567,0 3.239,-0.293 5.024,-0.868 1.785,-0.578 3.66,-1.476 5.625,-2.687 v 8.926 c -2.618,0.957 -4.836,1.562 -6.649,1.808 -1.816,0.254 -3.754,0.379 -5.812,0.379 -5.395,0 -9.824,-1.179 -13.297,-3.543 -3.477,-2.367 -5.391,-5.664 -5.742,-9.894 0,-4.168 1.101,-7.598 3.312,-10.266 1.961,-2.359 5.18,-4.547 9.653,-6.558 3.562,-1.661 5.796,-2.825 6.703,-3.477 2.211,-1.555 3.312,-3.398 3.312,-5.508 -0.199,-1.664 -1.015,-2.914 -2.445,-3.73"
         style="fill:#4f4c4c;fill-opacity:1;fill-rule:nonzero;stroke:none"
         transform="matrix(0.13333333,0,0,-0.13333333,0,72.346667)" />
      <path
         id="path19"
         d="m 881.309,344.824 4.16,11.946 c -2.875,-1.817 -5.41,-3.047 -7.602,-3.704 -2.191,-0.652 -4.676,-0.988 -7.445,-0.988 -0.555,0 -1.992,0.121 -4.309,0.344 -2.32,0.226 -4.234,0.344 -5.746,0.344 l 22.305,41.882 h -34.707 l -4.004,-10.808 c 1.961,1.18 4.019,2.098 6.16,2.734 2.141,0.645 4.274,0.965 6.387,0.965 l 6.656,-0.223 -22.605,-42.492 h 40.75"
         style="fill:#4f4c4c;fill-opacity:1;fill-rule:nonzero;stroke:none"
         transform="matrix(0.13333333,0,0,-0.13333333,0,72.346667)" />
      <path
         id="path20"
         d="m 908.828,345.129 c -1.16,0.605 -1.992,1.484 -2.496,2.644 -0.504,1.165 -0.758,2.551 -0.758,4.161 v 15.039 l 8.852,-15.196 c 1.762,-3.074 3.676,-5 5.742,-5.781 2.066,-0.781 6.125,-1.172 12.172,-1.172 h 4.687 v 0.305 c -1.308,1.004 -2.519,2.312 -3.629,3.934 -0.656,1.054 -1.308,2.109 -1.96,3.175 l -14.071,22.149 16.711,20.261 -18.598,-0.156 c 1.106,-0.554 1.879,-1.191 2.309,-1.902 0.426,-0.703 0.641,-1.496 0.641,-2.356 0,-1.074 -0.426,-2.238 -1.282,-3.504 -0.656,-0.871 -1.308,-1.71 -1.96,-2.519 l -9.598,-12.102 -0.016,15.559 c 0,1.211 0.254,2.488 0.758,3.828 0.504,1.348 1.336,2.391 2.496,3.152 l -20.414,-0.144 c 1.359,-0.918 2.27,-2.102 2.723,-3.566 0.304,-1.004 0.449,-2.625 0.449,-4.844 v -1.817 -32.332 c 0,-1.32 -0.223,-2.597 -0.68,-3.867 -0.453,-1.262 -1.281,-2.25 -2.492,-2.949 v -0.305 h 20.414 v 0.305"
         style="fill:#4f4c4c;fill-opacity:1;fill-rule:nonzero;stroke:none"
         transform="matrix(0.13333333,0,0,-0.13333333,0,72.346667)" />
      <path
         id="path21"
         d="m 950.707,371.848 c 0,4.629 1.25,8.515 3.746,11.66 2.496,3.144 5.629,4.715 9.41,4.715 4.735,0 8.321,-2.469 10.739,-7.395 1.863,-3.777 2.796,-8.328 2.796,-13.66 0,-4.676 -1.043,-8.398 -3.121,-11.16 -2.226,-2.969 -5.449,-4.453 -9.652,-4.453 -4.258,0 -7.707,2.09 -10.344,6.258 -2.383,3.781 -3.574,8.125 -3.574,13.058 z m 13.535,-28.008 c 9.496,0 16.789,2.996 21.867,8.984 4.071,4.785 6.11,10.449 6.11,16.992 v 0.301 c 0,7.5 -2.399,13.586 -7.184,18.274 -5.039,4.929 -11.871,7.39 -20.488,7.39 -8.32,0 -15.121,-2.363 -20.414,-7.097 -5.293,-4.731 -7.942,-10.664 -7.942,-17.813 0,-0.098 0,-0.273 0,-0.527 0,-0.254 0,-0.481 0,-0.684 0,-7.199 2.493,-13.234 7.465,-18.117 5.231,-5.137 12.09,-7.703 20.586,-7.703"
         style="fill:#4f4c4c;fill-opacity:1;fill-rule:nonzero;stroke:none"
         transform="matrix(0.13333333,0,0,-0.13333333,0,72.346667)" />
      <path
         id="path22"
         d="m 999.551,348.457 c -0.352,-1.367 -1.258,-2.578 -2.719,-3.633 h 33.038 l 2.8,10.508 c -1.92,-1.16 -3.28,-1.883 -4.09,-2.187 -1.91,-0.711 -4.28,-1.067 -7.1,-1.067 -1.27,0 -2.57,0.09 -3.94,0.266 -1.35,0.176 -2.52,0.519 -3.47,1.015 v 13.43 l 7.63,3.301 0.08,7.168 -7.71,-3.254 v 13.137 c 0,1.464 0.12,2.656 0.38,3.562 0.45,1.719 1.36,3.039 2.72,3.945 l -20.338,-0.144 c 0.957,-0.559 1.738,-1.406 2.344,-2.551 0.605,-1.133 0.904,-2.605 0.904,-4.433 v -19.403 l -3.248,-1.289 v -7.258 l 3.248,1.282 v -6.575 c 0,-2.519 -0.178,-4.461 -0.529,-5.82"
         style="fill:#4f4c4c;fill-opacity:1;fill-rule:nonzero;stroke:none"
         transform="matrix(0.13333333,0,0,-0.13333333,0,72.346667)" />
      <path
         id="path23"
         d="m 1057.85,382.102 5.28,-15.129 -10.37,0.011 z m -7.72,-36.973 c -0.96,0.699 -1.66,1.375 -2.11,2 -0.46,0.637 -0.69,1.348 -0.69,2.16 0.05,0.555 0.19,1.231 0.42,2.039 0.23,0.801 0.44,1.535 0.64,2.188 l 2.2,6.355 h 15.04 l 2.34,-7.183 c 0.31,-0.754 0.48,-1.309 0.54,-1.661 0.04,-0.351 0.07,-0.89 0.07,-1.593 0,-1.707 -1.03,-3.145 -3.1,-4.305 v -0.305 h 22.91 v 0.305 c -1.61,1.465 -2.84,2.851 -3.67,4.16 -0.83,1.316 -1.67,3.231 -2.53,5.762 l -14.67,39.597 -18.45,-0.156 c 1.06,-0.711 1.79,-1.406 2.19,-2.09 0.41,-0.691 0.61,-1.464 0.61,-2.324 0,-0.711 -0.15,-1.59 -0.45,-2.637 -0.31,-1.035 -0.48,-1.66 -0.53,-1.863 l -10.21,-29.414 c -0.96,-2.871 -1.69,-4.836 -2.19,-5.898 -1.01,-2.11 -2.29,-3.828 -3.86,-5.137 v -0.305 h 15.5 v 0.305"
         style="fill:#4f4c4c;fill-opacity:1;fill-rule:nonzero;stroke:none"
         transform="matrix(0.13333333,0,0,-0.13333333,0,72.346667)" />
      <path
         id="path24"
         d="m 499.391,305.441 c 0.328,1.192 1.195,2.364 2.605,3.524 l -20.183,-0.145 c 1.41,-1.117 2.281,-2.265 2.605,-3.449 0.328,-1.191 0.492,-3.348 0.492,-6.473 v -30.293 c 0,-2.726 -0.125,-4.57 -0.379,-5.527 -0.406,-1.562 -1.308,-2.875 -2.718,-3.937 l 20.183,0.148 c -1.258,0.965 -2.09,2.012 -2.492,3.145 -0.406,1.14 -0.609,3.093 -0.609,5.867 v 31.203 c 0,2.773 0.168,4.754 0.496,5.937"
         style="fill:#4f4c4c;fill-opacity:1;fill-rule:nonzero;stroke:none"
         transform="matrix(0.13333333,0,0,-0.13333333,0,72.346667)" />
      <path
         id="path25"
         d="m 517.727,290.137 17.386,-23.282 c 2.223,-2.929 5.317,-5.32 9.301,-7.187 3.024,-1.406 5.445,-2.117 7.262,-2.117 h 0.297 v 42.558 c 0,1.661 0.277,3.262 0.836,4.805 0.55,1.539 1.41,2.891 2.566,4.051 h -14.668 l 0.152,-0.145 c 1.465,-1.476 2.422,-3.164 2.875,-5.09 0.25,-1.054 0.375,-2.625 0.375,-4.695 V 278.34 l -23.132,30.625 h -15.801 v -0.301 c 1.812,-1.973 3,-3.652 3.554,-5.043 0.551,-1.383 0.833,-3.687 0.833,-6.922 v -28.398 c 0,-2.215 -0.293,-4.024 -0.872,-5.41 -0.582,-1.387 -1.425,-2.539 -2.535,-3.446 v -0.304 h 14.668 v 0.304 c -1.105,1.004 -1.953,2.207 -2.531,3.594 -0.582,1.387 -0.871,3.133 -0.871,5.254 v 21.844 h 0.305"
         style="fill:#4f4c4c;fill-opacity:1;fill-rule:nonzero;stroke:none"
         transform="matrix(0.13333333,0,0,-0.13333333,0,72.346667)" />
      <path
         id="path26"
         d="m 588.715,308.965 h -0.297 c -0.559,-0.215 -1.059,-0.32 -1.516,-0.352 -0.453,-0.019 -0.929,-0.027 -1.433,-0.027 l -26.539,-0.148 c 1.008,-0.762 1.777,-1.668 2.304,-2.723 0.528,-1.055 0.797,-2.551 0.797,-4.465 v -34.852 c 0,-1.562 -0.129,-2.777 -0.383,-3.625 -0.453,-1.621 -1.359,-2.82 -2.718,-3.632 v -0.301 h 20.488 v 0.301 c -1.512,1.308 -2.52,3.078 -3.023,5.293 -0.25,1.105 -0.379,2.695 -0.379,4.765 v 12.246 h 2.644 c 1.867,0 3.215,-0.254 4.043,-0.761 0.836,-0.496 1.379,-1.18 1.629,-2.039 h 0.379 v 10.742 h -0.379 c -0.352,-0.207 -0.727,-0.313 -1.133,-0.344 -0.406,-0.027 -0.886,-0.039 -1.437,-0.039 h -5.746 v 12.246 h 5.371 c 1.406,0 2.566,-0.129 3.476,-0.379 1.762,-0.469 3.047,-1.398 3.852,-2.793 v 10.887"
         style="fill:#4f4c4c;fill-opacity:1;fill-rule:nonzero;stroke:none"
         transform="matrix(0.13333333,0,0,-0.13333333,0,72.346667)" />
      <path
         id="path27"
         d="m 630.055,270.324 c -2.227,-2.969 -5.45,-4.453 -9.657,-4.453 -4.253,0 -7.703,2.09 -10.339,6.258 -2.383,3.781 -3.575,8.125 -3.575,13.059 v 0.976 c 0,4.629 1.25,8.516 3.746,11.66 2.497,3.145 5.629,4.715 9.411,4.715 4.734,0 8.32,-2.469 10.734,-7.391 1.867,-3.781 2.801,-8.332 2.801,-13.664 0,-4.675 -1.043,-8.398 -3.121,-11.16 z m -9.735,39.774 c -8.316,0 -15.121,-2.364 -20.414,-7.102 -5.293,-4.723 -7.937,-10.66 -7.937,-17.808 0,-0.098 0,-0.274 0,-0.528 0,-0.254 0,-0.48 0,-0.683 0,-7.2 2.488,-13.235 7.465,-18.118 5.23,-5.136 12.089,-7.703 20.586,-7.703 9.496,0 16.789,2.996 21.867,8.985 4.07,4.785 6.105,10.449 6.105,16.992 v 0.301 c 0,7.5 -2.394,13.586 -7.179,18.269 -5.043,4.934 -11.872,7.395 -20.493,7.395"
         style="fill:#4f4c4c;fill-opacity:1;fill-rule:nonzero;stroke:none"
         transform="matrix(0.13333333,0,0,-0.13333333,0,72.346667)" />
      <path
         id="path28"
         d="m 668.176,301.789 h 0.601 c 2.524,0 4.465,-0.812 5.825,-2.434 1.16,-1.414 1.738,-3.289 1.738,-5.625 0,-2.324 -0.754,-4.355 -2.27,-6.074 -1.511,-1.718 -3.472,-2.754 -5.894,-3.113 z m 8.996,-38.184 c 0.957,-1.867 2.004,-3.125 3.137,-3.781 1.136,-0.652 2.66,-0.984 4.574,-0.984 h 4.16 l 8.539,0.605 c -1.309,1.063 -2.617,2.461 -3.93,4.188 -0.504,0.656 -1.308,1.828 -2.418,3.496 l -9.754,16.504 c 3.481,1.719 5.946,3.898 7.411,6.523 0.957,1.719 1.437,3.547 1.437,5.461 0,4.246 -1.41,7.586 -4.234,10.008 -2.621,2.227 -6.074,3.34 -10.356,3.34 L 651.09,308.82 c 1.355,-0.918 2.215,-1.953 2.566,-3.105 0.352,-1.164 0.532,-2.832 0.532,-5 v -33.02 -1.289 c 0,-1.562 -0.204,-2.937 -0.602,-4.121 -0.406,-1.191 -1.238,-2.137 -2.496,-2.84 v -0.304 h 20.336 v 0.304 c -1.059,0.606 -1.863,1.465 -2.422,2.567 -0.551,1.113 -0.828,2.629 -0.828,4.543 v 13.984 l 8.996,-16.934"
         style="fill:#4f4c4c;fill-opacity:1;fill-rule:nonzero;stroke:none"
         transform="matrix(0.13333333,0,0,-0.13333333,0,72.346667)" />
      <path
         id="path29"
         d="m 759.125,268.762 -3.777,34.297 c 0,0.605 -0.055,1.062 -0.153,1.367 0.098,0.906 0.328,1.648 0.68,2.234 0.352,0.578 1.059,1.242 2.117,2.004 v 0.301 h -17.965 l -8.918,-29.266 -11.351,29.266 -17.336,-0.156 c 1.109,-1.016 1.863,-1.993 2.266,-2.938 0.406,-0.937 0.605,-1.992 0.605,-3.168 v -1.754 l -3.699,-32.355 c -0.254,-2.371 -0.582,-4.11 -0.989,-5.215 -0.55,-1.563 -1.46,-2.883 -2.718,-3.934 v -0.304 h 14.742 v 0.304 c -1.066,0.555 -1.875,1.297 -2.434,2.227 -0.554,0.937 -0.836,2.156 -0.836,3.672 l 2.52,26.004 h 0.305 l 8.312,-22.645 c 0.856,-2.473 1.887,-4.316 3.098,-5.527 1.761,-1.77 4.812,-3.438 9.144,-5 l 9.758,33.172 h 0.297 l 2.496,-24.344 0.149,-2.871 c 0,-0.754 -0.161,-1.504 -0.489,-2.227 -0.324,-0.734 -0.945,-1.554 -1.851,-2.461 v -0.304 h 19.886 v 0.304 c -1.164,1.114 -2.031,2.41 -2.609,3.895 -0.578,1.496 -0.996,3.301 -1.25,5.422"
         style="fill:#4f4c4c;fill-opacity:1;fill-rule:nonzero;stroke:none"
         transform="matrix(0.13333333,0,0,-0.13333333,0,72.346667)" />
      <path
         id="path30"
         d="m 788.461,296.418 5.289,-15.129 -10.375,0.012 z m -6.582,10.301 c 0.406,-0.692 0.605,-1.465 0.605,-2.324 0,-0.711 -0.148,-1.59 -0.453,-2.637 -0.301,-1.035 -0.476,-1.66 -0.527,-1.863 L 771.293,270.48 c -0.957,-2.871 -1.688,-4.835 -2.191,-5.902 -1.004,-2.105 -2.289,-3.824 -3.852,-5.133 v -0.304 h 15.496 v 0.304 c -0.957,0.703 -1.664,1.375 -2.113,2 -0.453,0.633 -0.684,1.348 -0.684,2.16 0.047,0.555 0.192,1.231 0.414,2.04 0.231,0.8 0.446,1.535 0.645,2.187 l 2.191,6.359 h 15.047 l 2.344,-7.187 c 0.301,-0.754 0.476,-1.309 0.531,-1.66 0.051,-0.352 0.074,-0.891 0.074,-1.594 0,-1.707 -1.031,-3.145 -3.101,-4.305 v -0.304 h 22.91 v 0.304 c -1.609,1.465 -2.836,2.852 -3.668,4.16 -0.828,1.317 -1.676,3.231 -2.531,5.762 l -14.668,39.598 -18.449,-0.156 c 1.058,-0.711 1.792,-1.407 2.191,-2.09"
         style="fill:#4f4c4c;fill-opacity:1;fill-rule:nonzero;stroke:none"
         transform="matrix(0.13333333,0,0,-0.13333333,0,72.346667)" />
      <path
         id="path31"
         d="m 886.52,269.043 v 12.703 l 13.683,27.219 -13.683,-0.156 c 0.804,-0.45 1.371,-0.996 1.703,-1.629 0.328,-0.637 0.488,-1.387 0.488,-2.246 0,-0.567 -0.137,-1.282 -0.414,-2.141 -0.277,-0.859 -0.652,-1.883 -1.106,-3.047 l -4.371,-8.855 -8.765,18.074 -17.508,-0.145 0.035,0.145 h -35.094 l -1.433,0.226 -3.02,-11.562 c 1.77,1.055 3.254,1.816 4.465,2.293 1.609,0.637 3.195,0.957 4.762,0.957 0.148,0 0.629,-0.027 1.437,-0.078 0.809,-0.047 1.535,-0.125 2.196,-0.223 v -31.777 -1.68 c 0,-1.828 -0.207,-3.379 -0.61,-4.668 -0.402,-1.301 -1.234,-2.297 -2.492,-3.008 v -0.304 h 20.488 v 0.304 c -1.211,1.004 -2.082,2.196 -2.609,3.563 -0.531,1.359 -0.793,3.281 -0.793,5.754 v 31.66 c 1.059,0.301 2.141,0.457 3.25,0.457 1.461,0 2.82,-0.254 4.082,-0.762 1.262,-0.496 2.168,-1.336 2.727,-2.488 l 2.605,11.16 c 0.98,-0.605 1.762,-1.23 2.328,-1.902 0.582,-0.684 1.32,-1.856 2.223,-3.528 l 11.441,-21.582 v -15.214 c 0,-1.465 -0.254,-2.852 -0.758,-4.168 -0.504,-1.309 -1.339,-2.297 -2.496,-2.95 v -0.304 h 20.641 v 0.304 c -1.461,1.309 -2.445,2.918 -2.949,4.832 -0.301,1.164 -0.453,2.754 -0.453,4.766"
         style="fill:#4f4c4c;fill-opacity:1;fill-rule:nonzero;stroke:none"
         transform="matrix(0.13333333,0,0,-0.13333333,0,72.346667)" />
      <path
         id="path32"
         d="m 927.875,266.094 c 1.766,-3.074 3.68,-5 5.742,-5.781 2.071,-0.782 6.129,-1.172 12.176,-1.172 h 4.687 v 0.304 c -1.308,1.004 -2.519,2.313 -3.628,3.934 -0.657,1.055 -1.309,2.109 -1.965,3.176 l -14.067,22.148 16.707,20.262 -18.597,-0.156 c 1.109,-0.555 1.883,-1.192 2.308,-1.903 0.426,-0.703 0.641,-1.496 0.641,-2.355 0,-1.074 -0.426,-2.235 -1.277,-3.504 -0.657,-0.871 -1.309,-1.711 -1.965,-2.52 l -9.594,-12.101 -0.016,15.558 c 0,1.211 0.254,2.489 0.758,3.829 0.504,1.347 1.332,2.39 2.496,3.152 l -20.418,-0.145 c 1.364,-0.918 2.274,-2.101 2.727,-3.566 0.305,-1.008 0.449,-2.625 0.449,-4.844 v -1.816 -32.332 c 0,-1.321 -0.226,-2.598 -0.68,-3.867 -0.453,-1.262 -1.285,-2.247 -2.496,-2.95 v -0.304 h 20.418 v 0.304 c -1.164,0.606 -1.992,1.485 -2.496,2.645 -0.504,1.164 -0.758,2.551 -0.758,4.16 v 15.039 l 8.848,-15.195"
         style="fill:#4f4c4c;fill-opacity:1;fill-rule:nonzero;stroke:none"
         transform="matrix(0.13333333,0,0,-0.13333333,0,72.346667)" />
      <path
         id="path33"
         d="m 969.723,305.441 c 0.328,1.192 1.195,2.364 2.605,3.524 l -20.183,-0.145 c 1.41,-1.117 2.281,-2.265 2.605,-3.449 0.328,-1.191 0.492,-3.348 0.492,-6.473 v -30.293 c 0,-2.726 -0.125,-4.57 -0.379,-5.527 -0.406,-1.562 -1.308,-2.875 -2.718,-3.937 l 20.183,0.148 c -1.258,0.965 -2.09,2.012 -2.492,3.145 -0.406,1.14 -0.606,3.093 -0.606,5.867 v 31.203 c 0,2.773 0.165,4.754 0.493,5.937"
         style="fill:#4f4c4c;fill-opacity:1;fill-rule:nonzero;stroke:none"
         transform="matrix(0.13333333,0,0,-0.13333333,0,72.346667)" />
      <path
         id="path34"
         d="m 1076.29,259.141 4.16,11.945 c -2.87,-1.816 -5.41,-3.047 -7.6,-3.703 -2.19,-0.653 -4.67,-0.985 -7.44,-0.985 -0.56,0 -2,0.118 -4.31,0.34 -2.32,0.227 -4.23,0.34 -5.75,0.34 l 22.31,41.887 h -34.71 l -4,-10.809 c 1.96,1.18 4.01,2.098 6.16,2.735 2.14,0.644 4.27,0.964 6.38,0.964 l 6.66,-0.222 -22.61,-42.492 h 40.75"
         style="fill:#4f4c4c;fill-opacity:1;fill-rule:nonzero;stroke:none"
         transform="matrix(0.13333333,0,0,-0.13333333,0,72.346667)" />
      <path
         id="path35"
         d="m 1103.96,296.418 5.29,-15.129 -10.37,0.012 z m -5.97,7.977 c 0,-0.711 -0.15,-1.59 -0.46,-2.637 -0.3,-1.035 -0.47,-1.66 -0.52,-1.863 L 1086.8,270.48 c -0.96,-2.871 -1.69,-4.835 -2.2,-5.902 -1,-2.105 -2.29,-3.824 -3.85,-5.133 v -0.304 h 15.5 v 0.304 c -0.96,0.703 -1.67,1.375 -2.11,2 -0.46,0.633 -0.69,1.348 -0.69,2.16 0.05,0.555 0.19,1.231 0.42,2.04 0.23,0.8 0.44,1.535 0.64,2.187 l 2.19,6.359 h 15.05 l 2.34,-7.187 c 0.3,-0.754 0.48,-1.309 0.53,-1.66 0.05,-0.352 0.08,-0.891 0.08,-1.594 0,-1.707 -1.03,-3.145 -3.1,-4.305 v -0.304 h 22.91 v 0.304 c -1.61,1.465 -2.84,2.852 -3.67,4.16 -0.83,1.317 -1.67,3.231 -2.53,5.762 l -14.67,39.598 -18.45,-0.156 c 1.06,-0.711 1.79,-1.407 2.19,-2.09 0.41,-0.692 0.61,-1.465 0.61,-2.324"
         style="fill:#4f4c4c;fill-opacity:1;fill-rule:nonzero;stroke:none"
         transform="matrix(0.13333333,0,0,-0.13333333,0,72.346667)" />
      <path
         id="path36"
         d="m 1155.38,301.789 h 0.6 c 2.52,0 4.46,-0.812 5.82,-2.434 1.16,-1.414 1.74,-3.289 1.74,-5.625 0,-2.324 -0.75,-4.355 -2.27,-6.074 -1.51,-1.718 -3.47,-2.754 -5.89,-3.113 z m 3.25,-42.344 c -1.06,0.606 -1.87,1.465 -2.42,2.567 -0.56,1.113 -0.83,2.629 -0.83,4.543 v 13.984 l 9,-16.934 c 0.95,-1.867 2,-3.125 3.13,-3.781 1.14,-0.652 2.66,-0.984 4.57,-0.984 h 4.17 l 8.38,0.594 -0.15,-0.293 h 40.75 l 4.16,11.945 c -2.88,-1.816 -5.41,-3.047 -7.6,-3.703 -2.2,-0.653 -4.68,-0.985 -7.45,-0.985 -0.55,0 -1.99,0.118 -4.31,0.34 -2.32,0.227 -4.23,0.34 -5.74,0.34 l 22.3,41.887 h -34.71 l -4,-10.809 c 1.96,1.18 4.02,2.098 6.16,2.735 2.14,0.644 4.28,0.964 6.39,0.964 l 6.65,-0.222 -22.39,-42.09 c -1.28,1.055 -2.55,2.402 -3.84,4.09 -0.5,0.656 -1.3,1.828 -2.41,3.496 l -9.76,16.504 c 3.48,1.719 5.95,3.898 7.41,6.523 0.96,1.719 1.44,3.547 1.44,5.461 0,4.246 -1.41,7.586 -4.23,10.008 -2.63,2.227 -6.08,3.34 -10.36,3.34 l -24.65,-0.145 c 1.36,-0.918 2.22,-1.953 2.57,-3.105 0.35,-1.164 0.53,-2.832 0.53,-5 v -33.02 -1.289 c 0,-1.562 -0.2,-2.937 -0.6,-4.121 -0.41,-1.191 -1.24,-2.137 -2.5,-2.84 v -0.304 h 20.34 v 0.304"
         style="fill:#4f4c4c;fill-opacity:1;fill-rule:nonzero;stroke:none"
         transform="matrix(0.13333333,0,0,-0.13333333,0,72.346667)" />
      <path
         id="path37"
         d="m 1316.75,271.25 c -2.15,-3.133 -5.21,-4.695 -9.19,-4.695 -0.75,0.097 -1.6,0.215 -2.53,0.34 -0.93,0.128 -1.63,0.234 -2.08,0.343 v 33.184 c 1.56,0.301 2.54,0.476 2.95,0.527 0.4,0.047 0.96,0.078 1.66,0.078 3.63,0 6.5,-1.211 8.62,-3.632 2.52,-2.883 3.78,-7.305 3.78,-13.262 0,-5.461 -1.07,-9.758 -3.21,-12.883 z m -8.21,37.715 -22.83,-0.145 c 1.36,-0.664 2.29,-1.847 2.8,-3.566 0.3,-1.008 0.45,-2.274 0.45,-3.789 v -0.606 -31.796 c 0,-2.93 -0.18,-5.04 -0.53,-6.329 -0.35,-1.289 -1.26,-2.382 -2.72,-3.289 v -0.304 h 22.68 c 8.92,0 15.7,2.726 20.34,8.175 3.88,4.551 5.82,10.352 5.82,17.422 0,7.266 -2.37,13.125 -7.1,17.567 -4.74,4.433 -11.04,6.66 -18.91,6.66"
         style="fill:#4f4c4c;fill-opacity:1;fill-rule:nonzero;stroke:none"
         transform="matrix(0.13333333,0,0,-0.13333333,0,72.346667)" />
      <path
         id="path38"
         d="m 1366.38,266.398 c -0.55,0 -1.99,0.118 -4.3,0.34 -2.32,0.227 -4.24,0.34 -5.75,0.34 l 22.3,41.887 h -34.7 l -4.01,-10.809 c 1.96,1.18 4.02,2.098 6.16,2.735 2.14,0.644 4.28,0.964 6.39,0.964 l 6.66,-0.222 -22.61,-42.492 h 40.75 l 4.16,11.945 c -2.88,-1.816 -5.41,-3.047 -7.6,-3.703 -2.19,-0.653 -4.67,-0.985 -7.45,-0.985"
         style="fill:#4f4c4c;fill-opacity:1;fill-rule:nonzero;stroke:none"
         transform="matrix(0.13333333,0,0,-0.13333333,0,72.346667)" />
      <path
         id="path39"
         d="m 1401.37,281.301 5.09,15.117 5.28,-15.129 z m 29.43,-11.934 -14.67,39.598 -18.45,-0.156 c 1.06,-0.711 1.79,-1.407 2.19,-2.09 0.41,-0.692 0.61,-1.465 0.61,-2.324 0,-0.711 -0.15,-1.59 -0.46,-2.637 -0.3,-1.035 -0.47,-1.66 -0.52,-1.863 l -10.21,-29.415 c -0.96,-2.871 -1.69,-4.835 -2.2,-5.902 -1,-2.105 -2.29,-3.824 -3.85,-5.133 v -0.304 h 15.5 v 0.304 c -0.96,0.703 -1.66,1.375 -2.11,2 -0.46,0.633 -0.69,1.348 -0.69,2.16 0.05,0.555 0.19,1.231 0.42,2.04 0.23,0.8 0.44,1.535 0.64,2.187 l 2.19,6.359 h 15.05 l 2.34,-7.187 c 0.3,-0.754 0.48,-1.309 0.53,-1.66 0.05,-0.352 0.08,-0.891 0.08,-1.594 0,-1.707 -1.03,-3.145 -3.1,-4.305 v -0.304 H 1437 v 0.304 c -1.61,1.465 -2.84,2.852 -3.67,4.16 -0.83,1.317 -1.67,3.231 -2.53,5.762"
         style="fill:#4f4c4c;fill-opacity:1;fill-rule:nonzero;stroke:none"
         transform="matrix(0.13333333,0,0,-0.13333333,0,72.346667)" />
      <path
         id="path40"
         d="m 1474.8,308.82 c 1.46,-1.476 2.42,-3.164 2.88,-5.09 0.24,-1.054 0.37,-2.625 0.37,-4.695 V 278.34 l -23.13,30.625 h -15.8 v -0.301 c 1.81,-1.973 2.99,-3.652 3.55,-5.043 0.55,-1.383 0.83,-3.687 0.83,-6.922 v -28.398 c 0,-2.215 -0.29,-4.024 -0.87,-5.41 -0.58,-1.387 -1.42,-2.539 -2.53,-3.446 v -0.304 h 14.67 v 0.304 c -1.11,1.004 -1.96,2.207 -2.54,3.594 -0.58,1.387 -0.87,3.133 -0.87,5.254 v 21.844 h 0.31 l 17.38,-23.282 c 2.22,-2.929 5.32,-5.32 9.3,-7.187 3.03,-1.406 5.45,-2.117 7.27,-2.117 h 0.29 v 42.558 c 0,1.661 0.28,3.262 0.84,4.805 0.55,1.539 1.41,2.891 2.57,4.051 h -14.67 l 0.15,-0.145"
         style="fill:#4f4c4c;fill-opacity:1;fill-rule:nonzero;stroke:none"
         transform="matrix(0.13333333,0,0,-0.13333333,0,72.346667)" />
      <path
         id="path41"
         d="m 1510.45,305.441 c 0.33,1.192 1.2,2.364 2.61,3.524 l -20.19,-0.145 c 1.41,-1.117 2.28,-2.265 2.61,-3.449 0.33,-1.191 0.49,-3.348 0.49,-6.473 v -30.293 c 0,-2.726 -0.13,-4.57 -0.38,-5.527 -0.4,-1.562 -1.31,-2.875 -2.72,-3.937 l 20.19,0.148 c -1.26,0.965 -2.09,2.012 -2.5,3.145 -0.4,1.14 -0.6,3.093 -0.6,5.867 v 31.203 c 0,2.773 0.16,4.754 0.49,5.937"
         style="fill:#4f4c4c;fill-opacity:1;fill-rule:nonzero;stroke:none"
         transform="matrix(0.13333333,0,0,-0.13333333,0,72.346667)" />
      <path
         id="path42"
         d="m 1533.75,281.301 5.09,15.117 5.29,-15.129 z m 31.97,-17.696 c -0.83,1.317 -1.68,3.231 -2.54,5.762 l -14.66,39.598 -18.45,-0.156 c 1.06,-0.711 1.79,-1.407 2.19,-2.09 0.41,-0.692 0.61,-1.465 0.61,-2.324 0,-0.711 -0.16,-1.59 -0.46,-2.637 -0.3,-1.035 -0.48,-1.66 -0.53,-1.863 l -10.21,-29.415 c -0.95,-2.871 -1.68,-4.835 -2.19,-5.902 -1,-2.105 -2.29,-3.824 -3.85,-5.133 v -0.304 h 15.5 v 0.304 c -0.96,0.703 -1.67,1.375 -2.12,2 -0.45,0.633 -0.68,1.348 -0.68,2.16 0.05,0.555 0.19,1.231 0.42,2.04 0.22,0.8 0.44,1.535 0.64,2.187 l 2.19,6.359 h 15.05 l 2.34,-7.187 c 0.3,-0.754 0.48,-1.309 0.53,-1.66 0.05,-0.352 0.08,-0.891 0.08,-1.594 0,-1.707 -1.04,-3.145 -3.11,-4.305 v -0.304 h 22.91 v 0.304 c -1.61,1.465 -2.83,2.852 -3.66,4.16"
         style="fill:#4f4c4c;fill-opacity:1;fill-rule:nonzero;stroke:none"
         transform="matrix(0.13333333,0,0,-0.13333333,0,72.346667)" />
      <path
         id="path43"
         d="m 506.008,183.32 c -0.106,0 -2.473,0.254 -7.113,0.762 -1.864,0.195 -3.676,0.305 -5.442,0.305 l 19.977,28.64 -0.016,0.313 H 486.5 l -3.555,-7.715 c 1.41,1.016 2.836,1.719 4.274,2.121 1.433,0.399 3.109,0.606 5.027,0.606 0.856,0 2.356,-0.079 4.496,-0.227 2.141,-0.156 3.692,-0.281 4.649,-0.379 l -20.942,-28.957 v -0.301 h 32.207 l 4.008,8.242 c -2.016,-1.261 -3.832,-2.152 -5.441,-2.648 -1.614,-0.508 -3.356,-0.762 -5.215,-0.762"
         style="fill:#4f4c4c;fill-opacity:1;fill-rule:nonzero;stroke:none"
         transform="matrix(0.13333333,0,0,-0.13333333,0,72.346667)" />
      <path
         id="path44"
         d="m 560.895,197.844 c -0.153,0.097 -3.356,1.258 -9.606,3.476 -3.125,1.114 -4.785,2.442 -4.988,4.004 0,1.317 0.609,2.285 1.82,2.91 1.211,0.633 2.879,0.946 5.004,0.946 3.637,0 6.848,-0.782 9.629,-2.344 v 6.504 c -1.215,0.351 -2.41,0.598 -3.598,0.723 -1.187,0.117 -2.715,0.183 -4.586,0.183 -4.187,0 -7.597,-0.68 -10.222,-2.039 -3.336,-1.719 -5,-4.383 -5,-8.016 0,-2.363 0.855,-4.336 2.578,-5.898 1.215,-1.105 3.164,-2.188 5.844,-3.242 6.171,-2.324 9.48,-3.664 9.941,-4.016 1.519,-1.055 2.273,-2.39 2.273,-4.004 -0.148,-1.511 -1.007,-2.644 -2.578,-3.41 -1.566,-0.75 -3.593,-1.129 -6.066,-1.129 -2.332,0 -4.758,0.379 -7.281,1.129 -2.532,0.766 -4.735,1.801 -6.602,3.109 l 2.492,-7.335 c 3.024,-1.211 6.379,-1.817 10.055,-1.817 4.234,0 7.941,0.91 11.113,2.727 3.785,2.168 5.676,5.215 5.676,9.148 0,1.856 -0.543,3.516 -1.625,4.953 -1.086,1.434 -2.512,2.578 -4.273,3.438"
         style="fill:#4f4c4c;fill-opacity:1;fill-rule:nonzero;stroke:none"
         transform="matrix(0.13333333,0,0,-0.13333333,0,72.346667)" />
      <path
         id="path45"
         d="m 580.969,181.281 c -0.281,1.016 -0.422,2.645 -0.422,4.922 v 28.348 h -0.305 c -0.851,-0.906 -2.668,-1.356 -5.437,-1.356 -0.707,0 -1.375,0 -2.008,0 -0.629,0 -1.297,0 -2,0 v -0.304 c 1.258,-0.653 2.09,-1.582 2.496,-2.782 0.199,-0.605 0.301,-1.691 0.301,-3.242 V 184.66 c 0,-1.308 -0.176,-2.461 -0.531,-3.457 -0.352,-1.008 -1.11,-1.808 -2.266,-2.414 v -0.301 h 12.547 l 0.152,0.301 c -1.41,0.656 -2.258,1.484 -2.527,2.492"
         style="fill:#4f4c4c;fill-opacity:1;fill-rule:nonzero;stroke:none"
         transform="matrix(0.13333333,0,0,-0.13333333,0,72.346667)" />
      <path
         id="path46"
         d="m 576.695,217.883 c 1.356,0 2.493,0.445 3.403,1.355 0.902,0.91 1.355,2.043 1.355,3.399 0,1.261 -0.461,2.363 -1.394,3.293 -0.934,0.937 -2.055,1.394 -3.364,1.394 -1.312,0 -2.422,-0.476 -3.332,-1.433 -0.902,-0.957 -1.355,-2.043 -1.355,-3.254 0,-1.356 0.453,-2.489 1.355,-3.399 0.91,-0.91 2.02,-1.355 3.332,-1.355"
         style="fill:#4f4c4c;fill-opacity:1;fill-rule:nonzero;stroke:none"
         transform="matrix(0.13333333,0,0,-0.13333333,0,72.346667)" />
      <path
         id="path47"
         d="m 596.801,201.543 c 0.351,2.422 1.492,4.328 3.402,5.715 1.914,1.387 4.133,2.078 6.656,2.078 2.465,0 4.61,-0.672 6.426,-2 1.813,-1.34 2.848,-3.273 3.102,-5.793 z m 22.57,8.137 c -3.25,3.144 -7.246,4.715 -11.984,4.715 -6.098,0 -10.91,-1.934 -14.438,-5.821 -3.078,-3.379 -4.613,-7.508 -4.613,-12.39 0,-5.899 2.269,-10.586 6.805,-14.063 4.082,-3.125 9.074,-4.687 14.972,-4.687 1.762,0 3.516,0.156 5.254,0.488 1.738,0.332 3.461,0.82 5.176,1.473 l 3.555,7.031 c -1.762,-1.309 -3.754,-2.293 -5.973,-2.949 -2.223,-0.653 -4.359,-0.985 -6.426,-0.985 h -1.89 c -4.536,0.41 -8.016,2.215 -10.434,5.43 -1.918,2.598 -2.875,5.652 -2.875,9.168 h 27.746 c 0,5.234 -1.625,9.433 -4.875,12.59"
         style="fill:#4f4c4c;fill-opacity:1;fill-rule:nonzero;stroke:none"
         transform="matrix(0.13333333,0,0,-0.13333333,0,72.346667)" />
      <path
         id="path48"
         d="m 664.473,181.094 c -0.407,0.879 -0.606,1.933 -0.606,3.136 0,0.508 0,1.161 0,1.973 l -0.144,43.399 c -0.34,-0.559 -0.809,-0.93 -1.414,-1.106 -0.606,-0.176 -1.27,-0.262 -1.996,-0.262 l -6.043,-0.148 c 1.406,-0.906 2.289,-1.844 2.64,-2.801 0.203,-0.5 0.301,-1.484 0.301,-2.949 v -12.395 c -1.762,1.457 -3.59,2.539 -5.477,3.254 -1.89,0.703 -3.796,1.051 -5.711,1.051 -5.793,0 -10.457,-2.066 -13.988,-6.199 -3.019,-3.524 -4.535,-7.481 -4.535,-11.863 0,-6.614 2.242,-11.543 6.73,-14.825 3.426,-2.519 7.586,-3.781 12.473,-3.781 0.957,0 1.613,0.012 1.969,0.039 0.351,0.031 0.98,0.117 1.891,0.266 l 4.609,6.805 c -2.02,-1.465 -4.281,-2.196 -6.805,-2.196 -3.527,0 -6.551,1.211 -9.07,3.629 -2.727,2.621 -4.082,5.981 -4.082,10.063 0,4.129 1.18,7.402 3.551,9.824 2.168,2.215 4.765,3.328 7.789,3.328 3.019,0 5.492,-0.887 7.41,-2.645 2.164,-1.972 3.246,-4.765 3.246,-8.398 v -19.805 h 9.758 v 0.301 c -1.262,0.656 -2.098,1.426 -2.496,2.305"
         style="fill:#4f4c4c;fill-opacity:1;fill-rule:nonzero;stroke:none"
         transform="matrix(0.13333333,0,0,-0.13333333,0,72.346667)" />
      <path
         id="path49"
         d="m 695.02,183.32 c -0.102,0 -2.469,0.254 -7.11,0.762 -1.863,0.195 -3.676,0.305 -5.445,0.305 l 19.976,28.64 -0.015,0.313 h -26.914 l -3.555,-7.715 c 1.41,1.016 2.84,1.719 4.273,2.121 1.438,0.399 3.11,0.606 5.032,0.606 0.851,0 2.351,-0.079 4.496,-0.227 2.137,-0.156 3.691,-0.281 4.648,-0.379 l -20.941,-28.957 v -0.301 h 32.207 l 4.008,8.242 c -2.02,-1.261 -3.832,-2.152 -5.446,-2.648 -1.613,-0.508 -3.355,-0.762 -5.214,-0.762"
         style="fill:#4f4c4c;fill-opacity:1;fill-rule:nonzero;stroke:none"
         transform="matrix(0.13333333,0,0,-0.13333333,0,72.346667)" />
      <path
         id="path50"
         d="m 717.133,181.281 c -0.278,1.016 -0.418,2.645 -0.418,4.922 v 28.348 h -0.305 c -0.851,-0.906 -2.672,-1.356 -5.437,-1.356 -0.707,0 -1.379,0 -2.008,0 -0.629,0 -1.297,0 -2,0 v -0.304 c 1.258,-0.653 2.09,-1.582 2.492,-2.782 0.199,-0.605 0.305,-1.691 0.305,-3.242 V 184.66 c 0,-1.308 -0.176,-2.461 -0.532,-3.457 -0.351,-1.008 -1.109,-1.808 -2.265,-2.414 v -0.301 h 12.547 l 0.152,0.301 c -1.41,0.656 -2.258,1.484 -2.531,2.492"
         style="fill:#4f4c4c;fill-opacity:1;fill-rule:nonzero;stroke:none"
         transform="matrix(0.13333333,0,0,-0.13333333,0,72.346667)" />
      <path
         id="path51"
         d="m 712.859,217.883 c 1.36,0 2.496,0.445 3.407,1.355 0.902,0.91 1.355,2.043 1.355,3.399 0,1.261 -0.465,2.363 -1.394,3.293 -0.934,0.937 -2.055,1.394 -3.368,1.394 -1.312,0 -2.421,-0.476 -3.328,-1.433 -0.902,-0.957 -1.355,-2.043 -1.355,-3.254 0,-1.356 0.453,-2.489 1.355,-3.399 0.907,-0.91 2.016,-1.355 3.328,-1.355"
         style="fill:#4f4c4c;fill-opacity:1;fill-rule:nonzero;stroke:none"
         transform="matrix(0.13333333,0,0,-0.13333333,0,72.346667)" />
      <path
         id="path52"
         d="m 745.977,214.246 c -0.809,0 -1.715,-0.074 -2.723,-0.223 -1.008,-0.156 -1.941,-0.332 -2.801,-0.527 l -3.93,-6.504 c 0.707,0.5 1.625,0.891 2.758,1.172 1.141,0.274 2.336,0.41 3.594,0.41 3.023,0 5.543,-0.847 7.559,-2.566 2.421,-2.07 3.629,-5.137 3.629,-9.219 0,-4.894 -1.333,-8.574 -4.004,-11.047 -2.27,-2.058 -5.317,-3.094 -9.153,-3.094 -0.754,0 -1.558,0.079 -2.414,0.223 -0.859,0.156 -2.121,0.449 -3.785,0.91 l -0.152,45.821 c -0.602,-0.911 -1.836,-1.368 -3.7,-1.368 l -5.75,-0.148 c 1.161,-0.715 1.915,-1.504 2.266,-2.383 0.359,-0.879 0.535,-2.156 0.535,-3.816 v -37.657 -0.609 c 0,-0.894 -0.152,-1.793 -0.457,-2.672 -0.301,-0.89 -0.883,-1.554 -1.734,-2.011 2.062,-0.305 4.152,-0.625 6.273,-0.977 2.621,-0.352 5.164,-0.527 7.637,-0.527 6.754,0 12.133,1.668 16.141,5.019 4.004,3.36 6.011,7.75 6.011,13.192 0,5.449 -1.449,9.914 -4.351,13.39 -2.895,3.477 -6.711,5.211 -11.449,5.211"
         style="fill:#4f4c4c;fill-opacity:1;fill-rule:nonzero;stroke:none"
         transform="matrix(0.13333333,0,0,-0.13333333,0,72.346667)" />
      <path
         id="path53"
         d="m 794.742,168.887 c -0.558,0.566 -0.832,1.047 -0.832,1.457 0,1.57 0.176,2.832 0.528,3.769 0.351,0.938 1.21,2.098 2.57,3.465 l 3.402,4.914 c -2.476,0 -4.18,0.535 -5.105,1.602 -0.93,1.062 -1.395,2.832 -1.395,5.312 v 13.223 c 0,4.051 -1.453,7.059 -4.359,9.043 -2.504,1.719 -5.836,2.574 -9.996,2.574 -0.602,0 -1.496,-0.074 -2.703,-0.223 -1.204,-0.156 -1.981,-0.222 -2.332,-0.222 l -4.954,-7.571 c 1.704,0.86 3.211,1.516 4.516,1.973 2.008,0.656 3.887,0.977 5.645,0.977 1.703,0 3.238,-0.321 4.593,-0.977 1.754,-0.859 2.633,-2.039 2.633,-3.555 0,-0.652 -0.152,-1.289 -0.453,-1.894 -0.301,-0.606 -0.602,-1.008 -0.902,-1.211 -1.008,-0.75 -2.614,-1.406 -4.821,-1.965 -6.129,-1.558 -9.297,-2.39 -9.5,-2.488 -2.156,-1.016 -3.765,-2.149 -4.816,-3.406 -1.262,-1.516 -1.887,-3.43 -1.887,-5.743 0,-2.929 1.184,-5.382 3.551,-7.375 2.371,-1.992 5.523,-2.988 9.453,-2.988 0.805,0 1.41,0.031 1.817,0.078 0.402,0.047 1.054,0.129 1.96,0.227 l 4.465,5.594 c -1.058,-0.301 -2.082,-0.547 -3.062,-0.723 -0.985,-0.176 -1.879,-0.262 -2.684,-0.262 -2.422,0 -4.359,0.547 -5.82,1.629 -1.465,1.082 -2.191,2.609 -2.191,4.57 0,2.981 2.492,5.039 7.484,6.204 3.387,0.808 5.859,1.64 7.406,2.5 v -11.797 c 0,-3.985 2.117,-6.504 6.352,-7.559 -1.211,-0.703 -2.207,-1.73 -2.989,-3.086 -0.781,-1.359 -1.171,-2.91 -1.171,-4.66 0,-1.707 0.668,-3.074 2.003,-4.102 1.336,-1.023 2.938,-1.543 4.805,-1.543 1.508,0 2.918,0.352 4.235,1.047 l 1.207,3.418 c -1.207,-0.703 -2.825,-1.054 -4.836,-1.054 -0.661,0 -1.266,0.269 -1.817,0.828"
         style="fill:#4f4c4c;fill-opacity:1;fill-rule:nonzero;stroke:none"
         transform="matrix(0.13333333,0,0,-0.13333333,0,72.346667)" />
      <path
         id="path54"
         d="m 866.719,213.039 c 1.609,-0.812 2.418,-1.945 2.418,-3.41 0,-0.547 -0.137,-1.231 -0.41,-2.039 -0.274,-0.801 -0.539,-1.563 -0.782,-2.266 l -7.308,-17.988 -6.61,18.445 c -0.507,1.262 -0.976,2.512 -1.406,3.742 -0.43,1.239 -0.695,2.157 -0.801,2.762 l 0.153,1.055 h -10.055 v -0.301 c 1.41,-0.703 2.113,-1.691 2.113,-2.949 0,-0.656 -0.121,-1.387 -0.363,-2.199 -0.25,-0.813 -0.477,-1.512 -0.672,-2.118 l -7.258,-18.488 -9.015,23.711 c -0.254,0.508 -0.418,0.938 -0.493,1.289 -0.078,0.352 -0.167,1.008 -0.261,1.961 h -0.305 c -0.605,-0.387 -1.285,-0.625 -2.043,-0.711 -0.754,-0.086 -1.433,-0.156 -2.039,-0.195 -0.812,0 -1.586,0 -2.344,0 -0.758,0 -1.562,0 -2.422,0 v -0.301 c 1.145,-0.656 2.036,-1.574 2.688,-2.734 0.047,-0.102 0.516,-1.164 1.414,-3.184 l 8.629,-22.48 c 0.711,-1.758 1.461,-3.059 2.226,-3.907 1.176,-1.359 3.047,-2.558 5.61,-3.605 l 10.285,26.457 7.406,-19.504 c 0.754,-2.215 1.84,-3.855 3.25,-4.91 1.156,-0.656 2.344,-1.34 3.551,-2.043 l 15.051,36.211 h -10.207 v -0.301"
         style="fill:#4f4c4c;fill-opacity:1;fill-rule:nonzero;stroke:none"
         transform="matrix(0.13333333,0,0,-0.13333333,0,72.346667)" />
      <path
         id="path55"
         d="m 965.383,183.32 c -0.106,0 -2.473,0.254 -7.113,0.762 -1.864,0.195 -3.676,0.305 -5.442,0.305 l 19.977,28.64 -0.016,0.313 h -26.914 l -3.555,-7.715 c 1.41,1.016 2.836,1.719 4.274,2.121 1.433,0.399 3.109,0.606 5.027,0.606 0.856,0 2.356,-0.079 4.496,-0.227 2.141,-0.156 3.692,-0.281 4.649,-0.379 l -19.688,-27.219 c -1.801,1.289 -3.683,2.571 -5.183,3.938 -1.661,1.504 -2.872,2.762 -3.629,3.777 l -11.567,14.434 c 3.778,1.164 6.703,2.883 8.77,5.148 1.816,2.012 2.871,4.336 3.172,6.953 0,3.934 -1.235,7.078 -3.7,9.453 -2.773,2.665 -6.808,4.004 -12.101,4.004 h -17.692 v -0.304 c 1.497,-0.606 2.457,-1.758 2.895,-3.477 0.238,-1.004 0.359,-3.094 0.359,-6.269 v -29.032 c 0,-3.183 -0.179,-5.558 -0.531,-7.148 -0.351,-1.594 -1.262,-2.656 -2.723,-3.215 v -0.301 l 14.29,0.145 c -1.461,0.812 -2.379,1.863 -2.758,3.183 -0.375,1.309 -0.567,3.704 -0.567,7.18 v 33.945 c 1.211,0.254 2.078,0.418 2.606,0.497 0.535,0.07 1.273,0.109 2.23,0.109 2.824,0 5.117,-0.578 6.883,-1.738 2.117,-1.36 3.172,-3.411 3.172,-6.125 0,-3.329 -1.434,-6.036 -4.305,-8.094 -2.269,-1.621 -5.219,-2.707 -8.847,-3.254 l 6.937,-10.516 8.828,-10.898 c 1.11,-1.504 2.285,-2.617 3.52,-3.344 1.242,-0.73 2.871,-1.09 4.886,-1.09 h 3.801 3.938 28.269 l 4.008,8.242 c -2.016,-1.261 -3.832,-2.152 -5.441,-2.648 -1.614,-0.508 -3.356,-0.762 -5.215,-0.762"
         style="fill:#4f4c4c;fill-opacity:1;fill-rule:nonzero;stroke:none"
         transform="matrix(0.13333333,0,0,-0.13333333,0,72.346667)" />
      <path
         id="path56"
         d="m 985.188,201.543 c 0.347,2.422 1.488,4.328 3.402,5.715 1.914,1.387 4.129,2.078 6.652,2.078 2.469,0 4.613,-0.672 6.428,-2 1.81,-1.34 2.85,-3.273 3.1,-5.793 z m 22.562,8.137 c -3.24,3.144 -7.24,4.715 -11.98,4.715 -6.098,0 -10.911,-1.934 -14.438,-5.821 -3.074,-3.379 -4.613,-7.508 -4.613,-12.39 0,-5.899 2.269,-10.586 6.804,-14.063 4.082,-3.125 9.075,-4.687 14.973,-4.687 1.764,0 3.514,0.156 5.254,0.488 1.74,0.332 3.46,0.82 5.18,1.473 l 3.55,7.031 c -1.76,-1.309 -3.75,-2.293 -5.97,-2.949 -2.22,-0.653 -4.36,-0.985 -6.43,-0.985 h -1.889 c -4.535,0.41 -8.015,2.215 -10.433,5.43 -1.918,2.598 -2.875,5.652 -2.875,9.168 h 27.747 c 0,5.234 -1.62,9.433 -4.88,12.59"
         style="fill:#4f4c4c;fill-opacity:1;fill-rule:nonzero;stroke:none"
         transform="matrix(0.13333333,0,0,-0.13333333,0,72.346667)" />
      <path
         id="path57"
         d="m 1038.49,197.844 c -0.15,0.097 -3.35,1.258 -9.6,3.476 -3.13,1.114 -4.79,2.442 -4.99,4.004 0,1.317 0.61,2.285 1.82,2.91 1.21,0.633 2.88,0.946 5,0.946 3.64,0 6.85,-0.782 9.63,-2.344 v 6.504 c -1.21,0.351 -2.41,0.598 -3.6,0.723 -1.18,0.117 -2.71,0.183 -4.58,0.183 -4.19,0 -7.6,-0.68 -10.23,-2.039 -3.33,-1.719 -5,-4.383 -5,-8.016 0,-2.363 0.86,-4.336 2.58,-5.898 1.22,-1.105 3.17,-2.188 5.85,-3.242 6.17,-2.324 9.48,-3.664 9.94,-4.016 1.52,-1.055 2.27,-2.39 2.27,-4.004 -0.15,-1.511 -1.01,-2.644 -2.58,-3.41 -1.56,-0.75 -3.59,-1.129 -6.06,-1.129 -2.33,0 -4.76,0.379 -7.28,1.129 -2.53,0.766 -4.74,1.801 -6.61,3.109 l 2.5,-7.335 c 3.02,-1.211 6.38,-1.817 10.05,-1.817 4.24,0 7.94,0.91 11.12,2.727 3.78,2.168 5.67,5.215 5.67,9.148 0,1.856 -0.54,3.516 -1.63,4.953 -1.08,1.434 -2.51,2.578 -4.27,3.438"
         style="fill:#4f4c4c;fill-opacity:1;fill-rule:nonzero;stroke:none"
         transform="matrix(0.13333333,0,0,-0.13333333,0,72.346667)" />
      <path
         id="path58"
         d="m 1071.3,183.32 c -0.1,0 -2.47,0.254 -7.11,0.762 -1.86,0.195 -3.67,0.305 -5.44,0.305 l 19.98,28.64 -0.02,0.313 h -26.91 l -3.56,-7.715 c 1.41,1.016 2.84,1.719 4.27,2.121 1.44,0.399 3.12,0.606 5.03,0.606 0.86,0 2.36,-0.079 4.5,-0.227 2.14,-0.156 3.69,-0.281 4.65,-0.379 l -20.94,-28.957 v -0.301 h 32.2 l 4.01,8.242 c -2.01,-1.261 -3.83,-2.152 -5.44,-2.648 -1.61,-0.508 -3.36,-0.762 -5.22,-0.762"
         style="fill:#4f4c4c;fill-opacity:1;fill-rule:nonzero;stroke:none"
         transform="matrix(0.13333333,0,0,-0.13333333,0,72.346667)" />
      <path
         id="path59"
         d="m 1110.84,186.301 c -2.07,-2.637 -4.91,-3.957 -8.54,-3.957 h -0.61 c -3.27,0 -6.01,1.406 -8.2,4.23 -2.19,2.821 -3.28,6.231 -3.28,10.215 0,4.434 1.4,7.781 4.23,10.047 2.06,1.672 4.43,2.5 7.1,2.5 3.63,0 6.58,-1.492 8.85,-4.492 2.11,-2.781 3.17,-6.074 3.17,-9.883 0,-3.445 -0.9,-6.34 -2.72,-8.66 z m -8.39,27.945 c -6.5,0 -11.57,-1.961 -15.19,-5.894 -3.18,-3.43 -4.77,-7.61 -4.77,-12.551 0,-4.988 1.64,-9.199 4.92,-12.625 3.57,-3.731 8.34,-5.598 14.28,-5.598 5.3,0 9.9,1.809 13.8,5.41 3.91,3.606 5.86,8 5.86,13.196 0,5.437 -1.94,9.871 -5.82,13.3 -3.58,3.172 -7.94,4.762 -13.08,4.762"
         style="fill:#4f4c4c;fill-opacity:1;fill-rule:nonzero;stroke:none"
         transform="matrix(0.13333333,0,0,-0.13333333,0,72.346667)" />
      <path
         id="path60"
         d="m 1170.65,213.039 c 1.61,-0.812 2.42,-1.945 2.42,-3.41 0,-0.547 -0.14,-1.231 -0.41,-2.039 -0.28,-0.801 -0.54,-1.563 -0.78,-2.266 l -7.31,-17.988 -6.61,18.445 c -0.51,1.262 -0.98,2.512 -1.41,3.742 -0.43,1.239 -0.7,2.157 -0.8,2.762 l 0.15,1.055 h -10.05 v -0.301 c 1.41,-0.703 2.11,-1.691 2.11,-2.949 0,-0.656 -0.12,-1.387 -0.36,-2.199 -0.25,-0.813 -0.48,-1.512 -0.67,-2.118 l -7.26,-18.488 -9.02,23.711 c -0.25,0.508 -0.42,0.938 -0.49,1.289 -0.08,0.352 -0.16,1.008 -0.26,1.961 h -0.31 c -0.6,-0.387 -1.28,-0.625 -2.04,-0.711 -0.75,-0.086 -1.43,-0.156 -2.04,-0.195 -0.81,0 -1.58,0 -2.34,0 -0.76,0 -1.56,0 -2.42,0 v -0.301 c 1.14,-0.656 2.03,-1.574 2.68,-2.734 0.05,-0.102 0.52,-1.164 1.42,-3.184 l 8.63,-22.48 c 0.71,-1.758 1.46,-3.059 2.22,-3.907 1.18,-1.359 3.05,-2.558 5.61,-3.605 l 10.29,26.457 7.4,-19.504 c 0.76,-2.215 1.84,-3.855 3.26,-4.91 1.15,-0.656 2.34,-1.34 3.55,-2.043 l 15.04,36.211 h -10.2 v -0.301"
         style="fill:#4f4c4c;fill-opacity:1;fill-rule:nonzero;stroke:none"
         transform="matrix(0.13333333,0,0,-0.13333333,0,72.346667)" />
      <path
         id="path61"
         d="m 1185.62,225.891 c -0.91,-0.957 -1.36,-2.043 -1.36,-3.254 0,-1.356 0.45,-2.489 1.36,-3.399 0.9,-0.91 2.01,-1.355 3.33,-1.355 1.35,0 2.49,0.445 3.4,1.355 0.9,0.91 1.36,2.043 1.36,3.399 0,1.261 -0.47,2.363 -1.4,3.293 -0.93,0.937 -2.06,1.394 -3.36,1.394 -1.32,0 -2.43,-0.476 -3.33,-1.433"
         style="fill:#4f4c4c;fill-opacity:1;fill-rule:nonzero;stroke:none"
         transform="matrix(0.13333333,0,0,-0.13333333,0,72.346667)" />
      <path
         id="path62"
         d="m 1193.22,181.281 c -0.28,1.016 -0.42,2.645 -0.42,4.922 v 28.348 h -0.3 c -0.86,-0.906 -2.68,-1.356 -5.44,-1.356 -0.71,0 -1.38,0 -2.01,0 -0.63,0 -1.3,0 -2,0 v -0.304 c 1.26,-0.653 2.09,-1.582 2.49,-2.782 0.2,-0.605 0.3,-1.691 0.3,-3.242 V 184.66 c 0,-1.308 -0.17,-2.461 -0.53,-3.457 -0.35,-1.008 -1.11,-1.808 -2.26,-2.414 v -0.301 h 12.55 l 0.15,0.301 c -1.41,0.656 -2.26,1.484 -2.53,2.492"
         style="fill:#4f4c4c;fill-opacity:1;fill-rule:nonzero;stroke:none"
         transform="matrix(0.13333333,0,0,-0.13333333,0,72.346667)" />
      <path
         id="path63"
         d="m 1209.05,201.543 c 0.35,2.422 1.49,4.328 3.41,5.715 1.91,1.387 4.13,2.078 6.65,2.078 2.47,0 4.61,-0.672 6.43,-2 1.81,-1.34 2.84,-3.273 3.1,-5.793 z m 22.57,8.137 c -3.25,3.144 -7.24,4.715 -11.98,4.715 -6.1,0 -10.91,-1.934 -14.44,-5.821 -3.08,-3.379 -4.61,-7.508 -4.61,-12.39 0,-5.899 2.27,-10.586 6.8,-14.063 4.08,-3.125 9.07,-4.687 14.97,-4.687 1.77,0 3.52,0.156 5.26,0.488 1.74,0.332 3.46,0.82 5.17,1.473 l 3.56,7.031 c -1.77,-1.309 -3.76,-2.293 -5.97,-2.949 -2.23,-0.653 -4.36,-0.985 -6.43,-0.985 h -1.89 c -4.54,0.41 -8.02,2.215 -10.43,5.43 -1.92,2.598 -2.88,5.652 -2.88,9.168 h 27.75 c 0,5.234 -1.63,9.433 -4.88,12.59"
         style="fill:#4f4c4c;fill-opacity:1;fill-rule:nonzero;stroke:none"
         transform="matrix(0.13333333,0,0,-0.13333333,0,72.346667)" />
      <path
         id="path64"
         d="m 1247.82,281.301 5.09,15.117 5.28,-15.129 z m 28.81,-26.008 c 0.4,1.047 1.24,2.422 2.18,3.848 h 4.64 v 0.304 c -1.61,1.465 -2.84,2.852 -3.67,4.16 -0.83,1.317 -1.67,3.231 -2.53,5.762 l -14.67,39.598 -18.45,-0.156 c 1.06,-0.711 1.79,-1.407 2.19,-2.09 0.41,-0.692 0.61,-1.465 0.61,-2.324 0,-0.711 -0.15,-1.59 -0.46,-2.637 -0.3,-1.035 -0.47,-1.66 -0.52,-1.863 l -10.21,-29.415 c -0.96,-2.871 -1.69,-4.835 -2.2,-5.902 -1,-2.105 -2.29,-3.824 -3.85,-5.133 v -0.304 h 15.5 v 0.304 c -0.96,0.703 -1.66,1.375 -2.11,2 -0.46,0.633 -0.69,1.348 -0.69,2.16 0.05,0.555 0.19,1.231 0.42,2.04 0.23,0.8 0.44,1.535 0.64,2.187 l 2.19,6.359 h 15.05 l 2.34,-7.187 c 0.3,-0.754 0.48,-1.309 0.53,-1.66 0.05,-0.352 0.08,-0.891 0.08,-1.594 0,-1.707 -1.03,-3.145 -3.1,-4.305 v -0.304 h 10.66 c -1.78,-1.961 -3.65,-4.832 -3.65,-8.602 0,-7.851 7.41,-8.957 12.34,-8.957 2.25,0 3.68,0.391 3.68,0.391 l 3.26,6.699 c 0,0 -1.41,-0.469 -4.63,-0.469 -3.18,0 -7.62,1.699 -5.57,7.09"
         style="fill:#4f4c4c;fill-opacity:1;fill-rule:nonzero;stroke:none"
         transform="matrix(0.13333333,0,0,-0.13333333,0,72.346667)" />
      <path
         id="path65"
         d="m 1012.47,297.109 c 1.36,1.446 2.05,3.145 2.05,5.11 0,2.019 -0.7,3.738 -2.09,5.144 -1.4,1.407 -3.05,2.121 -4.94,2.121 -2,0 -3.7,-0.714 -5.09,-2.121 -1.39,-1.406 -2.09,-3.125 -2.09,-5.144 0,-2.004 0.7,-3.723 2.09,-5.141 1.39,-1.414 3.09,-2.117 5.09,-2.117 1.94,0 3.6,0.723 4.98,2.148"
         style="fill:#4f4c4c;fill-opacity:1;fill-rule:nonzero;stroke:none"
         transform="matrix(0.13333333,0,0,-0.13333333,0,72.346667)" />
      <path
         id="path66"
         d="m 1000.91,261.965 c -0.3,-1.035 -1.031,-2.031 -2.195,-2.988 v -0.305 h 18.455 v 0.305 c -1.12,0.859 -1.83,1.726 -2.16,2.617 -0.33,0.867 -0.49,2.176 -0.49,3.894 v 26.164 h -0.31 c -0.81,-0.461 -1.56,-0.754 -2.25,-0.871 -0.69,-0.136 -1.69,-0.195 -3.01,-0.195 h -1 -9.235 v -0.301 c 1.23,-1.055 1.975,-2.023 2.245,-2.922 0.27,-0.867 0.41,-1.98 0.41,-3.281 v -18.301 c 0,-1.511 -0.16,-2.793 -0.46,-3.816"
         style="fill:#4f4c4c;fill-opacity:1;fill-rule:nonzero;stroke:none"
         transform="matrix(0.13333333,0,0,-0.13333333,0,72.346667)" />
    </g>
  </g>
</svg>
