<?xml version="1.0" encoding="UTF-8" standalone="no"?>
<!-- Created with Inkscape (http://www.inkscape.org/) -->

<svg
   version="1.1"
   id="svg1"
   width="226.14667"
   height="72.346664"
   viewBox="0 0 226.14667 72.346664"
   sodipodi:docname="PL_mono_right.eps"
   xmlns:inkscape="http://www.inkscape.org/namespaces/inkscape"
   xmlns:sodipodi="http://sodipodi.sourceforge.net/DTD/sodipodi-0.dtd"
   xmlns="http://www.w3.org/2000/svg"
   xmlns:svg="http://www.w3.org/2000/svg">
  <defs
     id="defs1" />
  <sodipodi:namedview
     id="namedview1"
     pagecolor="#ffffff"
     bordercolor="#000000"
     borderopacity="0.25"
     inkscape:showpageshadow="2"
     inkscape:pageopacity="0.0"
     inkscape:pagecheckerboard="0"
     inkscape:deskcolor="#d1d1d1">
    <inkscape:page
       x="0"
       y="0"
       inkscape:label="1"
       id="page1"
       width="226.14667"
       height="72.346664"
       margin="0"
       bleed="0" />
  </sodipodi:namedview>
  <g
     id="g1"
     inkscape:groupmode="layer"
     inkscape:label="1">
    <g
       id="group-R5">
      <path
         id="path2"
         d="m 1563.49,187.141 c -8.32,-0.637 -16.81,-1.036 -25.06,-1.438 -19.42,-0.918 -39.48,-1.883 -58.3,-5.926 -20.9,-4.523 -37.97,-12.519 -52.48,-24.464 v 27.042 h -10.17 v -26.964 c -17.47,13.683 -38.23,22.605 -64.32,27.277 -23.17,4.121 -46.96,4.473 -71.32,4.473 v 220.027 h 80.32 c 11.79,-0.379 17.44,-3.359 28.4,-12.051 l 0.09,-0.105 c 0,-11.641 0,-23.293 0,-34.875 10.77,-4.617 21.55,-9.188 32.33,-13.692 10.32,4.504 20.77,9.075 31.26,13.692 0,11.523 0,23.117 0,34.679 l 0.13,0.106 c 10.48,8.117 17.51,11.531 24.97,12.246 h 84.15 z m -165.17,212.343 c 7.96,-4.765 15.91,-9.445 24.06,-14.132 -8.15,-4.805 -16.1,-9.571 -24.06,-14.247 0,9.442 0,18.934 0,28.379 z m 38.37,9.844 c -4.74,-8.047 -9.44,-16.027 -14.14,-23.976 7.92,4.687 15.92,9.367 23.89,14.132 0,-9.445 0,-18.937 0,-28.379 -7.97,4.676 -15.97,9.442 -23.89,14.247 4.7,-8.075 9.4,-16.024 14.14,-24.012 -9.59,0 -19.04,0 -28.47,0 4.7,7.988 9.43,15.937 14.33,24.012 -4.9,7.949 -9.63,15.929 -14.33,23.976 9.43,0 18.88,0 28.47,0 z m 44.39,2.188 c -8.47,0 -18.23,-4.102 -26.84,-11.211 0,4.636 0,9.246 0,13.906 -21.25,0 -42.5,0 -63.59,0 0,-4.465 0,-8.859 0,-13.313 -8.92,8.762 -21.04,10.618 -29.63,10.618 h -83.42 v -0.215 c -0.17,-76.106 -0.17,-153.477 -0.17,-228.313 v -0.058 l 0.04,-0.039 c 6.23,-9.571 12.74,-19.305 19.01,-28.739 l 1.65,-2.472 0.05,-0.086 0.11,-0.012 c 3.58,-0.086 7.47,-0.144 11.94,-0.144 3.96,0 7.95,0.058 11.83,0.078 3.81,0.019 7.74,0.066 11.63,0.066 21.32,0 38.99,-1.191 55.86,-6.934 11.11,-4.257 18.5,-8.777 28.4,-14.492 l 2.63,-1.504 v 0.352 c -0.19,16.719 -0.19,33.691 -0.19,50.137 h 4.19 v -50.477 l 0.29,0.156 c 2.27,1.2 4.29,2.332 6.18,3.348 11.41,6.16 16.91,9.277 24,11.34 24.54,7.539 41.9,8.144 60.49,8.144 3.22,0 6.47,-0.011 9.96,-0.039 5.62,-0.031 11.56,-0.097 18.01,-0.031 h 0.11 l 0.06,0.07 c 8.45,11.051 16.08,21.051 24.03,31.211 l 0.02,0.059 v 228.594 h -86.65"
         style="fill:#231f20;fill-opacity:1;fill-rule:nonzero;stroke:none"
         transform="matrix(0.13333333,0,0,-0.13333333,0,72.346667)" />
      <path
         id="path3"
         d="m 1450.05,330.449 v -55.508 l -27.67,21.211 -27.69,-21.004 v 55.301 z m -49.39,-92.429 -5.97,-5.051 v 36.496 l 5.97,4.539 z m 12.36,10.41 -7.84,-6.602 v 35.606 l 7.84,5.925 z m 14.14,4.121 c -2.77,2.371 -4.61,3.933 -4.61,3.933 l -5.02,-4.238 v 34.543 l 4.85,3.672 4.78,-3.664 z m 12.37,-10.528 c -2.68,2.266 -5.39,4.59 -7.85,6.68 v 34.637 l 7.85,-6.024 z m 10.52,-8.945 c -1.65,1.395 -3.75,3.172 -6.01,5.098 v 35.683 l 6.01,-4.613 z m -59.87,-42.707 h 64.39 v 144.59 h -64.39 v -144.59"
         style="fill:#231f20;fill-opacity:1;fill-rule:nonzero;stroke:none"
         transform="matrix(0.13333333,0,0,-0.13333333,0,72.346667)" />
      <path
         id="path4"
         d="m 1467.83,371.563 h 42.87 l -4.03,-9.239 h -38.84 z m 66.92,-59.5 v 59.5 h 7.62 c 1.97,-19.747 -0.82,-40.125 -7.62,-59.5 z m -14.04,59.5 h 9.52 v -70.899 c -2.78,-6.199 -5.94,-12.195 -9.52,-17.93 z m 27.96,-147.567 v -10.293 h -80.84 v 10 c 2.21,1.61 10.19,7.547 17.8,13.875 6.57,5.469 11.89,10.285 14.16,12.356 17.2,-9.2 33.66,-17.93 48.88,-25.938 z m -74.55,54.969 v -44.824 c -2.44,-1.903 -4.62,-3.563 -6.29,-4.813 v 35.516 c 1.76,4.023 3.96,8.918 6.29,14.121 z m 13.32,29.512 0.71,1.562 v -64.402 c -1.68,-1.446 -3.48,-2.981 -5.41,-4.582 -1.37,-1.141 -2.74,-2.246 -4.11,-3.36 v 51.301 c 2.87,6.336 5.84,12.91 8.81,19.481 z m 10.45,-54.141 -0.71,-0.672 c -0.84,-0.773 -2.39,-2.187 -4.51,-4.074 v 70.422 c 3.23,7.129 6.49,14.336 9.51,21.062 v -82.187 c -1.45,-1.504 -2.79,-3.125 -4.29,-4.551 z m 17.74,117.227 h 0.57 v -95.762 c -2.98,-4.219 -6.14,-8.262 -9.51,-12.117 v 87.5 c 1.27,2.859 2.48,5.562 3.52,7.976 z m -52.31,-13.758 h 41.38 c -5.35,-12.16 -13.17,-29.356 -20.15,-44.758 l -1.23,-2.715 c -7.35,-16.23 -14.95,-33.027 -19.81,-44.109 l -0.19,-0.442 V 209.18 h 89.87 v 16.191 l -0.13,1.418 -1.21,0.625 c -15.15,7.969 -31.49,16.629 -48.62,25.809 6.36,6.32 12.09,13.39 17.29,20.898 h 0.19 v 0.266 c 6.45,9.355 12,19.414 16.27,30.086 8.94,22.375 12.29,46.379 9.7,69.433 l -0.26,2.18 h -83.1 v -18.281"
         style="fill:#231f20;fill-opacity:1;fill-rule:nonzero;stroke:none"
         transform="matrix(0.13333333,0,0,-0.13333333,0,72.346667)" />
      <path
         id="path5"
         d="m 1344.86,343.613 c -2.91,6.485 -5.57,12.453 -7.72,17.336 l -4.61,10.614 h 42.89 l 0.08,-9.122 c -3.7,-0.097 -10.96,-0.574 -16.4,-2.968 -5.86,-2.559 -8.57,-5.852 -10.84,-9.012 -1.59,-2.199 -2.67,-4.648 -3.4,-6.848 z m 5.48,-23.125 v -70.312 c -4.34,4.133 -8.08,7.871 -9.49,9.289 v 82.039 c 3,-6.688 6.25,-13.875 9.49,-21.016 z m 14.03,-31.004 v -51.613 c -1.28,1.055 -2.59,2.102 -3.89,3.184 -1.78,1.484 -3.69,3.175 -5.6,4.922 v 64.519 l 0.92,-2.019 c 2.89,-6.387 5.78,-12.801 8.57,-18.993 z m 11.03,-60.168 c -1.71,1.282 -3.97,3.008 -6.49,4.973 v 45.106 c 2.4,-5.36 4.66,-10.418 6.48,-14.551 z m -80.84,-15.613 v 7.988 c 8.75,1.622 18.55,5.039 26.62,9.325 8.75,4.64 15.26,14.277 19.67,22.062 4.15,-4.125 10.96,-10.707 16.74,-15.5 7.61,-6.336 15.64,-12.293 17.82,-13.887 v -9.988 z m 6.29,157.86 h 7.41 v -58.86 c -6.63,19.192 -9.34,39.34 -7.41,58.86 z m 11.94,0 h 9.5 v -89.395 c -3.41,5.52 -6.52,11.562 -9.5,18.418 z m 23.52,-19.911 v -87.773 c -3.48,3.699 -6.6,7.5 -9.49,11.484 v 96.2 h 0.78 l 5.4,-12.403 c 0.99,-2.285 2.12,-4.832 3.31,-7.508 z m 24.6,3.692 c 6.47,2.832 16.72,2.605 16.82,2.597 l 2.34,-0.078 -0.17,18.223 h -83.09 l -0.25,-2.18 c -2.62,-23.054 0.73,-47.058 9.7,-69.433 8.39,-20.957 17.22,-34.618 31.2,-48.211 -4.13,-7.414 -10.31,-16.973 -18.38,-21.262 -8.26,-4.375 -18.4,-7.801 -27.12,-9.18 l -1.92,-0.281 V 209.18 h 89.88 l -0.02,56.601 -0.19,0.442 c -4.85,11.082 -12.44,27.879 -19.82,44.109 l -1.22,2.715 c -3.52,7.754 -7.24,15.969 -10.75,23.75 0.21,1.691 1.09,6.992 4,11.027 2.06,2.86 4.17,5.41 8.99,7.52"
         style="fill:#231f20;fill-opacity:1;fill-rule:nonzero;stroke:none"
         transform="matrix(0.13333333,0,0,-0.13333333,0,72.346667)" />
      <path
         id="path6"
         d="m 610.793,388.898 c 0.148,-0.41 0.676,-2.168 1.586,-5.293 l 8.539,-29.121 c 0.859,-3.031 2.852,-5.488 5.977,-7.406 2.011,-1.207 4.761,-2.301 8.238,-3.258 l 7.789,30.254 c 1.058,-3.066 2.621,-8.144 4.683,-15.234 1.715,-5.844 3.758,-9.512 6.125,-11.016 1.211,-0.801 2.446,-1.504 3.708,-2.07 1.257,-0.586 3.023,-1.231 5.292,-1.934 l 15.497,50.821 -12.7,-0.157 c 0.856,-1.015 1.485,-1.972 1.891,-2.851 0.402,-0.899 0.605,-1.914 0.605,-3.086 0,-0.664 -0.031,-1.152 -0.078,-1.484 -0.054,-0.333 -0.164,-0.942 -0.316,-1.797 l -7.426,-25.098 c -6.078,21.406 -9.113,32.227 -9.113,32.422 l 0.449,2.051 -15.953,-0.157 c 0.906,-0.664 1.703,-1.836 2.383,-3.554 0.679,-1.719 1.019,-3.535 1.019,-5.469 -0.047,-0.293 -0.629,-2.695 -1.738,-7.188 -0.605,-2.539 -1.609,-6.527 -3.02,-11.972 -0.558,-2.129 -1.085,-4.223 -1.593,-6.289 h -0.297 l -7.567,28.554 -1.585,6.075 h -16.407 v -0.313 c 1.715,-1.211 3.047,-3.027 4.012,-5.43"
         style="fill:#231f20;fill-opacity:1;fill-rule:nonzero;stroke:none"
         transform="matrix(0.13333333,0,0,-0.13333333,0,72.346667)" />
      <path
         id="path7"
         d="m 683.727,389.035 11.441,-21.582 v -15.215 c 0,-1.465 -0.258,-2.851 -0.758,-4.179 -0.504,-1.313 -1.34,-2.286 -2.496,-2.95 v -0.293 h 20.641 v 0.293 c -1.461,1.309 -2.45,2.93 -2.95,4.844 -0.304,1.152 -0.457,2.75 -0.457,4.766 v 12.695 l 13.688,27.227 -13.688,-0.157 c 0.809,-0.449 1.375,-0.996 1.707,-1.64 0.329,-0.625 0.489,-1.391 0.489,-2.246 0,-0.567 -0.137,-1.27 -0.414,-2.129 -0.282,-0.86 -0.653,-1.895 -1.106,-3.047 l -4.371,-8.867 -8.769,18.086 -17.547,-0.157 c 1.004,-0.605 1.793,-1.25 2.367,-1.933 0.582,-0.684 1.316,-1.856 2.223,-3.516"
         style="fill:#231f20;fill-opacity:1;fill-rule:nonzero;stroke:none"
         transform="matrix(0.13333333,0,0,-0.13333333,0,72.346667)" />
      <path
         id="path8"
         d="m 746.5,398.801 c 1.969,0 3.641,0.703 5.027,2.148 1.387,1.446 2.082,3.145 2.082,5.098 0,2.012 -0.711,3.73 -2.121,5.156 -1.41,1.406 -3.074,2.11 -4.988,2.11 -2.02,0 -3.73,-0.704 -5.145,-2.11 -1.41,-1.426 -2.113,-3.144 -2.113,-5.156 0,-2.012 0.703,-3.731 2.113,-5.137 1.415,-1.406 3.125,-2.109 5.145,-2.109"
         style="fill:#231f20;fill-opacity:1;fill-rule:nonzero;stroke:none"
         transform="matrix(0.13333333,0,0,-0.13333333,0,72.346667)" />
      <path
         id="path9"
         d="m 738.711,387.531 6.656,-0.234 -22.609,-42.481 h 40.754 l 4.16,11.93 c -2.875,-1.812 -5.41,-3.043 -7.606,-3.687 -2.191,-0.664 -4.671,-0.996 -7.445,-0.996 -0.551,0 -1.992,0.117 -4.305,0.351 -2.32,0.215 -4.234,0.332 -5.75,0.332 l 22.305,41.895 H 730.168 L 726.16,383.82 c 1.965,1.192 4.02,2.11 6.164,2.735 2.141,0.644 4.274,0.976 6.387,0.976"
         style="fill:#231f20;fill-opacity:1;fill-rule:nonzero;stroke:none"
         transform="matrix(0.13333333,0,0,-0.13333333,0,72.346667)" />
      <path
         id="path10"
         d="m 791.152,352.785 c -1.433,-0.82 -3.257,-1.25 -5.464,-1.25 -2.665,0 -5.461,0.543 -8.403,1.641 -2.937,1.094 -5.437,2.539 -7.5,4.336 l 2.496,-10.899 c 1.961,-0.8 4.219,-1.465 6.766,-1.992 2.547,-0.527 5.152,-0.801 7.824,-0.801 5.34,0 9.805,1.075 13.383,3.184 4.336,2.559 6.777,6.426 7.336,11.617 v 1.664 c 0,2.969 -0.809,5.586 -2.414,7.852 -1.91,2.715 -5.297,5.273 -10.172,7.691 -1.66,0.649 -3.293,1.332 -4.902,2.035 -3.516,1.563 -5.274,3.36 -5.274,5.371 0.758,3.321 2.969,4.981 6.641,4.981 1.562,0 3.238,-0.293 5.019,-0.879 1.789,-0.566 3.664,-1.465 5.625,-2.676 v 8.926 c -2.617,0.957 -4.832,1.562 -6.644,1.797 -1.817,0.254 -3.754,0.39 -5.817,0.39 -5.39,0 -9.824,-1.195 -13.297,-3.554 -3.472,-2.364 -5.386,-5.664 -5.742,-9.883 0,-4.18 1.106,-7.598 3.317,-10.273 1.961,-2.364 5.175,-4.551 9.648,-6.567 3.567,-1.656 5.801,-2.808 6.703,-3.473 2.215,-1.543 3.317,-3.402 3.317,-5.507 -0.2,-1.661 -1.016,-2.911 -2.446,-3.731"
         style="fill:#231f20;fill-opacity:1;fill-rule:nonzero;stroke:none"
         transform="matrix(0.13333333,0,0,-0.13333333,0,72.346667)" />
      <path
         id="path11"
         d="m 849.695,344.816 4.16,11.93 c -2.875,-1.812 -5.41,-3.043 -7.601,-3.687 -2.191,-0.664 -4.672,-0.996 -7.445,-0.996 -0.551,0 -1.993,0.117 -4.305,0.351 -2.32,0.215 -4.234,0.332 -5.75,0.332 l 22.305,41.895 h -34.707 l -4.004,-10.821 c 1.965,1.192 4.019,2.11 6.164,2.735 2.136,0.644 4.269,0.976 6.386,0.976 l 6.657,-0.234 -22.61,-42.481 h 40.75"
         style="fill:#231f20;fill-opacity:1;fill-rule:nonzero;stroke:none"
         transform="matrix(0.13333333,0,0,-0.13333333,0,72.346667)" />
      <path
         id="path12"
         d="m 877.371,382.078 5.289,-15.113 h -10.375 z m -7.715,-36.969 c -0.957,0.704 -1.664,1.387 -2.113,2.012 -0.453,0.625 -0.684,1.348 -0.684,2.149 0.051,0.566 0.192,1.226 0.414,2.05 0.231,0.801 0.446,1.524 0.649,2.188 l 2.191,6.347 h 15.043 l 2.344,-7.187 c 0.305,-0.742 0.48,-1.309 0.531,-1.66 0.051,-0.352 0.074,-0.879 0.074,-1.582 0,-1.723 -1.031,-3.145 -3.101,-4.317 v -0.293 h 22.91 v 0.293 c -1.609,1.465 -2.836,2.852 -3.668,4.161 -0.828,1.328 -1.672,3.242 -2.531,5.761 l -14.668,39.61 -18.449,-0.157 c 1.058,-0.722 1.793,-1.406 2.195,-2.089 0.402,-0.704 0.602,-1.465 0.602,-2.325 0,-0.722 -0.149,-1.601 -0.454,-2.636 -0.3,-1.036 -0.476,-1.661 -0.527,-1.875 l -10.211,-29.414 c -0.957,-2.872 -1.687,-4.825 -2.191,-5.899 -1.004,-2.109 -2.289,-3.828 -3.852,-5.137 v -0.293 h 15.496 v 0.293"
         style="fill:#231f20;fill-opacity:1;fill-rule:nonzero;stroke:none"
         transform="matrix(0.13333333,0,0,-0.13333333,0,72.346667)" />
      <path
         id="path13"
         d="m 948.484,352.785 c -1.433,-0.82 -3.254,-1.25 -5.461,-1.25 -2.668,0 -5.464,0.543 -8.406,1.641 -2.937,1.094 -5.437,2.539 -7.5,4.336 l 2.496,-10.899 c 1.965,-0.8 4.219,-1.465 6.77,-1.992 2.543,-0.527 5.148,-0.801 7.82,-0.801 5.344,0 9.805,1.075 13.387,3.184 4.336,2.559 6.773,6.426 7.332,11.617 v 1.664 c 0,2.969 -0.805,5.586 -2.41,7.852 -1.91,2.715 -5.301,5.273 -10.172,7.691 -1.66,0.649 -3.297,1.332 -4.902,2.035 -3.516,1.563 -5.274,3.36 -5.274,5.371 0.758,3.321 2.969,4.981 6.641,4.981 1.562,0 3.238,-0.293 5.019,-0.879 1.785,-0.566 3.66,-1.465 5.625,-2.676 v 8.926 c -2.617,0.957 -4.836,1.562 -6.644,1.797 -1.821,0.254 -3.758,0.39 -5.817,0.39 -5.39,0 -9.824,-1.195 -13.297,-3.554 -3.476,-2.364 -5.39,-5.664 -5.742,-9.883 0,-4.18 1.106,-7.598 3.317,-10.273 1.957,-2.364 5.175,-4.551 9.648,-6.567 3.563,-1.656 5.801,-2.808 6.703,-3.473 2.211,-1.543 3.317,-3.402 3.317,-5.507 -0.204,-1.661 -1.016,-2.911 -2.45,-3.731"
         style="fill:#231f20;fill-opacity:1;fill-rule:nonzero;stroke:none"
         transform="matrix(0.13333333,0,0,-0.13333333,0,72.346667)" />
      <path
         id="path14"
         d="m 1007.04,344.816 4.16,11.93 c -2.88,-1.812 -5.41,-3.043 -7.61,-3.687 -2.19,-0.664 -4.668,-0.996 -7.442,-0.996 -0.55,0 -1.992,0.117 -4.308,0.351 -2.32,0.215 -4.235,0.332 -5.746,0.332 l 22.306,41.895 h -34.709 l -4.003,-10.821 c 1.96,1.192 4.019,2.11 6.164,2.735 2.136,0.644 4.269,0.976 6.382,0.976 l 6.657,-0.234 -22.606,-42.481 h 40.755"
         style="fill:#231f20;fill-opacity:1;fill-rule:nonzero;stroke:none"
         transform="matrix(0.13333333,0,0,-0.13333333,0,72.346667)" />
      <path
         id="path15"
         d="m 1034.56,345.109 c -1.17,0.606 -2,1.485 -2.5,2.657 -0.5,1.152 -0.76,2.539 -0.76,4.16 v 15.039 l 8.85,-15.195 c 1.76,-3.086 3.68,-5 5.74,-5.782 2.07,-0.785 6.13,-1.172 12.18,-1.172 h 4.68 v 0.293 c -1.3,1.012 -2.52,2.325 -3.62,3.946 -0.66,1.054 -1.31,2.109 -1.97,3.164 l -14.06,22.148 16.7,20.274 -18.59,-0.157 c 1.1,-0.566 1.88,-1.191 2.31,-1.914 0.42,-0.703 0.64,-1.484 0.64,-2.343 0,-1.075 -0.43,-2.247 -1.28,-3.516 -0.66,-0.859 -1.31,-1.699 -1.97,-2.52 l -9.59,-12.089 -0.02,15.546 c 0,1.211 0.26,2.5 0.76,3.829 0.5,1.347 1.33,2.402 2.5,3.164 l -20.42,-0.157 c 1.36,-0.918 2.27,-2.089 2.73,-3.554 0.3,-1.016 0.44,-2.637 0.44,-4.844 v -1.816 -32.344 c 0,-1.309 -0.22,-2.598 -0.67,-3.867 -0.46,-1.25 -1.29,-2.246 -2.5,-2.95 v -0.293 h 20.42 v 0.293"
         style="fill:#231f20;fill-opacity:1;fill-rule:nonzero;stroke:none"
         transform="matrix(0.13333333,0,0,-0.13333333,0,72.346667)" />
      <path
         id="path16"
         d="m 1076.44,371.828 c 0,4.625 1.25,8.516 3.74,11.66 2.5,3.145 5.63,4.727 9.41,4.727 4.74,0 8.32,-2.481 10.74,-7.402 1.86,-3.77 2.8,-8.321 2.8,-13.653 0,-4.687 -1.05,-8.398 -3.13,-11.172 -2.22,-2.968 -5.44,-4.453 -9.65,-4.453 -4.26,0 -7.7,2.086 -10.34,6.27 -2.38,3.769 -3.57,8.125 -3.57,13.047 z m 13.53,-28.008 c 9.5,0 16.79,3.008 21.87,8.985 4.07,4.785 6.1,10.449 6.1,16.992 v 0.312 c 0,7.5 -2.39,13.575 -7.18,18.262 -5.04,4.942 -11.87,7.402 -20.49,7.402 -8.32,0 -15.12,-2.363 -20.41,-7.109 -5.29,-4.726 -7.94,-10.668 -7.94,-17.812 0,-0.098 0,-0.274 0,-0.528 0,-0.254 0,-0.469 0,-0.683 0,-7.188 2.49,-13.223 7.46,-18.106 5.23,-5.137 12.09,-7.715 20.59,-7.715"
         style="fill:#231f20;fill-opacity:1;fill-rule:nonzero;stroke:none"
         transform="matrix(0.13333333,0,0,-0.13333333,0,72.346667)" />
      <path
         id="path17"
         d="m 1147.21,352.063 c -1.27,0 -2.58,0.097 -3.94,0.273 -1.36,0.176 -2.52,0.508 -3.48,1.016 v 13.418 l 7.64,3.3 0.07,7.168 -7.71,-3.242 v 13.125 c 0,1.465 0.13,2.656 0.39,3.574 0.45,1.719 1.35,3.028 2.72,3.946 l -20.34,-0.157 c 0.96,-0.546 1.74,-1.406 2.34,-2.539 0.61,-1.132 0.91,-2.617 0.91,-4.433 v -19.414 l -3.25,-1.289 v -7.246 l 3.25,1.265 v -6.558 c 0,-2.524 -0.18,-4.473 -0.53,-5.821 -0.35,-1.371 -1.26,-2.578 -2.72,-3.633 h 33.04 l 2.79,10.508 c -1.91,-1.172 -3.27,-1.894 -4.08,-2.187 -1.91,-0.723 -4.28,-1.074 -7.1,-1.074"
         style="fill:#231f20;fill-opacity:1;fill-rule:nonzero;stroke:none"
         transform="matrix(0.13333333,0,0,-0.13333333,0,72.346667)" />
      <path
         id="path18"
         d="m 1178.49,366.965 5.08,15.113 5.29,-15.113 z m 31.96,-17.695 c -0.83,1.328 -1.68,3.242 -2.53,5.761 l -14.67,39.61 -18.45,-0.157 c 1.06,-0.722 1.79,-1.406 2.19,-2.089 0.41,-0.704 0.61,-1.465 0.61,-2.325 0,-0.722 -0.15,-1.601 -0.46,-2.636 -0.3,-1.036 -0.47,-1.661 -0.52,-1.875 l -10.21,-29.414 c -0.96,-2.872 -1.69,-4.825 -2.2,-5.899 -1,-2.109 -2.29,-3.828 -3.85,-5.137 v -0.293 h 15.5 v 0.293 c -0.96,0.704 -1.67,1.387 -2.11,2.012 -0.46,0.625 -0.69,1.348 -0.69,2.149 0.05,0.566 0.19,1.226 0.42,2.05 0.23,0.801 0.44,1.524 0.64,2.188 l 2.19,6.347 h 15.05 l 2.34,-7.187 c 0.3,-0.742 0.48,-1.309 0.53,-1.66 0.05,-0.352 0.08,-0.879 0.08,-1.582 0,-1.723 -1.03,-3.145 -3.1,-4.317 v -0.293 h 22.91 v 0.293 c -1.62,1.465 -2.84,2.852 -3.67,4.161"
         style="fill:#231f20;fill-opacity:1;fill-rule:nonzero;stroke:none"
         transform="matrix(0.13333333,0,0,-0.13333333,0,72.346667)" />
      <path
         id="path19"
         d="m 144.117,305.422 c 0.324,1.191 1.196,2.363 2.606,3.531 l -20.184,-0.152 c 1.41,-1.113 2.277,-2.266 2.606,-3.438 0.328,-1.191 0.496,-3.359 0.496,-6.484 v -30.293 c 0,-2.715 -0.129,-4.57 -0.383,-5.527 -0.406,-1.563 -1.309,-2.871 -2.719,-3.926 l 20.184,0.137 c -1.258,0.976 -2.09,2.011 -2.493,3.144 -0.406,1.152 -0.609,3.106 -0.609,5.879 v 31.191 c 0,2.774 0.168,4.762 0.496,5.938"
         style="fill:#231f20;fill-opacity:1;fill-rule:nonzero;stroke:none"
         transform="matrix(0.13333333,0,0,-0.13333333,0,72.346667)" />
      <path
         id="path20"
         d="m 185.586,308.801 c 1.465,-1.465 2.422,-3.164 2.875,-5.078 0.25,-1.055 0.379,-2.637 0.379,-4.707 v -20.688 l -23.137,30.625 h -15.801 v -0.308 c 1.813,-1.973 2.996,-3.653 3.555,-5.04 0.551,-1.386 0.828,-3.691 0.828,-6.914 v -28.398 c 0,-2.227 -0.293,-4.023 -0.867,-5.41 -0.582,-1.387 -1.426,-2.539 -2.535,-3.457 v -0.293 h 14.668 v 0.293 c -1.11,1.015 -1.953,2.207 -2.531,3.594 -0.582,1.386 -0.872,3.144 -0.872,5.253 v 21.856 h 0.301 l 17.391,-23.281 c 2.223,-2.93 5.316,-5.332 9.301,-7.188 3.023,-1.406 5.445,-2.129 7.261,-2.129 h 0.297 v 42.559 c 0,1.656 0.278,3.262 0.836,4.805 0.551,1.543 1.41,2.89 2.567,4.058 h -14.668 l 0.152,-0.152"
         style="fill:#231f20;fill-opacity:1;fill-rule:nonzero;stroke:none"
         transform="matrix(0.13333333,0,0,-0.13333333,0,72.346667)" />
      <path
         id="path21"
         d="m 231.633,308.605 c -0.457,-0.019 -0.934,-0.039 -1.438,-0.039 l -26.539,-0.136 c 1.008,-0.762 1.778,-1.684 2.305,-2.735 0.527,-1.054 0.797,-2.539 0.797,-4.453 v -34.863 c 0,-1.563 -0.125,-2.774 -0.379,-3.613 -0.457,-1.621 -1.363,-2.832 -2.723,-3.633 v -0.313 h 20.489 v 0.313 c -1.512,1.308 -2.52,3.066 -3.024,5.293 -0.254,1.094 -0.379,2.695 -0.379,4.765 v 12.247 h 2.649 c 1.863,0 3.211,-0.254 4.043,-0.762 0.832,-0.508 1.375,-1.192 1.625,-2.055 h 0.379 v 10.746 h -0.379 c -0.352,-0.195 -0.731,-0.312 -1.133,-0.332 -0.406,-0.039 -0.887,-0.039 -1.438,-0.039 h -5.746 v 12.246 h 5.371 c 1.407,0 2.571,-0.137 3.477,-0.39 1.762,-0.469 3.047,-1.387 3.851,-2.793 v 10.894 h -0.296 c -0.555,-0.211 -1.059,-0.332 -1.512,-0.348"
         style="fill:#231f20;fill-opacity:1;fill-rule:nonzero;stroke:none"
         transform="matrix(0.13333333,0,0,-0.13333333,0,72.346667)" />
      <path
         id="path22"
         d="m 274.781,270.305 c -2.226,-2.969 -5.449,-4.453 -9.652,-4.453 -4.262,0 -7.707,2.089 -10.344,6.269 -2.383,3.77 -3.574,8.125 -3.574,13.047 v 0.977 c 0,4.628 1.25,8.515 3.746,11.66 2.492,3.144 5.629,4.726 9.406,4.726 4.739,0 8.325,-2.48 10.739,-7.402 1.867,-3.77 2.796,-8.32 2.796,-13.652 0,-4.688 -1.039,-8.399 -3.117,-11.172 z m -9.73,39.785 c -8.321,0 -15.125,-2.363 -20.418,-7.11 -5.293,-4.726 -7.938,-10.664 -7.938,-17.812 0,-0.098 0,-0.273 0,-0.527 0,-0.254 0,-0.469 0,-0.688 0,-7.183 2.489,-13.219 7.465,-18.101 5.231,-5.137 12.09,-7.715 20.586,-7.715 9.496,0 16.785,3.008 21.863,8.984 4.075,4.785 6.11,10.449 6.11,16.992 v 0.313 c 0,7.5 -2.399,13.57 -7.184,18.262 -5.039,4.941 -11.867,7.402 -20.484,7.402"
         style="fill:#231f20;fill-opacity:1;fill-rule:nonzero;stroke:none"
         transform="matrix(0.13333333,0,0,-0.13333333,0,72.346667)" />
      <path
         id="path23"
         d="m 318.801,287.648 c -1.516,-1.718 -3.481,-2.753 -5.903,-3.125 v 17.247 h 0.61 c 2.515,0 4.461,-0.801 5.816,-2.422 1.164,-1.426 1.739,-3.301 1.739,-5.625 0,-2.325 -0.75,-4.356 -2.262,-6.075 z m 17.16,-20.527 -9.754,16.5 c 3.481,1.723 5.945,3.891 7.41,6.527 0.957,1.719 1.438,3.536 1.438,5.45 0,4.257 -1.41,7.597 -4.235,10.019 -2.621,2.227 -6.074,3.336 -10.355,3.336 l -24.649,-0.152 c 1.356,-0.918 2.215,-1.953 2.567,-3.106 0.351,-1.152 0.531,-2.832 0.531,-5 v -33.007 -1.29 c 0,-1.562 -0.203,-2.949 -0.601,-4.121 -0.407,-1.191 -1.239,-2.148 -2.497,-2.851 v -0.293 h 20.336 v 0.293 c -1.058,0.605 -1.867,1.465 -2.422,2.578 -0.55,1.113 -0.832,2.617 -0.832,4.531 v 13.985 l 9,-16.934 c 0.957,-1.856 2.004,-3.125 3.137,-3.77 1.137,-0.664 2.66,-0.996 4.574,-0.996 h 4.161 l 8.539,0.606 c -1.309,1.07 -2.618,2.461 -3.93,4.195 -0.504,0.649 -1.309,1.82 -2.418,3.5"
         style="fill:#231f20;fill-opacity:1;fill-rule:nonzero;stroke:none"
         transform="matrix(0.13333333,0,0,-0.13333333,0,72.346667)" />
      <path
         id="path24"
         d="m 403.852,268.742 -3.778,34.297 c 0,0.606 -0.054,1.074 -0.152,1.367 0.098,0.918 0.328,1.66 0.68,2.246 0.351,0.567 1.058,1.231 2.117,1.993 v 0.308 h -17.961 l -8.922,-29.273 -11.356,29.273 -17.332,-0.152 c 1.11,-1.016 1.868,-1.992 2.266,-2.949 0.406,-0.938 0.606,-1.993 0.606,-3.164 v -1.758 l -3.704,-32.344 c -0.253,-2.383 -0.578,-4.121 -0.984,-5.215 -0.551,-1.562 -1.461,-2.891 -2.719,-3.945 v -0.293 h 14.742 v 0.293 c -1.066,0.566 -1.875,1.308 -2.433,2.226 -0.559,0.938 -0.836,2.168 -0.836,3.672 l 2.519,26.016 h 0.305 l 8.317,-22.656 c 0.851,-2.461 1.882,-4.317 3.093,-5.528 1.762,-1.758 4.817,-3.437 9.145,-5 l 9.758,33.184 h 0.297 l 2.496,-24.356 0.152,-2.871 c 0,-0.742 -0.164,-1.504 -0.488,-2.226 -0.328,-0.723 -0.95,-1.543 -1.86,-2.461 v -0.293 h 19.891 v 0.293 c -1.164,1.113 -2.031,2.422 -2.609,3.902 -0.582,1.488 -0.997,3.305 -1.25,5.414"
         style="fill:#231f20;fill-opacity:1;fill-rule:nonzero;stroke:none"
         transform="matrix(0.13333333,0,0,-0.13333333,0,72.346667)" />
      <path
         id="path25"
         d="m 428.102,281.281 5.086,15.117 5.289,-15.117 z m 12.718,-21.855 v -0.293 h 22.91 v 0.293 c -1.613,1.465 -2.835,2.851 -3.667,4.16 -0.829,1.328 -1.672,3.242 -2.536,5.762 l -14.668,39.605 -18.445,-0.152 c 1.059,-0.723 1.793,-1.406 2.191,-2.09 0.407,-0.703 0.606,-1.465 0.606,-2.324 0,-0.723 -0.148,-1.602 -0.453,-2.641 -0.305,-1.031 -0.481,-1.656 -0.528,-1.875 l -10.21,-29.41 c -0.957,-2.871 -1.688,-4.824 -2.192,-5.898 -1.008,-2.11 -2.289,-3.829 -3.851,-5.137 v -0.293 h 15.496 v 0.293 c -0.957,0.703 -1.664,1.387 -2.114,2.012 -0.453,0.625 -0.683,1.347 -0.683,2.148 0.051,0.566 0.191,1.23 0.414,2.051 0.23,0.801 0.445,1.523 0.644,2.187 l 2.196,6.348 h 15.043 l 2.343,-7.188 c 0.301,-0.742 0.477,-1.308 0.532,-1.66 0.047,-0.351 0.074,-0.879 0.074,-1.582 0,-1.719 -1.031,-3.144 -3.102,-4.316"
         style="fill:#231f20;fill-opacity:1;fill-rule:nonzero;stroke:none"
         transform="matrix(0.13333333,0,0,-0.13333333,0,72.346667)" />
      <path
         id="path26"
         d="m 532.949,307.16 c 0.328,-0.625 0.489,-1.387 0.489,-2.246 0,-0.566 -0.137,-1.269 -0.415,-2.129 -0.281,-0.859 -0.652,-1.894 -1.105,-3.047 l -4.367,-8.867 -8.774,18.082 -17.504,-0.152 0.036,0.152 h -35.094 l -1.434,0.219 -3.019,-11.563 c 1.769,1.055 3.254,1.817 4.465,2.305 1.609,0.625 3.199,0.957 4.757,0.957 0.153,0 0.633,-0.043 1.442,-0.078 0.804,-0.059 1.535,-0.137 2.191,-0.234 v -31.778 -1.679 c 0,-1.817 -0.203,-3.379 -0.601,-4.668 -0.407,-1.289 -1.239,-2.286 -2.496,-3.008 v -0.293 h 20.488 v 0.293 c -1.211,1.015 -2.082,2.207 -2.61,3.57 -0.531,1.352 -0.793,3.285 -0.793,5.746 v 31.66 c 1.059,0.313 2.141,0.469 3.25,0.469 1.461,0 2.825,-0.254 4.083,-0.762 1.257,-0.507 2.167,-1.347 2.722,-2.5 l 2.606,11.172 c 0.984,-0.605 1.765,-1.23 2.332,-1.914 0.582,-0.683 1.32,-1.855 2.222,-3.515 l 11.442,-21.582 v -15.215 c 0,-1.465 -0.254,-2.852 -0.758,-4.184 -0.504,-1.305 -1.336,-2.281 -2.496,-2.945 v -0.293 h 20.64 v 0.293 c -1.46,1.308 -2.445,2.929 -2.949,4.844 -0.304,1.152 -0.453,2.753 -0.453,4.765 v 12.695 l 13.688,27.223 -13.688,-0.152 c 0.805,-0.449 1.371,-0.996 1.703,-1.641"
         style="fill:#231f20;fill-opacity:1;fill-rule:nonzero;stroke:none"
         transform="matrix(0.13333333,0,0,-0.13333333,0,72.346667)" />
      <path
         id="path27"
         d="m 567.008,259.426 c -1.164,0.605 -1.992,1.484 -2.496,2.652 -0.504,1.156 -0.758,2.543 -0.758,4.164 v 15.039 l 8.848,-15.195 c 1.761,-3.09 3.675,-5 5.742,-5.781 2.07,-0.782 6.129,-1.172 12.176,-1.172 h 4.683 v 0.293 c -1.308,1.015 -2.515,2.32 -3.625,3.945 -0.656,1.055 -1.308,2.109 -1.965,3.164 l -14.066,22.149 16.711,20.269 -18.602,-0.152 c 1.11,-0.567 1.879,-1.192 2.313,-1.914 0.422,-0.703 0.636,-1.485 0.636,-2.344 0,-1.074 -0.421,-2.246 -1.277,-3.516 -0.656,-0.859 -1.308,-1.699 -1.965,-2.519 l -9.593,-12.09 -0.016,15.547 c 0,1.211 0.254,2.5 0.758,3.828 0.504,1.348 1.332,2.402 2.496,3.16 l -20.414,-0.152 c 1.359,-0.918 2.269,-2.09 2.722,-3.555 0.301,-1.016 0.45,-2.637 0.45,-4.844 v -1.816 -32.344 c 0,-1.308 -0.223,-2.597 -0.68,-3.871 -0.453,-1.25 -1.281,-2.242 -2.492,-2.945 v -0.293 h 20.414 v 0.293"
         style="fill:#231f20;fill-opacity:1;fill-rule:nonzero;stroke:none"
         transform="matrix(0.13333333,0,0,-0.13333333,0,72.346667)" />
      <path
         id="path28"
         d="m 599.59,263.059 c -0.406,-1.563 -1.309,-2.871 -2.719,-3.926 l 20.184,0.137 c -1.258,0.976 -2.09,2.011 -2.492,3.144 -0.407,1.152 -0.61,3.106 -0.61,5.879 v 31.191 c 0,2.774 0.168,4.762 0.496,5.938 0.324,1.191 1.196,2.363 2.606,3.531 l -20.184,-0.152 c 1.41,-1.113 2.277,-2.266 2.606,-3.438 0.328,-1.191 0.496,-3.359 0.496,-6.484 v -30.293 c 0,-2.715 -0.129,-4.57 -0.383,-5.527"
         style="fill:#231f20;fill-opacity:1;fill-rule:nonzero;stroke:none"
         transform="matrix(0.13333333,0,0,-0.13333333,0,72.346667)" />
      <path
         id="path29"
         d="m 725.18,271.066 c -2.875,-1.82 -5.41,-3.046 -7.602,-3.695 -2.191,-0.66 -4.672,-0.992 -7.445,-0.992 -0.555,0 -1.992,0.117 -4.309,0.351 -2.316,0.215 -4.23,0.333 -5.746,0.333 l 22.305,41.89 h -34.707 l -4.004,-10.816 c 1.965,1.191 4.019,2.109 6.164,2.734 2.137,0.645 4.269,0.977 6.387,0.977 l 6.652,-0.235 -22.605,-42.48 h 40.75 l 4.16,11.933"
         style="fill:#231f20;fill-opacity:1;fill-rule:nonzero;stroke:none"
         transform="matrix(0.13333333,0,0,-0.13333333,0,72.346667)" />
      <path
         id="path30"
         d="m 743.605,281.281 5.086,15.117 5.289,-15.117 z m 29.426,-11.933 -14.668,39.605 -18.445,-0.152 c 1.059,-0.723 1.793,-1.406 2.191,-2.09 0.407,-0.703 0.606,-1.465 0.606,-2.324 0,-0.723 -0.152,-1.602 -0.453,-2.641 -0.305,-1.031 -0.481,-1.656 -0.528,-1.875 l -10.211,-29.41 c -0.957,-2.871 -1.687,-4.824 -2.191,-5.898 -1.008,-2.11 -2.289,-3.829 -3.852,-5.137 v -0.293 h 15.497 v 0.293 c -0.957,0.703 -1.664,1.387 -2.114,2.012 -0.457,0.625 -0.683,1.347 -0.683,2.148 0.047,0.566 0.187,1.23 0.414,2.051 0.23,0.801 0.445,1.523 0.644,2.187 l 2.192,6.348 h 15.047 l 2.339,-7.188 c 0.305,-0.742 0.481,-1.308 0.536,-1.66 0.046,-0.351 0.074,-0.879 0.074,-1.582 0,-1.719 -1.031,-3.144 -3.102,-4.316 v -0.293 h 22.91 v 0.293 c -1.613,1.465 -2.839,2.851 -3.668,4.16 -0.832,1.328 -1.675,3.242 -2.535,5.762"
         style="fill:#231f20;fill-opacity:1;fill-rule:nonzero;stroke:none"
         transform="matrix(0.13333333,0,0,-0.13333333,0,72.346667)" />
      <path
         id="path31"
         d="m 806,287.648 c -1.512,-1.718 -3.477,-2.753 -5.898,-3.125 v 17.247 h 0.605 c 2.52,0 4.465,-0.801 5.82,-2.422 1.164,-1.426 1.739,-3.301 1.739,-5.625 0,-2.325 -0.75,-4.356 -2.266,-6.075 z m 53.066,-21.269 c -0.55,0 -1.992,0.117 -4.304,0.351 -2.321,0.215 -4.235,0.333 -5.746,0.333 l 22.3,41.89 h -34.707 l -4.004,-10.816 c 1.965,1.191 4.02,2.109 6.165,2.734 2.136,0.645 4.273,0.977 6.386,0.977 l 6.657,-0.235 -22.395,-42.09 c -1.277,1.055 -2.555,2.403 -3.836,4.098 -0.504,0.649 -1.309,1.82 -2.418,3.5 l -9.758,16.5 c 3.485,1.723 5.949,3.891 7.414,6.527 0.957,1.719 1.438,3.536 1.438,5.45 0,4.257 -1.414,7.597 -4.235,10.019 -2.625,2.227 -6.074,3.336 -10.355,3.336 l -24.648,-0.152 c 1.355,-0.918 2.214,-1.953 2.566,-3.106 0.352,-1.152 0.531,-2.832 0.531,-5 v -33.007 -1.29 c 0,-1.562 -0.203,-2.949 -0.605,-4.121 -0.407,-1.191 -1.235,-2.148 -2.492,-2.851 v -0.293 h 20.335 v 0.293 c -1.058,0.605 -1.867,1.465 -2.421,2.578 -0.551,1.113 -0.832,2.617 -0.832,4.531 v 13.985 l 9,-16.934 c 0.957,-1.856 2.003,-3.125 3.132,-3.77 1.141,-0.664 2.664,-0.996 4.579,-0.996 h 4.16 l 8.386,0.606 -0.156,-0.293 h 40.754 l 4.16,11.933 c -2.879,-1.82 -5.41,-3.046 -7.601,-3.695 -2.196,-0.66 -4.676,-0.992 -7.45,-0.992"
         style="fill:#231f20;fill-opacity:1;fill-rule:nonzero;stroke:none"
         transform="matrix(0.13333333,0,0,-0.13333333,0,72.346667)" />
      <path
         id="path32"
         d="m 897.633,296.398 5.289,-15.117 h -10.379 z m -7.715,-36.972 c -0.957,0.703 -1.664,1.387 -2.113,2.012 -0.457,0.625 -0.688,1.347 -0.688,2.148 0.051,0.566 0.192,1.23 0.418,2.051 0.231,0.801 0.445,1.523 0.645,2.187 l 2.191,6.348 h 15.043 l 2.344,-7.188 c 0.305,-0.742 0.48,-1.308 0.535,-1.66 0.047,-0.351 0.07,-0.879 0.07,-1.582 0,-1.719 -1.027,-3.144 -3.097,-4.316 v -0.293 h 10.199 c -1.777,-1.973 -3.649,-4.844 -3.649,-8.613 0,-7.852 7.407,-8.946 12.34,-8.946 2.254,0 3.68,0.391 3.68,0.391 l 3.262,6.699 c 0,0 -1.414,-0.469 -4.629,-0.469 -3.184,0 -7.617,1.7 -5.571,7.09 0.403,1.035 1.235,2.403 2.184,3.848 h 5.094 v 0.293 c -1.613,1.465 -2.84,2.851 -3.668,4.16 -0.832,1.328 -1.676,3.242 -2.535,5.762 l -14.668,39.605 -18.45,-0.152 c 1.063,-0.723 1.793,-1.406 2.196,-2.09 0.402,-0.703 0.605,-1.465 0.605,-2.324 0,-0.723 -0.152,-1.602 -0.457,-2.641 -0.301,-1.031 -0.476,-1.656 -0.523,-1.875 l -10.211,-29.41 c -0.957,-2.871 -1.692,-4.824 -2.195,-5.898 -1.004,-2.11 -2.29,-3.829 -3.852,-5.137 v -0.293 h 15.5 v 0.293"
         style="fill:#231f20;fill-opacity:1;fill-rule:nonzero;stroke:none"
         transform="matrix(0.13333333,0,0,-0.13333333,0,72.346667)" />
      <path
         id="path33"
         d="m 961.477,271.242 c -2.145,-3.144 -5.207,-4.707 -9.188,-4.707 -0.758,0.098 -1.601,0.211 -2.531,0.352 -0.934,0.117 -1.629,0.234 -2.082,0.332 v 33.183 c 1.562,0.313 2.543,0.489 2.949,0.528 0.406,0.058 0.957,0.078 1.664,0.078 3.629,0 6.5,-1.211 8.617,-3.637 2.524,-2.867 3.782,-7.301 3.782,-13.258 0,-5.449 -1.071,-9.746 -3.211,-12.871 z m 17.8,13.477 c 0,7.265 -2.367,13.125 -7.105,17.578 -4.734,4.433 -11.039,6.656 -18.902,6.656 l -22.832,-0.152 c 1.359,-0.664 2.292,-1.836 2.8,-3.555 0.301,-1.016 0.453,-2.285 0.453,-3.793 v -0.601 -31.797 c 0,-2.934 -0.179,-5.039 -0.531,-6.328 -0.351,-1.289 -1.262,-2.383 -2.722,-3.301 v -0.293 h 22.683 c 8.922,0 15.695,2.715 20.336,8.164 3.883,4.551 5.82,10.351 5.82,17.422"
         style="fill:#231f20;fill-opacity:1;fill-rule:nonzero;stroke:none"
         transform="matrix(0.13333333,0,0,-0.13333333,0,72.346667)" />
      <path
         id="path34"
         d="m 1018.55,267.371 c -2.19,-0.66 -4.67,-0.992 -7.44,-0.992 -0.55,0 -1.99,0.117 -4.31,0.351 -2.32,0.215 -4.23,0.333 -5.75,0.333 l 22.31,41.89 h -34.708 l -4.004,-10.816 c 1.961,1.191 4.02,2.109 6.165,2.734 2.136,0.645 4.269,0.977 6.382,0.977 l 6.655,-0.235 -22.604,-42.48 H 1022 l 4.16,11.933 c -2.88,-1.82 -5.41,-3.046 -7.61,-3.695"
         style="fill:#231f20;fill-opacity:1;fill-rule:nonzero;stroke:none"
         transform="matrix(0.13333333,0,0,-0.13333333,0,72.346667)" />
      <path
         id="path35"
         d="m 1046.09,281.281 5.09,15.117 5.29,-15.117 z m 12.72,-21.855 v -0.293 h 22.91 v 0.293 c -1.61,1.465 -2.83,2.851 -3.66,4.16 -0.83,1.328 -1.68,3.242 -2.54,5.762 l -14.67,39.605 -18.44,-0.152 c 1.06,-0.723 1.79,-1.406 2.19,-2.09 0.4,-0.703 0.61,-1.465 0.61,-2.324 0,-0.723 -0.16,-1.602 -0.46,-2.641 -0.3,-1.031 -0.48,-1.656 -0.53,-1.875 l -10.21,-29.41 c -0.95,-2.871 -1.69,-4.824 -2.19,-5.898 -1,-2.11 -2.29,-3.829 -3.85,-5.137 v -0.293 h 15.5 v 0.293 c -0.96,0.703 -1.67,1.387 -2.12,2.012 -0.45,0.625 -0.68,1.347 -0.68,2.148 0.05,0.566 0.19,1.23 0.41,2.051 0.23,0.801 0.45,1.523 0.65,2.187 l 2.19,6.348 h 15.04 l 2.35,-7.188 c 0.3,-0.742 0.48,-1.308 0.53,-1.66 0.05,-0.351 0.07,-0.879 0.07,-1.582 0,-1.719 -1.03,-3.144 -3.1,-4.316"
         style="fill:#231f20;fill-opacity:1;fill-rule:nonzero;stroke:none"
         transform="matrix(0.13333333,0,0,-0.13333333,0,72.346667)" />
      <path
         id="path36"
         d="m 1096.39,290.129 17.39,-23.281 c 2.22,-2.93 5.32,-5.332 9.3,-7.188 3.02,-1.406 5.45,-2.129 7.26,-2.129 h 0.3 v 42.559 c 0,1.656 0.28,3.262 0.83,4.805 0.56,1.543 1.42,2.89 2.57,4.058 h -14.66 l 0.15,-0.152 c 1.46,-1.465 2.42,-3.164 2.87,-5.078 0.25,-1.055 0.38,-2.637 0.38,-4.707 v -20.688 l -23.14,30.625 h -15.8 v -0.308 c 1.81,-1.973 3,-3.653 3.56,-5.04 0.55,-1.386 0.83,-3.691 0.83,-6.914 v -28.398 c 0,-2.227 -0.3,-4.023 -0.87,-5.41 -0.58,-1.387 -1.43,-2.539 -2.54,-3.457 v -0.293 h 14.67 v 0.293 c -1.11,1.015 -1.95,2.207 -2.53,3.594 -0.58,1.386 -0.87,3.144 -0.87,5.253 v 21.856 h 0.3"
         style="fill:#231f20;fill-opacity:1;fill-rule:nonzero;stroke:none"
         transform="matrix(0.13333333,0,0,-0.13333333,0,72.346667)" />
      <path
         id="path37"
         d="m 1155.18,305.422 c 0.32,1.191 1.19,2.363 2.6,3.531 l -20.18,-0.152 c 1.41,-1.113 2.28,-2.266 2.61,-3.438 0.32,-1.191 0.49,-3.359 0.49,-6.484 v -30.293 c 0,-2.715 -0.13,-4.57 -0.38,-5.527 -0.41,-1.563 -1.31,-2.871 -2.72,-3.926 l 20.18,0.137 c -1.26,0.976 -2.09,2.011 -2.49,3.144 -0.41,1.152 -0.61,3.106 -0.61,5.879 v 31.191 c 0,2.774 0.17,4.762 0.5,5.938"
         style="fill:#231f20;fill-opacity:1;fill-rule:nonzero;stroke:none"
         transform="matrix(0.13333333,0,0,-0.13333333,0,72.346667)" />
      <path
         id="path38"
         d="m 1178.48,281.281 5.09,15.117 5.29,-15.117 z m 29.43,-11.933 -14.67,39.605 -18.45,-0.152 c 1.06,-0.723 1.8,-1.406 2.2,-2.09 0.4,-0.703 0.6,-1.465 0.6,-2.324 0,-0.723 -0.15,-1.602 -0.45,-2.641 -0.3,-1.031 -0.48,-1.656 -0.53,-1.875 l -10.21,-29.41 c -0.96,-2.871 -1.69,-4.824 -2.19,-5.898 -1.01,-2.11 -2.29,-3.829 -3.85,-5.137 v -0.293 h 15.49 v 0.293 c -0.95,0.703 -1.66,1.387 -2.11,2.012 -0.45,0.625 -0.68,1.347 -0.68,2.148 0.05,0.566 0.19,1.23 0.41,2.051 0.23,0.801 0.45,1.523 0.65,2.187 l 2.19,6.348 h 15.04 l 2.35,-7.188 c 0.3,-0.742 0.47,-1.308 0.53,-1.66 0.05,-0.351 0.07,-0.879 0.07,-1.582 0,-1.719 -1.03,-3.144 -3.1,-4.316 v -0.293 h 22.91 v 0.293 c -1.61,1.465 -2.84,2.851 -3.67,4.16 -0.83,1.328 -1.67,3.242 -2.53,5.762"
         style="fill:#231f20;fill-opacity:1;fill-rule:nonzero;stroke:none"
         transform="matrix(0.13333333,0,0,-0.13333333,0,72.346667)" />
      <path
         id="path39"
         d="m 482.418,183.313 c -0.105,0 -2.473,0.253 -7.109,0.761 -1.868,0.196 -3.676,0.293 -5.446,0.293 l 19.977,28.653 -0.016,0.308 H 462.91 l -3.555,-7.711 c 1.411,1.016 2.836,1.719 4.274,2.11 1.434,0.41 3.109,0.601 5.027,0.601 0.856,0 2.356,-0.074 4.496,-0.211 2.141,-0.156 3.696,-0.293 4.653,-0.39 l -20.946,-28.946 v -0.312 h 32.207 l 4.008,8.242 c -2.015,-1.25 -3.832,-2.148 -5.441,-2.637 -1.613,-0.508 -3.356,-0.761 -5.215,-0.761"
         style="fill:#231f20;fill-opacity:1;fill-rule:nonzero;stroke:none"
         transform="matrix(0.13333333,0,0,-0.13333333,0,72.346667)" />
      <path
         id="path40"
         d="m 537.305,197.824 c -0.153,0.098 -3.356,1.27 -9.606,3.477 -3.125,1.113 -4.785,2.441 -4.988,4.004 0,1.328 0.609,2.285 1.82,2.91 1.211,0.644 2.879,0.957 5.004,0.957 3.641,0 6.848,-0.781 9.629,-2.344 v 6.5 c -1.215,0.356 -2.41,0.59 -3.598,0.727 -1.187,0.117 -2.714,0.175 -4.586,0.175 -4.187,0 -7.597,-0.683 -10.222,-2.031 -3.336,-1.719 -5,-4.394 -5,-8.027 0,-2.363 0.859,-4.336 2.578,-5.899 1.215,-1.093 3.164,-2.187 5.844,-3.242 6.172,-2.328 9.48,-3.652 9.941,-4.004 1.52,-1.054 2.274,-2.406 2.274,-4.004 -0.149,-1.527 -1.008,-2.656 -2.579,-3.418 -1.566,-0.742 -3.589,-1.132 -6.066,-1.132 -2.328,0 -4.758,0.39 -7.281,1.132 -2.531,0.762 -4.731,1.797 -6.602,3.106 l 2.496,-7.324 c 3.024,-1.211 6.375,-1.817 10.055,-1.817 4.23,0 7.937,0.899 11.109,2.715 3.786,2.168 5.676,5.211 5.676,9.16 0,1.856 -0.543,3.516 -1.625,4.942 -1.086,1.441 -2.512,2.578 -4.273,3.437"
         style="fill:#231f20;fill-opacity:1;fill-rule:nonzero;stroke:none"
         transform="matrix(0.13333333,0,0,-0.13333333,0,72.346667)" />
      <path
         id="path41"
         d="m 549.773,225.871 c -0.902,-0.957 -1.355,-2.031 -1.355,-3.242 0,-1.367 0.453,-2.5 1.355,-3.399 0.911,-0.917 2.02,-1.367 3.332,-1.367 1.36,0 2.497,0.45 3.403,1.367 0.902,0.899 1.359,2.032 1.359,3.399 0,1.25 -0.465,2.363 -1.398,3.281 -0.934,0.938 -2.055,1.406 -3.364,1.406 -1.312,0 -2.421,-0.488 -3.332,-1.445"
         style="fill:#231f20;fill-opacity:1;fill-rule:nonzero;stroke:none"
         transform="matrix(0.13333333,0,0,-0.13333333,0,72.346667)" />
      <path
         id="path42"
         d="m 557.379,181.262 c -0.277,1.015 -0.422,2.656 -0.422,4.922 v 28.359 h -0.301 c -0.855,-0.922 -2.672,-1.367 -5.441,-1.367 -0.707,0 -1.375,0 -2.004,0 -0.633,0 -1.301,0 -2.004,0 v -0.293 c 1.262,-0.664 2.09,-1.582 2.496,-2.793 0.199,-0.606 0.301,-1.68 0.301,-3.242 v -22.207 c 0,-1.313 -0.176,-2.461 -0.531,-3.457 -0.352,-0.996 -1.11,-1.797 -2.266,-2.403 v -0.312 h 12.551 l 0.148,0.312 c -1.41,0.645 -2.254,1.485 -2.527,2.481"
         style="fill:#231f20;fill-opacity:1;fill-rule:nonzero;stroke:none"
         transform="matrix(0.13333333,0,0,-0.13333333,0,72.346667)" />
      <path
         id="path43"
         d="m 573.215,201.535 c 0.348,2.418 1.488,4.317 3.402,5.703 1.914,1.383 4.129,2.09 6.653,2.09 2.468,0 4.613,-0.683 6.425,-2.012 1.813,-1.328 2.848,-3.261 3.102,-5.781 z m 22.566,8.125 c -3.246,3.145 -7.246,4.727 -11.98,4.727 -6.102,0 -10.914,-1.934 -14.442,-5.821 -3.074,-3.378 -4.613,-7.519 -4.613,-12.402 0,-5.898 2.27,-10.586 6.809,-14.062 4.082,-3.125 9.07,-4.688 14.968,-4.688 1.762,0 3.516,0.156 5.254,0.488 1.739,0.332 3.461,0.821 5.176,1.485 l 3.555,7.031 c -1.762,-1.309 -3.754,-2.305 -5.973,-2.949 -2.222,-0.664 -4.359,-0.996 -6.426,-0.996 h -1.886 c -4.539,0.41 -8.02,2.226 -10.438,5.429 -1.918,2.594 -2.875,5.664 -2.875,9.176 h 27.75 c 0,5.238 -1.629,9.438 -4.879,12.582"
         style="fill:#231f20;fill-opacity:1;fill-rule:nonzero;stroke:none"
         transform="matrix(0.13333333,0,0,-0.13333333,0,72.346667)" />
      <path
         id="path44"
         d="m 640.883,181.086 c -0.403,0.879 -0.606,1.934 -0.606,3.125 0,0.508 0,1.172 0,1.973 l -0.144,43.394 c -0.336,-0.543 -0.809,-0.914 -1.41,-1.09 -0.61,-0.175 -1.274,-0.273 -2,-0.273 l -6.043,-0.137 c 1.406,-0.918 2.289,-1.855 2.64,-2.812 0.203,-0.489 0.301,-1.485 0.301,-2.95 v -12.382 c -1.762,1.445 -3.586,2.539 -5.476,3.242 -1.891,0.703 -3.793,1.054 -5.707,1.054 -5.797,0 -10.461,-2.07 -13.993,-6.191 -3.019,-3.535 -4.535,-7.48 -4.535,-11.875 0,-6.601 2.242,-11.543 6.731,-14.824 3.425,-2.52 7.586,-3.77 12.472,-3.77 0.957,0 1.614,0 1.969,0.039 0.352,0.02 0.981,0.118 1.891,0.254 l 4.609,6.817 c -2.016,-1.465 -4.281,-2.207 -6.801,-2.207 -3.531,0 -6.554,1.211 -9.074,3.632 -2.723,2.618 -4.082,5.973 -4.082,10.059 0,4.141 1.184,7.402 3.551,9.824 2.168,2.227 4.765,3.34 7.789,3.34 3.019,0 5.492,-0.898 7.41,-2.656 2.164,-1.973 3.246,-4.766 3.246,-8.399 v -19.804 h 9.758 v 0.312 c -1.262,0.645 -2.094,1.422 -2.496,2.305"
         style="fill:#231f20;fill-opacity:1;fill-rule:nonzero;stroke:none"
         transform="matrix(0.13333333,0,0,-0.13333333,0,72.346667)" />
      <path
         id="path45"
         d="m 671.43,183.313 c -0.102,0 -2.469,0.253 -7.11,0.761 -1.863,0.196 -3.675,0.293 -5.441,0.293 l 19.973,28.653 -0.012,0.308 h -26.914 l -3.559,-7.711 c 1.414,1.016 2.84,1.719 4.274,2.11 1.437,0.41 3.113,0.601 5.031,0.601 0.851,0 2.351,-0.074 4.496,-0.211 2.141,-0.156 3.691,-0.293 4.648,-0.39 l -20.941,-28.946 v -0.312 h 32.207 l 4.008,8.242 c -2.016,-1.25 -3.832,-2.148 -5.445,-2.637 -1.61,-0.508 -3.352,-0.761 -5.215,-0.761"
         style="fill:#231f20;fill-opacity:1;fill-rule:nonzero;stroke:none"
         transform="matrix(0.13333333,0,0,-0.13333333,0,72.346667)" />
      <path
         id="path46"
         d="m 685.941,225.871 c -0.902,-0.957 -1.355,-2.031 -1.355,-3.242 0,-1.367 0.453,-2.5 1.355,-3.399 0.911,-0.917 2.02,-1.367 3.332,-1.367 1.356,0 2.497,0.45 3.403,1.367 0.902,0.899 1.355,2.032 1.355,3.399 0,1.25 -0.461,2.363 -1.394,3.281 -0.934,0.938 -2.055,1.406 -3.364,1.406 -1.312,0 -2.421,-0.488 -3.332,-1.445"
         style="fill:#231f20;fill-opacity:1;fill-rule:nonzero;stroke:none"
         transform="matrix(0.13333333,0,0,-0.13333333,0,72.346667)" />
      <path
         id="path47"
         d="m 693.547,181.262 c -0.281,1.015 -0.422,2.656 -0.422,4.922 v 28.359 h -0.305 c -0.851,-0.922 -2.668,-1.367 -5.437,-1.367 -0.707,0 -1.375,0 -2.008,0 -0.629,0 -1.297,0 -2,0 v -0.293 c 1.258,-0.664 2.09,-1.582 2.492,-2.793 0.203,-0.606 0.305,-1.68 0.305,-3.242 v -22.207 c 0,-1.313 -0.176,-2.461 -0.531,-3.457 -0.352,-0.996 -1.11,-1.797 -2.266,-2.403 v -0.312 h 12.547 l 0.152,0.312 c -1.41,0.645 -2.258,1.485 -2.527,2.481"
         style="fill:#231f20;fill-opacity:1;fill-rule:nonzero;stroke:none"
         transform="matrix(0.13333333,0,0,-0.13333333,0,72.346667)" />
      <path
         id="path48"
         d="m 722.387,214.23 c -0.809,0 -1.711,-0.078 -2.723,-0.214 -1.008,-0.157 -1.937,-0.332 -2.801,-0.528 l -3.929,-6.504 c 0.711,0.489 1.629,0.879 2.757,1.172 1.141,0.274 2.336,0.41 3.594,0.41 3.024,0 5.543,-0.863 7.563,-2.578 2.422,-2.07 3.625,-5.136 3.625,-9.218 0,-4.883 -1.332,-8.575 -4.004,-11.036 -2.27,-2.07 -5.317,-3.105 -9.149,-3.105 -0.757,0 -1.562,0.074 -2.418,0.234 -0.859,0.157 -2.121,0.45 -3.785,0.899 l -0.148,45.816 c -0.602,-0.894 -1.836,-1.363 -3.703,-1.363 l -5.746,-0.137 c 1.156,-0.723 1.914,-1.504 2.265,-2.383 0.356,-0.879 0.531,-2.168 0.531,-3.828 v -37.656 -0.606 c 0,-0.902 -0.152,-1.796 -0.453,-2.675 -0.304,-0.879 -0.883,-1.543 -1.738,-2.012 2.063,-0.297 4.152,-0.625 6.273,-0.977 2.622,-0.351 5.165,-0.527 7.637,-0.527 6.754,0 12.133,1.68 16.145,5.02 4.004,3.359 6.008,7.754 6.008,13.203 0,5.449 -1.45,9.902 -4.348,13.379 -2.899,3.476 -6.715,5.214 -11.453,5.214"
         style="fill:#231f20;fill-opacity:1;fill-rule:nonzero;stroke:none"
         transform="matrix(0.13333333,0,0,-0.13333333,0,72.346667)" />
      <path
         id="path49"
         d="m 771.152,168.879 c -0.554,0.566 -0.832,1.035 -0.832,1.445 0,1.582 0.176,2.832 0.532,3.77 0.347,0.937 1.211,2.109 2.566,3.476 l 3.402,4.903 c -2.472,0 -4.179,0.547 -5.105,1.601 -0.93,1.074 -1.395,2.832 -1.395,5.313 v 13.222 c 0,4.063 -1.453,7.071 -4.359,9.043 -2.504,1.719 -5.832,2.578 -9.992,2.578 -0.602,0 -1.5,-0.078 -2.707,-0.214 -1.199,-0.157 -1.977,-0.235 -2.328,-0.235 l -4.957,-7.558 c 1.703,0.855 3.211,1.504 4.515,1.972 2.008,0.645 3.887,0.977 5.645,0.977 1.707,0 3.238,-0.332 4.593,-0.977 1.754,-0.859 2.633,-2.05 2.633,-3.554 0,-0.664 -0.148,-1.289 -0.453,-1.895 -0.297,-0.605 -0.601,-1.016 -0.902,-1.211 -1.008,-0.762 -2.613,-1.406 -4.82,-1.972 -6.129,-1.567 -9.297,-2.383 -9.497,-2.485 -2.16,-1.012 -3.769,-2.144 -4.82,-3.414 -1.262,-1.504 -1.887,-3.418 -1.887,-5.742 0,-2.93 1.184,-5.371 3.551,-7.363 2.375,-1.993 5.524,-2.989 9.453,-2.989 0.809,0 1.41,0.02 1.817,0.078 0.402,0.04 1.054,0.118 1.965,0.215 l 4.46,5.606 c -1.058,-0.313 -2.078,-0.547 -3.058,-0.723 -0.988,-0.176 -1.883,-0.273 -2.688,-0.273 -2.421,0 -4.359,0.547 -5.82,1.64 -1.465,1.075 -2.191,2.598 -2.191,4.571 0,2.968 2.496,5.039 7.484,6.187 3.391,0.824 5.859,1.645 7.406,2.5 v -11.793 c 0,-3.984 2.121,-6.504 6.356,-7.558 -1.211,-0.704 -2.207,-1.719 -2.989,-3.086 -0.785,-1.348 -1.171,-2.911 -1.171,-4.649 0,-1.719 0.668,-3.086 2,-4.101 1.336,-1.036 2.937,-1.543 4.804,-1.543 1.508,0 2.918,0.351 4.235,1.035 l 1.211,3.418 c -1.211,-0.703 -2.829,-1.055 -4.84,-1.055 -0.66,0 -1.266,0.274 -1.817,0.84"
         style="fill:#231f20;fill-opacity:1;fill-rule:nonzero;stroke:none"
         transform="matrix(0.13333333,0,0,-0.13333333,0,72.346667)" />
      <path
         id="path50"
         d="m 843.129,213.02 c 1.613,-0.801 2.418,-1.934 2.418,-3.399 0,-0.547 -0.137,-1.23 -0.41,-2.051 -0.274,-0.8 -0.535,-1.562 -0.782,-2.265 l -7.308,-17.989 -6.609,18.457 c -0.504,1.25 -0.973,2.5 -1.407,3.731 -0.426,1.25 -0.695,2.168 -0.801,2.773 l 0.153,1.051 h -10.055 v -0.308 c 1.414,-0.704 2.117,-1.68 2.117,-2.95 0,-0.644 -0.125,-1.386 -0.367,-2.187 -0.25,-0.82 -0.473,-1.524 -0.668,-2.129 l -7.262,-18.477 -9.011,23.711 c -0.254,0.508 -0.422,0.938 -0.496,1.289 -0.078,0.352 -0.164,0.996 -0.262,1.953 h -0.305 c -0.605,-0.39 -1.281,-0.625 -2.039,-0.703 -0.758,-0.097 -1.437,-0.156 -2.043,-0.199 -0.808,0 -1.586,0 -2.344,0 -0.753,0 -1.562,0 -2.421,0 v -0.308 c 1.144,-0.649 2.039,-1.567 2.687,-2.735 0.047,-0.097 0.516,-1.152 1.414,-3.183 l 8.629,-22.481 c 0.715,-1.758 1.461,-3.047 2.227,-3.906 1.175,-1.348 3.046,-2.559 5.609,-3.594 l 10.285,26.445 7.406,-19.492 c 0.758,-2.226 1.84,-3.871 3.25,-4.922 1.161,-0.644 2.344,-1.328 3.551,-2.031 l 15.051,36.207 h -10.207 v -0.308"
         style="fill:#231f20;fill-opacity:1;fill-rule:nonzero;stroke:none"
         transform="matrix(0.13333333,0,0,-0.13333333,0,72.346667)" />
      <path
         id="path51"
         d="m 941.793,183.313 c -0.105,0 -2.473,0.253 -7.109,0.761 -1.868,0.196 -3.676,0.293 -5.446,0.293 l 19.977,28.653 -0.016,0.308 h -26.914 l -3.555,-7.711 c 1.411,1.016 2.836,1.719 4.274,2.11 1.434,0.41 3.109,0.601 5.027,0.601 0.856,0 2.356,-0.074 4.496,-0.211 2.141,-0.156 3.696,-0.293 4.653,-0.39 L 917.488,180.52 c -1.8,1.289 -3.683,2.558 -5.183,3.925 -1.66,1.504 -2.871,2.774 -3.629,3.789 l -11.567,14.434 c 3.782,1.152 6.704,2.871 8.77,5.137 1.816,2.011 2.871,4.336 3.176,6.953 0,3.945 -1.239,7.09 -3.703,9.453 -2.774,2.676 -6.805,4.004 -12.098,4.004 h -17.691 v -0.293 c 1.492,-0.606 2.457,-1.758 2.89,-3.477 0.238,-1.015 0.36,-3.105 0.36,-6.269 v -29.043 c 0,-3.184 -0.18,-5.547 -0.532,-7.149 -0.351,-1.582 -1.261,-2.656 -2.718,-3.203 v -0.312 l 14.285,0.152 c -1.457,0.805 -2.375,1.859 -2.758,3.188 -0.375,1.308 -0.567,3.687 -0.567,7.168 v 33.945 c 1.211,0.254 2.082,0.43 2.61,0.508 0.531,0.058 1.273,0.097 2.23,0.097 2.821,0 5.117,-0.566 6.879,-1.738 2.117,-1.348 3.176,-3.398 3.176,-6.113 0,-3.34 -1.438,-6.035 -4.309,-8.106 -2.269,-1.621 -5.218,-2.699 -8.847,-3.242 l 6.937,-10.527 8.828,-10.899 c 1.11,-1.504 2.286,-2.617 3.524,-3.339 1.238,-0.723 2.871,-1.094 4.887,-1.094 h 3.796 3.938 28.269 l 4.008,8.242 c -2.015,-1.25 -3.832,-2.148 -5.441,-2.637 -1.613,-0.508 -3.356,-0.761 -5.215,-0.761"
         style="fill:#231f20;fill-opacity:1;fill-rule:nonzero;stroke:none"
         transform="matrix(0.13333333,0,0,-0.13333333,0,72.346667)" />
      <path
         id="path52"
         d="m 961.598,201.535 c 0.351,2.418 1.488,4.317 3.402,5.703 1.914,1.383 4.133,2.09 6.656,2.09 2.465,0 4.61,-0.683 6.426,-2.012 1.813,-1.328 2.848,-3.261 3.102,-5.781 z m 22.566,8.125 c -3.246,3.145 -7.246,4.727 -11.98,4.727 -6.098,0 -10.914,-1.934 -14.442,-5.821 -3.074,-3.378 -4.613,-7.519 -4.613,-12.402 0,-5.898 2.269,-10.586 6.809,-14.062 4.082,-3.125 9.07,-4.688 14.968,-4.688 1.766,0 3.516,0.156 5.254,0.488 1.738,0.332 3.461,0.821 5.176,1.485 l 3.555,7.031 c -1.762,-1.309 -3.754,-2.305 -5.969,-2.949 -2.223,-0.664 -4.363,-0.996 -6.43,-0.996 h -1.887 c -4.539,0.41 -8.019,2.226 -10.433,5.429 -1.922,2.594 -2.879,5.664 -2.879,9.176 h 27.75 c 0,5.238 -1.625,9.438 -4.879,12.582"
         style="fill:#231f20;fill-opacity:1;fill-rule:nonzero;stroke:none"
         transform="matrix(0.13333333,0,0,-0.13333333,0,72.346667)" />
      <path
         id="path53"
         d="m 1014.9,197.824 c -0.15,0.098 -3.35,1.27 -9.6,3.477 -3.13,1.113 -4.79,2.441 -4.99,4.004 0,1.328 0.61,2.285 1.82,2.91 1.21,0.644 2.88,0.957 5,0.957 3.64,0 6.85,-0.781 9.63,-2.344 v 6.5 c -1.21,0.356 -2.41,0.59 -3.6,0.727 -1.18,0.117 -2.71,0.175 -4.58,0.175 -4.19,0 -7.6,-0.683 -10.225,-2.031 -3.335,-1.719 -5,-4.394 -5,-8.027 0,-2.363 0.86,-4.336 2.579,-5.899 1.214,-1.093 3.164,-2.187 5.846,-3.242 6.17,-2.328 9.48,-3.652 9.94,-4.004 1.52,-1.054 2.27,-2.406 2.27,-4.004 -0.15,-1.527 -1.01,-2.656 -2.57,-3.418 -1.57,-0.742 -3.6,-1.132 -6.07,-1.132 -2.33,0 -4.76,0.39 -7.284,1.132 -2.531,0.762 -4.73,1.797 -6.601,3.106 l 2.496,-7.324 c 3.019,-1.211 6.379,-1.817 10.049,-1.817 4.24,0 7.94,0.899 11.12,2.715 3.78,2.168 5.67,5.211 5.67,9.16 0,1.856 -0.54,3.516 -1.63,4.942 -1.08,1.441 -2.5,2.578 -4.27,3.437"
         style="fill:#231f20;fill-opacity:1;fill-rule:nonzero;stroke:none"
         transform="matrix(0.13333333,0,0,-0.13333333,0,72.346667)" />
      <path
         id="path54"
         d="m 1047.71,183.313 c -0.1,0 -2.47,0.253 -7.1,0.761 -1.87,0.196 -3.68,0.293 -5.45,0.293 l 19.98,28.653 -0.02,0.308 h -26.91 l -3.56,-7.711 c 1.41,1.016 2.84,1.719 4.28,2.11 1.43,0.41 3.11,0.601 5.03,0.601 0.85,0 2.35,-0.074 4.49,-0.211 2.14,-0.156 3.69,-0.293 4.65,-0.39 l -20.94,-28.946 v -0.312 h 32.21 l 4,8.242 c -2.01,-1.25 -3.83,-2.148 -5.44,-2.637 -1.61,-0.508 -3.35,-0.761 -5.22,-0.761"
         style="fill:#231f20;fill-opacity:1;fill-rule:nonzero;stroke:none"
         transform="matrix(0.13333333,0,0,-0.13333333,0,72.346667)" />
      <path
         id="path55"
         d="m 1087.26,186.281 c -2.07,-2.636 -4.92,-3.945 -8.55,-3.945 h -0.6 c -3.28,0 -6.02,1.406 -8.21,4.219 -2.19,2.832 -3.28,6.23 -3.28,10.215 0,4.433 1.4,7.793 4.23,10.058 2.07,1.66 4.43,2.5 7.1,2.5 3.63,0 6.58,-1.504 8.85,-4.492 2.12,-2.793 3.18,-6.074 3.18,-9.883 0,-3.457 -0.91,-6.348 -2.72,-8.672 z m -8.4,27.949 c -6.5,0 -11.57,-1.953 -15.19,-5.902 -3.18,-3.414 -4.77,-7.594 -4.77,-12.535 0,-5 1.64,-9.199 4.92,-12.637 3.57,-3.73 8.34,-5.586 14.29,-5.586 5.29,0 9.89,1.797 13.79,5.41 3.91,3.594 5.86,7.989 5.86,13.184 0,5.449 -1.94,9.883 -5.82,13.301 -3.58,3.183 -7.94,4.765 -13.08,4.765"
         style="fill:#231f20;fill-opacity:1;fill-rule:nonzero;stroke:none"
         transform="matrix(0.13333333,0,0,-0.13333333,0,72.346667)" />
      <path
         id="path56"
         d="m 1147.06,213.02 c 1.61,-0.801 2.42,-1.934 2.42,-3.399 0,-0.547 -0.14,-1.23 -0.41,-2.051 -0.28,-0.8 -0.54,-1.562 -0.78,-2.265 l -7.31,-17.989 -6.61,18.457 c -0.51,1.25 -0.98,2.5 -1.41,3.731 -0.43,1.25 -0.69,2.168 -0.8,2.773 l 0.15,1.051 h -10.05 v -0.308 c 1.41,-0.704 2.12,-1.68 2.12,-2.95 0,-0.644 -0.13,-1.386 -0.37,-2.187 -0.25,-0.82 -0.47,-1.524 -0.67,-2.129 l -7.26,-18.477 -9.01,23.711 c -0.26,0.508 -0.42,0.938 -0.5,1.289 -0.08,0.352 -0.16,0.996 -0.26,1.953 h -0.3 c -0.61,-0.39 -1.29,-0.625 -2.05,-0.703 -0.75,-0.097 -1.43,-0.156 -2.04,-0.199 -0.81,0 -1.58,0 -2.34,0 -0.76,0 -1.56,0 -2.42,0 v -0.308 c 1.14,-0.649 2.03,-1.567 2.68,-2.735 0.05,-0.097 0.52,-1.152 1.42,-3.183 l 8.63,-22.481 c 0.71,-1.758 1.46,-3.047 2.22,-3.906 1.18,-1.348 3.05,-2.559 5.61,-3.594 l 10.29,26.445 7.41,-19.492 c 0.75,-2.226 1.84,-3.871 3.25,-4.922 1.15,-0.644 2.34,-1.328 3.55,-2.031 l 15.05,36.207 h -10.21 v -0.308"
         style="fill:#231f20;fill-opacity:1;fill-rule:nonzero;stroke:none"
         transform="matrix(0.13333333,0,0,-0.13333333,0,72.346667)" />
      <path
         id="path57"
         d="m 1165.36,217.863 c 1.35,0 2.49,0.45 3.4,1.367 0.9,0.899 1.36,2.032 1.36,3.399 0,1.25 -0.47,2.363 -1.4,3.281 -0.93,0.938 -2.05,1.406 -3.36,1.406 -1.32,0 -2.43,-0.488 -3.33,-1.445 -0.91,-0.957 -1.36,-2.031 -1.36,-3.242 0,-1.367 0.45,-2.5 1.36,-3.399 0.9,-0.917 2.01,-1.367 3.33,-1.367"
         style="fill:#231f20;fill-opacity:1;fill-rule:nonzero;stroke:none"
         transform="matrix(0.13333333,0,0,-0.13333333,0,72.346667)" />
      <path
         id="path58"
         d="m 1169.63,181.262 c -0.28,1.015 -0.42,2.656 -0.42,4.922 v 28.359 h -0.3 c -0.86,-0.922 -2.67,-1.367 -5.44,-1.367 -0.71,0 -1.38,0 -2.01,0 -0.63,0 -1.3,0 -2,0 v -0.293 c 1.26,-0.664 2.09,-1.582 2.49,-2.793 0.2,-0.606 0.31,-1.68 0.31,-3.242 v -22.207 c 0,-1.313 -0.18,-2.461 -0.54,-3.457 -0.35,-0.996 -1.1,-1.797 -2.26,-2.403 v -0.312 h 12.55 l 0.15,0.312 c -1.41,0.645 -2.26,1.485 -2.53,2.481"
         style="fill:#231f20;fill-opacity:1;fill-rule:nonzero;stroke:none"
         transform="matrix(0.13333333,0,0,-0.13333333,0,72.346667)" />
      <path
         id="path59"
         d="m 1185.46,201.535 c 0.36,2.418 1.49,4.317 3.41,5.703 1.91,1.383 4.13,2.09 6.65,2.09 2.47,0 4.61,-0.683 6.43,-2.012 1.81,-1.328 2.84,-3.261 3.1,-5.781 z m 22.57,8.125 c -3.24,3.145 -7.24,4.727 -11.98,4.727 -6.1,0 -10.91,-1.934 -14.44,-5.821 -3.07,-3.378 -4.61,-7.519 -4.61,-12.402 0,-5.898 2.27,-10.586 6.8,-14.062 4.09,-3.125 9.08,-4.688 14.97,-4.688 1.77,0 3.52,0.156 5.26,0.488 1.74,0.332 3.46,0.821 5.17,1.485 l 3.56,7.031 c -1.76,-1.309 -3.76,-2.305 -5.97,-2.949 -2.22,-0.664 -4.36,-0.996 -6.43,-0.996 h -1.89 c -4.53,0.41 -8.02,2.226 -10.43,5.429 -1.92,2.594 -2.88,5.664 -2.88,9.176 h 27.75 c 0,5.238 -1.63,9.438 -4.88,12.582"
         style="fill:#231f20;fill-opacity:1;fill-rule:nonzero;stroke:none"
         transform="matrix(0.13333333,0,0,-0.13333333,0,72.346667)" />
      <path
         id="path60"
         d="m 655.605,297.102 c 1.368,1.445 2.055,3.144 2.055,5.097 0,2.031 -0.695,3.75 -2.094,5.156 -1.402,1.407 -3.043,2.11 -4.937,2.11 -1.996,0 -3.695,-0.703 -5.086,-2.11 -1.398,-1.406 -2.098,-3.125 -2.098,-5.156 0,-1.996 0.7,-3.711 2.098,-5.136 1.391,-1.407 3.09,-2.11 5.086,-2.11 1.945,0 3.601,0.723 4.976,2.149"
         style="fill:#231f20;fill-opacity:1;fill-rule:nonzero;stroke:none"
         transform="matrix(0.13333333,0,0,-0.13333333,0,72.346667)" />
      <path
         id="path61"
         d="m 644.055,261.945 c -0.309,-1.035 -1.035,-2.031 -2.2,-2.992 v -0.289 h 18.454 v 0.289 c -1.114,0.863 -1.832,1.742 -2.161,2.621 -0.328,0.879 -0.488,2.188 -0.488,3.906 v 26.153 h -0.305 c -0.816,-0.449 -1.562,-0.742 -2.253,-0.86 -0.688,-0.136 -1.696,-0.195 -3.016,-0.195 h -0.992 -9.239 v -0.312 c 1.231,-1.055 1.977,-2.012 2.247,-2.911 0.269,-0.878 0.406,-1.992 0.406,-3.281 v -18.301 c 0,-1.527 -0.156,-2.793 -0.453,-3.828"
         style="fill:#231f20;fill-opacity:1;fill-rule:nonzero;stroke:none"
         transform="matrix(0.13333333,0,0,-0.13333333,0,72.346667)" />
    </g>
  </g>
</svg>
