<?xml version="1.0" encoding="UTF-8" standalone="no"?>
<!-- Created with Inkscape (http://www.inkscape.org/) -->

<svg
   version="1.1"
   id="svg1"
   width="226.25333"
   height="72.346664"
   viewBox="0 0 226.25333 72.346664"
   sodipodi:docname="PL_mono_main.eps"
   xmlns:inkscape="http://www.inkscape.org/namespaces/inkscape"
   xmlns:sodipodi="http://sodipodi.sourceforge.net/DTD/sodipodi-0.dtd"
   xmlns="http://www.w3.org/2000/svg"
   xmlns:svg="http://www.w3.org/2000/svg">
  <defs
     id="defs1" />
  <sodipodi:namedview
     id="namedview1"
     pagecolor="#ffffff"
     bordercolor="#000000"
     borderopacity="0.25"
     inkscape:showpageshadow="2"
     inkscape:pageopacity="0.0"
     inkscape:pagecheckerboard="0"
     inkscape:deskcolor="#d1d1d1">
    <inkscape:page
       x="0"
       y="0"
       inkscape:label="1"
       id="page1"
       width="226.25333"
       height="72.346664"
       margin="0"
       bleed="0" />
  </sodipodi:namedview>
  <g
     id="g1"
     inkscape:groupmode="layer"
     inkscape:label="1">
    <g
       id="group-R5">
      <path
         id="path2"
         d="m 414.48,187.148 c -8.312,-0.632 -16.804,-1.035 -25.05,-1.433 -19.418,-0.918 -39.485,-1.887 -58.309,-5.93 -20.891,-4.519 -37.961,-12.519 -52.476,-24.461 v 27.039 h -10.172 v -26.961 c -17.461,13.68 -38.223,22.606 -64.313,27.274 -23.18,4.121 -46.965,4.472 -71.324,4.472 V 407.18 h 80.316 c 11.789,-0.383 17.45,-3.36 28.403,-12.051 l 0.09,-0.109 c 0,-11.641 0,-23.29 0,-34.872 10.765,-4.621 21.546,-9.191 32.332,-13.695 10.32,4.504 20.769,9.074 31.257,13.695 0,11.524 0,23.114 0,34.676 l 0.125,0.11 c 10.493,8.113 17.524,11.531 24.977,12.246 H 414.48 Z M 249.313,399.492 c 7.968,-4.765 15.917,-9.441 24.062,-14.129 -8.145,-4.804 -16.094,-9.57 -24.062,-14.25 0,9.446 0,18.938 0,28.379 z m 38.378,9.844 c -4.742,-8.047 -9.445,-16.023 -14.144,-23.973 7.922,4.688 15.918,9.364 23.887,14.129 0,-9.441 0,-18.933 0,-28.379 -7.969,4.68 -15.965,9.446 -23.887,14.25 4.699,-8.078 9.402,-16.027 14.144,-24.015 -9.589,0 -19.043,0 -28.472,0 4.703,7.988 9.429,15.937 14.328,24.015 -4.899,7.95 -9.625,15.926 -14.328,23.973 9.429,0 18.883,0 28.472,0 z m 44.387,2.187 c -8.469,0 -18.23,-4.101 -26.844,-11.21 0,4.64 0,9.25 0,13.906 -21.246,0 -42.496,0 -63.589,0 0,-4.461 0,-8.856 0,-13.309 -8.918,8.758 -21.036,10.613 -29.629,10.613 h -83.422 v -0.214 C 128.43,335.203 128.43,257.832 128.43,182.996 v -0.055 l 0.039,-0.039 c 6.226,-9.574 12.738,-19.308 19.008,-28.742 l 1.644,-2.469 0.059,-0.089 0.101,-0.008 c 3.586,-0.09 7.473,-0.149 11.949,-0.149 3.958,0 7.95,0.059 11.829,0.078 3.804,0.02 7.738,0.071 11.625,0.071 21.324,0 38.988,-1.192 55.863,-6.934 11.113,-4.258 18.496,-8.781 28.402,-14.492 l 2.621,-1.504 v 0.352 c -0.183,16.718 -0.183,33.687 -0.183,50.136 h 4.195 v -50.48 l 0.281,0.156 c 2.274,1.203 4.293,2.336 6.188,3.352 11.406,6.16 16.902,9.273 24,11.336 24.535,7.539 41.898,8.144 60.48,8.144 3.231,0 6.477,-0.008 9.969,-0.039 5.617,-0.027 11.551,-0.098 18.008,-0.027 h 0.105 l 0.059,0.066 c 8.453,11.055 16.086,21.055 24.035,31.211 l 0.02,0.059 v 228.593 h -86.649"
         style="fill:#231f20;fill-opacity:1;fill-rule:nonzero;stroke:none"
         transform="matrix(0.13333333,0,0,-0.13333333,0,72.346667)" />
      <path
         id="path3"
         d="m 301.051,330.461 v -55.508 l -27.676,21.211 -27.687,-21.008 v 55.305 z m -49.391,-92.434 -5.972,-5.047 v 36.493 l 5.972,4.543 z m 12.356,10.411 -7.84,-6.602 v 35.605 l 7.84,5.93 z m 14.144,4.121 c -2.773,2.375 -4.613,3.937 -4.613,3.937 l -5.024,-4.238 v 34.539 l 4.852,3.672 4.785,-3.66 z m 12.363,-10.528 c -2.675,2.266 -5.386,4.59 -7.847,6.68 v 34.641 l 7.847,-6.028 z m 10.528,-8.945 c -1.653,1.398 -3.75,3.176 -6.012,5.098 v 35.683 l 6.012,-4.609 z m -59.875,-42.703 h 64.39 v 144.59 h -64.39 v -144.59"
         style="fill:#231f20;fill-opacity:1;fill-rule:nonzero;stroke:none"
         transform="matrix(0.13333333,0,0,-0.13333333,0,72.346667)" />
      <path
         id="path4"
         d="m 318.828,371.574 h 42.867 l -4.035,-9.238 h -38.832 z m 66.914,-59.504 v 59.504 h 7.621 c 1.969,-19.746 -0.812,-40.129 -7.621,-59.504 z m -14.031,59.504 h 9.516 v -70.898 c -2.782,-6.203 -5.946,-12.199 -9.516,-17.93 z m 27.957,-147.57 v -10.293 h -80.84 v 10 c 2.207,1.613 10.192,7.551 17.797,13.879 6.574,5.469 11.895,10.281 14.168,12.351 17.195,-9.199 33.656,-17.929 48.875,-25.937 z m -74.555,54.973 v -44.825 c -2.437,-1.906 -4.621,-3.566 -6.285,-4.816 v 35.519 c 1.758,4.024 3.961,8.915 6.285,14.122 z m 13.325,29.511 0.707,1.563 v -64.406 c -1.672,-1.446 -3.477,-2.977 -5.411,-4.579 -1.367,-1.144 -2.742,-2.246 -4.105,-3.363 v 51.301 c 2.867,6.34 5.84,12.91 8.809,19.484 z m 10.449,-54.14 -0.707,-0.676 c -0.84,-0.77 -2.395,-2.188 -4.52,-4.07 v 70.418 c 3.235,7.128 6.492,14.335 9.516,21.066 v -82.188 c -1.446,-1.503 -2.785,-3.125 -4.289,-4.55 z m 17.734,117.226 h 0.57 v -95.761 c -2.972,-4.219 -6.136,-8.262 -9.5,-12.122 v 87.5 c 1.27,2.864 2.469,5.567 3.508,7.981 z m -52.305,-13.761 h 41.375 c -5.347,-12.157 -13.164,-29.356 -20.144,-44.754 l -1.234,-2.715 c -7.344,-16.231 -14.942,-33.028 -19.809,-44.114 l -0.188,-0.437 v -56.602 h 89.868 v 16.192 l -0.125,1.414 -1.211,0.625 c -15.153,7.969 -31.493,16.633 -48.618,25.812 6.36,6.317 12.086,13.387 17.286,20.899 h 0.195 v 0.262 c 6.441,9.355 11.988,19.414 16.262,30.089 8.941,22.371 12.297,46.375 9.703,69.434 l -0.258,2.176 h -83.102 v -18.281"
         style="fill:#231f20;fill-opacity:1;fill-rule:nonzero;stroke:none"
         transform="matrix(0.13333333,0,0,-0.13333333,0,72.346667)" />
      <path
         id="path5"
         d="m 195.859,343.621 c -2.914,6.488 -5.578,12.453 -7.718,17.336 l -4.618,10.617 h 42.899 l 0.078,-9.121 c -3.703,-0.098 -10.965,-0.578 -16.406,-2.969 -5.86,-2.558 -8.567,-5.851 -10.84,-9.015 -1.582,-2.196 -2.668,-4.649 -3.395,-6.848 z m 5.481,-23.125 v -70.308 c -4.348,4.128 -8.086,7.871 -9.492,9.285 v 82.043 c 3,-6.692 6.254,-13.879 9.492,-21.02 z m 14.027,-31.004 v -51.609 c -1.285,1.055 -2.594,2.097 -3.89,3.183 -1.786,1.485 -3.688,3.172 -5.602,4.922 v 64.52 l 0.918,-2.02 c 2.891,-6.386 5.781,-12.804 8.574,-18.996 z m 11.024,-60.164 c -1.703,1.277 -3.969,3.008 -6.489,4.969 v 45.109 c 2.403,-5.363 4.664,-10.422 6.481,-14.551 z m -80.832,-15.617 v 7.988 c 8.75,1.621 18.543,5.039 26.621,9.328 8.742,4.637 15.254,14.278 19.668,22.059 4.148,-4.121 10.957,-10.703 16.738,-15.496 7.609,-6.34 15.637,-12.297 17.816,-13.887 v -9.992 z m 6.289,157.863 h 7.406 v -58.859 c -6.633,19.191 -9.336,39.336 -7.406,58.859 z m 11.941,0 h 9.492 V 282.18 c -3.402,5.515 -6.511,11.562 -9.492,18.418 z m 23.52,-19.914 v -87.773 c -3.481,3.703 -6.606,7.5 -9.496,11.484 v 96.203 h 0.781 l 5.398,-12.402 c 0.996,-2.285 2.125,-4.836 3.317,-7.512 z m 24.593,3.692 c 6.477,2.832 16.719,2.609 16.828,2.597 l 2.333,-0.078 -0.168,18.223 h -83.086 l -0.254,-2.176 c -2.617,-23.059 0.726,-47.063 9.703,-69.434 8.39,-20.957 17.215,-34.621 31.195,-48.214 -4.121,-7.411 -10.305,-16.973 -18.379,-21.258 -8.261,-4.375 -18.398,-7.805 -27.113,-9.184 l -1.922,-0.281 v -16.356 h 89.875 l -0.019,56.602 -0.188,0.437 c -4.848,11.086 -12.445,27.883 -19.816,44.114 l -1.227,2.715 c -3.519,7.754 -7.242,15.964 -10.75,23.75 0.211,1.687 1.09,6.992 4,11.023 2.066,2.863 4.172,5.41 8.988,7.52"
         style="fill:#231f20;fill-opacity:1;fill-rule:nonzero;stroke:none"
         transform="matrix(0.13333333,0,0,-0.13333333,0,72.346667)" />
      <path
         id="path6"
         d="m 485.063,388.906 c 0.156,-0.41 0.683,-2.168 1.593,-5.293 l 8.535,-29.109 c 0.86,-3.027 2.852,-5.5 5.977,-7.414 2.012,-1.211 4.766,-2.293 8.242,-3.25 l 7.781,30.242 c 1.067,-3.066 2.629,-8.144 4.688,-15.234 1.719,-5.828 3.762,-9.5 6.125,-11.004 1.211,-0.813 2.449,-1.504 3.711,-2.082 1.258,-0.574 3.015,-1.219 5.293,-1.922 l 15.496,50.808 -12.703,-0.156 c 0.859,-1.015 1.484,-1.961 1.894,-2.851 0.399,-0.887 0.606,-1.914 0.606,-3.086 0,-0.664 -0.031,-1.153 -0.078,-1.485 -0.059,-0.332 -0.168,-0.925 -0.325,-1.785 l -7.421,-25.097 c -6.075,21.406 -9.11,32.214 -9.11,32.421 l 0.449,2.039 -15.957,-0.144 c 0.907,-0.664 1.707,-1.848 2.383,-3.566 0.684,-1.719 1.024,-3.536 1.024,-5.458 -0.047,-0.304 -0.633,-2.707 -1.739,-7.199 -0.605,-2.527 -1.609,-6.511 -3.027,-11.972 -0.555,-2.118 -1.082,-4.219 -1.59,-6.289 h -0.293 l -7.57,28.566 -1.582,6.062 h -16.406 v -0.3 c 1.711,-1.211 3.046,-3.028 4.004,-5.442"
         style="fill:#231f20;fill-opacity:1;fill-rule:nonzero;stroke:none"
         transform="matrix(0.13333333,0,0,-0.13333333,0,72.346667)" />
      <path
         id="path7"
         d="m 558.004,389.043 11.434,-21.582 v -15.215 c 0,-1.465 -0.254,-2.851 -0.75,-4.168 -0.508,-1.308 -1.34,-2.297 -2.5,-2.949 v -0.305 h 20.644 v 0.305 c -1.465,1.309 -2.453,2.918 -2.949,4.832 -0.305,1.16 -0.461,2.754 -0.461,4.766 v 12.707 l 13.691,27.214 -13.691,-0.156 c 0.812,-0.449 1.379,-0.996 1.711,-1.629 0.32,-0.636 0.488,-1.386 0.488,-2.246 0,-0.566 -0.137,-1.281 -0.422,-2.14 -0.273,-0.86 -0.644,-1.883 -1.101,-3.047 l -4.368,-8.856 -8.769,18.074 -17.547,-0.144 c 1.004,-0.617 1.785,-1.25 2.363,-1.934 0.586,-0.683 1.317,-1.855 2.227,-3.527"
         style="fill:#231f20;fill-opacity:1;fill-rule:nonzero;stroke:none"
         transform="matrix(0.13333333,0,0,-0.13333333,0,72.346667)" />
      <path
         id="path8"
         d="m 620.777,398.809 c 1.961,0 3.641,0.714 5.028,2.148 1.386,1.445 2.082,3.145 2.082,5.109 0,2.012 -0.715,3.731 -2.121,5.145 -1.414,1.406 -3.075,2.109 -4.989,2.109 -2.023,0 -3.73,-0.703 -5.148,-2.109 -1.406,-1.414 -2.109,-3.133 -2.109,-5.145 0,-2.011 0.703,-3.73 2.109,-5.136 1.418,-1.418 3.125,-2.121 5.148,-2.121"
         style="fill:#231f20;fill-opacity:1;fill-rule:nonzero;stroke:none"
         transform="matrix(0.13333333,0,0,-0.13333333,0,72.346667)" />
      <path
         id="path9"
         d="m 612.984,387.539 6.661,-0.223 -22.61,-42.492 h 40.754 l 4.16,11.946 c -2.883,-1.817 -5.41,-3.047 -7.609,-3.704 -2.188,-0.652 -4.668,-0.988 -7.442,-0.988 -0.554,0 -1.992,0.121 -4.304,0.344 -2.324,0.226 -4.239,0.344 -5.754,0.344 l 22.305,41.882 h -34.707 l -4.004,-10.808 c 1.964,1.18 4.023,2.098 6.164,2.734 2.136,0.645 4.277,0.965 6.386,0.965"
         style="fill:#231f20;fill-opacity:1;fill-rule:nonzero;stroke:none"
         transform="matrix(0.13333333,0,0,-0.13333333,0,72.346667)" />
      <path
         id="path10"
         d="m 665.426,352.805 c -1.438,-0.832 -3.254,-1.25 -5.461,-1.25 -2.664,0 -5.469,0.547 -8.406,1.64 -2.942,1.094 -5.442,2.539 -7.5,4.336 l 2.5,-10.91 c 1.961,-0.801 4.218,-1.465 6.765,-1.992 2.539,-0.527 5.149,-0.789 7.824,-0.789 5.34,0 9.805,1.062 13.379,3.172 4.336,2.566 6.778,6.437 7.332,11.621 v 1.66 c 0,2.969 -0.8,5.586 -2.41,7.852 -1.906,2.714 -5.293,5.285 -10.168,7.695 -1.66,0.656 -3.301,1.34 -4.902,2.043 -3.516,1.562 -5.274,3.347 -5.274,5.359 0.754,3.321 2.969,4.981 6.641,4.981 1.563,0 3.234,-0.293 5.02,-0.868 1.789,-0.578 3.664,-1.476 5.625,-2.687 v 8.926 c -2.618,0.957 -4.832,1.562 -6.649,1.808 -1.816,0.254 -3.75,0.379 -5.812,0.379 -5.391,0 -9.825,-1.179 -13.301,-3.543 -3.477,-2.367 -5.391,-5.664 -5.742,-9.894 0,-4.168 1.105,-7.598 3.32,-10.266 1.953,-2.359 5.176,-4.547 9.648,-6.558 3.567,-1.661 5.801,-2.825 6.7,-3.477 2.218,-1.555 3.32,-3.398 3.32,-5.508 -0.203,-1.664 -1.016,-2.914 -2.449,-3.73"
         style="fill:#231f20;fill-opacity:1;fill-rule:nonzero;stroke:none"
         transform="matrix(0.13333333,0,0,-0.13333333,0,72.346667)" />
      <path
         id="path11"
         d="m 723.969,344.824 4.16,11.946 c -2.871,-1.817 -5.41,-3.047 -7.598,-3.704 -2.195,-0.652 -4.676,-0.988 -7.449,-0.988 -0.547,0 -1.992,0.121 -4.309,0.344 -2.312,0.226 -4.226,0.344 -5.742,0.344 l 22.305,41.882 h -34.707 l -4.004,-10.808 c 1.965,1.18 4.016,2.098 6.164,2.734 2.137,0.645 4.266,0.965 6.387,0.965 l 6.648,-0.223 -22.605,-42.492 h 40.75"
         style="fill:#231f20;fill-opacity:1;fill-rule:nonzero;stroke:none"
         transform="matrix(0.13333333,0,0,-0.13333333,0,72.346667)" />
      <path
         id="path12"
         d="m 751.645,382.102 5.293,-15.129 -10.379,0.011 z m -7.715,-36.973 c -0.957,0.699 -1.66,1.375 -2.11,2 -0.457,0.637 -0.683,1.348 -0.683,2.16 0.051,0.555 0.187,1.231 0.41,2.039 0.234,0.801 0.449,1.535 0.644,2.188 l 2.2,6.355 h 15.039 l 2.343,-7.183 c 0.301,-0.754 0.477,-1.309 0.536,-1.661 0.05,-0.351 0.07,-0.89 0.07,-1.593 0,-1.707 -1.027,-3.145 -3.098,-4.305 v -0.305 h 22.91 v 0.305 c -1.609,1.465 -2.839,2.851 -3.671,4.16 -0.829,1.316 -1.668,3.231 -2.528,5.762 l -14.668,39.597 -18.449,-0.156 c 1.055,-0.711 1.789,-1.406 2.188,-2.09 0.41,-0.691 0.605,-1.464 0.605,-2.324 0,-0.711 -0.145,-1.59 -0.449,-2.637 -0.301,-1.035 -0.477,-1.66 -0.528,-1.863 l -10.214,-29.414 c -0.957,-2.871 -1.688,-4.836 -2.188,-5.898 -1.004,-2.11 -2.293,-3.828 -3.855,-5.137 v -0.305 h 15.496 v 0.305"
         style="fill:#231f20;fill-opacity:1;fill-rule:nonzero;stroke:none"
         transform="matrix(0.13333333,0,0,-0.13333333,0,72.346667)" />
      <path
         id="path13"
         d="m 822.758,352.805 c -1.434,-0.832 -3.25,-1.25 -5.457,-1.25 -2.668,0 -5.469,0.547 -8.41,1.64 -2.938,1.094 -5.438,2.539 -7.5,4.336 l 2.5,-10.91 c 1.964,-0.801 4.218,-1.465 6.769,-1.992 2.539,-0.527 5.145,-0.789 7.82,-0.789 5.344,0 9.805,1.062 13.379,3.172 4.336,2.566 6.778,6.437 7.336,11.621 v 1.66 c 0,2.969 -0.8,5.586 -2.414,7.852 -1.902,2.714 -5.293,5.285 -10.164,7.695 -1.66,0.656 -3.301,1.34 -4.902,2.043 -3.516,1.562 -5.274,3.347 -5.274,5.359 0.75,3.321 2.969,4.981 6.641,4.981 1.563,0 3.231,-0.293 5.02,-0.868 1.785,-0.578 3.66,-1.476 5.625,-2.687 v 8.926 c -2.618,0.957 -4.836,1.562 -6.653,1.808 -1.816,0.254 -3.75,0.379 -5.808,0.379 -5.391,0 -9.825,-1.179 -13.301,-3.543 -3.477,-2.367 -5.391,-5.664 -5.742,-9.894 0,-4.168 1.101,-7.598 3.32,-10.266 1.953,-2.359 5.176,-4.547 9.648,-6.558 3.563,-1.661 5.801,-2.825 6.7,-3.477 2.214,-1.555 3.32,-3.398 3.32,-5.508 -0.207,-1.664 -1.016,-2.914 -2.453,-3.73"
         style="fill:#231f20;fill-opacity:1;fill-rule:nonzero;stroke:none"
         transform="matrix(0.13333333,0,0,-0.13333333,0,72.346667)" />
      <path
         id="path14"
         d="m 881.313,344.824 4.16,11.946 c -2.879,-1.817 -5.41,-3.047 -7.606,-3.704 -2.187,-0.652 -4.668,-0.988 -7.441,-0.988 -0.559,0 -1.992,0.121 -4.309,0.344 -2.324,0.226 -4.238,0.344 -5.75,0.344 l 22.305,41.882 h -34.707 l -4.004,-10.808 c 1.961,1.18 4.023,2.098 6.16,2.734 2.141,0.645 4.277,0.965 6.387,0.965 l 6.66,-0.223 -22.605,-42.492 h 40.75"
         style="fill:#231f20;fill-opacity:1;fill-rule:nonzero;stroke:none"
         transform="matrix(0.13333333,0,0,-0.13333333,0,72.346667)" />
      <path
         id="path15"
         d="m 908.832,345.129 c -1.16,0.605 -1.992,1.484 -2.5,2.644 -0.496,1.165 -0.75,2.551 -0.75,4.161 v 15.039 l 8.848,-15.196 c 1.758,-3.074 3.672,-5 5.742,-5.781 2.07,-0.781 6.121,-1.172 12.168,-1.172 h 4.687 v 0.305 c -1.308,1.004 -2.519,2.312 -3.625,3.934 -0.652,1.054 -1.308,2.109 -1.961,3.175 l -14.074,22.149 16.711,20.261 -18.594,-0.156 c 1.102,-0.554 1.875,-1.191 2.305,-1.902 0.43,-0.703 0.645,-1.496 0.645,-2.356 0,-1.074 -0.43,-2.238 -1.282,-3.504 -0.652,-0.871 -1.308,-1.71 -1.961,-2.519 l -9.601,-12.102 -0.008,15.559 c 0,1.211 0.254,2.488 0.75,3.828 0.508,1.348 1.34,2.391 2.5,3.152 l -20.418,-0.144 c 1.367,-0.918 2.274,-2.102 2.723,-3.566 0.304,-1.004 0.449,-2.625 0.449,-4.844 v -1.817 -32.332 c 0,-1.32 -0.223,-2.597 -0.672,-3.867 -0.461,-1.262 -1.289,-2.25 -2.5,-2.949 v -0.305 h 20.418 v 0.305"
         style="fill:#231f20;fill-opacity:1;fill-rule:nonzero;stroke:none"
         transform="matrix(0.13333333,0,0,-0.13333333,0,72.346667)" />
      <path
         id="path16"
         d="m 950.707,371.848 c 0,4.629 1.25,8.515 3.75,11.66 2.492,3.144 5.625,4.715 9.406,4.715 4.735,0 8.321,-2.469 10.742,-7.395 1.864,-3.777 2.793,-8.328 2.793,-13.66 0,-4.676 -1.035,-8.398 -3.117,-11.16 -2.226,-2.969 -5.449,-4.453 -9.656,-4.453 -4.258,0 -7.707,2.09 -10.344,6.258 -2.383,3.781 -3.574,8.125 -3.574,13.058 z m 13.535,-28.008 c 9.504,0 16.789,2.996 21.867,8.984 4.071,4.785 6.114,10.449 6.114,16.992 v 0.301 c 0,7.5 -2.403,13.586 -7.188,18.274 -5.039,4.929 -11.867,7.39 -20.488,7.39 -8.32,0 -15.117,-2.363 -20.41,-7.097 -5.293,-4.731 -7.942,-10.664 -7.942,-17.813 0,-0.098 0,-0.273 0,-0.527 0,-0.254 0,-0.481 0,-0.684 0,-7.199 2.493,-13.234 7.461,-18.117 5.235,-5.137 12.09,-7.703 20.586,-7.703"
         style="fill:#231f20;fill-opacity:1;fill-rule:nonzero;stroke:none"
         transform="matrix(0.13333333,0,0,-0.13333333,0,72.346667)" />
      <path
         id="path17"
         d="m 999.555,348.457 c -0.352,-1.367 -1.258,-2.578 -2.723,-3.633 h 33.038 l 2.8,10.508 c -1.91,-1.16 -3.28,-1.883 -4.08,-2.187 -1.92,-0.711 -4.29,-1.067 -7.11,-1.067 -1.26,0 -2.57,0.09 -3.94,0.266 -1.35,0.176 -2.52,0.519 -3.47,1.015 v 13.43 l 7.63,3.301 0.08,7.168 -7.71,-3.254 v 13.137 c 0,1.464 0.12,2.656 0.38,3.562 0.45,1.719 1.36,3.039 2.72,3.945 l -20.338,-0.144 c 0.957,-0.559 1.738,-1.406 2.344,-2.551 0.605,-1.133 0.904,-2.605 0.904,-4.433 v -19.403 l -3.248,-1.289 v -7.258 l 3.248,1.282 v -6.575 c 0,-2.519 -0.174,-4.461 -0.525,-5.82"
         style="fill:#231f20;fill-opacity:1;fill-rule:nonzero;stroke:none"
         transform="matrix(0.13333333,0,0,-0.13333333,0,72.346667)" />
      <path
         id="path18"
         d="m 1057.85,382.102 5.29,-15.129 -10.38,0.011 z m -7.72,-36.973 c -0.96,0.699 -1.66,1.375 -2.11,2 -0.46,0.637 -0.68,1.348 -0.68,2.16 0.05,0.555 0.18,1.231 0.41,2.039 0.23,0.801 0.45,1.535 0.64,2.188 l 2.2,6.355 h 15.04 l 2.34,-7.183 c 0.31,-0.754 0.48,-1.309 0.54,-1.661 0.05,-0.351 0.07,-0.89 0.07,-1.593 0,-1.707 -1.03,-3.145 -3.1,-4.305 v -0.305 h 22.91 v 0.305 c -1.61,1.465 -2.84,2.851 -3.67,4.16 -0.83,1.316 -1.67,3.231 -2.53,5.762 l -14.67,39.597 -18.44,-0.156 c 1.05,-0.711 1.78,-1.406 2.18,-2.09 0.41,-0.691 0.61,-1.464 0.61,-2.324 0,-0.711 -0.15,-1.59 -0.45,-2.637 -0.3,-1.035 -0.48,-1.66 -0.53,-1.863 l -10.21,-29.414 c -0.96,-2.871 -1.69,-4.836 -2.19,-5.898 -1,-2.11 -2.29,-3.828 -3.86,-5.137 v -0.305 h 15.5 v 0.305"
         style="fill:#231f20;fill-opacity:1;fill-rule:nonzero;stroke:none"
         transform="matrix(0.13333333,0,0,-0.13333333,0,72.346667)" />
      <path
         id="path19"
         d="m 499.391,305.441 c 0.332,1.192 1.199,2.364 2.605,3.524 l -20.183,-0.145 c 1.414,-1.117 2.285,-2.265 2.605,-3.449 0.332,-1.191 0.5,-3.348 0.5,-6.473 v -30.293 c 0,-2.726 -0.129,-4.57 -0.383,-5.527 -0.41,-1.562 -1.308,-2.875 -2.722,-3.937 l 20.183,0.148 c -1.258,0.965 -2.09,2.012 -2.488,3.145 -0.41,1.14 -0.606,3.093 -0.606,5.867 v 31.203 c 0,2.773 0.164,4.754 0.489,5.937"
         style="fill:#231f20;fill-opacity:1;fill-rule:nonzero;stroke:none"
         transform="matrix(0.13333333,0,0,-0.13333333,0,72.346667)" />
      <path
         id="path20"
         d="m 517.73,290.137 17.383,-23.282 c 2.227,-2.929 5.321,-5.32 9.305,-7.187 3.02,-1.406 5.441,-2.117 7.258,-2.117 h 0.301 v 42.558 c 0,1.661 0.273,3.262 0.832,4.805 0.554,1.539 1.414,2.891 2.566,4.051 h -14.668 l 0.156,-0.145 c 1.465,-1.476 2.422,-3.164 2.871,-5.09 0.254,-1.054 0.383,-2.625 0.383,-4.695 V 278.34 l -23.137,30.625 h -15.8 v -0.301 c 1.808,-1.973 3,-3.652 3.554,-5.043 0.547,-1.383 0.832,-3.687 0.832,-6.922 v -28.398 c 0,-2.215 -0.293,-4.024 -0.871,-5.41 -0.586,-1.387 -1.425,-2.539 -2.539,-3.446 v -0.304 h 14.668 v 0.304 c -1.101,1.004 -1.953,2.207 -2.527,3.594 -0.586,1.387 -0.871,3.133 -0.871,5.254 v 21.844 h 0.304"
         style="fill:#231f20;fill-opacity:1;fill-rule:nonzero;stroke:none"
         transform="matrix(0.13333333,0,0,-0.13333333,0,72.346667)" />
      <path
         id="path21"
         d="m 588.715,308.965 h -0.293 c -0.555,-0.215 -1.063,-0.32 -1.512,-0.352 -0.461,-0.019 -0.937,-0.027 -1.437,-0.027 l -26.543,-0.148 c 1.008,-0.762 1.777,-1.668 2.304,-2.723 0.528,-1.055 0.801,-2.551 0.801,-4.465 v -34.852 c 0,-1.562 -0.125,-2.777 -0.379,-3.625 -0.461,-1.621 -1.367,-2.82 -2.726,-3.632 v -0.301 h 20.488 v 0.301 c -1.512,1.308 -2.52,3.078 -3.016,5.293 -0.254,1.105 -0.382,2.695 -0.382,4.765 v 12.246 h 2.648 c 1.863,0 3.211,-0.254 4.043,-0.761 0.828,-0.496 1.375,-1.18 1.621,-2.039 h 0.379 v 10.742 h -0.379 c -0.352,-0.207 -0.723,-0.313 -1.133,-0.344 -0.402,-0.027 -0.879,-0.039 -1.437,-0.039 h -5.742 v 12.246 h 5.371 c 1.406,0 2.57,-0.129 3.476,-0.379 1.758,-0.469 3.047,-1.398 3.848,-2.793 v 10.887"
         style="fill:#231f20;fill-opacity:1;fill-rule:nonzero;stroke:none"
         transform="matrix(0.13333333,0,0,-0.13333333,0,72.346667)" />
      <path
         id="path22"
         d="m 630.055,270.324 c -2.227,-2.969 -5.45,-4.453 -9.649,-4.453 -4.258,0 -7.707,2.09 -10.343,6.258 -2.383,3.781 -3.575,8.125 -3.575,13.059 v 0.976 c 0,4.629 1.25,8.516 3.742,11.66 2.5,3.145 5.633,4.715 9.415,4.715 4.734,0 8.32,-2.469 10.73,-7.391 1.867,-3.781 2.805,-8.332 2.805,-13.664 0,-4.675 -1.047,-8.398 -3.125,-11.16 z m -9.727,39.774 c -8.32,0 -15.129,-2.364 -20.422,-7.102 -5.293,-4.723 -7.937,-10.66 -7.937,-17.808 0,-0.098 0,-0.274 0,-0.528 0,-0.254 0,-0.48 0,-0.683 0,-7.2 2.488,-13.235 7.469,-18.118 5.226,-5.136 12.089,-7.703 20.585,-7.703 9.493,0 16.79,2.996 21.868,8.985 4.07,4.785 6.101,10.449 6.101,16.992 v 0.301 c 0,7.5 -2.39,13.586 -7.176,18.269 -5.039,4.934 -11.875,7.395 -20.488,7.395"
         style="fill:#231f20;fill-opacity:1;fill-rule:nonzero;stroke:none"
         transform="matrix(0.13333333,0,0,-0.13333333,0,72.346667)" />
      <path
         id="path23"
         d="m 668.18,301.789 h 0.605 c 2.52,0 4.461,-0.812 5.82,-2.434 1.161,-1.414 1.739,-3.289 1.739,-5.625 0,-2.324 -0.754,-4.355 -2.266,-6.074 -1.515,-1.718 -3.476,-2.754 -5.898,-3.113 z m 8.992,-38.184 c 0.957,-1.867 2.004,-3.125 3.137,-3.781 1.14,-0.652 2.664,-0.984 4.578,-0.984 h 4.16 l 8.535,0.605 c -1.309,1.063 -2.617,2.461 -3.926,4.188 -0.508,0.656 -1.308,1.828 -2.422,3.496 l -9.754,16.504 c 3.485,1.719 5.946,3.898 7.411,6.523 0.957,1.719 1.437,3.547 1.437,5.461 0,4.246 -1.406,7.586 -4.23,10.008 -2.625,2.227 -6.075,3.34 -10.36,3.34 L 651.09,308.82 c 1.355,-0.918 2.215,-1.953 2.566,-3.105 0.352,-1.164 0.539,-2.832 0.539,-5 v -33.02 -1.289 c 0,-1.562 -0.207,-2.937 -0.605,-4.121 -0.41,-1.191 -1.242,-2.137 -2.5,-2.84 v -0.304 h 20.34 v 0.304 c -1.063,0.606 -1.864,1.465 -2.422,2.567 -0.555,1.113 -0.828,2.629 -0.828,4.543 v 13.984 l 8.992,-16.934"
         style="fill:#231f20;fill-opacity:1;fill-rule:nonzero;stroke:none"
         transform="matrix(0.13333333,0,0,-0.13333333,0,72.346667)" />
      <path
         id="path24"
         d="m 759.125,268.762 -3.777,34.297 c 0,0.605 -0.051,1.062 -0.149,1.367 0.098,0.906 0.324,1.648 0.676,2.234 0.352,0.578 1.063,1.242 2.117,2.004 v 0.301 h -17.957 l -8.926,-29.266 -11.347,29.266 -17.336,-0.156 c 1.105,-1.016 1.867,-1.993 2.265,-2.938 0.403,-0.937 0.606,-1.992 0.606,-3.168 v -1.754 l -3.699,-32.355 c -0.254,-2.371 -0.586,-4.11 -0.989,-5.215 -0.554,-1.563 -1.464,-2.883 -2.722,-3.934 v -0.304 h 14.746 v 0.304 c -1.067,0.555 -1.875,1.297 -2.434,2.227 -0.554,0.937 -0.84,2.156 -0.84,3.672 l 2.52,26.004 h 0.305 l 8.32,-22.645 c 0.848,-2.473 1.883,-4.316 3.094,-5.527 1.757,-1.77 4.816,-3.438 9.14,-5 l 9.758,33.172 h 0.301 l 2.492,-24.344 0.156,-2.871 c 0,-0.754 -0.168,-1.504 -0.488,-2.227 -0.332,-0.734 -0.949,-1.554 -1.855,-2.461 v -0.304 h 19.882 v 0.304 c -1.164,1.114 -2.031,2.41 -2.609,3.895 -0.574,1.496 -0.996,3.301 -1.25,5.422"
         style="fill:#231f20;fill-opacity:1;fill-rule:nonzero;stroke:none"
         transform="matrix(0.13333333,0,0,-0.13333333,0,72.346667)" />
      <path
         id="path25"
         d="m 788.461,296.418 5.293,-15.129 -10.379,0.012 z m -6.582,10.301 c 0.41,-0.692 0.605,-1.465 0.605,-2.324 0,-0.711 -0.144,-1.59 -0.449,-2.637 -0.301,-1.035 -0.476,-1.66 -0.527,-1.863 L 771.293,270.48 c -0.957,-2.871 -1.688,-4.835 -2.188,-5.902 -1.003,-2.105 -2.292,-3.824 -3.855,-5.133 v -0.304 h 15.496 v 0.304 c -0.957,0.703 -1.66,1.375 -2.109,2 -0.457,0.633 -0.684,1.348 -0.684,2.16 0.051,0.555 0.188,1.231 0.41,2.04 0.235,0.8 0.45,1.535 0.645,2.187 l 2.199,6.359 h 15.039 l 2.344,-7.187 c 0.301,-0.754 0.476,-1.309 0.535,-1.66 0.051,-0.352 0.07,-0.891 0.07,-1.594 0,-1.707 -1.027,-3.145 -3.097,-4.305 v -0.304 h 22.91 v 0.304 c -1.61,1.465 -2.84,2.852 -3.672,4.16 -0.828,1.317 -1.668,3.231 -2.527,5.762 l -14.668,39.598 -18.45,-0.156 c 1.055,-0.711 1.789,-1.407 2.188,-2.09"
         style="fill:#231f20;fill-opacity:1;fill-rule:nonzero;stroke:none"
         transform="matrix(0.13333333,0,0,-0.13333333,0,72.346667)" />
      <path
         id="path26"
         d="m 886.52,269.043 v 12.703 l 13.691,27.219 -13.691,-0.156 c 0.808,-0.45 1.375,-0.996 1.707,-1.629 0.324,-0.637 0.488,-1.387 0.488,-2.246 0,-0.567 -0.137,-1.282 -0.418,-2.141 -0.274,-0.859 -0.645,-1.883 -1.106,-3.047 l -4.363,-8.855 -8.769,18.074 -17.512,-0.145 0.039,0.145 h -35.098 l -1.433,0.226 -3.02,-11.562 c 1.77,1.055 3.254,1.816 4.465,2.293 1.609,0.637 3.203,0.957 4.766,0.957 0.144,0 0.625,-0.027 1.433,-0.078 0.813,-0.047 1.535,-0.125 2.199,-0.223 v -31.777 -1.68 c 0,-1.828 -0.207,-3.379 -0.605,-4.668 -0.41,-1.301 -1.242,-2.297 -2.5,-3.008 v -0.304 h 20.488 v 0.304 c -1.211,1.004 -2.082,2.196 -2.609,3.563 -0.527,1.359 -0.789,3.281 -0.789,5.754 v 31.66 c 1.055,0.301 2.137,0.457 3.25,0.457 1.457,0 2.824,-0.254 4.082,-0.762 1.262,-0.496 2.168,-1.336 2.726,-2.488 l 2.598,11.16 c 0.984,-0.605 1.766,-1.23 2.332,-1.902 0.586,-0.684 1.32,-1.856 2.227,-3.528 l 11.437,-21.582 v -15.214 c 0,-1.465 -0.254,-2.852 -0.754,-4.168 -0.508,-1.309 -1.336,-2.297 -2.5,-2.95 v -0.304 h 20.645 v 0.304 c -1.465,1.309 -2.449,2.918 -2.949,4.832 -0.301,1.164 -0.457,2.754 -0.457,4.766"
         style="fill:#231f20;fill-opacity:1;fill-rule:nonzero;stroke:none"
         transform="matrix(0.13333333,0,0,-0.13333333,0,72.346667)" />
      <path
         id="path27"
         d="m 927.875,266.094 c 1.77,-3.074 3.684,-5 5.742,-5.781 2.071,-0.782 6.133,-1.172 12.18,-1.172 h 4.687 v 0.304 c -1.308,1.004 -2.519,2.313 -3.632,3.934 -0.657,1.055 -1.309,2.109 -1.965,3.176 l -14.063,22.148 16.711,20.262 -18.605,-0.156 c 1.113,-0.555 1.886,-1.192 2.316,-1.903 0.418,-0.703 0.633,-1.496 0.633,-2.355 0,-1.074 -0.418,-2.235 -1.277,-3.504 -0.657,-0.871 -1.309,-1.711 -1.965,-2.52 l -9.59,-12.101 -0.02,15.558 c 0,1.211 0.254,2.489 0.762,3.829 0.5,1.347 1.328,2.39 2.492,3.152 l -20.41,-0.145 c 1.356,-0.918 2.266,-2.101 2.723,-3.566 0.304,-1.008 0.449,-2.625 0.449,-4.844 v -1.816 -32.332 c 0,-1.321 -0.223,-2.598 -0.684,-3.867 -0.449,-1.262 -1.277,-2.247 -2.488,-2.95 v -0.304 h 20.41 v 0.304 c -1.164,0.606 -1.992,1.485 -2.492,2.645 -0.508,1.164 -0.762,2.551 -0.762,4.16 v 15.039 l 8.848,-15.195"
         style="fill:#231f20;fill-opacity:1;fill-rule:nonzero;stroke:none"
         transform="matrix(0.13333333,0,0,-0.13333333,0,72.346667)" />
      <path
         id="path28"
         d="m 969.723,305.441 c 0.332,1.192 1.199,2.364 2.605,3.524 l -20.183,-0.145 c 1.414,-1.117 2.285,-2.265 2.605,-3.449 0.332,-1.191 0.5,-3.348 0.5,-6.473 v -30.293 c 0,-2.726 -0.129,-4.57 -0.383,-5.527 -0.41,-1.562 -1.308,-2.875 -2.722,-3.937 l 20.183,0.148 c -1.258,0.965 -2.09,2.012 -2.488,3.145 -0.41,1.14 -0.606,3.093 -0.606,5.867 v 31.203 c 0,2.773 0.164,4.754 0.489,5.937"
         style="fill:#231f20;fill-opacity:1;fill-rule:nonzero;stroke:none"
         transform="matrix(0.13333333,0,0,-0.13333333,0,72.346667)" />
      <path
         id="path29"
         d="m 1076.29,259.141 4.16,11.945 c -2.87,-1.816 -5.41,-3.047 -7.59,-3.703 -2.2,-0.653 -4.68,-0.985 -7.45,-0.985 -0.55,0 -2,0.118 -4.31,0.34 -2.32,0.227 -4.23,0.34 -5.74,0.34 l 22.3,41.887 h -34.71 l -4,-10.809 c 1.96,1.18 4.01,2.098 6.16,2.735 2.14,0.644 4.27,0.964 6.39,0.964 l 6.65,-0.222 -22.61,-42.492 h 40.75"
         style="fill:#231f20;fill-opacity:1;fill-rule:nonzero;stroke:none"
         transform="matrix(0.13333333,0,0,-0.13333333,0,72.346667)" />
      <path
         id="path30"
         d="m 1103.97,296.418 5.28,-15.129 -10.37,0.012 z m -5.98,7.977 c 0,-0.711 -0.15,-1.59 -0.46,-2.637 -0.3,-1.035 -0.47,-1.66 -0.52,-1.863 L 1086.8,270.48 c -0.96,-2.871 -1.69,-4.835 -2.2,-5.902 -1,-2.105 -2.28,-3.824 -3.84,-5.133 v -0.304 h 15.49 v 0.304 c -0.95,0.703 -1.67,1.375 -2.11,2 -0.45,0.633 -0.69,1.348 -0.69,2.16 0.05,0.555 0.2,1.231 0.42,2.04 0.23,0.8 0.44,1.535 0.65,2.187 l 2.18,6.359 h 15.05 l 2.35,-7.187 c 0.3,-0.754 0.48,-1.309 0.52,-1.66 0.05,-0.352 0.08,-0.891 0.08,-1.594 0,-1.707 -1.03,-3.145 -3.1,-4.305 v -0.304 h 22.91 v 0.304 c -1.61,1.465 -2.84,2.852 -3.67,4.16 -0.83,1.317 -1.67,3.231 -2.53,5.762 l -14.67,39.598 -18.45,-0.156 c 1.06,-0.711 1.8,-1.407 2.2,-2.09 0.4,-0.692 0.6,-1.465 0.6,-2.324"
         style="fill:#231f20;fill-opacity:1;fill-rule:nonzero;stroke:none"
         transform="matrix(0.13333333,0,0,-0.13333333,0,72.346667)" />
      <path
         id="path31"
         d="m 1155.38,301.789 h 0.6 c 2.52,0 4.46,-0.812 5.82,-2.434 1.16,-1.414 1.74,-3.289 1.74,-5.625 0,-2.324 -0.75,-4.355 -2.27,-6.074 -1.51,-1.718 -3.47,-2.754 -5.89,-3.113 z m 3.25,-42.344 c -1.06,0.606 -1.87,1.465 -2.42,2.567 -0.55,1.113 -0.83,2.629 -0.83,4.543 v 13.984 l 9,-16.934 c 0.96,-1.867 2,-3.125 3.13,-3.781 1.14,-0.652 2.66,-0.984 4.57,-0.984 h 4.17 l 8.38,0.594 -0.15,-0.293 h 40.75 l 4.16,11.945 c -2.87,-1.816 -5.41,-3.047 -7.6,-3.703 -2.2,-0.653 -4.68,-0.985 -7.45,-0.985 -0.55,0 -1.99,0.118 -4.31,0.34 -2.31,0.227 -4.22,0.34 -5.74,0.34 l 22.31,41.887 h -34.71 l -4,-10.809 c 1.96,1.18 4.01,2.098 6.16,2.735 2.14,0.644 4.27,0.964 6.38,0.964 l 6.65,-0.222 -22.39,-42.09 c -1.28,1.055 -2.55,2.402 -3.84,4.09 -0.49,0.656 -1.3,1.828 -2.41,3.496 l -9.75,16.504 c 3.47,1.719 5.94,3.898 7.41,6.523 0.96,1.719 1.43,3.547 1.43,5.461 0,4.246 -1.41,7.586 -4.23,10.008 -2.62,2.227 -6.08,3.34 -10.36,3.34 l -24.64,-0.145 c 1.35,-0.918 2.21,-1.953 2.56,-3.105 0.36,-1.164 0.53,-2.832 0.53,-5 v -33.02 -1.289 c 0,-1.562 -0.2,-2.937 -0.6,-4.121 -0.4,-1.191 -1.23,-2.137 -2.49,-2.84 v -0.304 h 20.33 v 0.304"
         style="fill:#231f20;fill-opacity:1;fill-rule:nonzero;stroke:none"
         transform="matrix(0.13333333,0,0,-0.13333333,0,72.346667)" />
      <path
         id="path32"
         d="m 1316.75,271.25 c -2.15,-3.133 -5.2,-4.695 -9.19,-4.695 -0.75,0.097 -1.6,0.215 -2.53,0.34 -0.93,0.128 -1.63,0.234 -2.08,0.343 v 33.184 c 1.57,0.301 2.54,0.476 2.95,0.527 0.4,0.047 0.96,0.078 1.66,0.078 3.64,0 6.51,-1.211 8.63,-3.632 2.52,-2.883 3.78,-7.305 3.78,-13.262 0,-5.461 -1.08,-9.758 -3.22,-12.883 z m -8.2,37.715 -22.83,-0.145 c 1.36,-0.664 2.28,-1.847 2.79,-3.566 0.3,-1.008 0.46,-2.274 0.46,-3.789 v -0.606 -31.796 c 0,-2.93 -0.19,-5.04 -0.54,-6.329 -0.35,-1.289 -1.26,-2.382 -2.71,-3.289 v -0.304 h 22.67 c 8.93,0 15.71,2.726 20.35,8.175 3.87,4.551 5.82,10.352 5.82,17.422 0,7.266 -2.38,13.125 -7.11,17.567 -4.74,4.433 -11.04,6.66 -18.9,6.66"
         style="fill:#231f20;fill-opacity:1;fill-rule:nonzero;stroke:none"
         transform="matrix(0.13333333,0,0,-0.13333333,0,72.346667)" />
      <path
         id="path33"
         d="m 1366.38,266.398 c -0.55,0 -1.99,0.118 -4.3,0.34 -2.32,0.227 -4.23,0.34 -5.75,0.34 l 22.31,41.887 h -34.71 l -4,-10.809 c 1.96,1.18 4.01,2.098 6.16,2.735 2.14,0.644 4.27,0.964 6.39,0.964 l 6.65,-0.222 -22.61,-42.492 h 40.75 l 4.16,11.945 c -2.87,-1.816 -5.41,-3.047 -7.6,-3.703 -2.19,-0.653 -4.67,-0.985 -7.45,-0.985"
         style="fill:#231f20;fill-opacity:1;fill-rule:nonzero;stroke:none"
         transform="matrix(0.13333333,0,0,-0.13333333,0,72.346667)" />
      <path
         id="path34"
         d="m 1401.37,281.301 5.09,15.117 5.28,-15.129 z m 29.43,-11.934 -14.67,39.598 -18.45,-0.156 c 1.07,-0.711 1.8,-1.407 2.2,-2.09 0.4,-0.692 0.6,-1.465 0.6,-2.324 0,-0.711 -0.15,-1.59 -0.46,-2.637 -0.3,-1.035 -0.47,-1.66 -0.52,-1.863 l -10.21,-29.415 c -0.96,-2.871 -1.69,-4.835 -2.2,-5.902 -1,-2.105 -2.28,-3.824 -3.84,-5.133 v -0.304 h 15.5 v 0.304 c -0.96,0.703 -1.67,1.375 -2.12,2 -0.45,0.633 -0.69,1.348 -0.69,2.16 0.05,0.555 0.2,1.231 0.42,2.04 0.23,0.8 0.44,1.535 0.65,2.187 l 2.18,6.359 h 15.05 l 2.35,-7.187 c 0.3,-0.754 0.48,-1.309 0.52,-1.66 0.05,-0.352 0.08,-0.891 0.08,-1.594 0,-1.707 -1.03,-3.145 -3.1,-4.305 v -0.304 H 1437 v 0.304 c -1.61,1.465 -2.83,2.852 -3.67,4.16 -0.83,1.317 -1.67,3.231 -2.53,5.762"
         style="fill:#231f20;fill-opacity:1;fill-rule:nonzero;stroke:none"
         transform="matrix(0.13333333,0,0,-0.13333333,0,72.346667)" />
      <path
         id="path35"
         d="m 1474.8,308.82 c 1.46,-1.476 2.42,-3.164 2.88,-5.09 0.24,-1.054 0.37,-2.625 0.37,-4.695 V 278.34 l -23.13,30.625 h -15.8 v -0.301 c 1.81,-1.973 2.99,-3.652 3.55,-5.043 0.56,-1.383 0.83,-3.687 0.83,-6.922 v -28.398 c 0,-2.215 -0.29,-4.024 -0.87,-5.41 -0.57,-1.387 -1.42,-2.539 -2.53,-3.446 v -0.304 h 14.67 v 0.304 c -1.11,1.004 -1.95,2.207 -2.54,3.594 -0.57,1.387 -0.87,3.133 -0.87,5.254 v 21.844 h 0.31 l 17.39,-23.282 c 2.21,-2.929 5.31,-5.32 9.29,-7.187 3.03,-1.406 5.45,-2.117 7.27,-2.117 h 0.29 v 42.558 c 0,1.661 0.29,3.262 0.84,4.805 0.55,1.539 1.41,2.891 2.57,4.051 h -14.67 l 0.15,-0.145"
         style="fill:#231f20;fill-opacity:1;fill-rule:nonzero;stroke:none"
         transform="matrix(0.13333333,0,0,-0.13333333,0,72.346667)" />
      <path
         id="path36"
         d="m 1510.45,305.441 c 0.33,1.192 1.2,2.364 2.61,3.524 l -20.18,-0.145 c 1.4,-1.117 2.27,-2.265 2.6,-3.449 0.33,-1.191 0.49,-3.348 0.49,-6.473 v -30.293 c 0,-2.726 -0.13,-4.57 -0.38,-5.527 -0.4,-1.562 -1.31,-2.875 -2.71,-3.937 l 20.18,0.148 c -1.26,0.965 -2.09,2.012 -2.5,3.145 -0.4,1.14 -0.6,3.093 -0.6,5.867 v 31.203 c 0,2.773 0.16,4.754 0.49,5.937"
         style="fill:#231f20;fill-opacity:1;fill-rule:nonzero;stroke:none"
         transform="matrix(0.13333333,0,0,-0.13333333,0,72.346667)" />
      <path
         id="path37"
         d="m 1533.75,281.301 5.09,15.117 5.3,-15.129 z m 31.97,-17.696 c -0.83,1.317 -1.67,3.231 -2.53,5.762 l -14.67,39.598 -18.45,-0.156 c 1.06,-0.711 1.79,-1.407 2.19,-2.09 0.41,-0.692 0.61,-1.465 0.61,-2.324 0,-0.711 -0.15,-1.59 -0.45,-2.637 -0.31,-1.035 -0.48,-1.66 -0.53,-1.863 l -10.22,-29.415 c -0.95,-2.871 -1.68,-4.835 -2.18,-5.902 -1.01,-2.105 -2.3,-3.824 -3.86,-5.133 v -0.304 h 15.5 v 0.304 c -0.96,0.703 -1.66,1.375 -2.11,2 -0.46,0.633 -0.69,1.348 -0.69,2.16 0.05,0.555 0.19,1.231 0.42,2.04 0.23,0.8 0.44,1.535 0.64,2.187 l 2.2,6.359 h 15.04 l 2.34,-7.187 c 0.3,-0.754 0.48,-1.309 0.54,-1.66 0.05,-0.352 0.07,-0.891 0.07,-1.594 0,-1.707 -1.03,-3.145 -3.1,-4.305 v -0.304 h 22.91 v 0.304 c -1.61,1.465 -2.84,2.852 -3.67,4.16"
         style="fill:#231f20;fill-opacity:1;fill-rule:nonzero;stroke:none"
         transform="matrix(0.13333333,0,0,-0.13333333,0,72.346667)" />
      <path
         id="path38"
         d="m 506.012,183.32 c -0.11,0 -2.473,0.254 -7.11,0.762 -1.867,0.195 -3.683,0.305 -5.449,0.305 l 19.981,28.64 -0.02,0.313 H 486.5 l -3.555,-7.715 c 1.414,1.016 2.84,1.719 4.278,2.121 1.433,0.399 3.105,0.606 5.027,0.606 0.852,0 2.355,-0.079 4.492,-0.227 2.141,-0.156 3.692,-0.281 4.649,-0.379 l -20.938,-28.957 v -0.301 h 32.207 l 4.004,8.242 c -2.012,-1.261 -3.828,-2.152 -5.437,-2.648 -1.614,-0.508 -3.36,-0.762 -5.215,-0.762"
         style="fill:#231f20;fill-opacity:1;fill-rule:nonzero;stroke:none"
         transform="matrix(0.13333333,0,0,-0.13333333,0,72.346667)" />
      <path
         id="path39"
         d="m 560.895,197.844 c -0.149,0.097 -3.352,1.258 -9.602,3.476 -3.125,1.114 -4.785,2.442 -4.988,4.004 0,1.317 0.605,2.285 1.816,2.91 1.211,0.633 2.879,0.946 5.008,0.946 3.633,0 6.848,-0.782 9.629,-2.344 v 6.504 c -1.219,0.351 -2.41,0.598 -3.602,0.723 -1.183,0.117 -2.715,0.183 -4.582,0.183 -4.187,0 -7.597,-0.68 -10.222,-2.039 -3.34,-1.719 -5,-4.383 -5,-8.016 0,-2.363 0.859,-4.336 2.578,-5.898 1.211,-1.105 3.164,-2.188 5.84,-3.242 6.171,-2.324 9.48,-3.664 9.941,-4.016 1.523,-1.055 2.273,-2.39 2.273,-4.004 -0.144,-1.511 -1.004,-2.644 -2.578,-3.41 -1.562,-0.75 -3.593,-1.129 -6.062,-1.129 -2.336,0 -4.758,0.379 -7.285,1.129 -2.532,0.766 -4.727,1.801 -6.602,3.109 l 2.5,-7.335 c 3.016,-1.211 6.375,-1.817 10.047,-1.817 4.238,0 7.941,0.91 11.113,2.727 3.789,2.168 5.676,5.215 5.676,9.148 0,1.856 -0.539,3.516 -1.621,4.953 -1.086,1.434 -2.512,2.578 -4.277,3.438"
         style="fill:#231f20;fill-opacity:1;fill-rule:nonzero;stroke:none"
         transform="matrix(0.13333333,0,0,-0.13333333,0,72.346667)" />
      <path
         id="path40"
         d="m 576.695,217.883 c 1.356,0 2.5,0.445 3.407,1.355 0.898,0.91 1.359,2.043 1.359,3.399 0,1.261 -0.469,2.363 -1.398,3.293 -0.938,0.937 -2.059,1.394 -3.368,1.394 -1.308,0 -2.422,-0.476 -3.332,-1.433 -0.898,-0.957 -1.355,-2.043 -1.355,-3.254 0,-1.356 0.457,-2.489 1.355,-3.399 0.91,-0.91 2.024,-1.355 3.332,-1.355"
         style="fill:#231f20;fill-opacity:1;fill-rule:nonzero;stroke:none"
         transform="matrix(0.13333333,0,0,-0.13333333,0,72.346667)" />
      <path
         id="path41"
         d="m 580.973,181.281 c -0.285,1.016 -0.422,2.645 -0.422,4.922 v 28.348 h -0.301 c -0.859,-0.906 -2.676,-1.356 -5.441,-1.356 -0.711,0 -1.375,0 -2.012,0 -0.625,0 -1.297,0 -2,0 v -0.304 c 1.258,-0.653 2.09,-1.582 2.5,-2.782 0.195,-0.605 0.301,-1.691 0.301,-3.242 V 184.66 c 0,-1.308 -0.176,-2.461 -0.535,-3.457 -0.352,-1.008 -1.106,-1.808 -2.266,-2.414 v -0.301 h 12.547 l 0.156,0.301 c -1.414,0.656 -2.254,1.484 -2.527,2.492"
         style="fill:#231f20;fill-opacity:1;fill-rule:nonzero;stroke:none"
         transform="matrix(0.13333333,0,0,-0.13333333,0,72.346667)" />
      <path
         id="path42"
         d="m 596.801,201.543 c 0.351,2.422 1.496,4.328 3.41,5.715 1.914,1.387 4.129,2.078 6.648,2.078 2.473,0 4.61,-0.672 6.426,-2 1.817,-1.34 2.852,-3.273 3.106,-5.793 z m 22.57,8.137 c -3.242,3.144 -7.246,4.715 -11.984,4.715 -6.094,0 -10.907,-1.934 -14.434,-5.821 -3.074,-3.379 -4.617,-7.508 -4.617,-12.39 0,-5.899 2.273,-10.586 6.805,-14.063 4.082,-3.125 9.074,-4.687 14.972,-4.687 1.766,0 3.516,0.156 5.254,0.488 1.738,0.332 3.465,0.82 5.176,1.473 l 3.555,7.031 c -1.758,-1.309 -3.75,-2.293 -5.969,-2.949 -2.227,-0.653 -4.363,-0.985 -6.426,-0.985 h -1.894 c -4.532,0.41 -8.016,2.215 -10.43,5.43 -1.922,2.598 -2.879,5.652 -2.879,9.168 h 27.754 c 0,5.234 -1.633,9.433 -4.883,12.59"
         style="fill:#231f20;fill-opacity:1;fill-rule:nonzero;stroke:none"
         transform="matrix(0.13333333,0,0,-0.13333333,0,72.346667)" />
      <path
         id="path43"
         d="m 664.477,181.094 c -0.411,0.879 -0.606,1.933 -0.606,3.136 0,0.508 0,1.161 0,1.973 l -0.144,43.399 c -0.344,-0.559 -0.813,-0.93 -1.418,-1.106 -0.606,-0.176 -1.27,-0.262 -1.993,-0.262 l -6.043,-0.148 c 1.407,-0.906 2.286,-1.844 2.637,-2.801 0.203,-0.5 0.301,-1.484 0.301,-2.949 v -12.395 c -1.758,1.457 -3.582,2.539 -5.477,3.254 -1.886,0.703 -3.789,1.051 -5.703,1.051 -5.801,0 -10.461,-2.066 -13.996,-6.199 -3.015,-3.524 -4.531,-7.481 -4.531,-11.863 0,-6.614 2.238,-11.543 6.73,-14.825 3.426,-2.519 7.586,-3.781 12.469,-3.781 0.957,0 1.613,0.012 1.973,0.039 0.351,0.031 0.976,0.117 1.887,0.266 l 4.609,6.805 c -2.012,-1.465 -4.277,-2.196 -6.797,-2.196 -3.535,0 -6.555,1.211 -9.074,3.629 -2.723,2.621 -4.082,5.981 -4.082,10.063 0,4.129 1.183,7.402 3.547,9.824 2.168,2.215 4.765,3.328 7.793,3.328 3.015,0 5.488,-0.887 7.41,-2.645 2.16,-1.972 3.242,-4.765 3.242,-8.398 v -19.805 h 9.758 v 0.301 c -1.262,0.656 -2.09,1.426 -2.492,2.305"
         style="fill:#231f20;fill-opacity:1;fill-rule:nonzero;stroke:none"
         transform="matrix(0.13333333,0,0,-0.13333333,0,72.346667)" />
      <path
         id="path44"
         d="m 695.023,183.32 c -0.105,0 -2.468,0.254 -7.109,0.762 -1.863,0.195 -3.68,0.305 -5.449,0.305 l 19.98,28.64 -0.019,0.313 h -26.914 l -3.555,-7.715 c 1.418,1.016 2.844,1.719 4.277,2.121 1.438,0.399 3.106,0.606 5.032,0.606 0.847,0 2.351,-0.079 4.492,-0.227 2.137,-0.156 3.691,-0.281 4.648,-0.379 l -20.937,-28.957 v -0.301 h 32.207 l 4.004,8.242 c -2.012,-1.261 -3.828,-2.152 -5.442,-2.648 -1.609,-0.508 -3.359,-0.762 -5.215,-0.762"
         style="fill:#231f20;fill-opacity:1;fill-rule:nonzero;stroke:none"
         transform="matrix(0.13333333,0,0,-0.13333333,0,72.346667)" />
      <path
         id="path45"
         d="m 712.867,217.883 c 1.356,0 2.488,0.445 3.399,1.355 0.906,0.91 1.355,2.043 1.355,3.399 0,1.261 -0.457,2.363 -1.394,3.293 -0.93,0.937 -2.051,1.394 -3.36,1.394 -1.32,0 -2.422,-0.476 -3.332,-1.433 -0.906,-0.957 -1.355,-2.043 -1.355,-3.254 0,-1.356 0.449,-2.489 1.355,-3.399 0.91,-0.91 2.012,-1.355 3.332,-1.355"
         style="fill:#231f20;fill-opacity:1;fill-rule:nonzero;stroke:none"
         transform="matrix(0.13333333,0,0,-0.13333333,0,72.346667)" />
      <path
         id="path46"
         d="m 717.133,181.281 c -0.274,1.016 -0.418,2.645 -0.418,4.922 v 28.348 h -0.305 c -0.847,-0.906 -2.664,-1.356 -5.437,-1.356 -0.703,0 -1.379,0 -2.004,0 -0.633,0 -1.297,0 -2,0 v -0.304 c 1.258,-0.653 2.09,-1.582 2.488,-2.782 0.207,-0.605 0.305,-1.691 0.305,-3.242 V 184.66 c 0,-1.308 -0.176,-2.461 -0.528,-3.457 -0.351,-1.008 -1.113,-1.808 -2.265,-2.414 v -0.301 h 12.547 l 0.148,0.301 c -1.406,0.656 -2.258,1.484 -2.531,2.492"
         style="fill:#231f20;fill-opacity:1;fill-rule:nonzero;stroke:none"
         transform="matrix(0.13333333,0,0,-0.13333333,0,72.346667)" />
      <path
         id="path47"
         d="m 745.98,214.246 c -0.808,0 -1.718,-0.074 -2.722,-0.223 -1.008,-0.156 -1.945,-0.332 -2.805,-0.527 l -3.926,-6.504 c 0.703,0.5 1.621,0.891 2.754,1.172 1.145,0.274 2.336,0.41 3.594,0.41 3.027,0 5.547,-0.847 7.559,-2.566 2.421,-2.07 3.632,-5.137 3.632,-9.219 0,-4.894 -1.336,-8.574 -4.003,-11.047 -2.274,-2.058 -5.321,-3.094 -9.149,-3.094 -0.762,0 -1.562,0.079 -2.422,0.223 -0.859,0.156 -2.121,0.449 -3.781,0.91 l -0.156,45.821 c -0.594,-0.911 -1.836,-1.368 -3.7,-1.368 l -5.742,-0.148 c 1.153,-0.715 1.914,-1.504 2.266,-2.383 0.351,-0.879 0.527,-2.156 0.527,-3.816 v -37.657 -0.609 c 0,-0.894 -0.148,-1.793 -0.449,-2.672 -0.305,-0.89 -0.891,-1.554 -1.738,-2.011 2.058,-0.305 4.148,-0.625 6.269,-0.977 2.625,-0.352 5.164,-0.527 7.637,-0.527 6.758,0 12.137,1.668 16.141,5.019 4.004,3.36 6.015,7.75 6.015,13.192 0,5.449 -1.453,9.914 -4.355,13.39 -2.891,3.477 -6.707,5.211 -11.446,5.211"
         style="fill:#231f20;fill-opacity:1;fill-rule:nonzero;stroke:none"
         transform="matrix(0.13333333,0,0,-0.13333333,0,72.346667)" />
      <path
         id="path48"
         d="m 794.742,168.887 c -0.558,0.566 -0.832,1.047 -0.832,1.457 0,1.57 0.176,2.832 0.528,3.769 0.351,0.938 1.21,2.098 2.57,3.465 l 3.406,4.914 c -2.48,0 -4.18,0.535 -5.105,1.602 -0.93,1.062 -1.399,2.832 -1.399,5.312 v 13.223 c 0,4.051 -1.453,7.059 -4.355,9.043 -2.508,1.719 -5.84,2.574 -10,2.574 -0.594,0 -1.492,-0.074 -2.703,-0.223 -1.204,-0.156 -1.973,-0.222 -2.325,-0.222 l -4.961,-7.571 c 1.707,0.86 3.211,1.516 4.52,1.973 2.004,0.656 3.887,0.977 5.644,0.977 1.7,0 3.235,-0.321 4.59,-0.977 1.758,-0.859 2.637,-2.039 2.637,-3.555 0,-0.652 -0.156,-1.289 -0.457,-1.894 -0.293,-0.606 -0.598,-1.008 -0.898,-1.211 -1.008,-0.75 -2.618,-1.406 -4.825,-1.965 -6.125,-1.558 -9.297,-2.39 -9.492,-2.488 -2.16,-1.016 -3.769,-2.149 -4.824,-3.406 -1.262,-1.516 -1.887,-3.43 -1.887,-5.743 0,-2.929 1.184,-5.382 3.555,-7.375 2.375,-1.992 5.519,-2.988 9.453,-2.988 0.801,0 1.406,0.031 1.816,0.078 0.403,0.047 1.055,0.129 1.965,0.227 l 4.461,5.594 c -1.062,-0.301 -2.078,-0.547 -3.066,-0.723 -0.985,-0.176 -1.875,-0.262 -2.684,-0.262 -2.422,0 -4.355,0.547 -5.82,1.629 -1.465,1.082 -2.188,2.609 -2.188,4.57 0,2.981 2.489,5.039 7.481,6.204 3.387,0.808 5.859,1.64 7.41,2.5 v -11.797 c 0,-3.985 2.121,-6.504 6.348,-7.559 -1.211,-0.703 -2.207,-1.73 -2.989,-3.086 -0.781,-1.359 -1.171,-2.91 -1.171,-4.66 0,-1.707 0.675,-3.074 2.003,-4.102 1.336,-1.023 2.938,-1.543 4.805,-1.543 1.512,0 2.918,0.352 4.238,1.047 l 1.211,3.418 c -1.211,-0.703 -2.832,-1.054 -4.843,-1.054 -0.657,0 -1.262,0.269 -1.817,0.828"
         style="fill:#231f20;fill-opacity:1;fill-rule:nonzero;stroke:none"
         transform="matrix(0.13333333,0,0,-0.13333333,0,72.346667)" />
      <path
         id="path49"
         d="m 866.723,213.039 c 1.613,-0.812 2.414,-1.945 2.414,-3.41 0,-0.547 -0.137,-1.231 -0.41,-2.039 -0.274,-0.801 -0.539,-1.563 -0.782,-2.266 l -7.304,-17.988 -6.614,18.445 c -0.507,1.262 -0.976,2.512 -1.406,3.742 -0.43,1.239 -0.691,2.157 -0.801,2.762 l 0.157,1.055 h -10.059 v -0.301 c 1.418,-0.703 2.121,-1.691 2.121,-2.949 0,-0.656 -0.129,-1.387 -0.371,-2.199 -0.246,-0.813 -0.469,-1.512 -0.664,-2.118 l -7.266,-18.488 -9.015,23.711 c -0.254,0.508 -0.418,0.938 -0.489,1.289 -0.078,0.352 -0.164,1.008 -0.261,1.961 h -0.305 c -0.605,-0.387 -1.289,-0.625 -2.039,-0.711 -0.762,-0.086 -1.438,-0.156 -2.043,-0.195 -0.809,0 -1.59,0 -2.344,0 -0.762,0 -1.562,0 -2.422,0 v -0.301 c 1.145,-0.656 2.032,-1.574 2.688,-2.734 0.047,-0.102 0.515,-1.164 1.414,-3.184 l 8.625,-22.48 c 0.711,-1.758 1.465,-3.059 2.226,-3.907 1.18,-1.359 3.047,-2.558 5.614,-3.605 l 10.285,26.457 7.402,-19.504 c 0.762,-2.215 1.844,-3.855 3.25,-4.91 1.164,-0.656 2.344,-1.34 3.555,-2.043 l 15.051,36.211 h -10.207 v -0.301"
         style="fill:#231f20;fill-opacity:1;fill-rule:nonzero;stroke:none"
         transform="matrix(0.13333333,0,0,-0.13333333,0,72.346667)" />
      <path
         id="path50"
         d="m 965.387,183.32 c -0.11,0 -2.473,0.254 -7.11,0.762 -1.867,0.195 -3.683,0.305 -5.449,0.305 l 19.981,28.64 -0.02,0.313 h -26.914 l -3.555,-7.715 c 1.414,1.016 2.84,1.719 4.278,2.121 1.433,0.399 3.105,0.606 5.027,0.606 0.852,0 2.355,-0.079 4.492,-0.227 2.141,-0.156 3.692,-0.281 4.649,-0.379 l -19.688,-27.219 c -1.797,1.289 -3.691,2.571 -5.183,3.938 -1.661,1.504 -2.872,2.762 -3.625,3.777 l -11.571,14.434 c 3.778,1.164 6.707,2.883 8.77,5.148 1.816,2.012 2.871,4.336 3.172,6.953 0,3.934 -1.231,7.078 -3.7,9.453 -2.773,2.665 -6.808,4.004 -12.101,4.004 h -17.684 v -0.304 c 1.492,-0.606 2.449,-1.758 2.891,-3.477 0.234,-1.004 0.359,-3.094 0.359,-6.269 v -29.032 c 0,-3.183 -0.183,-5.558 -0.535,-7.148 -0.351,-1.594 -1.262,-2.656 -2.715,-3.215 v -0.301 l 14.285,0.145 c -1.464,0.812 -2.382,1.863 -2.761,3.183 -0.371,1.309 -0.567,3.704 -0.567,7.18 v 33.945 c 1.211,0.254 2.078,0.418 2.606,0.497 0.539,0.07 1.281,0.109 2.238,0.109 2.82,0 5.117,-0.578 6.875,-1.738 2.117,-1.36 3.172,-3.411 3.172,-6.125 0,-3.329 -1.434,-6.036 -4.305,-8.094 -2.265,-1.621 -5.215,-2.707 -8.847,-3.254 l 6.941,-10.516 8.828,-10.898 c 1.106,-1.504 2.285,-2.617 3.516,-3.344 1.242,-0.73 2.871,-1.09 4.894,-1.09 h 3.797 3.938 28.269 l 4.004,8.242 c -2.012,-1.261 -3.828,-2.152 -5.437,-2.648 -1.614,-0.508 -3.36,-0.762 -5.215,-0.762"
         style="fill:#231f20;fill-opacity:1;fill-rule:nonzero;stroke:none"
         transform="matrix(0.13333333,0,0,-0.13333333,0,72.346667)" />
      <path
         id="path51"
         d="m 985.191,201.543 c 0.352,2.422 1.485,4.328 3.399,5.715 1.914,1.387 4.129,2.078 6.66,2.078 2.461,0 4.609,-0.672 6.42,-2 1.81,-1.34 2.85,-3.273 3.1,-5.793 z m 22.569,8.137 c -3.25,3.144 -7.25,4.715 -11.983,4.715 -6.105,0 -10.918,-1.934 -14.445,-5.821 -3.074,-3.379 -4.609,-7.508 -4.609,-12.39 0,-5.899 2.265,-10.586 6.808,-14.063 4.082,-3.125 9.071,-4.687 14.969,-4.687 1.76,0 3.52,0.156 5.25,0.488 1.74,0.332 3.46,0.82 5.18,1.473 l 3.56,7.031 c -1.77,-1.309 -3.76,-2.293 -5.98,-2.949 -2.22,-0.653 -4.36,-0.985 -6.43,-0.985 h -1.881 c -4.543,0.41 -8.019,2.215 -10.441,5.43 -1.914,2.598 -2.871,5.652 -2.871,9.168 h 27.743 c 0,5.234 -1.62,9.433 -4.87,12.59"
         style="fill:#231f20;fill-opacity:1;fill-rule:nonzero;stroke:none"
         transform="matrix(0.13333333,0,0,-0.13333333,0,72.346667)" />
      <path
         id="path52"
         d="m 1038.49,197.844 c -0.15,0.097 -3.35,1.258 -9.6,3.476 -3.12,1.114 -4.78,2.442 -4.99,4.004 0,1.317 0.61,2.285 1.82,2.91 1.21,0.633 2.88,0.946 5.01,0.946 3.63,0 6.84,-0.782 9.63,-2.344 v 6.504 c -1.22,0.351 -2.42,0.598 -3.61,0.723 -1.18,0.117 -2.71,0.183 -4.58,0.183 -4.19,0 -7.59,-0.68 -10.22,-2.039 -3.34,-1.719 -5,-4.383 -5,-8.016 0,-2.363 0.86,-4.336 2.58,-5.898 1.21,-1.105 3.16,-2.188 5.84,-3.242 6.17,-2.324 9.48,-3.664 9.94,-4.016 1.52,-1.055 2.27,-2.39 2.27,-4.004 -0.14,-1.511 -1,-2.644 -2.58,-3.41 -1.56,-0.75 -3.59,-1.129 -6.06,-1.129 -2.33,0 -4.76,0.379 -7.28,1.129 -2.53,0.766 -4.73,1.801 -6.61,3.109 l 2.5,-7.335 c 3.02,-1.211 6.38,-1.817 10.05,-1.817 4.24,0 7.94,0.91 11.12,2.727 3.78,2.168 5.67,5.215 5.67,9.148 0,1.856 -0.54,3.516 -1.62,4.953 -1.09,1.434 -2.51,2.578 -4.28,3.438"
         style="fill:#231f20;fill-opacity:1;fill-rule:nonzero;stroke:none"
         transform="matrix(0.13333333,0,0,-0.13333333,0,72.346667)" />
      <path
         id="path53"
         d="m 1071.3,183.32 c -0.09,0 -2.47,0.254 -7.11,0.762 -1.86,0.195 -3.67,0.305 -5.44,0.305 l 19.98,28.64 -0.01,0.313 h -26.92 l -3.55,-7.715 c 1.4,1.016 2.83,1.719 4.26,2.121 1.44,0.399 3.12,0.606 5.03,0.606 0.86,0 2.36,-0.079 4.51,-0.227 2.13,-0.156 3.69,-0.281 4.64,-0.379 l -20.94,-28.957 v -0.301 h 32.2 l 4.02,8.242 c -2.02,-1.261 -3.84,-2.152 -5.45,-2.648 -1.61,-0.508 -3.35,-0.762 -5.22,-0.762"
         style="fill:#231f20;fill-opacity:1;fill-rule:nonzero;stroke:none"
         transform="matrix(0.13333333,0,0,-0.13333333,0,72.346667)" />
      <path
         id="path54"
         d="m 1110.84,186.301 c -2.07,-2.637 -4.91,-3.957 -8.54,-3.957 h -0.61 c -3.27,0 -6,1.406 -8.2,4.23 -2.19,2.821 -3.28,6.231 -3.28,10.215 0,4.434 1.41,7.781 4.23,10.047 2.07,1.672 4.43,2.5 7.11,2.5 3.62,0 6.57,-1.492 8.85,-4.492 2.1,-2.781 3.17,-6.074 3.17,-9.883 0,-3.445 -0.91,-6.34 -2.73,-8.66 z m -8.38,27.945 c -6.51,0 -11.58,-1.961 -15.2,-5.894 -3.18,-3.43 -4.76,-7.61 -4.76,-12.551 0,-4.988 1.63,-9.199 4.91,-12.625 3.57,-3.731 8.34,-5.598 14.28,-5.598 5.3,0 9.9,1.809 13.8,5.41 3.91,3.606 5.86,8 5.86,13.196 0,5.437 -1.94,9.871 -5.82,13.3 -3.57,3.172 -7.94,4.762 -13.07,4.762"
         style="fill:#231f20;fill-opacity:1;fill-rule:nonzero;stroke:none"
         transform="matrix(0.13333333,0,0,-0.13333333,0,72.346667)" />
      <path
         id="path55"
         d="m 1170.65,213.039 c 1.61,-0.812 2.42,-1.945 2.42,-3.41 0,-0.547 -0.14,-1.231 -0.41,-2.039 -0.27,-0.801 -0.54,-1.563 -0.78,-2.266 l -7.31,-17.988 -6.61,18.445 c -0.5,1.262 -0.97,2.512 -1.4,3.742 -0.43,1.239 -0.71,2.157 -0.8,2.762 l 0.14,1.055 h -10.05 v -0.301 c 1.41,-0.703 2.11,-1.691 2.11,-2.949 0,-0.656 -0.11,-1.387 -0.36,-2.199 -0.25,-0.813 -0.48,-1.512 -0.67,-2.118 l -7.26,-18.488 -9.01,23.711 c -0.25,0.508 -0.42,0.938 -0.5,1.289 -0.08,0.352 -0.16,1.008 -0.26,1.961 h -0.31 c -0.6,-0.387 -1.27,-0.625 -2.04,-0.711 -0.75,-0.086 -1.43,-0.156 -2.04,-0.195 -0.81,0 -1.58,0 -2.34,0 -0.75,0 -1.56,0 -2.42,0 v -0.301 c 1.14,-0.656 2.04,-1.574 2.68,-2.734 0.05,-0.102 0.52,-1.164 1.42,-3.184 l 8.63,-22.48 c 0.71,-1.758 1.46,-3.059 2.23,-3.907 1.17,-1.359 3.04,-2.558 5.6,-3.605 l 10.29,26.457 7.41,-19.504 c 0.75,-2.215 1.83,-3.855 3.25,-4.91 1.15,-0.656 2.34,-1.34 3.55,-2.043 l 15.04,36.211 h -10.2 v -0.301"
         style="fill:#231f20;fill-opacity:1;fill-rule:nonzero;stroke:none"
         transform="matrix(0.13333333,0,0,-0.13333333,0,72.346667)" />
      <path
         id="path56"
         d="m 1193.22,181.281 c -0.28,1.016 -0.42,2.645 -0.42,4.922 v 28.348 h -0.3 c -0.85,-0.906 -2.67,-1.356 -5.44,-1.356 -0.71,0 -1.38,0 -2.01,0 -0.63,0 -1.3,0 -2,0 v -0.304 c 1.26,-0.653 2.09,-1.582 2.49,-2.782 0.21,-0.605 0.3,-1.691 0.3,-3.242 V 184.66 c 0,-1.308 -0.17,-2.461 -0.52,-3.457 -0.35,-1.008 -1.12,-1.808 -2.27,-2.414 v -0.301 h 12.55 l 0.15,0.301 c -1.41,0.656 -2.26,1.484 -2.53,2.492"
         style="fill:#231f20;fill-opacity:1;fill-rule:nonzero;stroke:none"
         transform="matrix(0.13333333,0,0,-0.13333333,0,72.346667)" />
      <path
         id="path57"
         d="m 1185.62,225.891 c -0.91,-0.957 -1.36,-2.043 -1.36,-3.254 0,-1.356 0.45,-2.489 1.36,-3.399 0.91,-0.91 2.01,-1.355 3.33,-1.355 1.36,0 2.49,0.445 3.4,1.355 0.91,0.91 1.36,2.043 1.36,3.399 0,1.261 -0.46,2.363 -1.4,3.293 -0.93,0.937 -2.05,1.394 -3.36,1.394 -1.32,0 -2.42,-0.476 -3.33,-1.433"
         style="fill:#231f20;fill-opacity:1;fill-rule:nonzero;stroke:none"
         transform="matrix(0.13333333,0,0,-0.13333333,0,72.346667)" />
      <path
         id="path58"
         d="m 1209.06,201.543 c 0.35,2.422 1.48,4.328 3.4,5.715 1.91,1.387 4.13,2.078 6.66,2.078 2.46,0 4.61,-0.672 6.42,-2 1.81,-1.34 2.84,-3.273 3.1,-5.793 z m 22.57,8.137 c -3.26,3.144 -7.25,4.715 -11.99,4.715 -6.1,0 -10.91,-1.934 -14.44,-5.821 -3.08,-3.379 -4.61,-7.508 -4.61,-12.39 0,-5.899 2.27,-10.586 6.81,-14.063 4.08,-3.125 9.07,-4.687 14.97,-4.687 1.76,0 3.51,0.156 5.25,0.488 1.74,0.332 3.46,0.82 5.18,1.473 l 3.55,7.031 c -1.77,-1.309 -3.76,-2.293 -5.97,-2.949 -2.22,-0.653 -4.36,-0.985 -6.43,-0.985 h -1.88 c -4.55,0.41 -8.02,2.215 -10.44,5.43 -1.92,2.598 -2.88,5.652 -2.88,9.168 h 27.75 c 0,5.234 -1.62,9.433 -4.87,12.59"
         style="fill:#231f20;fill-opacity:1;fill-rule:nonzero;stroke:none"
         transform="matrix(0.13333333,0,0,-0.13333333,0,72.346667)" />
      <path
         id="path59"
         d="m 1247.82,281.301 5.09,15.117 5.29,-15.129 z m 28.82,-26.008 c 0.4,1.047 1.23,2.422 2.17,3.848 h 4.64 v 0.304 c -1.61,1.465 -2.84,2.852 -3.67,4.16 -0.83,1.317 -1.67,3.231 -2.53,5.762 l -14.67,39.598 -18.44,-0.156 c 1.05,-0.711 1.78,-1.407 2.18,-2.09 0.41,-0.692 0.61,-1.465 0.61,-2.324 0,-0.711 -0.15,-1.59 -0.45,-2.637 -0.3,-1.035 -0.48,-1.66 -0.53,-1.863 l -10.21,-29.415 c -0.96,-2.871 -1.69,-4.835 -2.19,-5.902 -1.01,-2.105 -2.3,-3.824 -3.86,-5.133 v -0.304 h 15.5 v 0.304 c -0.96,0.703 -1.66,1.375 -2.11,2 -0.46,0.633 -0.68,1.348 -0.68,2.16 0.05,0.555 0.18,1.231 0.41,2.04 0.23,0.8 0.45,1.535 0.64,2.187 l 2.2,6.359 h 15.04 l 2.34,-7.187 c 0.3,-0.754 0.48,-1.309 0.54,-1.66 0.05,-0.352 0.07,-0.891 0.07,-1.594 0,-1.707 -1.03,-3.145 -3.1,-4.305 v -0.304 h 10.66 c -1.78,-1.961 -3.65,-4.832 -3.65,-8.602 0,-7.851 7.41,-8.957 12.34,-8.957 2.25,0 3.68,0.391 3.68,0.391 l 3.26,6.699 c 0,0 -1.41,-0.469 -4.63,-0.469 -3.18,0 -7.62,1.699 -5.56,7.09"
         style="fill:#231f20;fill-opacity:1;fill-rule:nonzero;stroke:none"
         transform="matrix(0.13333333,0,0,-0.13333333,0,72.346667)" />
      <path
         id="path60"
         d="m 1000.91,261.965 c -0.3,-1.035 -1.031,-2.031 -2.195,-2.988 v -0.305 h 18.455 v 0.305 c -1.11,0.859 -1.83,1.726 -2.16,2.617 -0.33,0.867 -0.48,2.176 -0.48,3.894 v 26.164 h -0.32 c -0.81,-0.461 -1.56,-0.754 -2.24,-0.871 -0.7,-0.136 -1.7,-0.195 -3.02,-0.195 h -1 -9.235 v -0.301 c 1.23,-1.055 1.985,-2.023 2.245,-2.922 0.28,-0.867 0.41,-1.98 0.41,-3.281 v -18.301 c 0,-1.511 -0.15,-2.793 -0.46,-3.816"
         style="fill:#231f20;fill-opacity:1;fill-rule:nonzero;stroke:none"
         transform="matrix(0.13333333,0,0,-0.13333333,0,72.346667)" />
      <path
         id="path61"
         d="m 1012.47,297.109 c 1.36,1.446 2.06,3.145 2.06,5.11 0,2.019 -0.71,3.738 -2.1,5.144 -1.4,1.407 -3.04,2.121 -4.93,2.121 -2.01,0 -3.71,-0.714 -5.09,-2.121 -1.4,-1.406 -2.1,-3.125 -2.1,-5.144 0,-2.004 0.7,-3.723 2.1,-5.141 1.38,-1.414 3.08,-2.117 5.09,-2.117 1.94,0 3.59,0.723 4.97,2.148"
         style="fill:#231f20;fill-opacity:1;fill-rule:nonzero;stroke:none"
         transform="matrix(0.13333333,0,0,-0.13333333,0,72.346667)" />
    </g>
  </g>
</svg>
