<?xml version="1.0" encoding="UTF-8" standalone="no"?>
<!-- Created with Inkscape (http://www.inkscape.org/) -->

<svg
   version="1.1"
   id="svg1"
   width="170.53333"
   height="108.13333"
   viewBox="0 0 170.53333 108.13333"
   sodipodi:docname="PL_mono_center.eps"
   xmlns:inkscape="http://www.inkscape.org/namespaces/inkscape"
   xmlns:sodipodi="http://sodipodi.sourceforge.net/DTD/sodipodi-0.dtd"
   xmlns="http://www.w3.org/2000/svg"
   xmlns:svg="http://www.w3.org/2000/svg">
  <defs
     id="defs1" />
  <sodipodi:namedview
     id="namedview1"
     pagecolor="#ffffff"
     bordercolor="#000000"
     borderopacity="0.25"
     inkscape:showpageshadow="2"
     inkscape:pageopacity="0.0"
     inkscape:pagecheckerboard="0"
     inkscape:deskcolor="#d1d1d1">
    <inkscape:page
       x="0"
       y="0"
       inkscape:label="1"
       id="page1"
       width="170.53333"
       height="108.13333"
       margin="0"
       bleed="0" />
  </sodipodi:namedview>
  <g
     id="g1"
     inkscape:groupmode="layer"
     inkscape:label="1">
    <g
       id="group-R5">
      <path
         id="path2"
         d="m 780.473,455.43 c -8.317,-0.633 -16.805,-1.035 -25.051,-1.438 -19.422,-0.918 -39.484,-1.883 -58.309,-5.926 -20.89,-4.519 -37.965,-12.519 -52.48,-24.464 v 27.043 h -10.168 v -26.961 c -17.461,13.679 -38.227,22.605 -64.313,27.273 -23.179,4.121 -46.964,4.473 -71.324,4.473 v 220.031 h 80.317 c 11.789,-0.383 17.449,-3.359 28.398,-12.055 l 0.094,-0.105 c 0,-11.641 0,-23.289 0,-34.871 10.765,-4.621 21.547,-9.192 32.328,-13.696 10.324,4.504 20.773,9.075 31.262,13.696 0,11.519 0,23.113 0,34.675 l 0.125,0.11 c 10.488,8.113 17.519,11.531 24.976,12.246 h 84.145 z M 615.305,667.773 c 7.965,-4.765 15.918,-9.445 24.058,-14.132 -8.14,-4.801 -16.093,-9.571 -24.058,-14.246 0,9.445 0,18.933 0,28.378 z m 38.379,9.844 c -4.743,-8.047 -9.446,-16.023 -14.149,-23.976 7.926,4.687 15.918,9.367 23.887,14.132 0,-9.445 0,-18.933 0,-28.378 -7.969,4.675 -15.961,9.445 -23.887,14.246 4.703,-8.075 9.406,-16.024 14.149,-24.012 -9.59,0 -19.043,0 -28.473,0 4.699,7.988 9.43,15.937 14.324,24.012 -4.894,7.953 -9.625,15.929 -14.324,23.976 9.43,0 18.883,0 28.473,0 z m 44.386,2.188 c -8.468,0 -18.23,-4.102 -26.843,-11.211 0,4.636 0,9.25 0,13.906 -21.247,0 -42.497,0 -63.59,0 0,-4.465 0,-8.859 0,-13.312 -8.922,8.761 -21.035,10.617 -29.629,10.617 h -83.422 v -0.215 c -0.168,-76.106 -0.168,-153.477 -0.168,-228.313 v -0.054 l 0.039,-0.039 c 6.231,-9.575 12.738,-19.309 19.012,-28.743 l 1.644,-2.468 0.059,-0.09 0.101,-0.012 c 3.582,-0.086 7.469,-0.144 11.95,-0.144 3.953,0 7.949,0.058 11.824,0.078 3.808,0.019 7.738,0.066 11.629,0.066 21.32,0 38.988,-1.187 55.863,-6.933 11.113,-4.254 18.496,-8.778 28.402,-14.493 l 2.622,-1.504 v 0.356 c -0.184,16.719 -0.184,33.687 -0.184,50.137 h 4.191 v -50.481 l 0.285,0.156 c 2.27,1.2 4.293,2.332 6.188,3.352 11.406,6.16 16.902,9.273 24,11.336 24.535,7.539 41.898,8.144 60.48,8.144 3.231,0 6.477,-0.007 9.965,-0.039 5.621,-0.031 11.555,-0.097 18.008,-0.031 h 0.109 l 0.059,0.07 c 8.453,11.055 16.082,21.055 24.031,31.211 l 0.024,0.059 V 679.805 H 698.07"
         style="fill:#231f20;fill-opacity:1;fill-rule:nonzero;stroke:none"
         transform="matrix(0.13333333,0,0,-0.13333333,0,108.13333)" />
      <path
         id="path3"
         d="M 667.043,598.738 V 543.23 l -27.68,21.211 -27.683,-21.003 v 55.3 z m -49.391,-92.429 -5.972,-5.047 v 36.492 l 5.972,4.543 z m 12.352,10.41 -7.836,-6.602 v 35.606 l 7.836,5.925 z m 14.144,4.121 c -2.769,2.375 -4.613,3.933 -4.613,3.933 l -5.019,-4.238 v 34.543 l 4.847,3.672 4.785,-3.66 z m 12.368,-10.527 c -2.676,2.265 -5.387,4.589 -7.848,6.679 v 34.641 l 7.848,-6.028 z m 10.527,-8.946 c -1.652,1.399 -3.75,3.176 -6.012,5.098 v 35.683 l 6.012,-4.609 z M 607.168,458.66 h 64.391 V 603.254 H 607.168 V 458.66"
         style="fill:#231f20;fill-opacity:1;fill-rule:nonzero;stroke:none"
         transform="matrix(0.13333333,0,0,-0.13333333,0,108.13333)" />
      <path
         id="path4"
         d="m 684.82,639.852 h 42.868 l -4.036,-9.239 H 684.82 Z m 66.914,-59.5 v 59.5 h 7.621 c 1.969,-19.747 -0.816,-40.125 -7.621,-59.5 z m -14.035,59.5 h 9.52 v -70.899 c -2.781,-6.199 -5.946,-12.195 -9.52,-17.93 z M 765.66,492.285 v -10.293 h -80.84 v 10 c 2.207,1.61 10.192,7.551 17.797,13.875 6.571,5.473 11.895,10.285 14.164,12.356 17.199,-9.2 33.657,-17.93 48.879,-25.938 z m -74.555,54.973 v -44.824 c -2.437,-1.907 -4.621,-3.567 -6.285,-4.817 v 35.52 c 1.758,4.019 3.957,8.914 6.285,14.121 z m 13.325,29.508 0.707,1.562 v -64.402 c -1.676,-1.446 -3.477,-2.981 -5.41,-4.578 -1.368,-1.145 -2.747,-2.246 -4.106,-3.364 v 51.301 c 2.863,6.34 5.84,12.91 8.809,19.481 z m 10.449,-54.137 -0.707,-0.676 c -0.844,-0.769 -2.395,-2.187 -4.52,-4.07 v 70.418 c 3.235,7.129 6.493,14.336 9.512,21.062 V 527.18 c -1.445,-1.504 -2.781,-3.125 -4.285,-4.551 z m 17.734,117.223 h 0.571 v -95.758 c -2.973,-4.219 -6.137,-8.262 -9.5,-12.121 v 87.5 c 1.265,2.863 2.468,5.566 3.507,7.976 z m -52.304,-13.758 h 41.375 c -5.352,-12.16 -13.164,-29.356 -20.145,-44.754 l -1.234,-2.715 c -7.344,-16.234 -14.946,-33.027 -19.813,-44.113 l -0.183,-0.442 v -56.597 h 89.867 v 16.187 l -0.125,1.418 -1.211,0.625 c -15.152,7.969 -31.492,16.633 -48.621,25.813 6.363,6.316 12.09,13.386 17.285,20.894 h 0.195 v 0.266 c 6.446,9.355 11.992,19.414 16.266,30.09 8.941,22.371 12.297,46.375 9.703,69.429 l -0.262,2.18 h -83.097 v -18.281"
         style="fill:#231f20;fill-opacity:1;fill-rule:nonzero;stroke:none"
         transform="matrix(0.13333333,0,0,-0.13333333,0,108.13333)" />
      <path
         id="path5"
         d="m 561.852,611.902 c -2.914,6.489 -5.579,12.453 -7.719,17.336 l -4.617,10.614 h 42.894 l 0.078,-9.122 c -3.699,-0.093 -10.961,-0.574 -16.402,-2.964 -5.859,-2.563 -8.566,-5.852 -10.844,-9.016 -1.582,-2.195 -2.664,-4.648 -3.39,-6.848 z m 5.476,-23.125 v -70.308 c -4.344,4.129 -8.086,7.871 -9.492,9.285 v 82.043 c 3.004,-6.692 6.258,-13.879 9.492,-21.02 z m 14.027,-31.004 V 506.16 c -1.281,1.059 -2.589,2.102 -3.89,3.188 -1.781,1.48 -3.688,3.172 -5.602,4.918 v 64.523 l 0.918,-2.023 c 2.895,-6.383 5.782,-12.801 8.574,-18.993 z m 11.028,-60.168 c -1.703,1.282 -3.969,3.008 -6.488,4.973 v 45.106 c 2.402,-5.36 4.664,-10.418 6.476,-14.547 z m -80.836,-15.613 v 7.988 c 8.75,1.622 18.547,5.04 26.621,9.329 8.746,4.636 15.254,14.277 19.668,22.058 4.152,-4.121 10.957,-10.703 16.738,-15.5 7.614,-6.336 15.641,-12.293 17.821,-13.887 v -9.988 z m 6.289,157.86 h 7.406 v -58.856 c -6.629,19.188 -9.336,39.336 -7.406,58.856 z m 11.945,0 h 9.492 v -89.391 c -3.406,5.516 -6.515,11.559 -9.492,18.418 z m 23.52,-19.911 v -87.773 c -3.481,3.699 -6.606,7.5 -9.496,11.484 v 96.2 h 0.781 l 5.398,-12.403 c 0.996,-2.281 2.125,-4.832 3.317,-7.508 z m 24.594,3.692 c 6.476,2.832 16.718,2.605 16.828,2.597 l 2.332,-0.078 -0.168,18.223 h -83.086 l -0.254,-2.18 c -2.617,-23.054 0.726,-47.058 9.699,-69.429 8.395,-20.957 17.219,-34.621 31.195,-48.215 -4.121,-7.41 -10.3,-16.973 -18.378,-21.258 -8.258,-4.375 -18.395,-7.805 -27.114,-9.184 l -1.918,-0.281 v -16.355 h 89.871 l -0.015,56.597 -0.188,0.442 c -4.847,11.086 -12.445,27.879 -19.82,44.113 l -1.227,2.715 c -3.519,7.754 -7.238,15.965 -10.746,23.75 0.211,1.687 1.09,6.988 4,11.023 2.067,2.864 4.168,5.41 8.989,7.52"
         style="fill:#231f20;fill-opacity:1;fill-rule:nonzero;stroke:none"
         transform="matrix(0.13333333,0,0,-0.13333333,0,108.13333)" />
      <path
         id="path6"
         d="m 358.953,327.012 c 0.149,-0.379 0.649,-2.051 1.508,-5 l 8.07,-27.508 c 0.809,-2.863 2.692,-5.195 5.645,-7.004 1.91,-1.152 4.5,-2.168 7.789,-3.074 l 7.359,28.582 c 1.004,-2.903 2.477,-7.695 4.43,-14.406 1.621,-5.504 3.551,-8.973 5.789,-10.399 1.141,-0.762 2.309,-1.418 3.5,-1.965 1.191,-0.547 2.859,-1.148 5.004,-1.812 l 14.648,48.015 -12.007,-0.144 c 0.812,-0.957 1.406,-1.859 1.789,-2.695 0.378,-0.84 0.57,-1.821 0.57,-2.922 0,-0.625 -0.024,-1.082 -0.074,-1.399 -0.047,-0.308 -0.153,-0.879 -0.301,-1.695 l -7.012,-23.723 c -5.75,20.242 -8.617,30.457 -8.617,30.645 l 0.43,1.933 -15.078,-0.136 c 0.859,-0.625 1.609,-1.746 2.25,-3.371 0.644,-1.621 0.964,-3.336 0.964,-5.157 -0.046,-0.293 -0.593,-2.554 -1.644,-6.804 -0.57,-2.383 -1.524,-6.153 -2.856,-11.309 -0.523,-2.012 -1.027,-3.992 -1.5,-5.945 h -0.289 l -7.14,27 -1.504,5.722 h -15.504 v -0.285 c 1.613,-1.14 2.879,-2.859 3.781,-5.144"
         style="fill:#231f20;fill-opacity:1;fill-rule:nonzero;stroke:none"
         transform="matrix(0.13333333,0,0,-0.13333333,0,108.13333)" />
      <path
         id="path7"
         d="m 427.887,327.148 10.808,-20.402 v -14.383 c 0,-1.386 -0.238,-2.695 -0.711,-3.933 -0.48,-1.242 -1.265,-2.168 -2.359,-2.793 v -0.285 h 19.508 v 0.285 c -1.383,1.238 -2.313,2.761 -2.789,4.578 -0.281,1.094 -0.426,2.59 -0.426,4.504 v 12 l 12.93,25.722 -12.93,-0.144 c 0.762,-0.434 1.297,-0.949 1.605,-1.543 0.309,-0.609 0.465,-1.313 0.465,-2.133 0,-0.523 -0.133,-1.199 -0.394,-2.012 -0.266,-0.816 -0.61,-1.773 -1.039,-2.879 l -4.133,-8.378 -8.285,17.089 -16.586,-0.136 c 0.945,-0.578 1.691,-1.184 2.242,-1.828 0.539,-0.641 1.242,-1.754 2.094,-3.329"
         style="fill:#231f20;fill-opacity:1;fill-rule:nonzero;stroke:none"
         transform="matrix(0.13333333,0,0,-0.13333333,0,108.13333)" />
      <path
         id="path8"
         d="m 479.863,325.723 6.285,-0.215 -21.363,-40.156 h 38.516 l 3.926,11.289 c -2.715,-1.719 -5.11,-2.879 -7.176,-3.496 -2.078,-0.625 -4.422,-0.938 -7.043,-0.938 -0.524,0 -1.879,0.106 -4.07,0.32 -2.196,0.215 -4,0.325 -5.43,0.325 l 21.078,39.589 h -32.801 l -3.789,-10.214 c 1.863,1.113 3.801,1.984 5.828,2.586 2.028,0.609 4.035,0.91 6.039,0.91"
         style="fill:#231f20;fill-opacity:1;fill-rule:nonzero;stroke:none"
         transform="matrix(0.13333333,0,0,-0.13333333,0,108.13333)" />
      <path
         id="path9"
         d="m 487.223,336.379 c 1.855,0 3.441,0.672 4.75,2.027 1.308,1.36 1.965,2.973 1.965,4.824 0,1.907 -0.668,3.528 -2,4.868 -1.336,1.328 -2.911,1.992 -4.715,1.992 -1.907,0 -3.528,-0.664 -4.86,-1.992 -1.34,-1.34 -2.004,-2.961 -2.004,-4.868 0,-1.902 0.664,-3.523 2.004,-4.863 1.332,-1.324 2.953,-1.988 4.86,-1.988"
         style="fill:#231f20;fill-opacity:1;fill-rule:nonzero;stroke:none"
         transform="matrix(0.13333333,0,0,-0.13333333,0,108.13333)" />
      <path
         id="path10"
         d="m 529.418,292.891 c -1.352,-0.789 -3.074,-1.18 -5.164,-1.18 -2.516,0 -5.16,0.516 -7.941,1.551 -2.778,1.035 -5.141,2.402 -7.09,4.09 l 2.359,-10.301 c 1.859,-0.762 3.988,-1.387 6.398,-1.883 2.407,-0.5 4.868,-0.742 7.395,-0.742 5.051,0 9.266,0.996 12.648,2.996 4.094,2.422 6.407,6.086 6.926,10.984 v 1.567 c 0,2.808 -0.754,5.281 -2.273,7.418 -1.809,2.57 -5.008,4.992 -9.617,7.277 -1.571,0.625 -3.114,1.262 -4.629,1.934 -3.325,1.464 -4.985,3.156 -4.985,5.058 0.711,3.137 2.805,4.707 6.278,4.707 1.472,0 3.054,-0.273 4.746,-0.82 1.683,-0.547 3.457,-1.399 5.312,-2.539 v 8.437 c -2.476,0.899 -4.57,1.477 -6.285,1.707 -1.715,0.246 -3.547,0.364 -5.492,0.364 -5.094,0 -9.281,-1.125 -12.57,-3.348 -3.282,-2.238 -5.09,-5.355 -5.422,-9.348 0,-3.945 1.043,-7.187 3.133,-9.707 1.851,-2.234 4.89,-4.297 9.117,-6.203 3.367,-1.57 5.48,-2.664 6.336,-3.277 2.09,-1.477 3.136,-3.215 3.136,-5.215 -0.191,-1.566 -0.964,-2.746 -2.316,-3.527"
         style="fill:#231f20;fill-opacity:1;fill-rule:nonzero;stroke:none"
         transform="matrix(0.13333333,0,0,-0.13333333,0,108.13333)" />
      <path
         id="path11"
         d="m 584.758,285.352 3.926,11.289 c -2.715,-1.719 -5.11,-2.879 -7.18,-3.496 -2.074,-0.625 -4.418,-0.938 -7.039,-0.938 -0.524,0 -1.883,0.106 -4.074,0.32 -2.192,0.215 -4,0.325 -5.43,0.325 l 21.078,39.589 h -32.797 l -3.789,-10.214 c 1.86,1.113 3.801,1.984 5.824,2.586 2.028,0.609 4.039,0.91 6.039,0.91 l 6.286,-0.215 -21.364,-40.156 h 38.52"
         style="fill:#231f20;fill-opacity:1;fill-rule:nonzero;stroke:none"
         transform="matrix(0.13333333,0,0,-0.13333333,0,108.13333)" />
      <path
         id="path12"
         d="m 610.906,320.574 5,-14.285 -9.801,0.012 z m -7.289,-34.937 c -0.906,0.672 -1.57,1.297 -2,1.89 -0.429,0.598 -0.644,1.282 -0.644,2.043 0.047,0.52 0.179,1.16 0.394,1.922 0.215,0.766 0.414,1.457 0.606,2.071 l 2.074,6.007 h 14.219 l 2.214,-6.789 c 0.286,-0.711 0.454,-1.238 0.5,-1.57 0.043,-0.332 0.075,-0.828 0.075,-1.504 0,-1.621 -0.981,-2.98 -2.93,-4.07 v -0.285 h 21.648 v 0.285 c -1.527,1.383 -2.679,2.691 -3.464,3.933 -0.786,1.239 -1.586,3.059 -2.391,5.442 l -13.863,37.429 -17.438,-0.144 c 1,-0.676 1.692,-1.328 2.071,-1.984 0.378,-0.645 0.57,-1.379 0.57,-2.188 0,-0.676 -0.141,-1.504 -0.422,-2.488 -0.289,-0.989 -0.457,-1.574 -0.504,-1.77 l -9.648,-27.793 c -0.907,-2.715 -1.598,-4.582 -2.071,-5.574 -0.953,-2.004 -2.168,-3.625 -3.644,-4.863 v -0.285 h 14.648 v 0.285"
         style="fill:#231f20;fill-opacity:1;fill-rule:nonzero;stroke:none"
         transform="matrix(0.13333333,0,0,-0.13333333,0,108.13333)" />
      <path
         id="path13"
         d="m 678.121,292.891 c -1.351,-0.789 -3.078,-1.18 -5.168,-1.18 -2.515,0 -5.16,0.516 -7.937,1.551 -2.782,1.035 -5.145,2.402 -7.09,4.09 l 2.355,-10.301 c 1.864,-0.762 3.992,-1.387 6.399,-1.883 2.406,-0.5 4.867,-0.742 7.398,-0.742 5.047,0 9.262,0.996 12.645,2.996 4.097,2.422 6.406,6.086 6.929,10.984 v 1.567 c 0,2.808 -0.757,5.281 -2.273,7.418 -1.809,2.57 -5.012,4.992 -9.621,7.277 -1.567,0.625 -3.11,1.262 -4.629,1.934 -3.32,1.464 -4.981,3.156 -4.981,5.058 0.707,3.137 2.801,4.707 6.274,4.707 1.476,0 3.058,-0.273 4.746,-0.82 1.687,-0.547 3.457,-1.399 5.312,-2.539 v 8.437 c -2.472,0.899 -4.57,1.477 -6.285,1.707 -1.711,0.246 -3.543,0.364 -5.492,0.364 -5.094,0 -9.281,-1.125 -12.566,-3.348 -3.282,-2.238 -5.094,-5.355 -5.426,-9.348 0,-3.945 1.047,-7.187 3.137,-9.707 1.847,-2.234 4.89,-4.297 9.113,-6.203 3.371,-1.57 5.484,-2.664 6.34,-3.277 2.09,-1.477 3.133,-3.215 3.133,-5.215 -0.192,-1.566 -0.961,-2.746 -2.313,-3.527"
         style="fill:#231f20;fill-opacity:1;fill-rule:nonzero;stroke:none"
         transform="matrix(0.13333333,0,0,-0.13333333,0,108.13333)" />
      <path
         id="path14"
         d="m 733.457,285.352 3.926,11.289 c -2.715,-1.719 -5.11,-2.879 -7.18,-3.496 -2.074,-0.625 -4.418,-0.938 -7.039,-0.938 -0.523,0 -1.879,0.106 -4.07,0.32 -2.196,0.215 -4,0.325 -5.434,0.325 l 21.082,39.589 h -32.801 l -3.789,-10.214 c 1.864,1.113 3.801,1.984 5.828,2.586 2.028,0.609 4.04,0.91 6.04,0.91 l 6.285,-0.215 -21.364,-40.156 h 38.516"
         style="fill:#231f20;fill-opacity:1;fill-rule:nonzero;stroke:none"
         transform="matrix(0.13333333,0,0,-0.13333333,0,108.13333)" />
      <path
         id="path15"
         d="m 759.465,285.637 c -1.102,0.574 -1.887,1.406 -2.36,2.5 -0.48,1.101 -0.718,2.41 -0.718,3.933 v 14.219 l 8.359,-14.363 c 1.672,-2.903 3.477,-4.731 5.434,-5.473 1.953,-0.73 5.789,-1.101 11.504,-1.101 h 4.429 v 0.285 c -1.242,0.957 -2.383,2.195 -3.425,3.718 -0.622,0.997 -1.243,2 -1.864,2.997 l -13.289,20.941 15.789,19.148 -17.578,-0.144 c 1.051,-0.531 1.777,-1.125 2.184,-1.801 0.398,-0.672 0.605,-1.414 0.605,-2.226 0,-1.012 -0.406,-2.118 -1.211,-3.321 -0.621,-0.808 -1.238,-1.597 -1.855,-2.371 l -9.067,-11.445 -0.015,14.707 c 0,1.152 0.238,2.363 0.718,3.625 0.473,1.265 1.258,2.262 2.36,2.976 l -19.297,-0.136 c 1.285,-0.86 2.141,-1.985 2.57,-3.371 0.289,-0.957 0.43,-2.481 0.43,-4.579 v -1.718 -30.559 c 0,-1.238 -0.215,-2.461 -0.645,-3.648 -0.429,-1.196 -1.214,-2.121 -2.355,-2.793 v -0.285 h 19.297 v 0.285"
         style="fill:#231f20;fill-opacity:1;fill-rule:nonzero;stroke:none"
         transform="matrix(0.13333333,0,0,-0.13333333,0,108.13333)" />
      <path
         id="path16"
         d="m 797.617,310.898 c 0,4.368 1.184,8.036 3.539,11.016 2.36,2.969 5.324,4.453 8.899,4.453 4.476,0 7.855,-2.324 10.144,-6.98 1.766,-3.578 2.645,-7.871 2.645,-12.91 0,-4.426 -0.985,-7.942 -2.946,-10.559 -2.109,-2.805 -5.152,-4.207 -9.128,-4.207 -4.028,0 -7.286,1.973 -9.774,5.918 -2.25,3.57 -3.379,7.684 -3.379,12.344 z m 12.793,-26.472 c 8.981,0 15.867,2.832 20.664,8.484 3.848,4.524 5.774,9.871 5.774,16.067 v 0.281 c 0,7.09 -2.262,12.844 -6.789,17.265 -4.762,4.661 -11.215,6.993 -19.368,6.993 -7.855,0 -14.285,-2.239 -19.289,-6.707 -5,-4.473 -7.5,-10.09 -7.5,-16.836 0,-0.102 0,-0.266 0,-0.5 0,-0.246 0,-0.457 0,-0.645 0,-6.808 2.348,-12.512 7.051,-17.129 4.942,-4.851 11.426,-7.273 19.457,-7.273"
         style="fill:#231f20;fill-opacity:1;fill-rule:nonzero;stroke:none"
         transform="matrix(0.13333333,0,0,-0.13333333,0,108.13333)" />
      <path
         id="path17"
         d="m 842.348,288.777 c -0.332,-1.277 -1.192,-2.429 -2.575,-3.425 H 871 l 2.648,9.929 c -1.812,-1.093 -3.101,-1.785 -3.863,-2.066 -1.805,-0.664 -4.047,-1.008 -6.715,-1.008 -1.191,0 -2.429,0.09 -3.715,0.254 -1.289,0.168 -2.382,0.488 -3.285,0.957 v 12.695 l 7.211,3.114 0.074,6.781 -7.285,-3.07 v 12.406 c 0,1.383 0.118,2.508 0.356,3.367 0.429,1.633 1.285,2.871 2.574,3.73 l -19.227,-0.136 c 0.907,-0.528 1.649,-1.328 2.219,-2.403 0.571,-1.074 0.856,-2.468 0.856,-4.187 v -18.352 l -3.075,-1.211 v -6.867 l 3.075,1.211 v -6.211 c 0,-2.383 -0.168,-4.219 -0.5,-5.508"
         style="fill:#231f20;fill-opacity:1;fill-rule:nonzero;stroke:none"
         transform="matrix(0.13333333,0,0,-0.13333333,0,108.13333)" />
      <path
         id="path18"
         d="m 897.441,320.574 5,-14.285 -9.804,0.012 z m -7.289,-34.937 c -0.91,0.672 -1.574,1.297 -2.004,1.89 -0.429,0.598 -0.644,1.282 -0.644,2.043 0.051,0.52 0.184,1.16 0.394,1.922 0.215,0.766 0.418,1.457 0.61,2.071 l 2.074,6.007 h 14.219 l 2.211,-6.789 c 0.289,-0.711 0.453,-1.238 0.504,-1.57 0.043,-0.332 0.074,-0.828 0.074,-1.504 0,-1.621 -0.985,-2.98 -2.934,-4.07 v -0.285 h 21.653 v 0.285 c -1.528,1.383 -2.68,2.691 -3.465,3.933 -0.789,1.239 -1.59,3.059 -2.395,5.442 l -13.863,37.429 -17.438,-0.144 c 1.004,-0.676 1.692,-1.328 2.075,-1.984 0.379,-0.645 0.57,-1.379 0.57,-2.188 0,-0.676 -0.145,-1.504 -0.426,-2.488 -0.289,-0.989 -0.453,-1.574 -0.504,-1.77 l -9.648,-27.793 c -0.902,-2.715 -1.598,-4.582 -2.07,-5.574 -0.954,-2.004 -2.168,-3.625 -3.641,-4.863 v -0.285 h 14.648 v 0.285"
         style="fill:#231f20;fill-opacity:1;fill-rule:nonzero;stroke:none"
         transform="matrix(0.13333333,0,0,-0.13333333,0,108.13333)" />
      <path
         id="path19"
         d="m 143.77,248.125 c 0.308,1.125 1.128,2.234 2.46,3.328 l -19.078,-0.144 c 1.332,-1.043 2.157,-2.129 2.465,-3.25 0.309,-1.125 0.465,-3.168 0.465,-6.125 v -28.625 c 0,-2.579 -0.117,-4.317 -0.355,-5.223 -0.379,-1.477 -1.243,-2.715 -2.575,-3.723 l 19.078,0.149 c -1.191,0.898 -1.976,1.894 -2.351,2.968 -0.387,1.075 -0.578,2.918 -0.578,5.547 v 29.485 c 0,2.625 0.156,4.492 0.469,5.613"
         style="fill:#231f20;fill-opacity:1;fill-rule:nonzero;stroke:none"
         transform="matrix(0.13333333,0,0,-0.13333333,0,108.13333)" />
      <path
         id="path20"
         d="m 182.961,251.309 c 1.379,-1.387 2.281,-2.981 2.715,-4.793 0.238,-1.008 0.355,-2.485 0.355,-4.446 v -19.55 l -21.867,28.933 h -14.93 v -0.281 c 1.711,-1.863 2.832,-3.445 3.36,-4.766 0.519,-1.308 0.785,-3.496 0.785,-6.543 v -26.836 c 0,-2.097 -0.277,-3.808 -0.824,-5.117 -0.547,-1.316 -1.344,-2.402 -2.395,-3.262 v -0.285 h 13.863 v 0.285 c -1.05,0.957 -1.843,2.09 -2.39,3.399 -0.547,1.308 -0.82,2.961 -0.82,4.961 v 20.652 h 0.281 l 16.433,-22.012 c 2.098,-2.761 5.028,-5.015 8.789,-6.785 2.86,-1.328 5.149,-2.004 6.864,-2.004 h 0.281 v 40.227 c 0,1.57 0.266,3.086 0.785,4.543 0.527,1.453 1.336,2.73 2.434,3.824 h -13.864 l 0.145,-0.144"
         style="fill:#231f20;fill-opacity:1;fill-rule:nonzero;stroke:none"
         transform="matrix(0.13333333,0,0,-0.13333333,0,108.13333)" />
      <path
         id="path21"
         d="m 226.48,251.125 c -0.429,-0.023 -0.882,-0.031 -1.359,-0.031 l -25.082,-0.137 c 0.953,-0.715 1.68,-1.57 2.18,-2.578 0.5,-0.996 0.75,-2.402 0.75,-4.207 v -32.949 c 0,-1.477 -0.117,-2.621 -0.356,-3.43 -0.429,-1.523 -1.285,-2.664 -2.574,-3.43 v -0.281 h 19.363 v 0.281 c -1.429,1.242 -2.382,2.903 -2.855,5 -0.238,1.047 -0.359,2.551 -0.359,4.504 v 11.582 h 2.503 c 1.758,0 3.039,-0.246 3.825,-0.722 0.785,-0.469 1.293,-1.114 1.531,-1.922 h 0.355 v 10.144 h -0.355 c -0.332,-0.195 -0.688,-0.304 -1.067,-0.32 -0.386,-0.031 -0.835,-0.039 -1.359,-0.039 h -5.433 v 11.582 h 5.074 c 1.332,0 2.429,-0.129 3.289,-0.371 1.664,-0.442 2.883,-1.321 3.64,-2.641 v 10.293 h -0.285 c -0.523,-0.191 -0.996,-0.312 -1.426,-0.328"
         style="fill:#231f20;fill-opacity:1;fill-rule:nonzero;stroke:none"
         transform="matrix(0.13333333,0,0,-0.13333333,0,108.13333)" />
      <path
         id="path22"
         d="m 267.262,214.934 c -2.11,-2.805 -5.153,-4.211 -9.125,-4.211 -4.032,0 -7.285,1.972 -9.778,5.918 -2.25,3.562 -3.379,7.675 -3.379,12.336 v 0.933 c 0,4.367 1.18,8.039 3.54,11.02 2.359,2.965 5.324,4.453 8.898,4.453 4.477,0 7.855,-2.336 10.145,-6.992 1.761,-3.567 2.64,-7.864 2.64,-12.903 0,-4.425 -0.98,-7.937 -2.941,-10.554 z m 16.949,13.336 c 0,7.082 -2.262,12.843 -6.789,17.265 -4.762,4.66 -11.215,6.992 -19.363,6.992 -7.86,0 -14.289,-2.234 -19.293,-6.707 -5,-4.472 -7.5,-10.09 -7.5,-16.836 0,-0.097 0,-0.261 0,-0.507 0,-0.235 0,-0.45 0,-0.633 0,-6.809 2.347,-12.512 7.05,-17.129 4.942,-4.856 11.426,-7.277 19.457,-7.277 8.981,0 15.872,2.832 20.665,8.488 3.847,4.519 5.773,9.871 5.773,16.051 v 0.293"
         style="fill:#231f20;fill-opacity:1;fill-rule:nonzero;stroke:none"
         transform="matrix(0.13333333,0,0,-0.13333333,0,108.13333)" />
      <path
         id="path23"
         d="m 308.863,231.316 c -1.429,-1.628 -3.289,-2.605 -5.578,-2.937 v 16.289 h 0.578 c 2.375,0 4.211,-0.773 5.496,-2.293 1.102,-1.352 1.649,-3.117 1.649,-5.316 0,-2.207 -0.715,-4.121 -2.145,-5.743 z m 16.219,-19.402 -9.219,15.606 c 3.285,1.621 5.621,3.671 7.004,6.164 0.903,1.621 1.356,3.336 1.356,5.156 0,4.012 -1.332,7.168 -3.996,9.461 -2.485,2.097 -5.747,3.152 -9.793,3.152 l -23.293,-0.144 c 1.289,-0.86 2.093,-1.836 2.429,-2.93 0.332,-1.106 0.496,-2.676 0.496,-4.727 v -31.203 -1.219 c 0,-1.472 -0.187,-2.773 -0.57,-3.894 -0.379,-1.125 -1.168,-2.016 -2.355,-2.688 v -0.285 h 19.222 v 0.285 c -1.004,0.579 -1.761,1.387 -2.293,2.43 -0.519,1.047 -0.785,2.481 -0.785,4.289 v 13.223 l 8.508,-16.004 c 0.902,-1.77 1.895,-2.961 2.965,-3.574 1.07,-0.625 2.512,-0.93 4.324,-0.93 h 3.926 l 8.078,0.574 c -1.242,1.008 -2.477,2.324 -3.719,3.957 -0.476,0.614 -1.238,1.719 -2.285,3.301"
         style="fill:#231f20;fill-opacity:1;fill-rule:nonzero;stroke:none"
         transform="matrix(0.13333333,0,0,-0.13333333,0,108.13333)" />
      <path
         id="path24"
         d="m 373.813,234.805 2.359,-23.008 0.144,-2.715 c 0,-0.715 -0.156,-1.414 -0.461,-2.109 -0.312,-0.696 -0.894,-1.465 -1.753,-2.325 v -0.285 h 18.793 v 0.285 c -1.098,1.055 -1.918,2.286 -2.465,3.692 -0.547,1.406 -0.942,3.105 -1.184,5.117 l -3.566,32.41 c 0,0.578 -0.051,1.008 -0.149,1.289 0.098,0.86 0.313,1.567 0.645,2.11 0.332,0.558 1.004,1.183 2.004,1.906 v 0.281 h -16.981 l -8.429,-27.652 -10.727,27.652 -16.383,-0.144 c 1.043,-0.957 1.762,-1.883 2.145,-2.774 0.379,-0.89 0.57,-1.894 0.57,-3 v -1.656 l -3.504,-30.578 c -0.238,-2.246 -0.547,-3.887 -0.926,-4.934 -0.527,-1.48 -1.382,-2.715 -2.574,-3.719 v -0.285 h 13.934 v 0.285 c -1.008,0.528 -1.774,1.231 -2.301,2.11 -0.527,0.879 -0.785,2.043 -0.785,3.469 l 2.383,24.578 h 0.281 l 7.855,-21.407 c 0.813,-2.335 1.789,-4.074 2.93,-5.222 1.668,-1.672 4.547,-3.242 8.645,-4.719 l 9.218,31.348 h 0.282"
         style="fill:#231f20;fill-opacity:1;fill-rule:nonzero;stroke:none"
         transform="matrix(0.13333333,0,0,-0.13333333,0,108.13333)" />
      <path
         id="path25"
         d="m 412.172,225.305 4.805,14.285 5,-14.285 z m 12.023,-20.657 v -0.285 h 21.649 v 0.285 c -1.528,1.387 -2.68,2.696 -3.465,3.938 -0.785,1.238 -1.586,3.055 -2.395,5.437 l -13.863,37.43 -17.433,-0.144 c 1,-0.672 1.687,-1.329 2.07,-1.985 0.379,-0.64 0.57,-1.375 0.57,-2.195 0,-0.676 -0.14,-1.504 -0.426,-2.481 -0.289,-0.988 -0.453,-1.574 -0.504,-1.765 l -9.644,-27.793 c -0.906,-2.715 -1.598,-4.582 -2.07,-5.578 -0.954,-2 -2.168,-3.621 -3.645,-4.864 v -0.285 h 14.649 v 0.285 c -0.911,0.672 -1.575,1.297 -2,1.895 -0.43,0.598 -0.645,1.277 -0.645,2.043 0.047,0.516 0.18,1.16 0.395,1.922 0.214,0.762 0.414,1.457 0.605,2.07 l 2.074,6.008 h 14.219 l 2.211,-6.789 c 0.289,-0.711 0.457,-1.238 0.504,-1.57 0.043,-0.336 0.074,-0.832 0.074,-1.504 0,-1.621 -0.98,-2.981 -2.93,-4.075"
         style="fill:#231f20;fill-opacity:1;fill-rule:nonzero;stroke:none"
         transform="matrix(0.13333333,0,0,-0.13333333,0,108.13333)" />
      <path
         id="path26"
         d="m 509.652,213.73 v 12 l 12.93,25.723 -12.93,-0.144 c 0.762,-0.43 1.293,-0.95 1.61,-1.543 0.304,-0.606 0.461,-1.309 0.461,-2.129 0,-0.528 -0.129,-1.203 -0.395,-2.012 -0.265,-0.82 -0.609,-1.777 -1.039,-2.883 l -4.133,-8.379 -8.285,17.09 -16.547,-0.144 0.031,0.144 h -33.164 l -1.351,0.219 -2.856,-10.942 c 1.668,1.008 3.079,1.731 4.219,2.18 1.524,0.598 3.024,0.899 4.5,0.899 0.145,0 0.598,-0.032 1.36,-0.071 0.761,-0.047 1.449,-0.125 2.07,-0.215 v -30.039 -1.57 c 0,-1.73 -0.192,-3.203 -0.57,-4.426 -0.383,-1.218 -1.168,-2.168 -2.36,-2.84 v -0.285 h 19.363 v 0.285 c -1.14,0.957 -1.961,2.079 -2.464,3.368 -0.497,1.293 -0.75,3.097 -0.75,5.441 v 29.922 c 1,0.281 2.027,0.43 3.074,0.43 1.383,0 2.668,-0.235 3.859,-0.711 1.192,-0.481 2.043,-1.262 2.57,-2.368 l 2.461,10.547 c 0.93,-0.554 1.672,-1.16 2.207,-1.797 0.543,-0.64 1.247,-1.746 2.098,-3.32 l 10.809,-20.398 v -14.383 c 0,-1.391 -0.239,-2.695 -0.711,-3.938 -0.481,-1.242 -1.266,-2.168 -2.36,-2.793 v -0.285 h 19.508 v 0.285 c -1.383,1.243 -2.308,2.762 -2.789,4.579 -0.281,1.093 -0.426,2.589 -0.426,4.503"
         style="fill:#231f20;fill-opacity:1;fill-rule:nonzero;stroke:none"
         transform="matrix(0.13333333,0,0,-0.13333333,0,108.13333)" />
      <path
         id="path27"
         d="m 554.172,205.469 c 1.949,-0.735 5.785,-1.106 11.504,-1.106 h 4.426 v 0.285 c -1.239,0.957 -2.383,2.2 -3.426,3.719 -0.621,0.996 -1.242,2.004 -1.863,3 l -13.29,20.938 15.79,19.148 -17.579,-0.144 c 1.051,-0.528 1.782,-1.125 2.184,-1.797 0.402,-0.672 0.605,-1.414 0.605,-2.239 0,-1.003 -0.406,-2.105 -1.21,-3.308 -0.622,-0.813 -1.239,-1.613 -1.856,-2.371 l -9.066,-11.449 -0.016,14.707 c 0,1.156 0.238,2.355 0.719,3.625 0.472,1.269 1.261,2.253 2.359,2.976 l -19.297,-0.144 c 1.289,-0.86 2.145,-1.985 2.574,-3.36 0.286,-0.957 0.426,-2.48 0.426,-4.582 v -1.719 -30.554 c 0,-1.242 -0.215,-2.461 -0.64,-3.653 -0.43,-1.191 -1.219,-2.121 -2.36,-2.793 v -0.285 h 19.297 v 0.285 c -1.098,0.579 -1.887,1.407 -2.359,2.5 -0.481,1.106 -0.719,2.411 -0.719,3.938 v 14.219 l 8.359,-14.367 c 1.672,-2.903 3.477,-4.727 5.438,-5.469"
         style="fill:#231f20;fill-opacity:1;fill-rule:nonzero;stroke:none"
         transform="matrix(0.13333333,0,0,-0.13333333,0,108.13333)" />
      <path
         id="path28"
         d="m 588.293,248.125 c 0.305,1.125 1.125,2.234 2.461,3.328 l -19.078,-0.144 c 1.332,-1.043 2.152,-2.129 2.465,-3.25 0.308,-1.125 0.464,-3.168 0.464,-6.125 v -28.625 c 0,-2.579 -0.117,-4.317 -0.359,-5.223 -0.379,-1.477 -1.238,-2.715 -2.57,-3.723 l 19.078,0.149 c -1.191,0.898 -1.981,1.894 -2.356,2.968 -0.386,1.075 -0.578,2.918 -0.578,5.547 v 29.485 c 0,2.625 0.16,4.492 0.473,5.613"
         style="fill:#231f20;fill-opacity:1;fill-rule:nonzero;stroke:none"
         transform="matrix(0.13333333,0,0,-0.13333333,0,108.13333)" />
      <path
         id="path29"
         d="m 689.016,204.363 3.922,11.289 c -2.711,-1.718 -5.106,-2.879 -7.176,-3.496 -2.074,-0.625 -4.418,-0.933 -7.039,-0.933 -0.524,0 -1.883,0.105 -4.075,0.32 -2.191,0.215 -4,0.32 -5.429,0.32 l 21.078,39.59 H 657.5 l -3.789,-10.215 c 1.859,1.114 3.801,1.985 5.824,2.59 2.028,0.606 4.039,0.906 6.039,0.906 l 6.285,-0.214 -21.363,-40.157 h 38.52"
         style="fill:#231f20;fill-opacity:1;fill-rule:nonzero;stroke:none"
         transform="matrix(0.13333333,0,0,-0.13333333,0,108.13333)" />
      <path
         id="path30"
         d="m 710.359,225.305 4.809,14.285 5,-14.285 z m -3.484,26.004 c 1,-0.672 1.688,-1.329 2.07,-1.985 0.379,-0.64 0.571,-1.375 0.571,-2.195 0,-0.676 -0.141,-1.504 -0.422,-2.481 -0.289,-0.988 -0.457,-1.574 -0.504,-1.765 l -9.649,-27.793 c -0.906,-2.715 -1.597,-4.582 -2.07,-5.578 -0.953,-2 -2.168,-3.621 -3.644,-4.864 v -0.285 h 14.648 v 0.285 c -0.906,0.672 -1.57,1.297 -2,1.895 -0.43,0.598 -0.645,1.277 -0.645,2.043 0.047,0.516 0.18,1.16 0.395,1.922 0.215,0.762 0.414,1.457 0.605,2.07 l 2.075,6.008 h 14.218 l 2.211,-6.789 c 0.289,-0.711 0.457,-1.238 0.504,-1.57 0.043,-0.336 0.075,-0.832 0.075,-1.504 0,-1.621 -0.981,-2.981 -2.93,-4.075 v -0.285 h 21.648 v 0.285 c -1.527,1.387 -2.679,2.696 -3.465,3.938 -0.785,1.238 -1.586,3.055 -2.39,5.437 l -13.863,37.43 -17.438,-0.144"
         style="fill:#231f20;fill-opacity:1;fill-rule:nonzero;stroke:none"
         transform="matrix(0.13333333,0,0,-0.13333333,0,108.13333)" />
      <path
         id="path31"
         d="m 769.324,231.316 c -1.429,-1.628 -3.285,-2.605 -5.574,-2.937 v 16.289 h 0.574 c 2.379,0 4.215,-0.773 5.5,-2.293 1.098,-1.352 1.645,-3.117 1.645,-5.316 0,-2.207 -0.711,-4.121 -2.145,-5.743 z m 60.449,-26.953 3.926,11.289 c -2.715,-1.718 -5.105,-2.879 -7.176,-3.496 -2.074,-0.625 -4.418,-0.933 -7.043,-0.933 -0.519,0 -1.878,0.105 -4.07,0.32 -2.191,0.215 -4,0.32 -5.43,0.32 l 21.079,39.59 h -32.797 l -3.789,-10.215 c 1.859,1.114 3.797,1.985 5.824,2.59 2.027,0.606 4.039,0.906 6.043,0.906 l 6.281,-0.214 -21.156,-39.774 c -1.211,0.996 -2.422,2.274 -3.633,3.867 -0.477,0.614 -1.238,1.719 -2.285,3.301 l -9.219,15.606 c 3.285,1.621 5.621,3.671 7,6.164 0.906,1.621 1.36,3.336 1.36,5.156 0,4.012 -1.333,7.168 -4,9.461 -2.481,2.097 -5.743,3.152 -9.79,3.152 l -23.296,-0.144 c 1.289,-0.86 2.093,-1.836 2.433,-2.93 0.332,-1.106 0.496,-2.676 0.496,-4.727 v -31.203 -1.219 c 0,-1.472 -0.187,-2.773 -0.57,-3.894 -0.383,-1.125 -1.168,-2.016 -2.359,-2.688 v -0.285 h 19.222 v 0.285 c -1,0.579 -1.761,1.387 -2.289,2.43 -0.519,1.047 -0.785,2.481 -0.785,4.289 v 13.223 l 8.508,-16.004 c 0.902,-1.77 1.89,-2.961 2.961,-3.574 1.074,-0.625 2.515,-0.93 4.328,-0.93 h 3.926 l 7.937,0.566 -0.148,-0.285 h 38.511"
         style="fill:#231f20;fill-opacity:1;fill-rule:nonzero;stroke:none"
         transform="matrix(0.13333333,0,0,-0.13333333,0,108.13333)" />
      <path
         id="path32"
         d="m 855.93,239.59 5,-14.285 h -9.809 z m -21.942,-35.227 h 14.649 v 0.285 c -0.907,0.672 -1.571,1.297 -2,1.895 -0.43,0.598 -0.645,1.277 -0.645,2.043 0.047,0.516 0.18,1.16 0.395,1.922 0.215,0.762 0.414,1.457 0.605,2.07 l 2.074,6.008 h 14.219 l 2.211,-6.789 c 0.289,-0.711 0.457,-1.238 0.504,-1.57 0.047,-0.336 0.074,-0.832 0.074,-1.504 0,-1.621 -0.98,-2.981 -2.929,-4.075 v -0.285 h 7.925 c -1.894,-1.718 -4.562,-4.91 -4.562,-9.312 0,-7.422 7.004,-8.469 11.66,-8.469 2.137,0 3.48,0.371 3.48,0.371 l 3.082,6.328 c 0,0 -1.335,-0.437 -4.375,-0.437 -3.007,0 -7.195,1.597 -5.261,6.699 0.488,1.277 1.625,3.047 2.875,4.82 h 6.828 v 0.285 c -1.531,1.387 -2.684,2.696 -3.469,3.938 -0.785,1.238 -1.586,3.055 -2.39,5.437 l -13.864,37.43 -17.437,-0.144 c 1,-0.672 1.687,-1.329 2.07,-1.985 0.383,-0.64 0.57,-1.375 0.57,-2.195 0,-0.676 -0.14,-1.504 -0.422,-2.481 -0.289,-0.988 -0.457,-1.574 -0.503,-1.765 l -9.649,-27.793 c -0.902,-2.715 -1.598,-4.582 -2.07,-5.578 -0.953,-2 -2.168,-3.621 -3.645,-4.864 v -0.285"
         style="fill:#231f20;fill-opacity:1;fill-rule:nonzero;stroke:none"
         transform="matrix(0.13333333,0,0,-0.13333333,0,108.13333)" />
      <path
         id="path33"
         d="m 919.301,227.977 c 0,-5.157 -1.008,-9.207 -3.035,-12.168 -2.024,-2.957 -4.918,-4.442 -8.684,-4.442 -0.711,0.098 -1.508,0.203 -2.391,0.321 -0.878,0.121 -1.535,0.226 -1.964,0.324 v 31.367 c 1.476,0.281 2.402,0.449 2.785,0.5 0.379,0.047 0.906,0.074 1.57,0.074 3.434,0 6.148,-1.148 8.148,-3.437 2.379,-2.723 3.571,-6.903 3.571,-12.539 z m -32.367,23.332 c 1.289,-0.618 2.168,-1.739 2.644,-3.36 0.285,-0.957 0.426,-2.148 0.426,-3.586 v -0.562 -30.063 c 0,-2.761 -0.164,-4.754 -0.496,-5.972 -0.332,-1.223 -1.192,-2.258 -2.574,-3.118 v -0.285 h 21.433 c 8.434,0 14.84,2.578 19.227,7.727 3.668,4.297 5.504,9.785 5.504,16.465 0,6.867 -2.243,12.402 -6.719,16.601 -4.481,4.199 -10.434,6.297 -17.863,6.297 l -21.582,-0.144"
         style="fill:#231f20;fill-opacity:1;fill-rule:nonzero;stroke:none"
         transform="matrix(0.13333333,0,0,-0.13333333,0,108.13333)" />
      <path
         id="path34"
         d="m 973.469,204.363 3.926,11.289 c -2.715,-1.718 -5.11,-2.879 -7.18,-3.496 -2.074,-0.625 -4.418,-0.933 -7.039,-0.933 -0.524,0 -1.883,0.105 -4.074,0.32 -2.192,0.215 -4,0.32 -5.43,0.32 l 21.078,39.59 h -32.797 l -3.789,-10.215 c 1.859,1.114 3.801,1.985 5.824,2.59 2.028,0.606 4.039,0.906 6.039,0.906 l 6.286,-0.214 -21.364,-40.157 h 38.52"
         style="fill:#231f20;fill-opacity:1;fill-rule:nonzero;stroke:none"
         transform="matrix(0.13333333,0,0,-0.13333333,0,108.13333)" />
      <path
         id="path35"
         d="m 996.246,225.305 4.804,14.285 5,-14.285 z m 27.814,-11.282 -13.86,37.43 -17.442,-0.144 c 1.004,-0.672 1.691,-1.329 2.07,-1.985 0.383,-0.64 0.57,-1.375 0.57,-2.195 0,-0.676 -0.14,-1.504 -0.421,-2.481 -0.289,-0.988 -0.457,-1.574 -0.504,-1.765 l -9.649,-27.793 c -0.902,-2.715 -1.597,-4.582 -2.07,-5.578 -0.953,-2 -2.168,-3.621 -3.645,-4.864 v -0.285 h 14.653 v 0.285 c -0.91,0.672 -1.574,1.297 -2.004,1.895 -0.43,0.598 -0.645,1.277 -0.645,2.043 0.047,0.516 0.18,1.16 0.395,1.922 0.215,0.762 0.418,1.457 0.605,2.07 l 2.075,6.008 h 14.222 l 2.21,-6.789 c 0.29,-0.711 0.45,-1.238 0.5,-1.57 0.05,-0.336 0.08,-0.832 0.08,-1.504 0,-1.621 -0.99,-2.981 -2.93,-4.075 v -0.285 h 21.65 v 0.285 c -1.53,1.387 -2.68,2.696 -3.47,3.938 -0.79,1.238 -1.59,3.055 -2.39,5.437"
         style="fill:#231f20;fill-opacity:1;fill-rule:nonzero;stroke:none"
         transform="matrix(0.13333333,0,0,-0.13333333,0,108.13333)" />
      <path
         id="path36"
         d="m 1065.64,251.309 c 1.38,-1.387 2.28,-2.981 2.71,-4.793 0.24,-1.008 0.36,-2.485 0.36,-4.446 v -19.55 l -21.86,28.933 h -14.94 v -0.281 c 1.72,-1.863 2.84,-3.445 3.36,-4.766 0.53,-1.308 0.79,-3.496 0.79,-6.543 v -26.836 c 0,-2.097 -0.28,-3.808 -0.83,-5.117 -0.54,-1.316 -1.34,-2.402 -2.39,-3.262 v -0.285 h 13.86 v 0.285 c -1.05,0.957 -1.84,2.09 -2.39,3.399 -0.55,1.308 -0.82,2.961 -0.82,4.961 v 20.652 h 0.28 l 16.44,-22.012 c 2.09,-2.761 5.02,-5.015 8.79,-6.785 2.86,-1.328 5.15,-2.004 6.86,-2.004 h 0.28 v 40.227 c 0,1.57 0.27,3.086 0.79,4.543 0.53,1.453 1.33,2.73 2.43,3.824 h -13.86 l 0.14,-0.144"
         style="fill:#231f20;fill-opacity:1;fill-rule:nonzero;stroke:none"
         transform="matrix(0.13333333,0,0,-0.13333333,0,108.13333)" />
      <path
         id="path37"
         d="m 1099.33,248.125 c 0.31,1.125 1.13,2.234 2.46,3.328 l -19.08,-0.144 c 1.34,-1.043 2.16,-2.129 2.47,-3.25 0.31,-1.125 0.46,-3.168 0.46,-6.125 v -28.625 c 0,-2.579 -0.11,-4.317 -0.35,-5.223 -0.38,-1.477 -1.24,-2.715 -2.58,-3.723 l 19.08,0.149 c -1.19,0.898 -1.98,1.894 -2.35,2.968 -0.39,1.075 -0.58,2.918 -0.58,5.547 v 29.485 c 0,2.625 0.16,4.492 0.47,5.613"
         style="fill:#231f20;fill-opacity:1;fill-rule:nonzero;stroke:none"
         transform="matrix(0.13333333,0,0,-0.13333333,0,108.13333)" />
      <path
         id="path38"
         d="m 1121.36,225.305 4.81,14.285 5,-14.285 z m 30.21,-16.719 c -0.79,1.238 -1.59,3.055 -2.4,5.437 l -13.86,37.43 -17.43,-0.144 c 1,-0.672 1.69,-1.329 2.07,-1.985 0.38,-0.64 0.57,-1.375 0.57,-2.195 0,-0.676 -0.14,-1.504 -0.43,-2.481 -0.29,-0.988 -0.45,-1.574 -0.5,-1.765 l -9.65,-27.793 c -0.9,-2.715 -1.6,-4.582 -2.07,-5.578 -0.95,-2 -2.17,-3.621 -3.64,-4.864 v -0.285 h 14.65 v 0.285 c -0.91,0.672 -1.58,1.297 -2,1.895 -0.43,0.598 -0.65,1.277 -0.65,2.043 0.05,0.516 0.18,1.16 0.4,1.922 0.21,0.762 0.41,1.457 0.6,2.07 l 2.08,6.008 h 14.22 l 2.21,-6.789 c 0.29,-0.711 0.45,-1.238 0.5,-1.57 0.04,-0.336 0.07,-0.832 0.07,-1.504 0,-1.621 -0.98,-2.981 -2.93,-4.075 v -0.285 h 21.65 v 0.285 c -1.52,1.387 -2.68,2.696 -3.46,3.938"
         style="fill:#231f20;fill-opacity:1;fill-rule:nonzero;stroke:none"
         transform="matrix(0.13333333,0,0,-0.13333333,0,108.13333)" />
      <path
         id="path39"
         d="m 306.758,132.715 c -0.098,0 -2.332,0.246 -6.719,0.715 -1.762,0.195 -3.476,0.293 -5.141,0.293 l 18.872,27.07 -0.008,0.293 H 288.32 l -3.355,-7.285 c 1.336,0.945 2.676,1.621 4.035,2 1.359,0.383 2.941,0.566 4.754,0.566 0.809,0 2.226,-0.066 4.25,-0.215 2.023,-0.136 3.488,-0.261 4.394,-0.351 L 282.605,128.43 v -0.285 h 30.442 l 3.785,7.793 c -1.906,-1.192 -3.617,-2.032 -5.144,-2.508 -1.528,-0.469 -3.168,-0.715 -4.93,-0.715"
         style="fill:#231f20;fill-opacity:1;fill-rule:nonzero;stroke:none"
         transform="matrix(0.13333333,0,0,-0.13333333,0,108.13333)" />
      <path
         id="path40"
         d="m 358.633,146.434 c -0.141,0.097 -3.168,1.195 -9.07,3.293 -2.958,1.043 -4.528,2.304 -4.719,3.789 0,1.23 0.57,2.148 1.719,2.746 1.148,0.593 2.718,0.894 4.73,0.894 3.437,0 6.473,-0.738 9.098,-2.215 v 6.145 c -1.149,0.332 -2.282,0.555 -3.399,0.68 -1.125,0.121 -2.566,0.175 -4.332,0.175 -3.965,0 -7.187,-0.64 -9.668,-1.929 -3.148,-1.614 -4.726,-4.145 -4.726,-7.571 0,-2.246 0.816,-4.101 2.441,-5.578 1.148,-1.043 2.988,-2.066 5.523,-3.074 5.833,-2.187 8.965,-3.445 9.395,-3.777 1.438,-1.008 2.152,-2.27 2.152,-3.789 -0.144,-1.438 -0.957,-2.5 -2.441,-3.215 -1.481,-0.723 -3.395,-1.074 -5.731,-1.074 -2.203,0 -4.5,0.351 -6.886,1.074 -2.387,0.715 -4.465,1.687 -6.235,2.93 l 2.36,-6.934 c 2.855,-1.145 6.023,-1.719 9.5,-1.719 4,0 7.5,0.86 10.504,2.578 3.574,2.039 5.363,4.922 5.363,8.645 0,1.758 -0.516,3.316 -1.539,4.676 -1.027,1.359 -2.367,2.441 -4.039,3.25"
         style="fill:#231f20;fill-opacity:1;fill-rule:nonzero;stroke:none"
         transform="matrix(0.13333333,0,0,-0.13333333,0,108.13333)" />
      <path
         id="path41"
         d="m 370.422,172.949 c -0.856,-0.906 -1.285,-1.933 -1.285,-3.074 0,-1.289 0.429,-2.355 1.285,-3.215 0.855,-0.859 1.906,-1.289 3.141,-1.289 1.292,0 2.359,0.43 3.218,1.289 0.86,0.86 1.285,1.926 1.285,3.215 0,1.188 -0.437,2.227 -1.32,3.102 -0.883,0.89 -1.941,1.332 -3.183,1.332 -1.235,0 -2.286,-0.461 -3.141,-1.36"
         style="fill:#231f20;fill-opacity:1;fill-rule:nonzero;stroke:none"
         transform="matrix(0.13333333,0,0,-0.13333333,0,108.13333)" />
      <path
         id="path42"
         d="m 377.602,130.793 c -0.262,0.945 -0.391,2.5 -0.391,4.637 v 26.797 h -0.285 c -0.813,-0.86 -2.528,-1.282 -5.145,-1.282 -0.668,0 -1.297,0 -1.894,0 -0.594,0 -1.231,0 -1.895,0 v -0.293 c 1.192,-0.613 1.981,-1.492 2.36,-2.625 0.191,-0.578 0.285,-1.593 0.285,-3.054 v -20.996 c 0,-1.235 -0.168,-2.329 -0.5,-3.274 -0.332,-0.945 -1.051,-1.711 -2.145,-2.273 v -0.285 h 11.863 l 0.141,0.285 c -1.336,0.625 -2.129,1.406 -2.394,2.363"
         style="fill:#231f20;fill-opacity:1;fill-rule:nonzero;stroke:none"
         transform="matrix(0.13333333,0,0,-0.13333333,0,108.13333)" />
      <path
         id="path43"
         d="m 392.574,149.941 c 0.332,2.286 1.406,4.082 3.211,5.391 1.813,1.309 3.906,1.965 6.289,1.965 2.336,0 4.364,-0.625 6.074,-1.899 1.715,-1.257 2.692,-3.074 2.93,-5.457 z m 21.328,7.676 c -3.074,2.981 -6.847,4.473 -11.324,4.473 -5.765,0 -10.316,-1.836 -13.648,-5.508 -2.91,-3.191 -4.36,-7.102 -4.36,-11.719 0,-5.578 2.145,-10 6.43,-13.293 3.859,-2.945 8.574,-4.422 14.145,-4.422 1.671,0 3.328,0.149 4.972,0.457 1.641,0.317 3.274,0.774 4.895,1.399 l 3.355,6.641 c -1.668,-1.243 -3.547,-2.168 -5.64,-2.786 -2.102,-0.625 -4.122,-0.925 -6.079,-0.925 h -1.785 c -4.289,0.379 -7.574,2.089 -9.863,5.125 -1.809,2.453 -2.715,5.343 -2.715,8.664 h 26.227 c 0,4.953 -1.539,8.918 -4.61,11.894"
         style="fill:#231f20;fill-opacity:1;fill-rule:nonzero;stroke:none"
         transform="matrix(0.13333333,0,0,-0.13333333,0,108.13333)" />
      <path
         id="path44"
         d="m 456.527,130.605 c -0.382,0.84 -0.57,1.829 -0.57,2.969 0,0.481 0,1.094 0,1.856 l -0.141,41.015 c -0.32,-0.515 -0.761,-0.871 -1.336,-1.035 -0.57,-0.168 -1.199,-0.242 -1.882,-0.242 l -5.719,-0.148 c 1.336,-0.86 2.168,-1.739 2.5,-2.645 0.191,-0.48 0.289,-1.406 0.289,-2.785 v -11.719 c -1.672,1.379 -3.395,2.402 -5.18,3.074 -1.789,0.664 -3.586,0.996 -5.394,0.996 -5.481,0 -9.891,-1.953 -13.219,-5.855 -2.863,-3.344 -4.289,-7.07 -4.289,-11.223 0,-6.238 2.121,-10.91 6.359,-14.004 3.239,-2.382 7.168,-3.574 11.789,-3.574 0.907,0 1.528,0.012 1.86,0.039 0.332,0.02 0.926,0.11 1.785,0.242 l 4.359,6.438 c -1.91,-1.387 -4.05,-2.07 -6.429,-2.07 -3.336,0 -6.196,1.14 -8.575,3.425 -2.574,2.485 -3.863,5.649 -3.863,9.504 0,3.907 1.117,7 3.359,9.285 2.047,2.102 4.504,3.149 7.36,3.149 2.859,0 5.195,-0.832 7.008,-2.5 2.047,-1.859 3.07,-4.504 3.07,-7.934 v -18.718 h 9.219 v 0.285 c -1.192,0.625 -1.977,1.343 -2.36,2.175"
         style="fill:#231f20;fill-opacity:1;fill-rule:nonzero;stroke:none"
         transform="matrix(0.13333333,0,0,-0.13333333,0,108.13333)" />
      <path
         id="path45"
         d="m 485.395,132.715 c -0.098,0 -2.332,0.246 -6.719,0.715 -1.762,0.195 -3.477,0.293 -5.141,0.293 l 18.871,27.07 -0.008,0.293 h -25.441 l -3.352,-7.285 c 1.333,0.945 2.672,1.621 4.032,2 1.363,0.383 2.945,0.566 4.758,0.566 0.804,0 2.222,-0.066 4.246,-0.215 2.027,-0.136 3.492,-0.261 4.394,-0.351 L 461.246,128.43 v -0.285 h 30.438 l 3.785,7.793 c -1.906,-1.192 -3.617,-2.032 -5.141,-2.508 -1.527,-0.469 -3.172,-0.715 -4.933,-0.715"
         style="fill:#231f20;fill-opacity:1;fill-rule:nonzero;stroke:none"
         transform="matrix(0.13333333,0,0,-0.13333333,0,108.13333)" />
      <path
         id="path46"
         d="m 502.258,165.371 c 1.289,0 2.355,0.43 3.215,1.289 0.859,0.86 1.285,1.926 1.285,3.215 0,1.188 -0.442,2.227 -1.32,3.102 -0.883,0.89 -1.942,1.332 -3.18,1.332 -1.238,0 -2.285,-0.461 -3.149,-1.36 -0.851,-0.906 -1.281,-1.933 -1.281,-3.074 0,-1.289 0.43,-2.355 1.281,-3.215 0.864,-0.859 1.911,-1.289 3.149,-1.289"
         style="fill:#231f20;fill-opacity:1;fill-rule:nonzero;stroke:none"
         transform="matrix(0.13333333,0,0,-0.13333333,0,108.13333)" />
      <path
         id="path47"
         d="m 506.293,130.793 c -0.262,0.945 -0.391,2.5 -0.391,4.637 v 26.797 h -0.289 c -0.808,-0.86 -2.523,-1.282 -5.14,-1.282 -0.668,0 -1.297,0 -1.895,0 -0.594,0 -1.23,0 -1.894,0 v -0.293 c 1.191,-0.613 1.976,-1.492 2.359,-2.625 0.191,-0.578 0.281,-1.593 0.281,-3.054 v -20.996 c 0,-1.235 -0.164,-2.329 -0.496,-3.274 -0.332,-0.945 -1.051,-1.711 -2.144,-2.273 v -0.285 h 11.863 l 0.141,0.285 c -1.333,0.625 -2.129,1.406 -2.395,2.363"
         style="fill:#231f20;fill-opacity:1;fill-rule:nonzero;stroke:none"
         transform="matrix(0.13333333,0,0,-0.13333333,0,108.13333)" />
      <path
         id="path48"
         d="m 533.555,161.941 c -0.762,0 -1.621,-0.066 -2.575,-0.214 -0.953,-0.145 -1.835,-0.309 -2.64,-0.497 l -3.715,-6.14 c 0.664,0.469 1.531,0.84 2.605,1.101 1.071,0.262 2.204,0.391 3.395,0.391 2.855,0 5.238,-0.812 7.145,-2.434 2.289,-1.953 3.429,-4.851 3.429,-8.71 0,-4.618 -1.261,-8.102 -3.789,-10.438 -2.14,-1.953 -5.023,-2.93 -8.644,-2.93 -0.715,0 -1.477,0.078 -2.286,0.215 -0.812,0.149 -2.003,0.43 -3.574,0.86 l -0.14,43.3 c -0.575,-0.847 -1.743,-1.277 -3.504,-1.277 l -5.43,-0.148 c 1.094,-0.665 1.813,-1.418 2.145,-2.254 0.332,-0.832 0.5,-2.036 0.5,-3.606 v -35.586 -0.566 c 0,-0.86 -0.145,-1.707 -0.426,-2.539 -0.289,-0.84 -0.836,-1.465 -1.649,-1.895 1.953,-0.281 3.934,-0.597 5.934,-0.929 2.477,-0.332 4.883,-0.497 7.219,-0.497 6.383,0 11.465,1.582 15.254,4.747 3.789,3.164 5.675,7.324 5.675,12.468 0,5.149 -1.367,9.367 -4.105,12.649 -2.738,3.293 -6.348,4.929 -10.824,4.929"
         style="fill:#231f20;fill-opacity:1;fill-rule:nonzero;stroke:none"
         transform="matrix(0.13333333,0,0,-0.13333333,0,108.13333)" />
      <path
         id="path49"
         d="m 579.645,119.07 c -0.524,0.532 -0.79,0.989 -0.79,1.368 0,1.496 0.168,2.687 0.504,3.578 0.332,0.886 1.145,1.968 2.426,3.269 l 3.219,4.649 c -2.344,0 -3.953,0.5 -4.828,1.504 -0.879,1.003 -1.321,2.687 -1.321,5.031 v 12.488 c 0,3.828 -1.371,6.68 -4.113,8.547 -2.371,1.629 -5.519,2.437 -9.449,2.437 -0.566,0 -1.422,-0.066 -2.555,-0.214 -1.136,-0.145 -1.871,-0.211 -2.203,-0.211 l -4.683,-7.153 c 1.609,0.813 3.035,1.438 4.265,1.867 1.899,0.618 3.676,0.926 5.336,0.926 1.613,0 3.059,-0.308 4.344,-0.926 1.656,-0.808 2.488,-1.933 2.488,-3.359 0,-0.625 -0.14,-1.223 -0.43,-1.785 -0.285,-0.578 -0.566,-0.957 -0.855,-1.145 -0.945,-0.714 -2.465,-1.339 -4.555,-1.867 -5.793,-1.472 -8.785,-2.254 -8.972,-2.351 -2.043,-0.957 -3.563,-2.024 -4.559,-3.211 -1.184,-1.438 -1.781,-3.246 -1.781,-5.434 0,-2.762 1.117,-5.086 3.359,-6.973 2.238,-1.882 5.215,-2.82 8.93,-2.82 0.762,0 1.336,0.028 1.715,0.078 0.383,0.039 1,0.117 1.859,0.203 l 4.215,5.293 c -1,-0.281 -1.965,-0.515 -2.891,-0.679 -0.933,-0.168 -1.777,-0.246 -2.539,-0.246 -2.285,0 -4.121,0.507 -5.504,1.535 -1.382,1.023 -2.07,2.469 -2.07,4.324 0,2.812 2.359,4.766 7.074,5.859 3.203,0.762 5.539,1.543 7.004,2.356 v -11.145 c 0,-3.769 2,-6.14 6,-7.148 -1.14,-0.664 -2.086,-1.629 -2.82,-2.91 -0.738,-1.282 -1.11,-2.754 -1.11,-4.407 0,-1.609 0.629,-2.898 1.895,-3.875 1.262,-0.964 2.773,-1.457 4.535,-1.457 1.434,0 2.766,0.332 4.004,0.989 l 1.145,3.23 c -1.145,-0.672 -2.672,-1.004 -4.579,-1.004 -0.617,0 -1.187,0.266 -1.71,0.789"
         style="fill:#231f20;fill-opacity:1;fill-rule:nonzero;stroke:none"
         transform="matrix(0.13333333,0,0,-0.13333333,0,108.13333)" />
      <path
         id="path50"
         d="m 647.672,160.801 c 1.523,-0.762 2.285,-1.836 2.285,-3.223 0,-0.519 -0.129,-1.16 -0.387,-1.926 -0.257,-0.761 -0.507,-1.48 -0.742,-2.144 l -6.91,-17.004 -6.238,17.441 c -0.481,1.192 -0.922,2.364 -1.328,3.535 -0.411,1.161 -0.661,2.032 -0.758,2.61 l 0.14,0.996 h -9.5 v -0.285 c 1.332,-0.664 2,-1.602 2,-2.793 0,-0.617 -0.117,-1.309 -0.351,-2.07 -0.235,-0.762 -0.445,-1.434 -0.629,-2.004 l -6.863,-17.469 -8.524,22.402 c -0.234,0.481 -0.39,0.891 -0.465,1.223 -0.066,0.332 -0.148,0.945 -0.246,1.851 h -0.285 c -0.57,-0.371 -1.215,-0.593 -1.933,-0.671 -0.711,-0.079 -1.356,-0.145 -1.926,-0.184 -0.766,0 -1.5,0 -2.215,0 -0.719,0 -1.481,0 -2.289,0 v -0.285 c 1.086,-0.625 1.93,-1.485 2.539,-2.586 0.043,-0.09 0.492,-1.098 1.34,-3.012 l 8.152,-21.25 c 0.68,-1.648 1.379,-2.879 2.106,-3.687 1.113,-1.282 2.878,-2.414 5.3,-3.411 l 9.719,25.008 7,-18.433 c 0.719,-2.09 1.738,-3.645 3.078,-4.641 1.094,-0.625 2.211,-1.262 3.356,-1.934 l 14.215,34.231 h -9.641 v -0.285"
         style="fill:#231f20;fill-opacity:1;fill-rule:nonzero;stroke:none"
         transform="matrix(0.13333333,0,0,-0.13333333,0,108.13333)" />
      <path
         id="path51"
         d="m 740.918,132.715 c -0.098,0 -2.332,0.246 -6.719,0.715 -1.761,0.195 -3.476,0.293 -5.14,0.293 l 18.871,27.07 -0.008,0.293 H 722.48 l -3.355,-7.285 c 1.336,0.945 2.676,1.621 4.035,2 1.36,0.383 2.945,0.566 4.754,0.566 0.809,0 2.227,-0.066 4.25,-0.215 2.024,-0.136 3.488,-0.261 4.395,-0.351 l -18.606,-25.735 c -1.703,1.223 -3.488,2.434 -4.902,3.723 -1.571,1.426 -2.715,2.617 -3.434,3.574 l -10.929,13.645 c 3.574,1.101 6.335,2.722 8.289,4.859 1.714,1.906 2.714,4.094 3.003,6.574 0,3.719 -1.171,6.692 -3.5,8.938 -2.625,2.516 -6.437,3.789 -11.437,3.789 h -16.719 v -0.293 c 1.41,-0.566 2.321,-1.66 2.731,-3.281 0.23,-0.957 0.34,-2.934 0.34,-5.942 v -27.429 c 0,-3.008 -0.165,-5.254 -0.497,-6.758 -0.335,-1.492 -1.191,-2.512 -2.574,-3.035 v -0.285 l 13.508,0.148 c -1.387,0.762 -2.254,1.758 -2.613,2.996 -0.356,1.238 -0.531,3.496 -0.531,6.785 v 32.082 c 1.14,0.242 1.96,0.403 2.464,0.469 0.496,0.066 1.203,0.105 2.106,0.105 2.672,0 4.832,-0.546 6.504,-1.636 2,-1.289 3.004,-3.227 3.004,-5.793 0,-3.156 -1.36,-5.703 -4.078,-7.656 -2.145,-1.524 -4.926,-2.547 -8.36,-3.079 l 6.559,-9.929 8.343,-10.301 c 1.047,-1.43 2.157,-2.473 3.329,-3.164 1.168,-0.688 2.711,-1.027 4.621,-1.027 h 3.59 3.714 26.723 l 3.785,7.793 c -1.906,-1.192 -3.621,-2.032 -5.14,-2.508 -1.532,-0.469 -3.172,-0.715 -4.934,-0.715"
         style="fill:#231f20;fill-opacity:1;fill-rule:nonzero;stroke:none"
         transform="matrix(0.13333333,0,0,-0.13333333,0,108.13333)" />
      <path
         id="path52"
         d="m 759.641,149.941 c 0.332,2.286 1.406,4.082 3.211,5.391 1.812,1.309 3.906,1.965 6.289,1.965 2.336,0 4.359,-0.625 6.074,-1.899 1.715,-1.257 2.691,-3.074 2.93,-5.457 z m 21.328,7.676 c -3.074,2.981 -6.848,4.473 -11.324,4.473 -5.766,0 -10.321,-1.836 -13.649,-5.508 -2.91,-3.191 -4.359,-7.102 -4.359,-11.719 0,-5.578 2.14,-10 6.429,-13.293 3.86,-2.945 8.575,-4.422 14.145,-4.422 1.672,0 3.324,0.149 4.973,0.457 1.64,0.317 3.269,0.774 4.89,1.399 l 3.36,6.641 c -1.668,-1.243 -3.547,-2.168 -5.645,-2.786 -2.098,-0.625 -4.121,-0.925 -6.074,-0.925 h -1.785 c -4.289,0.379 -7.575,2.089 -9.864,5.125 -1.808,2.453 -2.714,5.343 -2.714,8.664 h 26.222 c 0,4.953 -1.535,8.918 -4.605,11.894"
         style="fill:#231f20;fill-opacity:1;fill-rule:nonzero;stroke:none"
         transform="matrix(0.13333333,0,0,-0.13333333,0,108.13333)" />
      <path
         id="path53"
         d="m 810.016,146.434 c -0.145,0.097 -3.168,1.195 -9.075,3.293 -2.953,1.043 -4.523,2.304 -4.714,3.789 0,1.23 0.57,2.148 1.718,2.746 1.149,0.593 2.719,0.894 4.731,0.894 3.437,0 6.469,-0.738 9.097,-2.215 v 6.145 c -1.148,0.332 -2.281,0.555 -3.398,0.68 -1.125,0.121 -2.57,0.175 -4.332,0.175 -3.965,0 -7.188,-0.64 -9.668,-1.929 -3.148,-1.614 -4.727,-4.145 -4.727,-7.571 0,-2.246 0.817,-4.101 2.442,-5.578 1.148,-1.043 2.988,-2.066 5.523,-3.074 5.828,-2.187 8.965,-3.445 9.395,-3.777 1.433,-1.008 2.152,-2.27 2.152,-3.789 -0.144,-1.438 -0.957,-2.5 -2.441,-3.215 -1.481,-0.723 -3.395,-1.074 -5.735,-1.074 -2.199,0 -4.496,0.351 -6.882,1.074 -2.387,0.715 -4.469,1.687 -6.235,2.93 l 2.36,-6.934 c 2.855,-1.145 6.023,-1.719 9.5,-1.719 4,0 7.5,0.86 10.503,2.578 3.575,2.039 5.36,4.922 5.36,8.645 0,1.758 -0.512,3.316 -1.535,4.676 -1.028,1.359 -2.371,2.441 -4.039,3.25"
         style="fill:#231f20;fill-opacity:1;fill-rule:nonzero;stroke:none"
         transform="matrix(0.13333333,0,0,-0.13333333,0,108.13333)" />
      <path
         id="path54"
         d="m 841.023,132.715 c -0.093,0 -2.332,0.246 -6.714,0.715 -1.766,0.195 -3.481,0.293 -5.145,0.293 l 18.871,27.07 -0.008,0.293 H 822.59 l -3.356,-7.285 c 1.332,0.945 2.676,1.621 4.032,2 1.363,0.383 2.945,0.566 4.757,0.566 0.805,0 2.227,-0.066 4.247,-0.215 2.027,-0.136 3.492,-0.261 4.394,-0.351 L 816.875,128.43 v -0.285 h 30.438 l 3.785,7.793 c -1.903,-1.192 -3.618,-2.032 -5.141,-2.508 -1.527,-0.469 -3.168,-0.715 -4.934,-0.715"
         style="fill:#231f20;fill-opacity:1;fill-rule:nonzero;stroke:none"
         transform="matrix(0.13333333,0,0,-0.13333333,0,108.13333)" />
      <path
         id="path55"
         d="m 878.395,135.527 c -1.954,-2.492 -4.645,-3.742 -8.075,-3.742 h -0.57 c -3.102,0 -5.684,1.34 -7.754,4.008 -2.074,2.664 -3.109,5.879 -3.109,9.645 0,4.191 1.332,7.355 4.004,9.503 1.953,1.575 4.187,2.356 6.714,2.356 3.43,0 6.219,-1.406 8.364,-4.238 1.996,-2.637 3,-5.746 3,-9.336 0,-3.262 -0.856,-5.996 -2.574,-8.196 z m -7.93,26.414 c -6.149,0 -10.934,-1.851 -14.36,-5.574 -3.003,-3.242 -4.503,-7.187 -4.503,-11.855 0,-4.715 1.546,-8.703 4.644,-11.934 3.379,-3.523 7.879,-5.293 13.504,-5.293 5,0 9.348,1.707 13.039,5.106 3.691,3.41 5.539,7.57 5.539,12.472 0,5.149 -1.836,9.336 -5.5,12.578 -3.387,2.997 -7.508,4.5 -12.363,4.5"
         style="fill:#231f20;fill-opacity:1;fill-rule:nonzero;stroke:none"
         transform="matrix(0.13333333,0,0,-0.13333333,0,108.13333)" />
      <path
         id="path56"
         d="m 934.922,160.801 c 1.523,-0.762 2.285,-1.836 2.285,-3.223 0,-0.519 -0.129,-1.16 -0.387,-1.926 -0.257,-0.761 -0.507,-1.48 -0.742,-2.144 l -6.906,-17.004 -6.242,17.441 c -0.481,1.192 -0.922,2.364 -1.328,3.535 -0.411,1.161 -0.661,2.032 -0.758,2.61 l 0.14,0.996 h -9.5 v -0.285 c 1.332,-0.664 2,-1.602 2,-2.793 0,-0.617 -0.117,-1.309 -0.347,-2.07 -0.239,-0.762 -0.446,-1.434 -0.633,-2.004 l -6.863,-17.469 -8.524,22.402 c -0.23,0.481 -0.387,0.891 -0.461,1.223 -0.07,0.332 -0.152,0.945 -0.25,1.851 h -0.285 c -0.57,-0.371 -1.215,-0.593 -1.933,-0.671 -0.711,-0.079 -1.356,-0.145 -1.926,-0.184 -0.762,0 -1.5,0 -2.211,0 -0.719,0 -1.481,0 -2.293,0 v -0.285 c 1.086,-0.625 1.93,-1.485 2.539,-2.586 0.047,-0.09 0.496,-1.098 1.34,-3.012 l 8.152,-21.25 c 0.68,-1.648 1.379,-2.879 2.106,-3.687 1.113,-1.282 2.878,-2.414 5.3,-3.411 l 9.719,25.008 7.004,-18.433 c 0.715,-2.09 1.734,-3.645 3.074,-4.641 1.094,-0.625 2.211,-1.262 3.356,-1.934 l 14.218,34.231 h -9.644 v -0.285"
         style="fill:#231f20;fill-opacity:1;fill-rule:nonzero;stroke:none"
         transform="matrix(0.13333333,0,0,-0.13333333,0,108.13333)" />
      <path
         id="path57"
         d="m 949.066,172.949 c -0.851,-0.906 -1.285,-1.933 -1.285,-3.074 0,-1.289 0.434,-2.355 1.285,-3.215 0.86,-0.859 1.911,-1.289 3.145,-1.289 1.289,0 2.359,0.43 3.219,1.289 0.859,0.86 1.285,1.926 1.285,3.215 0,1.188 -0.442,2.227 -1.32,3.102 -0.883,0.89 -1.942,1.332 -3.184,1.332 -1.234,0 -2.285,-0.461 -3.145,-1.36"
         style="fill:#231f20;fill-opacity:1;fill-rule:nonzero;stroke:none"
         transform="matrix(0.13333333,0,0,-0.13333333,0,108.13333)" />
      <path
         id="path58"
         d="m 956.25,130.793 c -0.266,0.945 -0.391,2.5 -0.391,4.637 v 26.797 h -0.289 c -0.808,-0.86 -2.523,-1.282 -5.14,-1.282 -0.668,0 -1.297,0 -1.895,0 -0.597,0 -1.23,0 -1.894,0 v -0.293 c 1.191,-0.613 1.976,-1.492 2.359,-2.625 0.188,-0.578 0.281,-1.593 0.281,-3.054 v -20.996 c 0,-1.235 -0.164,-2.329 -0.496,-3.274 -0.332,-0.945 -1.051,-1.711 -2.144,-2.273 v -0.285 H 958.5 l 0.145,0.285 c -1.336,0.625 -2.129,1.406 -2.395,2.363"
         style="fill:#231f20;fill-opacity:1;fill-rule:nonzero;stroke:none"
         transform="matrix(0.13333333,0,0,-0.13333333,0,108.13333)" />
      <path
         id="path59"
         d="m 971.223,149.941 c 0.332,2.286 1.406,4.082 3.211,5.391 1.812,1.309 3.906,1.965 6.289,1.965 2.336,0 4.359,-0.625 6.074,-1.899 1.715,-1.257 2.691,-3.074 2.93,-5.457 z m 21.328,7.676 c -3.074,2.981 -6.848,4.473 -11.324,4.473 -5.766,0 -10.321,-1.836 -13.649,-5.508 -2.91,-3.191 -4.359,-7.102 -4.359,-11.719 0,-5.578 2.14,-10 6.429,-13.293 3.86,-2.945 8.575,-4.422 14.145,-4.422 1.672,0 3.324,0.149 4.973,0.457 1.64,0.317 3.269,0.774 4.89,1.399 l 3.36,6.641 c -1.668,-1.243 -3.547,-2.168 -5.645,-2.786 -2.098,-0.625 -4.121,-0.925 -6.074,-0.925 h -1.785 c -4.289,0.379 -7.574,2.089 -9.864,5.125 -1.808,2.453 -2.714,5.343 -2.714,8.664 h 26.222 c 0,4.953 -1.535,8.918 -4.605,11.894"
         style="fill:#231f20;fill-opacity:1;fill-rule:nonzero;stroke:none"
         transform="matrix(0.13333333,0,0,-0.13333333,0,108.13333)" />
      <path
         id="path60"
         d="m 614.723,207.02 c -0.289,-0.973 -0.977,-1.915 -2.078,-2.821 v -0.281 h 17.437 v 0.281 c -1.051,0.813 -1.727,1.629 -2.035,2.473 -0.313,0.828 -0.465,2.058 -0.465,3.68 v 24.726 h -0.285 c -0.774,-0.43 -1.481,-0.703 -2.129,-0.82 -0.652,-0.125 -1.605,-0.188 -2.855,-0.188 h -0.934 -8.734 v -0.281 c 1.164,-0.996 1.871,-1.914 2.125,-2.754 0.253,-0.832 0.382,-1.875 0.382,-3.105 v -17.293 c 0,-1.438 -0.148,-2.637 -0.429,-3.617"
         style="fill:#231f20;fill-opacity:1;fill-rule:nonzero;stroke:none"
         transform="matrix(0.13333333,0,0,-0.13333333,0,108.13333)" />
      <path
         id="path61"
         d="m 625.641,240.242 c 1.293,1.367 1.941,2.973 1.941,4.824 0,1.914 -0.656,3.536 -1.977,4.868 -1.324,1.328 -2.875,2 -4.667,2 -1.883,0 -3.493,-0.672 -4.809,-2 -1.32,-1.332 -1.981,-2.954 -1.981,-4.868 0,-1.89 0.661,-3.511 1.981,-4.851 1.316,-1.336 2.926,-2 4.809,-2 1.835,0 3.402,0.68 4.703,2.027"
         style="fill:#231f20;fill-opacity:1;fill-rule:nonzero;stroke:none"
         transform="matrix(0.13333333,0,0,-0.13333333,0,108.13333)" />
    </g>
  </g>
</svg>
