<?xml version="1.0" encoding="UTF-8" standalone="no"?>
<!-- Created with Inkscape (http://www.inkscape.org/) -->

<svg
   version="1.1"
   id="svg1"
   width="226.14667"
   height="72.346664"
   viewBox="0 0 226.14667 72.346664"
   sodipodi:docname="PL_right.eps"
   xmlns:inkscape="http://www.inkscape.org/namespaces/inkscape"
   xmlns:sodipodi="http://sodipodi.sourceforge.net/DTD/sodipodi-0.dtd"
   xmlns="http://www.w3.org/2000/svg"
   xmlns:svg="http://www.w3.org/2000/svg">
  <defs
     id="defs1" />
  <sodipodi:namedview
     id="namedview1"
     pagecolor="#ffffff"
     bordercolor="#000000"
     borderopacity="0.25"
     inkscape:showpageshadow="2"
     inkscape:pageopacity="0.0"
     inkscape:pagecheckerboard="0"
     inkscape:deskcolor="#d1d1d1">
    <inkscape:page
       x="0"
       y="0"
       inkscape:label="1"
       id="page1"
       width="226.14667"
       height="72.346664"
       margin="0"
       bleed="0" />
  </sodipodi:namedview>
  <g
     id="g1"
     inkscape:groupmode="layer"
     inkscape:label="1">
    <g
       id="group-R5">
      <path
         id="path2"
         d="m 1419.96,288.594 -10.52,-7.977 v -35.121 l 10.52,8.879 v 34.219"
         style="fill:#db1f26;fill-opacity:1;fill-rule:nonzero;stroke:none"
         transform="matrix(0.13333333,0,0,-0.13333333,0,72.346667)" />
      <path
         id="path3"
         d="m 1435.85,280.07 -11.38,8.739 v -33.914 c 2.41,-2.063 6.75,-5.762 11.38,-9.7 v 34.875"
         style="fill:#db1f26;fill-opacity:1;fill-rule:nonzero;stroke:none"
         transform="matrix(0.13333333,0,0,-0.13333333,0,72.346667)" />
      <path
         id="path4"
         d="m 1440.35,276.633 v -35.266 c 3.63,-3.086 7.11,-6.023 9.6,-8.164 v 36.055 l -9.6,7.375"
         style="fill:#db1f26;fill-opacity:1;fill-rule:nonzero;stroke:none"
         transform="matrix(0.13333333,0,0,-0.13333333,0,72.346667)" />
      <path
         id="path5"
         d="m 1404.94,277.207 -10.16,-7.703 v -36.406 l 10.16,8.593 v 35.516"
         style="fill:#db1f26;fill-opacity:1;fill-rule:nonzero;stroke:none"
         transform="matrix(0.13333333,0,0,-0.13333333,0,72.346667)" />
      <path
         id="path6"
         d="m 1422.46,248.789 -0.64,-0.535 -27.04,-22.774 -0.21,-28.859 h 55.38 v 28.859 l -27.44,23.262 -0.05,0.047"
         style="fill:#db1f26;fill-opacity:1;fill-rule:nonzero;stroke:none"
         transform="matrix(0.13333333,0,0,-0.13333333,0,72.346667)" />
      <path
         id="path7"
         d="m 1282.73,406.301 h 79.63 c 11.56,-0.383 17.14,-3.305 27.95,-11.867 v -34.571 -0.285 l 0.26,-0.125 c 12.67,-5.43 22.91,-9.754 32.21,-13.64 l 0.18,-0.071 0.18,0.071 c 10.28,4.472 20.71,9.05 31.17,13.64 l 0.27,0.125 v 0.285 34.367 c 10.32,7.977 17.22,11.368 24.62,12.079 l 83.39,-0.008 V 187.844 c -8.05,-0.625 -16.27,-0.996 -24.23,-1.399 l -0.33,-0.019 c -19.33,-0.918 -39.31,-1.848 -58.2,-5.918 -20.58,-4.442 -36.51,-12.246 -50.89,-23.867 v 26.015 0.449 h -0.45 -11.59 -0.45 v -0.449 -25.957 c -17.3,13.36 -37.27,22.11 -63.01,26.699 -23.04,4.094 -46.6,4.473 -70.71,4.473 z m 116.09,-8 c 8.01,-4.785 15.42,-9.141 22.66,-13.301 -3.37,-1.992 -18.46,-10.937 -22.66,-13.418 z m 37.02,10.148 c -3.92,-6.66 -13.33,-22.57 -13.33,-22.57 -4.19,6.855 -8.5,14.043 -13.48,22.57 z m -0.01,-46.926 h -26.79 c 4.72,8 9.13,15.411 13.47,22.61 3.86,-6.613 13.32,-22.61 13.32,-22.61 z M 1423.4,385 c 0,0 16.56,9.738 22.49,13.301 v -26.719 c -7.08,4.172 -14.63,8.672 -22.49,13.418 z m -128.58,-228.23 1.65,-2.473 1.66,-2.481 0.09,-0.105 0.11,-0.168 0.19,-0.02 0.11,-0.007 c 3.53,-0.09 7.43,-0.129 11.96,-0.129 2.56,0 5.17,0 7.74,0.019 l 4.02,0.032 2.14,0.015 c 3.13,0.031 6.32,0.063 9.46,0.063 21.21,0 38.77,-1.172 55.55,-6.875 10.97,-4.219 17.74,-8.672 27.53,-14.328 l 0.13,-0.098 2.61,-1.492 0.67,-0.383 v 0.773 0.36 c -0.17,16.515 -0.17,33.273 -0.17,49.511 h 4.7 v -49.863 -0.73 l 0.65,0.332 0.31,0.144 c 1.29,0.696 2.49,1.348 3.63,1.985 0.88,0.468 18.62,10.632 25.51,12.636 24.38,7.489 41.66,8.114 60.15,8.114 3.22,0 6.46,-0.028 9.94,-0.059 l 3.31,-0.02 c 2.83,-0.019 5.76,-0.039 8.8,-0.039 1.9,0 3.85,0.012 5.86,0.032 h 0.1 0.24 l 0.13,0.195 1.18,1.531 c 7.84,10.274 15.25,19.961 22.83,29.629 l 0.03,0.039 0.02,0.051 0.05,0.098 0.02,0.156 v 227.871 0.449 h -0.45 -86.39 c -8.27,0 -17.82,-3.879 -26.31,-10.683 v 12.929 0.438 h -0.45 -63.38 -0.44 v -0.438 -12.226 c -8.94,8.222 -20.72,9.98 -29.11,9.98 h -83.16 -0.46 v -0.449 -0.215 c -0.15,-75.871 -0.15,-152.988 -0.15,-227.59 v -0.144 l 0.1,-0.188 c 5.68,-8.711 11.59,-17.597 17.29,-26.179"
         style="fill:#4f4c4c;fill-opacity:1;fill-rule:nonzero;stroke:none"
         transform="matrix(0.13333333,0,0,-0.13333333,0,72.346667)" />
      <path
         id="path8"
         d="m 1449.95,196.621 h -55.38 l 0.21,28.859 27.04,22.774 0.64,0.535 0.05,-0.047 27.44,-23.262 z m -29.99,57.754 -10.52,-8.879 v 35.121 l 10.52,7.977 z m -25.18,-21.277 v 36.406 l 10.16,7.703 v -35.516 z m 55.17,0.105 c -2.49,2.141 -5.97,5.078 -9.6,8.164 v 35.266 l 9.6,-7.375 z m -25.48,21.692 v 33.914 l 11.38,-8.739 v -34.875 c -4.63,3.938 -8.97,7.637 -11.38,9.7 z m -29.69,75.378 h 55.17 v -55.32 l -27.58,21.133 -27.59,-20.938 z m 59.67,4.504 h -64.17 V 190.645 h 64.17 v 144.132"
         style="fill:#4f4c4c;fill-opacity:1;fill-rule:nonzero;stroke:none"
         transform="matrix(0.13333333,0,0,-0.13333333,0,72.346667)" />
      <path
         id="path9"
         d="m 1488.44,311.086 c 1.36,2.977 2.75,6.043 4.15,9.129 v -70.399 c -2.63,-2.336 -6.1,-5.371 -10.05,-8.652 -0.76,-0.637 -1.52,-1.269 -2.29,-1.887 v 53.692 c 2.29,5.058 4.64,10.265 6.98,15.429 z m 8.65,19.07 c 4.63,10.266 9.05,20.09 12.35,27.617 V 267.16 c -3.69,-4.504 -7.61,-8.789 -11.78,-12.754 -0.01,-0.011 -0.23,-0.195 -0.57,-0.508 z m -29.42,31.887 v 9.219 h 42.74 l -4.02,-9.219 z m 46.27,6.074 1.38,3.145 h 10.96 v -78.547 c -3.61,-6.934 -7.74,-13.563 -12.34,-19.793 z m 34.32,-143.957 v -10.254 h -80.59 l 0.02,9.961 c 1.68,1.231 6.7,4.973 12.36,9.453 h 0.2 v 0.168 c 1.7,1.367 3.44,2.762 5.17,4.207 6.55,5.45 11.86,10.246 14.12,12.336 17.15,-9.191 33.53,-17.883 48.72,-25.871 z m -80.56,40.723 c 2.21,5.058 5,11.289 8.05,18.078 v -47.285 c -3.15,-2.481 -6,-4.668 -8.06,-6.192 z m 63.08,106.379 h 11.2 c 2.15,-21.66 -1.15,-44.172 -9.56,-65.207 -0.51,-1.27 -1.1,-2.52 -1.64,-3.789 z m -47.66,-61.028 c -7.32,-16.179 -14.91,-32.929 -19.75,-43.992 l -0.19,-0.422 -0.01,-56.425 h 89.59 v 16.125 l -0.13,1.425 -1.2,0.633 c -15.1,7.93 -31.38,16.582 -48.46,25.715 11.05,10.965 20.46,23.984 27.75,38.211 h 0.06 v 0.129 c 2.12,4.168 4.08,8.406 5.82,12.754 8.93,22.304 12.27,46.238 9.67,69.207 l -0.25,2.199 h -82.85 v -18.242 h 41.25 c -5.33,-12.121 -13.12,-29.258 -20.08,-44.621 l -1.22,-2.696"
         style="fill:#4f4c4c;fill-opacity:1;fill-rule:nonzero;stroke:none"
         transform="matrix(0.13333333,0,0,-0.13333333,0,72.346667)" />
      <path
         id="path10"
         d="m 1375.53,213.906 h -80.58 v 7.961 c 8.72,1.602 18.49,5.028 26.55,9.285 8.67,4.602 15.14,14.161 19.54,21.907 4.18,-4.075 11.15,-10.715 16.88,-15.481 1.65,-1.375 3.31,-2.723 4.94,-4.031 v -0.227 h 0.27 c 5.58,-4.422 10.58,-8.132 12.4,-9.492 z m -41.85,53.196 v 90.906 c 3.28,-7.512 7.69,-17.344 12.33,-27.637 v -75.867 c -1.01,0.984 -3.93,3.887 -3.93,3.887 -3.04,2.89 -5.81,5.769 -8.4,8.711 z m 41.87,104.16 0.09,-9.094 c -3.68,-0.078 -10.93,-0.574 -16.35,-2.938 -5.85,-2.57 -8.54,-5.851 -10.81,-9.003 -1.58,-2.188 -2.65,-4.622 -3.39,-6.836 -2.9,6.464 -5.55,12.422 -7.68,17.312 l -4.61,10.559 z m -46.38,-2.942 v -95.742 c -4.63,5.996 -8.63,12.453 -12.33,19.895 v 78.789 h 11.05 l 1.28,-2.942 z m -16.85,-66.015 c -0.51,1.23 -1.02,2.48 -1.52,3.75 -8.43,21.035 -11.72,43.547 -9.57,65.207 h 11.09 z m 38.2,18.117 c 1.42,-3.145 2.85,-6.289 4.25,-9.336 l 1.22,-2.688 c 2.29,-5.097 4.62,-10.222 6.87,-15.214 v -53.848 c -0.69,0.559 -1.37,1.133 -2.06,1.699 -3.26,2.707 -6.95,6.067 -10.28,9.192 z m 16.84,-37.238 c 3.1,-6.875 5.91,-13.172 8.16,-18.301 v -35.438 c -2.09,1.582 -4.99,3.778 -8.16,6.278 z m 12.66,-17.364 -0.19,0.422 c -4.84,11.063 -12.41,27.813 -19.75,43.992 l -1.22,2.696 c -3.5,7.746 -7.21,15.91 -10.72,23.683 0.22,1.7 1.1,6.973 4,10.985 2.05,2.863 4.15,5.382 8.96,7.492 6.45,2.84 16.66,2.598 16.76,2.586 l 2.34,-0.059 -0.19,18.176 h -82.82 l -0.25,-2.199 c -2.6,-22.969 0.74,-46.903 9.67,-69.207 8.29,-20.703 17.01,-34.27 30.73,-47.676 v -0.02 c 0.02,-0.011 0.16,-0.156 0.38,-0.363 -4.12,-7.402 -10.29,-16.922 -18.33,-21.199 -8.23,-4.367 -18.33,-7.774 -27.04,-9.141 l -1.91,-0.293 v -16.3 h 89.59 l -0.01,56.425"
         style="fill:#4f4c4c;fill-opacity:1;fill-rule:nonzero;stroke:none"
         transform="matrix(0.13333333,0,0,-0.13333333,0,72.346667)" />
      <path
         id="path11"
         d="m 620.918,354.492 -8.539,29.113 c -0.91,3.125 -1.438,4.883 -1.586,5.293 -0.965,2.411 -2.297,4.227 -4.012,5.438 v 0.305 h 16.407 l 1.585,-6.067 7.567,-28.562 h 0.297 c 0.508,2.066 1.035,4.168 1.593,6.289 1.411,5.457 2.415,9.441 3.02,11.972 1.109,4.493 1.691,6.895 1.738,7.196 0,1.926 -0.34,3.742 -1.019,5.461 -0.68,1.718 -1.477,2.898 -2.383,3.562 l 15.953,0.149 -0.449,-2.043 c 0,-0.203 3.035,-11.016 9.113,-32.422 l 7.426,25.097 c 0.152,0.86 0.262,1.457 0.316,1.79 0.047,0.332 0.078,0.82 0.078,1.484 0,1.172 -0.203,2.195 -0.605,3.086 -0.406,0.887 -1.035,1.836 -1.891,2.851 l 12.7,0.157 -15.497,-50.813 c -2.269,0.703 -4.035,1.348 -5.292,1.926 -1.262,0.574 -2.497,1.269 -3.708,2.078 -2.367,1.504 -4.41,5.176 -6.125,11.008 -2.062,7.09 -3.625,12.168 -4.683,15.234 l -7.789,-30.246 c -3.477,0.957 -6.227,2.043 -8.238,3.25 -3.125,1.918 -5.118,4.387 -5.977,7.414"
         style="fill:#4f4c4c;fill-opacity:1;fill-rule:nonzero;stroke:none"
         transform="matrix(0.13333333,0,0,-0.13333333,0,72.346667)" />
      <path
         id="path12"
         d="m 695.168,352.238 v 15.215 l -11.441,21.582 c -0.907,1.668 -1.641,2.84 -2.223,3.524 -0.574,0.683 -1.363,1.32 -2.367,1.933 l 17.547,0.149 8.769,-18.078 4.371,8.859 c 0.453,1.16 0.824,2.187 1.106,3.047 0.277,0.859 0.414,1.57 0.414,2.136 0,0.86 -0.16,1.614 -0.489,2.247 -0.332,0.636 -0.898,1.183 -1.707,1.632 l 13.688,0.157 -13.688,-27.219 v -12.703 c 0,-2.016 0.153,-3.606 0.457,-4.766 0.5,-1.914 1.489,-3.527 2.95,-4.836 v -0.301 h -20.641 v 0.301 c 1.156,0.656 1.992,1.641 2.496,2.949 0.5,1.321 0.758,2.707 0.758,4.172"
         style="fill:#4f4c4c;fill-opacity:1;fill-rule:nonzero;stroke:none"
         transform="matrix(0.13333333,0,0,-0.13333333,0,72.346667)" />
      <path
         id="path13"
         d="m 746.5,413.313 c 1.914,0 3.578,-0.704 4.988,-2.11 1.41,-1.418 2.121,-3.137 2.121,-5.148 0,-1.961 -0.695,-3.66 -2.082,-5.106 -1.386,-1.437 -3.058,-2.148 -5.027,-2.148 -2.02,0 -3.73,0.703 -5.145,2.117 -1.41,1.406 -2.113,3.125 -2.113,5.137 0,2.011 0.703,3.73 2.113,5.148 1.415,1.406 3.125,2.11 5.145,2.11 z m -23.742,-68.497 22.609,42.489 -6.656,0.226 c -2.113,0 -4.246,-0.324 -6.387,-0.968 -2.144,-0.633 -4.199,-1.551 -6.164,-2.735 l 4.008,10.813 h 34.703 l -22.305,-41.887 c 1.516,0 3.43,-0.117 5.75,-0.34 2.313,-0.226 3.754,-0.344 4.305,-0.344 2.774,0 5.254,0.332 7.445,0.989 2.196,0.652 4.731,1.882 7.606,3.699 l -4.16,-11.942 h -40.754"
         style="fill:#4f4c4c;fill-opacity:1;fill-rule:nonzero;stroke:none"
         transform="matrix(0.13333333,0,0,-0.13333333,0,72.346667)" />
      <path
         id="path14"
         d="m 772.281,346.613 -2.496,10.907 c 2.063,-1.797 4.563,-3.243 7.5,-4.336 2.942,-1.094 5.738,-1.641 8.403,-1.641 2.207,0 4.031,0.422 5.464,1.25 1.43,0.82 2.246,2.07 2.446,3.73 0,2.11 -1.102,3.957 -3.317,5.508 -0.902,0.657 -3.136,1.817 -6.703,3.477 -4.473,2.012 -7.687,4.199 -9.648,6.562 -2.211,2.668 -3.317,6.094 -3.317,10.266 0.356,4.227 2.27,7.527 5.742,9.891 3.473,2.363 7.907,3.546 13.297,3.546 2.063,0 4,-0.128 5.817,-0.382 1.812,-0.243 4.027,-0.848 6.644,-1.805 v -8.926 c -1.961,1.211 -3.836,2.11 -5.625,2.684 -1.781,0.578 -3.457,0.871 -5.019,0.871 -3.672,0 -5.883,-1.66 -6.641,-4.981 0,-2.011 1.758,-3.8 5.274,-5.363 1.609,-0.703 3.242,-1.387 4.902,-2.043 4.875,-2.41 8.262,-4.976 10.172,-7.691 1.605,-2.266 2.414,-4.883 2.414,-7.852 v -1.664 c -0.559,-5.183 -3,-9.051 -7.336,-11.617 -3.578,-2.109 -8.043,-3.176 -13.383,-3.176 -2.672,0 -5.277,0.266 -7.824,0.793 -2.547,0.527 -4.805,1.192 -6.766,1.992"
         style="fill:#4f4c4c;fill-opacity:1;fill-rule:nonzero;stroke:none"
         transform="matrix(0.13333333,0,0,-0.13333333,0,72.346667)" />
      <path
         id="path15"
         d="m 808.945,344.816 22.61,42.489 -6.657,0.226 c -2.117,0 -4.25,-0.324 -6.386,-0.968 -2.145,-0.633 -4.199,-1.551 -6.164,-2.735 l 4.004,10.813 h 34.707 l -22.305,-41.887 c 1.516,0 3.43,-0.117 5.75,-0.34 2.312,-0.226 3.754,-0.344 4.305,-0.344 2.773,0 5.254,0.332 7.445,0.989 2.191,0.652 4.726,1.882 7.601,3.699 l -4.16,-11.942 h -40.75"
         style="fill:#4f4c4c;fill-opacity:1;fill-rule:nonzero;stroke:none"
         transform="matrix(0.13333333,0,0,-0.13333333,0,72.346667)" />
      <path
         id="path16"
         d="m 872.285,366.973 10.375,-0.008 -5.289,15.125 z m -12.082,-10.821 10.211,29.414 c 0.051,0.207 0.227,0.832 0.527,1.868 0.305,1.043 0.454,1.921 0.454,2.636 0,0.86 -0.2,1.629 -0.602,2.325 -0.402,0.683 -1.137,1.375 -2.195,2.089 l 18.449,0.157 14.668,-39.602 c 0.859,-2.527 1.703,-4.441 2.531,-5.762 0.832,-1.308 2.059,-2.695 3.668,-4.16 v -0.301 h -22.91 v 0.301 c 2.07,1.164 3.101,2.598 3.101,4.309 0,0.703 -0.023,1.238 -0.074,1.59 -0.051,0.351 -0.226,0.91 -0.531,1.66 l -2.344,7.187 h -15.043 l -2.191,-6.355 c -0.203,-0.656 -0.418,-1.387 -0.649,-2.188 -0.222,-0.812 -0.363,-1.484 -0.414,-2.043 0,-0.808 0.231,-1.523 0.684,-2.156 0.449,-0.625 1.156,-1.301 2.113,-2.004 v -0.301 H 854.16 v 0.301 c 1.563,1.309 2.848,3.028 3.852,5.137 0.504,1.066 1.234,3.027 2.191,5.898"
         style="fill:#4f4c4c;fill-opacity:1;fill-rule:nonzero;stroke:none"
         transform="matrix(0.13333333,0,0,-0.13333333,0,72.346667)" />
      <path
         id="path17"
         d="m 929.613,346.613 -2.496,10.907 c 2.063,-1.797 4.563,-3.243 7.5,-4.336 2.942,-1.094 5.738,-1.641 8.406,-1.641 2.207,0 4.028,0.422 5.461,1.25 1.434,0.82 2.246,2.07 2.45,3.73 0,2.11 -1.106,3.957 -3.317,5.508 -0.902,0.657 -3.14,1.817 -6.703,3.477 -4.473,2.012 -7.691,4.199 -9.648,6.562 -2.211,2.668 -3.317,6.094 -3.317,10.266 0.352,4.227 2.266,7.527 5.742,9.891 3.473,2.363 7.907,3.546 13.297,3.546 2.059,0 3.996,-0.128 5.817,-0.382 1.808,-0.243 4.027,-0.848 6.644,-1.805 v -8.926 c -1.965,1.211 -3.84,2.11 -5.625,2.684 -1.781,0.578 -3.457,0.871 -5.019,0.871 -3.672,0 -5.883,-1.66 -6.641,-4.981 0,-2.011 1.758,-3.8 5.274,-5.363 1.605,-0.703 3.242,-1.387 4.902,-2.043 4.871,-2.41 8.262,-4.976 10.172,-7.691 1.605,-2.266 2.41,-4.883 2.41,-7.852 v -1.664 c -0.559,-5.183 -2.996,-9.051 -7.332,-11.617 -3.582,-2.109 -8.043,-3.176 -13.387,-3.176 -2.672,0 -5.277,0.266 -7.82,0.793 -2.551,0.527 -4.805,1.192 -6.77,1.992"
         style="fill:#4f4c4c;fill-opacity:1;fill-rule:nonzero;stroke:none"
         transform="matrix(0.13333333,0,0,-0.13333333,0,72.346667)" />
      <path
         id="path18"
         d="m 966.285,344.816 22.606,42.489 -6.657,0.226 c -2.113,0 -4.246,-0.324 -6.382,-0.968 -2.145,-0.633 -4.204,-1.551 -6.164,-2.735 l 4.003,10.813 h 34.709 l -22.306,-41.887 c 1.511,0 3.426,-0.117 5.746,-0.34 2.316,-0.226 3.758,-0.344 4.308,-0.344 2.774,0 5.252,0.332 7.442,0.989 2.2,0.652 4.73,1.882 7.61,3.699 l -4.16,-11.942 h -40.755"
         style="fill:#4f4c4c;fill-opacity:1;fill-rule:nonzero;stroke:none"
         transform="matrix(0.13333333,0,0,-0.13333333,0,72.346667)" />
      <path
         id="path19"
         d="m 1031.3,351.926 c 0,-1.613 0.26,-3 0.76,-4.16 0.5,-1.164 1.33,-2.043 2.5,-2.649 v -0.301 h -20.42 v 0.301 c 1.21,0.703 2.04,1.692 2.5,2.949 0.45,1.27 0.67,2.551 0.67,3.868 v 32.336 1.816 c 0,2.215 -0.14,3.836 -0.44,4.844 -0.46,1.465 -1.37,2.644 -2.73,3.562 l 20.42,0.149 c -1.17,-0.762 -2,-1.809 -2.5,-3.157 -0.5,-1.336 -0.76,-2.617 -0.76,-3.828 l 0.02,-15.554 9.59,12.097 c 0.66,0.813 1.31,1.653 1.97,2.52 0.85,1.269 1.28,2.433 1.28,3.508 0,0.859 -0.22,1.648 -0.64,2.351 -0.43,0.715 -1.21,1.348 -2.31,1.906 l 18.59,0.157 -16.7,-20.266 14.06,-22.148 c 0.66,-1.063 1.31,-2.118 1.97,-3.172 1.1,-1.621 2.32,-2.934 3.62,-3.938 v -0.301 h -4.68 c -6.05,0 -10.11,0.387 -12.18,1.172 -2.06,0.782 -3.98,2.703 -5.74,5.782 l -8.85,15.195 v -15.039"
         style="fill:#4f4c4c;fill-opacity:1;fill-rule:nonzero;stroke:none"
         transform="matrix(0.13333333,0,0,-0.13333333,0,72.346667)" />
      <path
         id="path20"
         d="m 1076.44,370.859 c 0,-4.929 1.19,-9.277 3.57,-13.054 2.64,-4.172 6.08,-6.262 10.34,-6.262 4.21,0 7.43,1.484 9.65,4.453 2.08,2.766 3.13,6.484 3.13,11.164 0,5.332 -0.94,9.883 -2.8,13.66 -2.42,4.922 -6,7.395 -10.74,7.395 -3.78,0 -6.91,-1.574 -9.41,-4.719 -2.49,-3.144 -3.74,-7.031 -3.74,-11.66 z m -14.52,0 c 0,7.149 2.65,13.086 7.94,17.813 5.29,4.738 12.09,7.101 20.41,7.101 8.62,0 15.45,-2.46 20.49,-7.394 4.79,-4.688 7.18,-10.77 7.18,-18.27 v -0.304 c 0,-6.543 -2.03,-12.207 -6.1,-16.992 -5.08,-5.985 -12.37,-8.985 -21.87,-8.985 -8.5,0 -15.36,2.57 -20.59,7.707 -4.97,4.883 -7.46,10.918 -7.46,18.113 0,0.207 0,0.43 0,0.684 0,0.254 0,0.43 0,0.527"
         style="fill:#4f4c4c;fill-opacity:1;fill-rule:nonzero;stroke:none"
         transform="matrix(0.13333333,0,0,-0.13333333,0,72.346667)" />
      <path
         id="path21"
         d="m 1125.81,360.84 -3.25,-1.277 v 7.253 l 3.25,1.289 v 19.407 c 0,1.824 -0.3,3.301 -0.91,4.433 -0.6,1.141 -1.38,1.993 -2.34,2.547 l 20.34,0.149 c -1.37,-0.911 -2.27,-2.227 -2.72,-3.946 -0.26,-0.91 -0.39,-2.101 -0.39,-3.566 v -13.133 l 7.71,3.25 -0.07,-7.168 -7.64,-3.301 v -13.425 c 0.96,-0.5 2.12,-0.84 3.48,-1.016 1.36,-0.176 2.67,-0.266 3.94,-0.266 2.82,0 5.19,0.352 7.1,1.067 0.81,0.301 2.17,1.023 4.08,2.187 l -2.79,-10.508 h -33.04 c 1.46,1.055 2.37,2.262 2.72,3.633 0.35,1.356 0.53,3.297 0.53,5.821 v 6.57"
         style="fill:#4f4c4c;fill-opacity:1;fill-rule:nonzero;stroke:none"
         transform="matrix(0.13333333,0,0,-0.13333333,0,72.346667)" />
      <path
         id="path22"
         d="m 1178.49,366.973 10.37,-0.008 -5.29,15.125 z m -12.08,-10.821 10.21,29.414 c 0.05,0.207 0.22,0.832 0.52,1.868 0.31,1.043 0.46,1.921 0.46,2.636 0,0.86 -0.2,1.629 -0.61,2.325 -0.4,0.683 -1.13,1.375 -2.19,2.089 l 18.45,0.157 14.67,-39.602 c 0.85,-2.527 1.7,-4.441 2.53,-5.762 0.83,-1.308 2.05,-2.695 3.67,-4.16 v -0.301 h -22.91 v 0.301 c 2.07,1.164 3.1,2.598 3.1,4.309 0,0.703 -0.03,1.238 -0.08,1.59 -0.05,0.351 -0.23,0.91 -0.53,1.66 l -2.34,7.187 h -15.05 l -2.19,-6.355 c -0.2,-0.656 -0.41,-1.387 -0.64,-2.188 -0.23,-0.812 -0.37,-1.484 -0.42,-2.043 0,-0.808 0.23,-1.523 0.69,-2.156 0.44,-0.625 1.15,-1.301 2.11,-2.004 v -0.301 h -15.5 v 0.301 c 1.56,1.309 2.85,3.028 3.85,5.137 0.51,1.066 1.24,3.027 2.2,5.898"
         style="fill:#4f4c4c;fill-opacity:1;fill-rule:nonzero;stroke:none"
         transform="matrix(0.13333333,0,0,-0.13333333,0,72.346667)" />
      <path
         id="path23"
         d="m 129.641,268.594 v 30.293 c 0,3.125 -0.168,5.285 -0.496,6.476 -0.329,1.18 -1.196,2.332 -2.606,3.446 l 20.184,0.144 c -1.41,-1.16 -2.282,-2.332 -2.606,-3.523 -0.328,-1.184 -0.496,-3.164 -0.496,-5.938 v -31.199 c 0,-2.773 0.203,-4.727 0.609,-5.871 0.403,-1.133 1.235,-2.176 2.493,-3.145 l -20.184,-0.144 c 1.41,1.062 2.313,2.371 2.719,3.933 0.254,0.957 0.383,2.805 0.383,5.528"
         style="fill:#4f4c4c;fill-opacity:1;fill-rule:nonzero;stroke:none"
         transform="matrix(0.13333333,0,0,-0.13333333,0,72.346667)" />
      <path
         id="path24"
         d="m 154.285,268.293 v 28.398 c 0,3.231 -0.277,5.536 -0.828,6.922 -0.559,1.387 -1.742,3.067 -3.555,5.039 v 0.301 h 15.801 l 23.137,-30.625 v 20.695 c 0,2.071 -0.129,3.645 -0.379,4.7 -0.453,1.922 -1.41,3.613 -2.875,5.086 l -0.152,0.144 h 14.668 c -1.157,-1.16 -2.016,-2.508 -2.567,-4.051 -0.558,-1.543 -0.836,-3.144 -0.836,-4.804 v -42.559 h -0.297 c -1.816,0 -4.238,0.715 -7.261,2.121 -3.985,1.863 -7.078,4.258 -9.301,7.188 l -17.391,23.281 h -0.301 v -21.848 c 0,-2.117 0.29,-3.867 0.872,-5.254 0.578,-1.386 1.421,-2.586 2.531,-3.593 v -0.301 h -14.668 v 0.301 c 1.109,0.91 1.953,2.062 2.535,3.449 0.574,1.387 0.867,3.191 0.867,5.41"
         style="fill:#4f4c4c;fill-opacity:1;fill-rule:nonzero;stroke:none"
         transform="matrix(0.13333333,0,0,-0.13333333,0,72.346667)" />
      <path
         id="path25"
         d="m 206.758,266.387 v 34.855 c 0,1.914 -0.27,3.406 -0.797,4.461 -0.527,1.055 -1.297,1.965 -2.305,2.727 l 26.539,0.144 c 0.504,0 0.981,0.012 1.438,0.031 0.453,0.028 0.957,0.137 1.512,0.348 h 0.296 v -10.887 c -0.804,1.399 -2.089,2.325 -3.851,2.793 -0.906,0.254 -2.07,0.383 -3.477,0.383 h -5.371 v -12.246 h 5.746 c 0.551,0 1.032,0.008 1.438,0.039 0.402,0.028 0.781,0.137 1.133,0.34 h 0.379 v -10.742 h -0.379 c -0.25,0.859 -0.793,1.543 -1.625,2.043 -0.832,0.508 -2.18,0.762 -4.043,0.762 h -2.649 v -12.247 c 0,-2.07 0.125,-3.664 0.379,-4.765 0.504,-2.219 1.512,-3.985 3.024,-5.293 v -0.305 h -20.489 v 0.305 c 1.36,0.808 2.266,2.012 2.723,3.633 0.254,0.847 0.379,2.058 0.379,3.621"
         style="fill:#4f4c4c;fill-opacity:1;fill-rule:nonzero;stroke:none"
         transform="matrix(0.13333333,0,0,-0.13333333,0,72.346667)" />
      <path
         id="path26"
         d="m 251.211,285.176 c 0,-4.93 1.191,-9.278 3.574,-13.055 2.637,-4.172 6.082,-6.262 10.344,-6.262 4.203,0 7.426,1.485 9.652,4.454 2.078,2.765 3.117,6.484 3.117,11.164 0,5.332 -0.929,9.882 -2.796,13.66 -2.414,4.922 -6,7.394 -10.739,7.394 -3.777,0 -6.914,-1.574 -9.406,-4.718 -2.496,-3.145 -3.746,-7.032 -3.746,-11.661 z m -14.516,0 c 0,7.148 2.645,13.086 7.938,17.812 5.293,4.739 12.097,7.102 20.418,7.102 8.617,0 15.445,-2.461 20.484,-7.395 4.785,-4.687 7.184,-10.769 7.184,-18.269 v -0.305 c 0,-6.543 -2.035,-12.207 -6.11,-16.992 -5.078,-5.984 -12.367,-8.984 -21.863,-8.984 -8.496,0 -15.355,2.57 -20.586,7.707 -4.976,4.882 -7.465,10.918 -7.465,18.113 0,0.207 0,0.43 0,0.683 0,0.254 0,0.43 0,0.528"
         style="fill:#4f4c4c;fill-opacity:1;fill-rule:nonzero;stroke:none"
         transform="matrix(0.13333333,0,0,-0.13333333,0,72.346667)" />
      <path
         id="path27"
         d="m 312.898,284.531 c 2.422,0.364 4.387,1.399 5.903,3.117 1.512,1.719 2.262,3.75 2.262,6.075 0,2.332 -0.575,4.207 -1.739,5.625 -1.355,1.621 -3.301,2.429 -5.816,2.429 h -0.61 z m 0,-4.004 v -13.984 c 0,-1.914 0.282,-3.426 0.832,-4.539 0.555,-1.106 1.364,-1.965 2.422,-2.57 v -0.301 h -20.336 v 0.301 c 1.258,0.703 2.09,1.652 2.497,2.843 0.398,1.18 0.601,2.559 0.601,4.121 v 1.29 33.015 c 0,2.168 -0.18,3.84 -0.531,5 -0.352,1.152 -1.211,2.188 -2.567,3.106 l 24.649,0.144 c 4.281,0 7.734,-1.109 10.355,-3.336 2.825,-2.422 4.235,-5.762 4.235,-10.012 0,-1.914 -0.481,-3.738 -1.438,-5.457 -1.465,-2.628 -3.929,-4.804 -7.41,-6.527 l 9.754,-16.5 c 1.109,-1.672 1.914,-2.844 2.418,-3.5 1.312,-1.726 2.621,-3.125 3.93,-4.187 l -8.539,-0.606 h -4.161 c -1.914,0 -3.437,0.332 -4.574,0.988 -1.133,0.653 -2.18,1.914 -3.137,3.778 l -9,16.933"
         style="fill:#4f4c4c;fill-opacity:1;fill-rule:nonzero;stroke:none"
         transform="matrix(0.13333333,0,0,-0.13333333,0,72.346667)" />
      <path
         id="path28"
         d="m 346.316,268.586 3.704,32.352 v 1.757 c 0,1.172 -0.2,2.227 -0.606,3.164 -0.398,0.95 -1.156,1.926 -2.266,2.942 l 17.332,0.152 11.356,-29.265 8.922,29.265 h 17.961 v -0.301 c -1.059,-0.761 -1.766,-1.425 -2.117,-2 -0.352,-0.586 -0.582,-1.328 -0.68,-2.238 0.098,-0.301 0.152,-0.762 0.152,-1.367 l 3.778,-34.297 c 0.253,-2.117 0.668,-3.926 1.25,-5.422 0.578,-1.48 1.445,-2.781 2.609,-3.894 v -0.301 H 387.82 v 0.301 c 0.91,0.91 1.532,1.73 1.86,2.461 0.324,0.722 0.488,1.476 0.488,2.226 l -0.152,2.871 -2.496,24.348 h -0.297 l -9.758,-33.176 c -4.328,1.563 -7.383,3.234 -9.145,5 -1.211,1.211 -2.242,3.059 -3.093,5.527 l -8.317,22.649 h -0.305 l -2.519,-26.008 c 0,-1.512 0.277,-2.734 0.836,-3.672 0.558,-0.926 1.367,-1.668 2.433,-2.226 v -0.301 h -14.742 v 0.301 c 1.258,1.054 2.168,2.375 2.719,3.937 0.406,1.102 0.731,2.84 0.984,5.215"
         style="fill:#4f4c4c;fill-opacity:1;fill-rule:nonzero;stroke:none"
         transform="matrix(0.13333333,0,0,-0.13333333,0,72.346667)" />
      <path
         id="path29"
         d="m 428.102,281.289 10.375,-0.008 -5.289,15.125 z m -12.082,-10.82 10.21,29.414 c 0.047,0.207 0.223,0.832 0.528,1.863 0.305,1.047 0.453,1.926 0.453,2.641 0,0.859 -0.199,1.629 -0.606,2.324 -0.398,0.684 -1.132,1.375 -2.191,2.09 l 18.445,0.152 14.668,-39.598 c 0.864,-2.527 1.707,-4.441 2.536,-5.761 0.832,-1.309 2.054,-2.696 3.667,-4.16 v -0.301 h -22.91 v 0.301 c 2.071,1.164 3.102,2.597 3.102,4.308 0,0.703 -0.027,1.238 -0.074,1.59 -0.055,0.352 -0.231,0.91 -0.532,1.66 l -2.343,7.188 H 425.93 l -2.196,-6.356 c -0.199,-0.656 -0.414,-1.386 -0.644,-2.187 -0.223,-0.813 -0.363,-1.485 -0.414,-2.043 0,-0.809 0.23,-1.524 0.683,-2.156 0.45,-0.625 1.157,-1.301 2.114,-2.004 v -0.301 h -15.496 v 0.301 c 1.562,1.308 2.843,3.027 3.851,5.136 0.504,1.067 1.235,3.028 2.192,5.899"
         style="fill:#4f4c4c;fill-opacity:1;fill-rule:nonzero;stroke:none"
         transform="matrix(0.13333333,0,0,-0.13333333,0,72.346667)" />
      <path
         id="path30"
         d="m 474.617,268.789 v 31.777 c -0.656,0.098 -1.387,0.176 -2.191,0.227 -0.809,0.047 -1.289,0.078 -1.442,0.078 -1.558,0 -3.148,-0.324 -4.757,-0.957 -1.211,-0.48 -2.696,-1.242 -4.465,-2.297 l 3.019,11.563 1.434,-0.227 h 35.094 l -2.649,-11.336 c -0.555,1.153 -1.465,1.992 -2.722,2.492 -1.258,0.508 -2.622,0.762 -4.083,0.762 -1.109,0 -2.191,-0.156 -3.25,-0.461 v -31.66 c 0,-2.469 0.262,-4.395 0.793,-5.754 0.528,-1.363 1.399,-2.555 2.61,-3.562 v -0.301 H 471.52 v 0.301 c 1.257,0.714 2.089,1.711 2.496,3.007 0.398,1.289 0.601,2.844 0.601,4.668 v 1.68"
         style="fill:#4f4c4c;fill-opacity:1;fill-rule:nonzero;stroke:none"
         transform="matrix(0.13333333,0,0,-0.13333333,0,72.346667)" />
      <path
         id="path31"
         d="m 517.262,266.555 v 15.215 l -11.442,21.582 c -0.902,1.668 -1.64,2.839 -2.222,3.523 -0.575,0.684 -1.364,1.32 -2.368,1.934 l 17.547,0.144 8.774,-18.074 4.367,8.859 c 0.453,1.16 0.824,2.188 1.105,3.047 0.278,0.86 0.415,1.57 0.415,2.137 0,0.859 -0.161,1.613 -0.489,2.246 -0.332,0.637 -0.898,1.184 -1.703,1.633 l 13.688,0.152 -13.688,-27.215 v -12.703 c 0,-2.012 0.149,-3.605 0.453,-4.765 0.504,-1.915 1.489,-3.528 2.949,-4.836 v -0.301 h -20.64 v 0.301 c 1.16,0.656 1.992,1.64 2.496,2.949 0.504,1.32 0.758,2.707 0.758,4.172"
         style="fill:#4f4c4c;fill-opacity:1;fill-rule:nonzero;stroke:none"
         transform="matrix(0.13333333,0,0,-0.13333333,0,72.346667)" />
      <path
         id="path32"
         d="m 563.754,266.242 c 0,-1.613 0.254,-3 0.758,-4.164 0.504,-1.16 1.332,-2.039 2.496,-2.644 v -0.301 h -20.414 v 0.301 c 1.211,0.703 2.039,1.687 2.492,2.949 0.457,1.269 0.68,2.551 0.68,3.867 v 32.336 1.816 c 0,2.215 -0.149,3.836 -0.45,4.844 -0.453,1.465 -1.363,2.645 -2.722,3.563 l 20.414,0.144 c -1.164,-0.758 -1.992,-1.805 -2.496,-3.152 -0.504,-1.336 -0.758,-2.617 -0.758,-3.828 l 0.016,-15.555 9.593,12.098 c 0.657,0.812 1.309,1.652 1.965,2.519 0.856,1.27 1.277,2.434 1.277,3.508 0,0.859 -0.214,1.648 -0.636,2.352 -0.434,0.714 -1.203,1.347 -2.313,1.906 l 18.602,0.152 -16.711,-20.262 14.066,-22.148 c 0.657,-1.063 1.309,-2.117 1.965,-3.172 1.11,-1.625 2.317,-2.93 3.625,-3.937 v -0.301 h -4.683 c -6.047,0 -10.106,0.39 -12.176,1.172 -2.067,0.781 -3.981,2.703 -5.742,5.781 l -8.848,15.195 v -15.039"
         style="fill:#4f4c4c;fill-opacity:1;fill-rule:nonzero;stroke:none"
         transform="matrix(0.13333333,0,0,-0.13333333,0,72.346667)" />
      <path
         id="path33"
         d="m 599.973,268.594 v 30.293 c 0,3.125 -0.168,5.285 -0.496,6.476 -0.329,1.18 -1.196,2.332 -2.606,3.446 l 20.184,0.144 c -1.41,-1.16 -2.282,-2.332 -2.606,-3.523 -0.328,-1.184 -0.496,-3.164 -0.496,-5.938 v -31.199 c 0,-2.773 0.203,-4.727 0.61,-5.871 0.402,-1.133 1.234,-2.176 2.492,-3.145 l -20.184,-0.144 c 1.41,1.062 2.313,2.371 2.719,3.933 0.254,0.957 0.383,2.805 0.383,5.528"
         style="fill:#4f4c4c;fill-opacity:1;fill-rule:nonzero;stroke:none"
         transform="matrix(0.13333333,0,0,-0.13333333,0,72.346667)" />
      <path
         id="path34"
         d="m 680.27,259.133 22.605,42.488 -6.652,0.227 c -2.118,0 -4.25,-0.325 -6.387,-0.969 -2.145,-0.633 -4.199,-1.551 -6.164,-2.734 l 4.004,10.808 h 34.707 L 700.078,267.07 c 1.516,0 3.43,-0.117 5.746,-0.34 2.317,-0.226 3.754,-0.343 4.309,-0.343 2.773,0 5.254,0.332 7.445,0.984 2.192,0.656 4.727,1.887 7.602,3.703 l -4.16,-11.941 h -40.75"
         style="fill:#4f4c4c;fill-opacity:1;fill-rule:nonzero;stroke:none"
         transform="matrix(0.13333333,0,0,-0.13333333,0,72.346667)" />
      <path
         id="path35"
         d="m 743.605,281.289 10.375,-0.008 -5.289,15.125 z m -12.082,-10.82 10.211,29.414 c 0.047,0.207 0.223,0.832 0.528,1.863 0.301,1.047 0.453,1.926 0.453,2.641 0,0.859 -0.199,1.629 -0.606,2.324 -0.398,0.684 -1.132,1.375 -2.191,2.09 l 18.445,0.152 14.668,-39.598 c 0.86,-2.527 1.703,-4.441 2.535,-5.761 0.829,-1.309 2.055,-2.696 3.668,-4.16 v -0.301 h -22.91 v 0.301 c 2.071,1.164 3.102,2.597 3.102,4.308 0,0.703 -0.028,1.238 -0.074,1.59 -0.055,0.352 -0.231,0.91 -0.536,1.66 l -2.339,7.188 H 741.43 l -2.192,-6.356 c -0.199,-0.656 -0.414,-1.386 -0.644,-2.187 -0.227,-0.813 -0.367,-1.485 -0.414,-2.043 0,-0.809 0.226,-1.524 0.683,-2.156 0.45,-0.625 1.157,-1.301 2.114,-2.004 v -0.301 H 725.48 v 0.301 c 1.563,1.308 2.844,3.027 3.852,5.136 0.504,1.067 1.234,3.028 2.191,5.899"
         style="fill:#4f4c4c;fill-opacity:1;fill-rule:nonzero;stroke:none"
         transform="matrix(0.13333333,0,0,-0.13333333,0,72.346667)" />
      <path
         id="path36"
         d="m 800.102,284.531 c 2.421,0.364 4.386,1.399 5.898,3.117 1.516,1.719 2.266,3.75 2.266,6.075 0,2.332 -0.575,4.207 -1.739,5.625 -1.355,1.621 -3.3,2.429 -5.82,2.429 h -0.605 z m 0,-4.004 v -13.984 c 0,-1.914 0.281,-3.426 0.832,-4.539 0.554,-1.106 1.363,-1.965 2.421,-2.57 v -0.301 H 783.02 v 0.301 c 1.257,0.703 2.085,1.652 2.492,2.843 0.402,1.18 0.605,2.559 0.605,4.121 v 1.29 33.015 c 0,2.168 -0.179,3.84 -0.531,5 -0.352,1.152 -1.211,2.188 -2.566,3.106 l 24.648,0.144 c 4.281,0 7.73,-1.109 10.355,-3.336 2.821,-2.422 4.235,-5.762 4.235,-10.012 0,-1.914 -0.481,-3.738 -1.438,-5.457 -1.465,-2.628 -3.929,-4.804 -7.414,-6.527 l 9.758,-16.5 c 1.109,-1.672 1.914,-2.844 2.418,-3.5 1.313,-1.726 2.621,-3.125 3.93,-4.187 l -8.539,-0.606 h -4.16 c -1.915,0 -3.438,0.332 -4.579,0.988 -1.129,0.653 -2.175,1.914 -3.132,3.778 l -9,16.933"
         style="fill:#4f4c4c;fill-opacity:1;fill-rule:nonzero;stroke:none"
         transform="matrix(0.13333333,0,0,-0.13333333,0,72.346667)" />
      <path
         id="path37"
         d="m 829.203,259.133 22.61,42.488 -6.657,0.227 c -2.113,0 -4.25,-0.325 -6.386,-0.969 -2.145,-0.633 -4.2,-1.551 -6.165,-2.734 l 4.004,10.808 h 34.707 l -22.3,-41.883 c 1.511,0 3.425,-0.117 5.746,-0.34 2.312,-0.226 3.754,-0.343 4.304,-0.343 2.774,0 5.254,0.332 7.45,0.984 2.191,0.656 4.722,1.887 7.601,3.703 l -4.16,-11.941 h -40.754"
         style="fill:#4f4c4c;fill-opacity:1;fill-rule:nonzero;stroke:none"
         transform="matrix(0.13333333,0,0,-0.13333333,0,72.346667)" />
      <path
         id="path38"
         d="m 892.543,281.289 10.379,-0.008 -5.289,15.125 z m -12.078,-10.82 10.211,29.414 c 0.047,0.207 0.222,0.832 0.523,1.863 0.305,1.047 0.457,1.926 0.457,2.641 0,0.859 -0.203,1.629 -0.605,2.324 -0.403,0.684 -1.133,1.375 -2.196,2.09 l 18.45,0.152 14.668,-39.598 c 0.859,-2.527 1.703,-4.441 2.535,-5.761 0.828,-1.309 2.055,-2.696 3.668,-4.16 v -0.301 h -22.91 v 0.301 c 2.07,1.164 3.097,2.597 3.097,4.308 0,0.703 -0.023,1.238 -0.07,1.59 -0.055,0.352 -0.23,0.91 -0.535,1.66 l -2.344,7.188 h -15.043 l -2.191,-6.356 c -0.2,-0.656 -0.414,-1.386 -0.645,-2.187 -0.226,-0.813 -0.367,-1.485 -0.418,-2.043 0,-0.809 0.231,-1.524 0.688,-2.156 0.449,-0.625 1.156,-1.301 2.113,-2.004 v -0.301 h -15.5 v 0.301 c 1.562,1.308 2.848,3.027 3.852,5.136 0.503,1.067 1.238,3.028 2.195,5.899"
         style="fill:#4f4c4c;fill-opacity:1;fill-rule:nonzero;stroke:none"
         transform="matrix(0.13333333,0,0,-0.13333333,0,72.346667)" />
      <path
         id="path39"
         d="m 947.676,267.227 c 0.453,-0.106 1.148,-0.215 2.082,-0.34 0.93,-0.129 1.773,-0.246 2.531,-0.344 3.981,0 7.043,1.562 9.188,4.699 2.14,3.125 3.211,7.422 3.211,12.879 0,5.957 -1.258,10.383 -3.782,13.262 -2.117,2.422 -4.988,3.633 -8.617,3.633 -0.707,0 -1.258,-0.028 -1.664,-0.078 -0.406,-0.047 -1.387,-0.223 -2.949,-0.528 z m 5.594,41.726 c 7.863,0 14.168,-2.223 18.902,-6.656 4.738,-4.445 7.105,-10.305 7.105,-17.57 0,-7.071 -1.937,-12.872 -5.82,-17.422 -4.641,-5.45 -11.414,-8.172 -20.336,-8.172 h -22.683 v 0.301 c 1.46,0.91 2.371,2.004 2.722,3.293 0.352,1.289 0.531,3.394 0.531,6.328 v 31.797 0.601 c 0,1.516 -0.152,2.785 -0.453,3.793 -0.508,1.719 -1.441,2.899 -2.8,3.563 l 22.832,0.144"
         style="fill:#4f4c4c;fill-opacity:1;fill-rule:nonzero;stroke:none"
         transform="matrix(0.13333333,0,0,-0.13333333,0,72.346667)" />
      <path
         id="path40"
         d="m 981.246,259.133 22.604,42.488 -6.655,0.227 c -2.113,0 -4.246,-0.325 -6.382,-0.969 -2.145,-0.633 -4.204,-1.551 -6.165,-2.734 l 4.004,10.808 h 34.708 l -22.31,-41.883 c 1.52,0 3.43,-0.117 5.75,-0.34 2.32,-0.226 3.76,-0.343 4.31,-0.343 2.77,0 5.25,0.332 7.44,0.984 2.2,0.656 4.73,1.887 7.61,3.703 L 1022,259.133 h -40.754"
         style="fill:#4f4c4c;fill-opacity:1;fill-rule:nonzero;stroke:none"
         transform="matrix(0.13333333,0,0,-0.13333333,0,72.346667)" />
      <path
         id="path41"
         d="m 1046.09,281.289 10.38,-0.008 -5.29,15.125 z m -12.08,-10.82 10.21,29.414 c 0.05,0.207 0.23,0.832 0.53,1.863 0.3,1.047 0.46,1.926 0.46,2.641 0,0.859 -0.21,1.629 -0.61,2.324 -0.4,0.684 -1.13,1.375 -2.19,2.09 l 18.44,0.152 14.67,-39.598 c 0.86,-2.527 1.71,-4.441 2.54,-5.761 0.83,-1.309 2.05,-2.696 3.66,-4.16 v -0.301 h -22.91 v 0.301 c 2.07,1.164 3.1,2.597 3.1,4.308 0,0.703 -0.02,1.238 -0.07,1.59 -0.05,0.352 -0.23,0.91 -0.53,1.66 l -2.35,7.188 h -15.04 l -2.19,-6.356 c -0.2,-0.656 -0.42,-1.386 -0.65,-2.187 -0.22,-0.813 -0.36,-1.485 -0.41,-2.043 0,-0.809 0.23,-1.524 0.68,-2.156 0.45,-0.625 1.16,-1.301 2.12,-2.004 v -0.301 h -15.5 v 0.301 c 1.56,1.308 2.85,3.027 3.85,5.136 0.5,1.067 1.24,3.028 2.19,5.899"
         style="fill:#4f4c4c;fill-opacity:1;fill-rule:nonzero;stroke:none"
         transform="matrix(0.13333333,0,0,-0.13333333,0,72.346667)" />
      <path
         id="path42"
         d="m 1088.23,268.293 v 28.398 c 0,3.231 -0.28,5.536 -0.83,6.922 -0.56,1.387 -1.75,3.067 -3.56,5.039 v 0.301 h 15.8 l 23.14,-30.625 v 20.695 c 0,2.071 -0.13,3.645 -0.38,4.7 -0.45,1.922 -1.41,3.613 -2.87,5.086 l -0.15,0.144 h 14.66 c -1.15,-1.16 -2.01,-2.508 -2.57,-4.051 -0.55,-1.543 -0.83,-3.144 -0.83,-4.804 v -42.559 h -0.3 c -1.81,0 -4.24,0.715 -7.26,2.121 -3.98,1.863 -7.08,4.258 -9.3,7.188 l -17.39,23.281 h -0.3 v -21.848 c 0,-2.117 0.29,-3.867 0.87,-5.254 0.58,-1.386 1.42,-2.586 2.53,-3.593 v -0.301 h -14.67 v 0.301 c 1.11,0.91 1.96,2.062 2.54,3.449 0.57,1.387 0.87,3.191 0.87,5.41"
         style="fill:#4f4c4c;fill-opacity:1;fill-rule:nonzero;stroke:none"
         transform="matrix(0.13333333,0,0,-0.13333333,0,72.346667)" />
      <path
         id="path43"
         d="m 1140.7,268.594 v 30.293 c 0,3.125 -0.17,5.285 -0.49,6.476 -0.33,1.18 -1.2,2.332 -2.61,3.446 l 20.18,0.144 c -1.41,-1.16 -2.28,-2.332 -2.6,-3.523 -0.33,-1.184 -0.5,-3.164 -0.5,-5.938 v -31.199 c 0,-2.773 0.2,-4.727 0.61,-5.871 0.4,-1.133 1.23,-2.176 2.49,-3.145 l -20.18,-0.144 c 1.41,1.062 2.31,2.371 2.72,3.933 0.25,0.957 0.38,2.805 0.38,5.528"
         style="fill:#4f4c4c;fill-opacity:1;fill-rule:nonzero;stroke:none"
         transform="matrix(0.13333333,0,0,-0.13333333,0,72.346667)" />
      <path
         id="path44"
         d="m 1178.48,281.289 10.38,-0.008 -5.29,15.125 z m -12.08,-10.82 10.21,29.414 c 0.05,0.207 0.23,0.832 0.53,1.863 0.3,1.047 0.45,1.926 0.45,2.641 0,0.859 -0.2,1.629 -0.6,2.324 -0.4,0.684 -1.14,1.375 -2.2,2.09 l 18.45,0.152 14.67,-39.598 c 0.86,-2.527 1.7,-4.441 2.53,-5.761 0.83,-1.309 2.06,-2.696 3.67,-4.16 v -0.301 h -22.91 v 0.301 c 2.07,1.164 3.1,2.597 3.1,4.308 0,0.703 -0.02,1.238 -0.07,1.59 -0.06,0.352 -0.23,0.91 -0.53,1.66 l -2.35,7.188 h -15.04 l -2.19,-6.356 c -0.2,-0.656 -0.42,-1.386 -0.65,-2.187 -0.22,-0.813 -0.36,-1.485 -0.41,-2.043 0,-0.809 0.23,-1.524 0.68,-2.156 0.45,-0.625 1.16,-1.301 2.11,-2.004 v -0.301 h -15.49 v 0.301 c 1.56,1.308 2.84,3.027 3.85,5.136 0.5,1.067 1.23,3.028 2.19,5.899"
         style="fill:#4f4c4c;fill-opacity:1;fill-rule:nonzero;stroke:none"
         transform="matrix(0.13333333,0,0,-0.13333333,0,72.346667)" />
      <path
         id="path45"
         d="m 456.859,178.477 v 0.304 l 20.946,28.953 c -0.957,0.098 -2.512,0.227 -4.653,0.383 -2.14,0.145 -3.64,0.223 -4.496,0.223 -1.918,0 -3.593,-0.203 -5.027,-0.606 -1.438,-0.398 -2.863,-1.101 -4.274,-2.117 l 3.555,7.711 h 26.914 l 0.016,-0.308 -19.977,-28.645 c 1.77,0 3.578,-0.105 5.446,-0.301 4.636,-0.508 7.004,-0.761 7.109,-0.761 1.859,0 3.602,0.253 5.215,0.761 1.609,0.496 3.426,1.387 5.441,2.645 l -4.008,-8.242 h -32.207"
         style="fill:#4f4c4c;fill-opacity:1;fill-rule:nonzero;stroke:none"
         transform="matrix(0.13333333,0,0,-0.13333333,0,72.346667)" />
      <path
         id="path46"
         d="m 515.758,204.18 c 0,3.633 1.664,6.3 5,8.019 2.625,1.356 6.035,2.039 10.222,2.039 1.872,0 3.399,-0.066 4.586,-0.183 1.188,-0.129 2.383,-0.371 3.598,-0.727 v -6.5 c -2.781,1.563 -5.988,2.344 -9.629,2.344 -2.125,0 -3.793,-0.313 -5.004,-0.949 -1.211,-0.625 -1.82,-1.59 -1.82,-2.91 0.203,-1.563 1.863,-2.891 4.988,-4.004 6.25,-2.215 9.453,-3.379 9.606,-3.477 1.761,-0.859 3.187,-2.004 4.273,-3.437 1.082,-1.434 1.625,-3.094 1.625,-4.95 0,-3.937 -1.89,-6.984 -5.676,-9.152 -3.172,-1.816 -6.879,-2.723 -11.109,-2.723 -3.68,0 -7.031,0.606 -10.055,1.817 l -2.496,7.332 c 1.871,-1.309 4.071,-2.344 6.602,-3.106 2.523,-0.75 4.953,-1.133 7.281,-1.133 2.477,0 4.5,0.383 6.066,1.133 1.571,0.762 2.43,1.895 2.579,3.41 0,1.61 -0.754,2.95 -2.274,4.004 -0.461,0.352 -3.769,1.688 -9.941,4.012 -2.68,1.055 -4.629,2.141 -5.844,3.242 -1.719,1.563 -2.578,3.535 -2.578,5.899"
         style="fill:#4f4c4c;fill-opacity:1;fill-rule:nonzero;stroke:none"
         transform="matrix(0.13333333,0,0,-0.13333333,0,72.346667)" />
      <path
         id="path47"
         d="m 553.105,227.316 c 1.309,0 2.43,-0.461 3.364,-1.398 0.933,-0.926 1.398,-2.031 1.398,-3.289 0,-1.359 -0.457,-2.492 -1.359,-3.399 -0.906,-0.91 -2.043,-1.359 -3.403,-1.359 -1.312,0 -2.421,0.449 -3.332,1.359 -0.902,0.907 -1.355,2.04 -1.355,3.399 0,1.211 0.453,2.293 1.355,3.25 0.911,0.957 2.02,1.437 3.332,1.437 z m -3.101,-42.668 v 22.207 c 0,1.555 -0.102,2.637 -0.301,3.243 -0.406,1.203 -1.234,2.129 -2.496,2.785 v 0.301 c 0.703,0 1.371,0 2.004,0 0.629,0 1.297,0 2.004,0 2.769,0 4.586,0.449 5.441,1.359 h 0.301 v -28.352 c 0,-2.273 0.145,-3.906 0.422,-4.921 0.273,-1.004 1.117,-1.836 2.527,-2.489 l -0.148,-0.304 h -12.551 v 0.304 c 1.156,0.606 1.914,1.407 2.266,2.41 0.355,0.997 0.531,2.149 0.531,3.457"
         style="fill:#4f4c4c;fill-opacity:1;fill-rule:nonzero;stroke:none"
         transform="matrix(0.13333333,0,0,-0.13333333,0,72.346667)" />
      <path
         id="path48"
         d="m 573.215,201.535 h 19.582 c -0.254,2.52 -1.289,4.453 -3.102,5.789 -1.812,1.328 -3.957,2.004 -6.425,2.004 -2.524,0 -4.739,-0.695 -6.653,-2.082 -1.914,-1.387 -3.054,-3.293 -3.402,-5.711 z m -8.469,-5.363 c 0,4.883 1.539,9.016 4.613,12.394 3.528,3.887 8.34,5.821 14.442,5.821 4.734,0 8.734,-1.574 11.98,-4.719 3.25,-3.152 4.879,-7.352 4.879,-12.59 h -27.75 c 0,-3.512 0.957,-6.57 2.875,-9.168 2.418,-3.211 5.899,-5.019 10.438,-5.43 h 1.886 c 2.067,0 4.204,0.333 6.426,0.989 2.219,0.652 4.211,1.64 5.973,2.949 l -3.555,-7.031 c -1.715,-0.657 -3.437,-1.145 -5.176,-1.477 -1.738,-0.332 -3.492,-0.488 -5.254,-0.488 -5.898,0 -10.886,1.562 -14.968,4.687 -4.539,3.477 -6.809,8.164 -6.809,14.063"
         style="fill:#4f4c4c;fill-opacity:1;fill-rule:nonzero;stroke:none"
         transform="matrix(0.13333333,0,0,-0.13333333,0,72.346667)" />
      <path
         id="path49"
         d="m 603.91,196.172 c 0,4.387 1.516,8.34 4.535,11.867 3.532,4.129 8.196,6.199 13.993,6.199 1.914,0 3.816,-0.351 5.707,-1.054 1.89,-0.711 3.714,-1.797 5.476,-3.25 v 12.39 c 0,1.465 -0.098,2.453 -0.301,2.949 -0.351,0.957 -1.234,1.895 -2.64,2.805 l 6.043,0.145 c 0.726,0 1.39,0.09 2,0.265 0.601,0.176 1.074,0.547 1.41,1.102 l 0.144,-43.399 c 0,-0.808 0,-1.464 0,-1.972 0,-1.199 0.203,-2.254 0.606,-3.133 0.402,-0.883 1.234,-1.652 2.496,-2.305 v -0.304 h -9.758 v 19.804 c 0,3.633 -1.082,6.426 -3.246,8.399 -1.918,1.758 -4.391,2.648 -7.41,2.648 -3.024,0 -5.621,-1.113 -7.789,-3.332 -2.367,-2.422 -3.551,-5.691 -3.551,-9.824 0,-4.082 1.359,-7.442 4.082,-10.059 2.52,-2.422 5.543,-3.633 9.074,-3.633 2.52,0 4.785,0.735 6.801,2.2 l -4.609,-6.809 c -0.91,-0.144 -1.539,-0.234 -1.891,-0.262 -0.355,-0.031 -1.012,-0.039 -1.969,-0.039 -4.886,0 -9.047,1.258 -12.472,3.778 -4.489,3.281 -6.731,8.215 -6.731,14.824"
         style="fill:#4f4c4c;fill-opacity:1;fill-rule:nonzero;stroke:none"
         transform="matrix(0.13333333,0,0,-0.13333333,0,72.346667)" />
      <path
         id="path50"
         d="m 645.875,178.477 v 0.304 l 20.941,28.953 c -0.957,0.098 -2.507,0.227 -4.648,0.383 -2.145,0.145 -3.645,0.223 -4.496,0.223 -1.918,0 -3.594,-0.203 -5.031,-0.606 -1.434,-0.398 -2.86,-1.101 -4.274,-2.117 l 3.559,7.711 h 26.914 l 0.012,-0.308 -19.973,-28.645 c 1.766,0 3.578,-0.105 5.441,-0.301 4.641,-0.508 7.008,-0.761 7.11,-0.761 1.863,0 3.605,0.253 5.215,0.761 1.613,0.496 3.429,1.387 5.445,2.645 l -4.008,-8.242 h -32.207"
         style="fill:#4f4c4c;fill-opacity:1;fill-rule:nonzero;stroke:none"
         transform="matrix(0.13333333,0,0,-0.13333333,0,72.346667)" />
      <path
         id="path51"
         d="m 689.273,227.316 c 1.309,0 2.43,-0.461 3.364,-1.398 0.933,-0.926 1.394,-2.031 1.394,-3.289 0,-1.359 -0.453,-2.492 -1.355,-3.399 -0.906,-0.91 -2.047,-1.359 -3.403,-1.359 -1.312,0 -2.421,0.449 -3.332,1.359 -0.902,0.907 -1.355,2.04 -1.355,3.399 0,1.211 0.453,2.293 1.355,3.25 0.911,0.957 2.02,1.437 3.332,1.437 z m -3.101,-42.668 v 22.207 c 0,1.555 -0.102,2.637 -0.305,3.243 -0.402,1.203 -1.234,2.129 -2.492,2.785 v 0.301 c 0.703,0 1.371,0 2,0 0.633,0 1.301,0 2.008,0 2.769,0 4.586,0.449 5.437,1.359 h 0.305 v -28.352 c 0,-2.273 0.141,-3.906 0.422,-4.921 0.269,-1.004 1.117,-1.836 2.527,-2.489 l -0.152,-0.304 h -12.547 v 0.304 c 1.156,0.606 1.914,1.407 2.266,2.41 0.355,0.997 0.531,2.149 0.531,3.457"
         style="fill:#4f4c4c;fill-opacity:1;fill-rule:nonzero;stroke:none"
         transform="matrix(0.13333333,0,0,-0.13333333,0,72.346667)" />
      <path
         id="path52"
         d="m 704.316,184.219 v 37.656 c 0,1.66 -0.175,2.941 -0.531,3.82 -0.351,0.879 -1.109,1.668 -2.265,2.383 l 5.746,0.145 c 1.867,0 3.101,0.461 3.703,1.367 l 0.148,-45.82 c 1.664,-0.457 2.926,-0.75 3.785,-0.907 0.856,-0.148 1.661,-0.226 2.418,-0.226 3.832,0 6.879,1.035 9.149,3.097 2.672,2.469 4.004,6.153 4.004,11.043 0,4.082 -1.203,7.149 -3.625,9.219 -2.02,1.719 -4.539,2.57 -7.563,2.57 -1.258,0 -2.453,-0.136 -3.594,-0.41 -1.128,-0.285 -2.046,-0.676 -2.757,-1.172 l 3.929,6.504 c 0.864,0.196 1.793,0.371 2.801,0.528 1.012,0.144 1.914,0.222 2.723,0.222 4.738,0 8.554,-1.738 11.453,-5.215 2.898,-3.476 4.348,-7.937 4.348,-13.386 0,-5.442 -2.004,-9.836 -6.008,-13.196 -4.012,-3.347 -9.391,-5.019 -16.145,-5.019 -2.472,0 -5.015,0.176 -7.637,0.527 -2.121,0.352 -4.21,0.672 -6.273,0.977 0.855,0.461 1.434,1.125 1.738,2.012 0.301,0.878 0.453,1.777 0.453,2.675 v 0.606"
         style="fill:#4f4c4c;fill-opacity:1;fill-rule:nonzero;stroke:none"
         transform="matrix(0.13333333,0,0,-0.13333333,0,72.346667)" />
      <path
         id="path53"
         d="m 773.418,177.57 c -1.355,-1.367 -2.219,-2.531 -2.566,-3.468 -0.356,-0.938 -0.532,-2.196 -0.532,-3.77 0,-0.41 0.278,-0.887 0.832,-1.453 0.551,-0.559 1.157,-0.832 1.817,-0.832 2.011,0 3.629,0.351 4.84,1.055 l -1.211,-3.418 c -1.317,-0.692 -2.727,-1.043 -4.235,-1.043 -1.867,0 -3.468,0.515 -4.804,1.543 -1.332,1.023 -2,2.39 -2,4.101 0,1.746 0.386,3.301 1.171,4.656 0.782,1.36 1.778,2.383 2.989,3.086 -4.235,1.055 -6.356,3.575 -6.356,7.559 v 11.797 c -1.547,-0.86 -4.015,-1.688 -7.406,-2.5 -4.988,-1.16 -7.484,-3.223 -7.484,-6.199 0,-1.965 0.726,-3.489 2.191,-4.571 1.461,-1.086 3.399,-1.633 5.82,-1.633 0.805,0 1.7,0.09 2.688,0.266 0.98,0.176 2,0.418 3.058,0.723 l -4.46,-5.598 c -0.911,-0.098 -1.563,-0.176 -1.965,-0.223 -0.407,-0.05 -1.008,-0.078 -1.817,-0.078 -3.929,0 -7.078,0.996 -9.453,2.989 -2.367,1.992 -3.551,4.441 -3.551,7.371 0,2.316 0.625,4.23 1.887,5.742 1.051,1.262 2.66,2.394 4.82,3.406 0.2,0.102 3.368,0.93 9.497,2.492 2.207,0.559 3.812,1.211 4.82,1.965 0.301,0.203 0.605,0.606 0.902,1.211 0.305,0.606 0.453,1.238 0.453,1.895 0,1.511 -0.879,2.695 -2.633,3.554 -1.355,0.653 -2.886,0.977 -4.593,0.977 -1.758,0 -3.637,-0.324 -5.645,-0.977 -1.304,-0.461 -2.812,-1.117 -4.515,-1.972 l 4.957,7.566 c 0.351,0 1.129,0.07 2.328,0.227 1.207,0.144 2.105,0.222 2.707,0.222 4.16,0 7.488,-0.859 9.992,-2.578 2.906,-1.98 4.359,-4.988 4.359,-9.043 v -13.222 c 0,-2.481 0.465,-4.247 1.395,-5.313 0.926,-1.062 2.633,-1.602 5.105,-1.602 l -3.402,-4.91"
         style="fill:#4f4c4c;fill-opacity:1;fill-rule:nonzero;stroke:none"
         transform="matrix(0.13333333,0,0,-0.13333333,0,72.346667)" />
      <path
         id="path54"
         d="m 805.957,184.629 -8.629,22.48 c -0.898,2.024 -1.367,3.086 -1.414,3.184 -0.648,1.16 -1.543,2.078 -2.687,2.734 v 0.301 c 0.859,0 1.668,0 2.421,0 0.758,0 1.536,0 2.344,0 0.606,0.043 1.285,0.11 2.043,0.199 0.758,0.086 1.434,0.321 2.039,0.711 h 0.305 c 0.098,-0.957 0.184,-1.609 0.262,-1.961 0.074,-0.351 0.242,-0.781 0.496,-1.289 l 9.011,-23.711 7.262,18.485 c 0.195,0.605 0.418,1.308 0.668,2.121 0.242,0.808 0.367,1.543 0.367,2.195 0,1.262 -0.703,2.246 -2.117,2.949 v 0.301 h 10.055 l -0.153,-1.051 c 0.106,-0.605 0.375,-1.523 0.801,-2.765 0.434,-1.231 0.903,-2.481 1.407,-3.739 l 6.609,-18.449 7.308,17.989 c 0.247,0.703 0.508,1.464 0.782,2.265 0.273,0.813 0.41,1.496 0.41,2.043 0,1.465 -0.805,2.598 -2.418,3.406 v 0.301 h 10.207 l -15.051,-36.207 c -1.207,0.703 -2.39,1.387 -3.551,2.039 -1.41,1.055 -2.492,2.695 -3.25,4.914 l -7.406,19.5 -10.285,-26.453 c -2.563,1.043 -4.434,2.246 -5.609,3.602 -0.766,0.851 -1.512,2.148 -2.227,3.906"
         style="fill:#4f4c4c;fill-opacity:1;fill-rule:nonzero;stroke:none"
         transform="matrix(0.13333333,0,0,-0.13333333,0,72.346667)" />
      <path
         id="path55"
         d="m 878.813,189.141 v 29.035 c 0,3.172 -0.122,5.262 -0.36,6.269 -0.433,1.719 -1.398,2.871 -2.89,3.477 v 0.301 h 17.691 c 5.293,0 9.324,-1.336 12.098,-4.004 2.464,-2.371 3.703,-5.516 3.703,-9.453 -0.305,-2.618 -1.36,-4.942 -3.176,-6.953 -2.066,-2.266 -4.988,-3.985 -8.77,-5.145 l 11.567,-14.434 c 0.758,-1.015 1.969,-2.277 3.629,-3.781 2.269,-2.07 4.886,-4.062 7.867,-5.976 h -7.734 c -2.016,0 -3.649,0.363 -4.887,1.093 -1.238,0.723 -2.414,1.836 -3.524,3.34 l -8.828,10.899 -6.937,10.519 c 3.629,0.543 6.578,1.629 8.847,3.25 2.871,2.063 4.309,4.766 4.309,8.098 0,2.715 -1.059,4.765 -3.176,6.121 -1.762,1.164 -4.058,1.738 -6.879,1.738 -0.957,0 -1.699,-0.039 -2.23,-0.105 -0.528,-0.078 -1.399,-0.246 -2.61,-0.5 v -33.946 c 0,-3.476 0.192,-5.867 0.567,-7.175 0.383,-1.321 1.301,-2.375 2.758,-3.188 l -14.285,-0.144 v 0.304 c 1.457,0.555 2.367,1.621 2.718,3.211 0.352,1.594 0.532,3.965 0.532,7.149"
         style="fill:#4f4c4c;fill-opacity:1;fill-rule:nonzero;stroke:none"
         transform="matrix(0.13333333,0,0,-0.13333333,0,72.346667)" />
      <path
         id="path56"
         d="m 916.234,178.477 v 0.304 l 20.946,28.953 c -0.957,0.098 -2.512,0.227 -4.653,0.383 -2.14,0.145 -3.64,0.223 -4.496,0.223 -1.918,0 -3.593,-0.203 -5.027,-0.606 -1.438,-0.398 -2.863,-1.101 -4.274,-2.117 l 3.555,7.711 h 26.914 l 0.016,-0.308 -19.977,-28.645 c 1.77,0 3.578,-0.105 5.446,-0.301 4.636,-0.508 7.004,-0.761 7.109,-0.761 1.859,0 3.602,0.253 5.215,0.761 1.609,0.496 3.426,1.387 5.441,2.645 l -4.008,-8.242 h -32.207"
         style="fill:#4f4c4c;fill-opacity:1;fill-rule:nonzero;stroke:none"
         transform="matrix(0.13333333,0,0,-0.13333333,0,72.346667)" />
      <path
         id="path57"
         d="m 961.598,201.535 h 19.586 c -0.254,2.52 -1.289,4.453 -3.102,5.789 -1.816,1.328 -3.961,2.004 -6.426,2.004 -2.523,0 -4.742,-0.695 -6.656,-2.082 -1.914,-1.387 -3.051,-3.293 -3.402,-5.711 z m -8.469,-5.363 c 0,4.883 1.539,9.016 4.613,12.394 3.528,3.887 8.344,5.821 14.442,5.821 4.734,0 8.734,-1.574 11.98,-4.719 3.254,-3.152 4.879,-7.352 4.879,-12.59 h -27.75 c 0,-3.512 0.957,-6.57 2.879,-9.168 2.414,-3.211 5.894,-5.019 10.433,-5.43 h 1.887 c 2.067,0 4.207,0.333 6.43,0.989 2.215,0.652 4.207,1.64 5.969,2.949 l -3.555,-7.031 c -1.715,-0.657 -3.438,-1.145 -5.176,-1.477 -1.738,-0.332 -3.488,-0.488 -5.254,-0.488 -5.898,0 -10.886,1.562 -14.968,4.687 -4.54,3.477 -6.809,8.164 -6.809,14.063"
         style="fill:#4f4c4c;fill-opacity:1;fill-rule:nonzero;stroke:none"
         transform="matrix(0.13333333,0,0,-0.13333333,0,72.346667)" />
      <path
         id="path58"
         d="m 993.355,204.18 c 0,3.633 1.665,6.3 5,8.019 2.625,1.356 6.035,2.039 10.225,2.039 1.87,0 3.4,-0.066 4.58,-0.183 1.19,-0.129 2.39,-0.371 3.6,-0.727 v -6.5 c -2.78,1.563 -5.99,2.344 -9.63,2.344 -2.12,0 -3.79,-0.313 -5,-0.949 -1.21,-0.625 -1.82,-1.59 -1.82,-2.91 0.2,-1.563 1.86,-2.891 4.99,-4.004 6.25,-2.215 9.45,-3.379 9.6,-3.477 1.77,-0.859 3.19,-2.004 4.27,-3.437 1.09,-1.434 1.63,-3.094 1.63,-4.95 0,-3.937 -1.89,-6.984 -5.67,-9.152 -3.18,-1.816 -6.88,-2.723 -11.12,-2.723 -3.67,0 -7.03,0.606 -10.049,1.817 l -2.496,7.332 c 1.871,-1.309 4.07,-2.344 6.601,-3.106 2.524,-0.75 4.954,-1.133 7.284,-1.133 2.47,0 4.5,0.383 6.07,1.133 1.56,0.762 2.42,1.895 2.57,3.41 0,1.61 -0.75,2.95 -2.27,4.004 -0.46,0.352 -3.77,1.688 -9.94,4.012 -2.682,1.055 -4.632,2.141 -5.846,3.242 -1.719,1.563 -2.579,3.535 -2.579,5.899"
         style="fill:#4f4c4c;fill-opacity:1;fill-rule:nonzero;stroke:none"
         transform="matrix(0.13333333,0,0,-0.13333333,0,72.346667)" />
      <path
         id="path59"
         d="m 1022.16,178.477 v 0.304 l 20.94,28.953 c -0.96,0.098 -2.51,0.227 -4.65,0.383 -2.14,0.145 -3.64,0.223 -4.49,0.223 -1.92,0 -3.6,-0.203 -5.03,-0.606 -1.44,-0.398 -2.87,-1.101 -4.28,-2.117 l 3.56,7.711 h 26.91 l 0.02,-0.308 -19.98,-28.645 c 1.77,0 3.58,-0.105 5.45,-0.301 4.63,-0.508 7,-0.761 7.1,-0.761 1.87,0 3.61,0.253 5.22,0.761 1.61,0.496 3.43,1.387 5.44,2.645 l -4,-8.242 h -32.21"
         style="fill:#4f4c4c;fill-opacity:1;fill-rule:nonzero;stroke:none"
         transform="matrix(0.13333333,0,0,-0.13333333,0,72.346667)" />
      <path
         id="path60"
         d="m 1066.62,196.777 c 0,-3.984 1.09,-7.39 3.28,-10.214 2.19,-2.821 4.93,-4.227 8.21,-4.227 h 0.6 c 3.63,0 6.48,1.316 8.55,3.953 1.81,2.324 2.72,5.215 2.72,8.664 0,3.809 -1.06,7.098 -3.18,9.883 -2.27,2.996 -5.22,4.492 -8.85,4.492 -2.67,0 -5.03,-0.832 -7.1,-2.5 -2.83,-2.265 -4.23,-5.617 -4.23,-10.051 z m -7.72,-0.984 c 0,4.941 1.59,9.121 4.77,12.547 3.62,3.937 8.69,5.898 15.19,5.898 5.14,0 9.5,-1.59 13.08,-4.765 3.88,-3.426 5.82,-7.86 5.82,-13.301 0,-5.195 -1.95,-9.59 -5.86,-13.192 -3.9,-3.605 -8.5,-5.41 -13.79,-5.41 -5.95,0 -10.72,1.864 -14.29,5.594 -3.28,3.43 -4.92,7.637 -4.92,12.629"
         style="fill:#4f4c4c;fill-opacity:1;fill-rule:nonzero;stroke:none"
         transform="matrix(0.13333333,0,0,-0.13333333,0,72.346667)" />
      <path
         id="path61"
         d="m 1109.89,184.629 -8.63,22.48 c -0.9,2.024 -1.37,3.086 -1.42,3.184 -0.65,1.16 -1.54,2.078 -2.68,2.734 v 0.301 c 0.86,0 1.66,0 2.42,0 0.76,0 1.53,0 2.34,0 0.61,0.043 1.29,0.11 2.04,0.199 0.76,0.086 1.44,0.321 2.05,0.711 h 0.3 c 0.1,-0.957 0.18,-1.609 0.26,-1.961 0.08,-0.351 0.24,-0.781 0.5,-1.289 l 9.01,-23.711 7.26,18.485 c 0.2,0.605 0.42,1.308 0.67,2.121 0.24,0.808 0.37,1.543 0.37,2.195 0,1.262 -0.71,2.246 -2.12,2.949 v 0.301 h 10.05 l -0.15,-1.051 c 0.11,-0.605 0.37,-1.523 0.8,-2.765 0.43,-1.231 0.9,-2.481 1.41,-3.739 l 6.61,-18.449 7.31,17.989 c 0.24,0.703 0.5,1.464 0.78,2.265 0.27,0.813 0.41,1.496 0.41,2.043 0,1.465 -0.81,2.598 -2.42,3.406 v 0.301 h 10.21 l -15.05,-36.207 c -1.21,0.703 -2.4,1.387 -3.55,2.039 -1.41,1.055 -2.5,2.695 -3.25,4.914 l -7.41,19.5 -10.29,-26.453 c -2.56,1.043 -4.43,2.246 -5.61,3.602 -0.76,0.851 -1.51,2.148 -2.22,3.906"
         style="fill:#4f4c4c;fill-opacity:1;fill-rule:nonzero;stroke:none"
         transform="matrix(0.13333333,0,0,-0.13333333,0,72.346667)" />
      <path
         id="path62"
         d="m 1165.36,227.316 c 1.31,0 2.43,-0.461 3.36,-1.398 0.93,-0.926 1.4,-2.031 1.4,-3.289 0,-1.359 -0.46,-2.492 -1.36,-3.399 -0.91,-0.91 -2.05,-1.359 -3.4,-1.359 -1.32,0 -2.43,0.449 -3.33,1.359 -0.91,0.907 -1.36,2.04 -1.36,3.399 0,1.211 0.45,2.293 1.36,3.25 0.9,0.957 2.01,1.437 3.33,1.437 z m -3.1,-42.668 v 22.207 c 0,1.555 -0.11,2.637 -0.31,3.243 -0.4,1.203 -1.23,2.129 -2.49,2.785 v 0.301 c 0.7,0 1.37,0 2,0 0.63,0 1.3,0 2.01,0 2.77,0 4.58,0.449 5.44,1.359 h 0.3 v -28.352 c 0,-2.273 0.14,-3.906 0.42,-4.921 0.27,-1.004 1.12,-1.836 2.53,-2.489 l -0.15,-0.304 h -12.55 v 0.304 c 1.16,0.606 1.91,1.407 2.26,2.41 0.36,0.997 0.54,2.149 0.54,3.457"
         style="fill:#4f4c4c;fill-opacity:1;fill-rule:nonzero;stroke:none"
         transform="matrix(0.13333333,0,0,-0.13333333,0,72.346667)" />
      <path
         id="path63"
         d="m 1185.46,201.535 h 19.59 c -0.26,2.52 -1.29,4.453 -3.1,5.789 -1.82,1.328 -3.96,2.004 -6.43,2.004 -2.52,0 -4.74,-0.695 -6.65,-2.082 -1.92,-1.387 -3.05,-3.293 -3.41,-5.711 z m -8.46,-5.363 c 0,4.883 1.54,9.016 4.61,12.394 3.53,3.887 8.34,5.821 14.44,5.821 4.74,0 8.74,-1.574 11.98,-4.719 3.25,-3.152 4.88,-7.352 4.88,-12.59 h -27.75 c 0,-3.512 0.96,-6.57 2.88,-9.168 2.41,-3.211 5.9,-5.019 10.43,-5.43 h 1.89 c 2.07,0 4.21,0.333 6.43,0.989 2.21,0.652 4.21,1.64 5.97,2.949 l -3.56,-7.031 c -1.71,-0.657 -3.43,-1.145 -5.17,-1.477 -1.74,-0.332 -3.49,-0.488 -5.26,-0.488 -5.89,0 -10.88,1.562 -14.97,4.687 -4.53,3.477 -6.8,8.164 -6.8,14.063"
         style="fill:#4f4c4c;fill-opacity:1;fill-rule:nonzero;stroke:none"
         transform="matrix(0.13333333,0,0,-0.13333333,0,72.346667)" />
      <path
         id="path64"
         d="m 924.711,261.516 c -1.645,-2.239 -3.191,-4.61 -3.813,-6.231 -2.046,-5.39 2.387,-7.09 5.571,-7.09 3.215,0 4.629,0.469 4.629,0.469 l -3.262,-6.699 c 0,0 -1.426,-0.391 -3.68,-0.391 -4.933,0 -12.34,1.102 -12.34,8.953 0,5.832 4.485,9.766 6.153,10.989 h 6.742"
         style="fill:#4f4c4c;fill-opacity:1;fill-rule:nonzero;stroke:none"
         transform="matrix(0.13333333,0,0,-0.13333333,0,72.346667)" />
      <path
         id="path65"
         d="m 650.629,309.473 c 1.894,0 3.535,-0.711 4.937,-2.118 1.399,-1.406 2.094,-3.125 2.094,-5.148 0,-1.961 -0.687,-3.66 -2.055,-5.105 -1.375,-1.426 -3.031,-2.149 -4.976,-2.149 -1.996,0 -3.695,0.703 -5.086,2.117 -1.398,1.418 -2.098,3.133 -2.098,5.137 0,2.023 0.7,3.742 2.098,5.148 1.391,1.407 3.09,2.118 5.086,2.118 z m -6.121,-43.7 v 18.301 c 0,1.297 -0.137,2.41 -0.406,3.281 -0.27,0.899 -1.016,1.864 -2.247,2.918 v 0.305 h 9.239 0.992 c 1.32,0 2.328,0.059 3.016,0.195 0.691,0.118 1.437,0.411 2.253,0.868 h 0.305 V 265.48 c 0,-1.718 0.16,-3.027 0.488,-3.898 0.329,-0.887 1.047,-1.758 2.161,-2.617 v -0.301 h -18.454 v 0.301 c 1.165,0.957 1.891,1.953 2.2,2.988 0.297,1.027 0.453,2.305 0.453,3.82"
         style="fill:#4f4c4c;fill-opacity:1;fill-rule:nonzero;stroke:none"
         transform="matrix(0.13333333,0,0,-0.13333333,0,72.346667)" />
    </g>
  </g>
</svg>
